<svg width="67" height="66" viewBox="0 0 67 66" fill="none" xmlns="http://www.w3.org/2000/svg">
<path d="M4.22656 48.9998C4.22656 53.1232 7.59541 56.4667 11.7511 56.4667C15.9068 56.4667 19.2756 53.1232 19.2756 48.9998C19.2756 44.8763 15.9068 41.5332 11.7511 41.5332C7.59541 41.5332 4.22656 44.8763 4.22656 48.9998Z" stroke="white" stroke-width="2" stroke-linecap="round" stroke-linejoin="round"/>
<path d="M22.4986 65C19.3324 59.1084 11.953 56.88 6.01633 60.0218C3.88362 61.1506 2.13745 62.8837 1 65" stroke="white" stroke-width="2" stroke-linecap="round" stroke-linejoin="round"/>
<path d="M47.2227 48.9998C47.2227 53.1232 50.5917 56.4667 54.7472 56.4667C58.9027 56.4667 62.2715 53.1232 62.2715 48.9998C62.2715 44.8763 58.9027 41.5332 54.7472 41.5332C50.5917 41.5332 47.2227 44.8763 47.2227 48.9998Z" stroke="white" stroke-width="2" stroke-linecap="round" stroke-linejoin="round"/>
<path d="M65.4946 65C62.3284 59.1084 54.9491 56.88 49.0124 60.0218C46.8797 61.1506 45.1335 62.8837 43.9961 65" stroke="white" stroke-width="2" stroke-linecap="round" stroke-linejoin="round"/>
<path d="M25.7227 8.46664C25.7227 12.5904 29.0916 15.9333 33.2471 15.9333C37.4027 15.9333 40.7717 12.5904 40.7717 8.46664C40.7717 4.34292 37.4027 1 33.2471 1C29.0916 1 25.7227 4.34292 25.7227 8.46664Z" stroke="white" stroke-width="2" stroke-linecap="round" stroke-linejoin="round"/>
<path d="M42.5618 22.3332C38.1798 17.2277 30.4564 16.6139 25.3113 20.9623C24.8147 21.382 24.3527 21.8405 23.9297 22.3332" stroke="white" stroke-width="2" stroke-linecap="round" stroke-linejoin="round"/>
<path d="M24.793 54.9219C30.2829 56.999 36.354 56.9805 41.8313 54.8706" stroke="white" stroke-width="2" stroke-linecap="round" stroke-linejoin="round"/>
<path d="M17.0505 15.9333C12.2938 20.354 9.59558 26.5329 9.59766 32.9999C9.59766 33.7195 9.64064 34.4221 9.70656 35.1332" stroke="white" stroke-width="2" stroke-linecap="round" stroke-linejoin="round"/>
<path d="M56.7853 35.1332C56.8482 34.4278 56.8941 33.711 56.8941 32.9999C56.8973 26.5326 54.1988 20.3534 49.4414 15.9333" stroke="white" stroke-width="2" stroke-linecap="round" stroke-linejoin="round"/>
</svg>
