<svg width="66" height="66" viewBox="0 0 66 66" fill="none" xmlns="http://www.w3.org/2000/svg">
<path d="M31.5359 1.76071C31.8769 1.07878 32.7018 0.804567 33.3786 1.14824C33.6411 1.28153 33.854 1.49623 33.9864 1.76071L36.8349 7.54747C37.0348 7.95011 37.4176 8.22858 37.8598 8.29289L44.2514 9.2232C44.7606 9.2953 45.1856 9.65104 45.3495 10.1422C45.5105 10.6317 45.3775 11.1709 45.008 11.5277L40.3836 16.0626C40.0666 16.3709 39.921 16.817 39.9941 17.2547L41.0894 23.6475C41.1739 24.1579 40.961 24.6719 40.5417 24.9705C40.1196 25.2741 39.5641 25.3125 39.1047 25.07L33.3991 22.0714C33.0003 21.8579 32.522 21.8579 32.1231 22.0714L26.4316 25.07C25.9724 25.3125 25.4167 25.2741 24.9946 24.9705C24.5754 24.6719 24.3626 24.1579 24.447 23.6475L25.5423 17.2547C25.6156 16.817 25.4698 16.3709 25.1527 16.0626L20.5143 11.5277C20.1449 11.1709 20.0119 10.6317 20.1727 10.1422C20.3366 9.65104 20.7617 9.2953 21.2709 9.2232L27.6625 8.29289C28.1047 8.22858 28.4874 7.95011 28.6874 7.54747L31.5359 1.76071Z" stroke="white" stroke-width="2" stroke-linecap="round" stroke-linejoin="round"/>
<path d="M16.7299 27.6021L14.2936 26.3218C13.8928 26.1113 13.4154 26.1113 13.0147 26.3218L7.32598 29.3091C6.86593 29.551 6.31033 29.5136 5.8862 29.2124C5.46696 28.9125 5.25518 28.3973 5.34132 27.8866L6.43387 21.4966C6.50887 21.0593 6.36401 20.6129 6.04714 20.3046L1.40586 15.7781C1.03863 15.42 0.907021 14.8817 1.06709 14.3926C1.23099 13.9015 1.6561 13.5458 2.16529 13.4737L8.55409 12.5434C8.99723 12.48 9.38134 12.2013 9.58171 11.7979L12.4331 6.01114C12.6655 5.54429 13.14 5.25005 13.6583 5.25153" stroke="white" stroke-width="2" stroke-linecap="round" stroke-linejoin="round"/>
<path d="M48.7891 27.6021L51.2254 26.319C51.6262 26.1085 52.1036 26.1085 52.5044 26.319L58.1932 29.3091C58.6533 29.551 59.2085 29.5136 59.6329 29.2124C60.052 28.9125 60.2637 28.3973 60.1776 27.8866L59.0851 21.4966C59.0105 21.0593 59.1549 20.6129 59.4716 20.3046L64.1131 15.7667C64.4803 15.4086 64.6121 14.8703 64.4519 14.3812C64.288 13.8901 63.8631 13.5344 63.3537 13.4623L56.9647 12.532C56.5219 12.4686 56.138 12.19 55.9373 11.7866L53.0858 6.01114C52.8537 5.54429 52.3788 5.25005 51.8604 5.25153" stroke="white" stroke-width="2" stroke-linecap="round" stroke-linejoin="round"/>
<path d="M46.9556 65C40.1043 57.0964 28.1927 56.2866 20.3499 63.1908C19.7119 63.7524 19.1121 64.3569 18.5547 65" stroke="white" stroke-width="2" stroke-linecap="round" stroke-linejoin="round"/>
<path d="M22.7227 36.5411C28.3145 42.3763 36.9054 44.1164 44.3 40.9112" stroke="white" stroke-width="2" stroke-linecap="round" stroke-linejoin="round"/>
<path d="M21.1133 42.4987C21.1133 48.9803 26.3271 54.2344 32.7588 54.2344C39.1904 54.2344 44.4043 48.9803 44.4043 42.4987C44.4043 36.0172 39.1904 30.7629 32.7588 30.7629C26.3271 30.7629 21.1133 36.0172 21.1133 42.4987Z" stroke="white" stroke-width="2" stroke-linecap="round" stroke-linejoin="round"/>
</svg>
