<svg width="66" height="66" viewBox="0 0 66 66" fill="none" xmlns="http://www.w3.org/2000/svg">
<path d="M47.5735 16.926V62.8667C47.5735 64.0447 46.6257 64.9999 45.4566 64.9999H11.5857C10.4166 64.9999 9.46875 64.0447 9.46875 62.8667V18.0667" stroke="white" stroke-width="2" stroke-linecap="round" stroke-linejoin="round"/>
<path d="M56.0391 56.4666L60.2727 65L64.5068 56.4666V28.7334C64.5068 26.377 62.6111 24.4667 60.2727 24.4667C57.9343 24.4667 56.0391 26.377 56.0391 28.7334V56.4666Z" stroke="white" stroke-width="2" stroke-linecap="round" stroke-linejoin="round"/>
<path d="M9.46875 1C14.1454 1 17.9365 4.82052 17.9365 9.53337C17.9365 14.2462 14.1454 18.0667 9.46875 18.0667H43.3397C48.0164 18.0667 51.8074 14.2462 51.8074 9.53337C51.8074 4.82052 48.0164 1 43.3397 1H9.46875Z" stroke="white" stroke-width="2" stroke-linecap="round" stroke-linejoin="round"/>
<path d="M9.46772 1C4.79116 1 1 4.82052 1 9.53337V43.6668" stroke="white" stroke-width="2" stroke-linecap="round" stroke-linejoin="round"/>
<path d="M24.2852 30.8667L28.519 35.1334L34.8699 28.7334" stroke="white" stroke-width="2" stroke-linecap="round" stroke-linejoin="round"/>
<path d="M24.2852 45.8001L28.519 50.0668L34.8699 43.6668" stroke="white" stroke-width="2" stroke-linecap="round" stroke-linejoin="round"/>
</svg>
