<svg width="67" height="66" viewBox="0 0 67 66" fill="none" xmlns="http://www.w3.org/2000/svg">
<path d="M11.7539 30.8666H54.7509" stroke="white" stroke-width="2" stroke-linecap="round" stroke-linejoin="round"/>
<path d="M21.2154 39.4L20.3555 30.8666H46.1538L45.2939 39.4" stroke="white" stroke-width="2" stroke-linecap="round" stroke-linejoin="round"/>
<path d="M25.7305 8.46664C25.7305 12.5904 29.0994 15.9333 33.255 15.9333C37.4105 15.9333 40.7795 12.5904 40.7795 8.46664C40.7795 4.34292 37.4105 1 33.255 1C29.0994 1 25.7305 4.34292 25.7305 8.46664Z" stroke="white" stroke-width="2" stroke-linecap="round" stroke-linejoin="round"/>
<path d="M42.5657 22.3332C38.1837 17.2277 30.4603 16.6139 25.3152 20.9623C24.8186 21.382 24.3566 21.8405 23.9336 22.3332" stroke="white" stroke-width="2" stroke-linecap="round" stroke-linejoin="round"/>
<path d="M2.79297 51.1332C2.79297 55.2569 6.1618 58.5999 10.3175 58.5999C14.4732 58.5999 17.842 55.2569 17.842 51.1332C17.842 47.0096 14.4732 43.6665 10.3175 43.6665C6.1618 43.6665 2.79297 47.0096 2.79297 51.1332Z" stroke="white" stroke-width="2" stroke-linecap="round" stroke-linejoin="round"/>
<path d="M19.6322 65C15.25 59.8943 7.52674 59.2804 2.38162 63.6288C1.885 64.0485 1.42298 64.5068 1 65" stroke="white" stroke-width="2" stroke-linecap="round" stroke-linejoin="round"/>
<path d="M25.7305 51.1332C25.7305 55.2569 29.0994 58.5999 33.255 58.5999C37.4105 58.5999 40.7795 55.2569 40.7795 51.1332C40.7795 47.0096 37.4105 43.6665 33.255 43.6665C29.0994 43.6665 25.7305 47.0096 25.7305 51.1332Z" stroke="white" stroke-width="2" stroke-linecap="round" stroke-linejoin="round"/>
<path d="M42.5657 65C38.1837 59.8943 30.4603 59.2804 25.3152 63.6288C24.8186 64.0485 24.3566 64.5068 23.9336 65" stroke="white" stroke-width="2" stroke-linecap="round" stroke-linejoin="round"/>
<path d="M48.6641 51.1332C48.6641 55.2569 52.033 58.5999 56.1884 58.5999C60.3439 58.5999 63.7133 55.2569 63.7133 51.1332C63.7133 47.0096 60.3439 43.6665 56.1884 43.6665C52.033 43.6665 48.6641 47.0096 48.6641 51.1332Z" stroke="white" stroke-width="2" stroke-linecap="round" stroke-linejoin="round"/>
<path d="M65.5035 65C61.1213 59.8943 53.3976 59.2804 48.2528 63.6288C47.756 64.0485 47.2942 64.5068 46.8711 65" stroke="white" stroke-width="2" stroke-linecap="round" stroke-linejoin="round"/>
</svg>
