<svg xmlns="http://www.w3.org/2000/svg" width="21" height="21" viewBox="0 0 21 21" fill="none">
    <path d="M20.1058 20.8036C19.8615 21.0479 19.4654 21.0479 19.2211 20.8036L11.8365 13.419C11.2115 13.9511 10.4928 14.3629 9.68026 14.6546C8.86776 14.9462 8.05125 15.0921 7.23073 15.0921C5.22865 15.0921 3.53422 14.3991 2.14745 13.013C0.760656 11.627 0.0672607 9.93351 0.0672607 7.93251C0.0672607 5.93151 0.760271 4.2367 2.14629 2.84807C3.53231 1.45945 5.22582 0.765137 7.22682 0.765137C9.22784 0.765137 10.9227 1.45852 12.3113 2.84529C13.6999 4.23206 14.3942 5.9265 14.3942 7.92861C14.3942 8.79719 14.2404 9.63773 13.9327 10.4502C13.625 11.2627 13.2211 11.9575 12.7211 12.5344L20.1058 19.919C20.35 20.1633 20.35 20.5593 20.1058 20.8036ZM7.23073 13.8421C8.8894 13.8421 10.2896 13.2712 11.4314 12.1293C12.5733 10.9875 13.1442 9.58725 13.1442 7.92861C13.1442 6.26996 12.5733 4.86972 11.4314 3.72789C10.2896 2.58605 8.8894 2.01514 7.23073 2.01514C5.57208 2.01514 4.17184 2.58605 3.03001 3.72789C1.8882 4.86972 1.31729 6.26996 1.31729 7.92861C1.31729 9.58725 1.8882 10.9875 3.03001 12.1293C4.17184 13.2712 5.57208 13.8421 7.23073 13.8421Z" fill="black"/>
</svg>