<svg width="93" height="120" fill="#121623" xmlns="http://www.w3.org/2000/svg"><path d="M31.556 10.91c.137.342.342.685.48 1.028l.067.137c.137.344.274.687.411 1.098v.069l.89-.824h1.232c.137-.548.685-.96 1.3-.96.754 0 1.37.617 1.37 1.372 0 .755-.616 1.372-1.37 1.372-.615 0-1.163-.411-1.3-.96h-.89l-.89.755c.206.617.48 1.303.685 1.99h3.217l1.848-1.853h5.682l2.327 2.332c.206-.137.41-.205.616-.205.753 0 1.37.617 1.37 1.372 0 .755-.617 1.372-1.37 1.372a1.375 1.375 0 01-1.369-1.372c0-.206.069-.48.206-.618l-2.054-2.058h-5.065L37.1 16.81h-3.285c.068.137.068.274.137.411.137.343.205.686.273 1.03.069.342.206.823.343 1.234h1.848l1.711-1.715h3.354l4.997 5.009a1.37 1.37 0 011.848.617c.343.686.069 1.51-.616 1.853-.068.068-.273.137-.479.137a1.375 1.375 0 01-1.369-1.372c0-.206.069-.412.137-.618l-4.791-4.803h-2.739l-1.71 1.716h-1.986l.205 1.029c-6.434 1.372-11.157 6.93-11.5 13.516.206 0 .343 0 .548.069l.89.068c.274-5.969 4.518-10.977 10.336-12.212a12.7 12.7 0 01.274 1.578c-5.134 1.098-8.899 5.626-9.036 10.909l1.438.412v-.07c0-4.665 3.217-8.781 7.803-9.81-.068-.48-.137-.892-.205-1.304l2.601 2.607h16.155l4.791-4.803a1.108 1.108 0 01-.205-.617c0-.755.616-1.372 1.369-1.372s1.369.617 1.369 1.372c0 .755-.616 1.372-1.37 1.372-.204 0-.478-.068-.615-.206l-4.997 5.009H37.922L35.8 25.798v.137c.068.48.137.96.137 1.44-3.765.893-6.366 4.323-6.366 8.165 0 .275 0 .48.068.755l.274.137.069.069.547.274.274.138.205.137.274.137a6.782 6.782 0 01-.205-1.647 6.895 6.895 0 015.065-6.655c0 .48.069.96.069 1.51v.137c-2.739.96-4.176 3.98-3.218 6.724a5.355 5.355 0 002.26 2.813c.136-.48.273-.96.41-1.51-1.643-1.303-1.985-3.705-.684-5.351.342-.48.82-.824 1.3-1.098v-1.098c2.738.823 5.545 1.304 8.42 1.372l1.574-1.578a1.109 1.109 0 01-.205-.617c0-.755.616-1.441 1.369-1.441s1.437.617 1.437 1.372c0 .755-.616 1.44-1.369 1.44-.274 0-.48-.068-.753-.205l-1.095 1.098h.89a29.76 29.76 0 008.488-1.441l.205-.069 3.97-3.979a1.161 1.161 0 01-.205-.686c0-.755.616-1.372 1.369-1.372s1.369.617 1.369 1.372c0 .755-.616 1.372-1.37 1.372-.204 0-.41-.069-.615-.137l-2.26 2.333-.478.48-.206.206.753-.206c-.41.549-.821 1.098-1.163 1.646.068 1.098.205 2.196.41 3.294 1.438-1.99 2.67-4.048 3.697-6.312l.068-.137c.959-.48 1.917-.893 2.875-1.441a86.84 86.84 0 010 5.969c-.274 6.586.548 13.173 2.259 19.554-.548-.618-1.164-1.304-1.643-1.921a28.796 28.796 0 00-2.6-.755c-.685.274-1.438.617-2.191.96 2.258.275 4.449.892 6.57 1.784 0 0 .617.687.89.961 0-1.372-.068-2.744-.136-4.117 1.848 3.362 3.628 6.107 4.997 8.577 1.369 2.401 2.327 4.94 2.943 7.615.342 1.99.342 4.049-.068 6.038l1.3.069c.411-2.127.411-4.254 0-6.381-.41-1.921-1.026-3.774-1.916-5.557-.89-4.254-3.834-8.92-7.53-13.791a167.5 167.5 0 00-1.3-11.252c-.411-2.676-.685-5.42-.89-8.165l.821-.48c.89 5.763 3.696 11.252 6.777 15.574 2.532 3.98 3.97 6.038 5.27 9.4a27.637 27.637 0 011.643 7.41c1.712-5.9-.274-12.007-3.56-17.496 0 0 0-.068-.068-.068 0 0 0-.069-.068-.069-.069-.137-.205-.274-.274-.412-2.19-3.636-5.75-8.027-6.982-10.291a88.1 88.1 0 01-2.19-4.323l1.095-.686c2.67 6.038 6.777 11.32 12.047 15.369 1.917 7.959 1.985 11.595 1.985 14.82 2.328-7.685 1.301-15.986-2.875-22.848 1.233.892 2.465 1.784 3.697 2.54-.41-.55-.685-1.167-.89-1.853-3.012-3.225-6.777-7.067-9.925-10.84l.273-.207c.411-.343.822-.617.822-.617a57.716 57.716 0 008.762 6.998l.41-1.44c-2.464-2.47-4.997-4.803-7.324-7.068l.137-.137c.205-.137.342-.343.547-.48l.753-.686.343-.343-1.233-1.235h-2.874l-2.602-2.676V4.87c-.616-.48-1.232-.892-1.78-1.303v14.477l1.37 1.372c.205-.137.41-.137.616-.137.753 0 1.369.617 1.369 1.372 0 .755-.616 1.372-1.37 1.372a1.375 1.375 0 01-1.368-1.372c0-.275.068-.48.205-.686l-1.643-1.647v-15.3a12.052 12.052 0 00-1.574-.96v11.457l-9.857 9.812c.41.686.137 1.509-.48 1.852-.615.343-1.505.206-1.916-.48a1.332 1.332 0 01.48-1.853c.205-.137.479-.206.684-.206.205 0 .41.07.616.138l9.583-9.606V1.715c-.205-.068-.41-.137-.616-.137-.342 0-.616 0-.958.069v4.528h-5.408l-1.164-1.166a29.764 29.764 0 01-5.75 3.293l1.438 1.44h1.78l1.437-1.44H57.5l2.533 2.539c.684-.344 1.506-.07 1.848.548.342.618.068 1.51-.548 1.853-.684.343-1.506.068-1.848-.549-.137-.206-.137-.412-.137-.686 0-.206.069-.48.205-.618l-2.258-2.264H54.76l-1.438 1.441H50.86l-1.916-1.921a8.257 8.257 0 01-2.602.412c-1.848 0-3.628-.961-5.407-2.265H29.639v.069c.137.412.343.823.548 1.304a14.06 14.06 0 00-6.64-2.127l-.274.206v.274c0 .343-.068.618-.068.96 3.149 0 6.16 1.236 8.35 3.431zm8.83 14.476a1.375 1.375 0 01-1.369-1.372c0-.275.069-.48.205-.686l-.616-.618h-3.354c-.068-.274-.137-.549-.137-.755h3.765l.822.824c.205-.069.41-.137.616-.137.753 0 1.369.617 1.369 1.372 0 .754-.548 1.372-1.3 1.372zM68.04 24.7c.274-.137.548-.343.822-.55a40.56 40.56 0 007.392 7.548c.685 2.401 1.301 4.597 1.78 6.518l-.821-1.029c-4.244-5.283-7.05-8.92-9.173-12.487zM31.214 10.086l1.642-1.647h5.066l2.396 2.402h7.05l2.875 2.881h3.354l1.848 1.784c.206-.137.411-.206.616-.206.753 0 1.37.618 1.37 1.372 0 .755-.617 1.373-1.37 1.373a1.375 1.375 0 01-1.369-1.373c0-.206.069-.48.206-.617l-1.575-1.578H49.97l-2.875-2.882h-7.187L37.51 9.262h-4.38l-1.644 1.647-.273-.823zM59.074 80.069c-.343 2.538-1.37 5.42-2.875 9.81a5.2 5.2 0 001.437-.205c1.438-4.048 2.396-6.861 2.738-9.4.342-2.607.548-3.773 1.027-6.586.479-2.676.684-5.146-1.848-6.93-2.122-1.44-4.792-1.372-7.256.206a56.837 56.837 0 00-5.613 4.185 29.964 29.964 0 00-4.655 4.666c-2.053 2.332-2.327 4.803-2.738 7.615l-.137.892a15.168 15.168 0 01-1.643 5.352v.069h1.37c.82-1.647 1.3-3.362 1.505-5.215l.137-.892c.342-2.744.685-4.871 2.396-6.93a35.244 35.244 0 014.518-4.528 45.689 45.689 0 015.476-4.116c1.164-.755 3.49-1.784 5.75-.206 1.78 1.235 1.848 2.813 1.3 5.626-.547 2.813-.547 3.91-.89 6.587zM22.794 30.326h-.068c-5.476 0-9.994-4.391-9.994-9.949v-.068c-.48.137-.958.343-1.438.411.206 6.038 5.066 10.84 11.09 11.047.068-.48.205-.96.41-1.441zM23.068 39.52l-.41 1.44h.068c4.244 0 8.009 2.608 9.446 6.587l.822-1.646c-1.849-3.843-5.682-6.313-9.926-6.381zM34.773 76.432l1.985 1.99h.89v-12.35h-.89l-1.985 1.99v8.37zM18.824 36.02l-1.438-.411v.069c0 5.488-4.38 10.017-9.856 10.017H7.46c.137.48.342.96.41 1.44 6.024-.205 10.816-5.077 10.953-11.114zM21.973 34.305c0-.343.068-.617.068-.96-3.56-.137-6.913-1.784-9.309-4.528.137.754.205 1.509.205 2.264 2.465 2.264 5.613 3.567 8.967 3.773 0-.206 0-.343.069-.549z" /><path d="M7.461 42.676a6.737 6.737 0 01-1.643-.206l.206.274.137.206.137.275c.068.137.205.343.273.549l.069.068c.068.069.068.137.137.275.273 0 .479.068.753.068 4.586 0 8.282-3.773 8.282-8.439 0-.274 0-.549-.068-.755l-.274-.137-.069-.068-.479-.275-.342-.206-.137-.068-.342-.206a6.78 6.78 0 01.205 1.647c.069 3.842-2.943 6.93-6.845 6.998zM37.648 65.317v-11.87c-.274-.137-.547-.342-.89-.48l-1.985 1.99v8.37l1.985 1.99h.89zM43.74 58.319a46.276 46.276 0 00-4.38-3.705l-1.233-.823v11.526h5.613V58.32zM38.401 83.568l.069-.343c.205-1.167.41-2.402.684-3.568 0-.069 0-.137.069-.275l.068-.274h-1.095v5.763l.068-.274c0-.137.069-.274.069-.48l.068-.55z" /><path d="M63.865 76.981c.274-1.44.547-2.744.753-3.98.684-3.91.137-6.517-1.643-8.301-1.643-1.647-3.012-1.647-5.887-1.441-.616.069-1.095.069-1.506.069a9.784 9.784 0 00-4.38 1.029 19.472 19.472 0 00-6.024 3.773l-1.164.96c-.616.55-1.232.961-1.78 1.51l.206-.411c.205-.48.41-.892.616-1.373.068-.205.205-.343.274-.548.136-.344.342-.686.547-1.03v-1.166h-5.613v12.35h1.3V78.216c0-.137.07-.274.138-.412l.342-1.303.205-.618c.137-.411.274-.823.41-1.166.07-.275.206-.48.275-.755 0-.068 0-.068.068-.137a27.922 27.922 0 013.833-3.705l1.233-.96c1.71-1.51 3.628-2.745 5.75-3.568 1.232-.618 2.532-.892 3.901-.892.41 0 .959 0 1.575-.069 2.943-.206 3.696-.137 4.928 1.098 1.027.96 2.054 2.676 1.3 7.136-.205 1.235-.478 2.538-.752 3.979-.548 2.95-1.233 6.312-1.575 9.468a48.947 48.947 0 002.122-5.214c.069-1.51.274-2.882.548-4.117zM31.214 52.213h.821l.959-.96c-.548-.207-1.164-.413-1.78-.618v1.578zM91.725 107.17a.937.937 0 00.958-.961c0-.549-.41-.96-.958-.96a.936.936 0 00-.959.96c0 .549.411.961.959.961zM77.35 62.573l-1.027-.618c.822-4.322-.547-8.85-2.806-13.173l-.069-.206c-1.437-2.744-4.654-7.821-5.75-10.36l-1.437-3.362a30.183 30.183 0 003.285 11.87c.137.274.206.48.343.686 1.437 2.813 3.628 6.655 4.654 9.331.616 1.578 1.027 3.225 1.37 4.871h.068c.205.618.41.96.547 1.304.343.755.548 1.166 1.096 4.048a17.09 17.09 0 010 5.283l1.3.069a19.37 19.37 0 000-5.627c-.205-1.303-.479-2.607-.958-3.91l.342.205c1.027-1.92 2.122-3.773 3.217-5.626 2.807-4.596 5.956-8.987 9.515-13.104l-1.027-1.03-.41.618a116.768 116.768 0 01-4.381 6.861c-2.875 3.911-5.408 7.822-7.872 11.87z" /><path d="M85.906 52.007c2.19-1.441 4.381-2.813 6.709-4.048.068-.343 0-.618-.069-.96l-.41-1.03c-2.396 1.715-4.518 3.705-6.23 6.038zM73.037 72.11c.137-2.333.069-4.734-.273-6.998-.411-2.196-1.37-4.323-2.807-6.038-.274-.412-.547-.755-.821-1.167-1.37-2.127-5.476-4.322-7.256-5.008-1.3-.48-3.08-.48-5.134-.275-.753.48-1.506.96-2.327 1.51l.616-.069c2.738-.206 5.065-.411 6.366.069 1.711.617 5.407 2.676 6.571 4.528.274.412.548.755.822 1.166 1.3 1.578 2.19 3.431 2.532 5.49.274 2.264.41 4.596.206 6.929.616-.069 1.095-.137 1.505-.137zM92.409 49.125a28.29 28.29 0 00-9.994 7.959c2.807-2.196 5.955-3.98 9.241-5.352.342-.892.548-1.715.753-2.607z" /><path d="M70.23 72.453c.138-2.95-.136-5.97-.82-8.851-.822-2.813-2.876-4.185-4.998-5.283-2.395-1.166-5.133-.823-8.624-.274l-.616.068c-1.301.206-2.26.275-3.15.343-.889.069-1.71.137-2.669.275-.479.549-.89 1.029-1.3 1.578 1.369-.275 2.738-.48 4.107-.55.89-.068 1.916-.136 3.217-.342l.616-.069c3.286-.48 5.887-.823 7.872.206 2.122 1.098 3.696 2.264 4.312 4.46.685 2.95.959 5.9.822 8.92a3.07 3.07 0 011.232-.481zM88.165 61.955c-2.806.275-5.476 1.03-8.009 2.196l-.684-.343.068.206c.753 2.47 1.232 4.254 1.096 6.312-.069.755-.137 1.51-.206 2.127.48 0 .89 0 1.3-.069.07-.617.138-1.303.206-1.99a16.562 16.562 0 00-.821-5.763l.684.412c1.643-.275 3.56-.48 5.613-.686.206-.824.48-1.647.753-2.402zM91.04 53.585c-4.312 1.372-8.214 3.499-10.747 6.792 2.19-1.578 5.75-2.95 9.789-4.185a63.43 63.43 0 00.958-2.607zM89.603 57.702c-4.381 1.029-8.351 2.744-10.816 5.626.069.068.137.068.206.137 2.327-1.372 5.75-2.333 9.788-3.225.206-.823.48-1.715.822-2.538z" /><path d="M85.632 69.708c.274-.754.617-1.92 1.096-3.361-.959 0-1.917 0-2.738.068l-.343-.274-.273-.206c-.137-.069-.274-.206-.411-.275l-.342-.205-.137-.07a12.493 12.493 0 01.616 6.725 4.558 4.558 0 001.437-.618 12.95 12.95 0 00-.342-4.871c1.027.96 1.643 1.921 1.438 3.087zM57.841 56.26c1.232.07 2.465.138 3.628.412.342.069.685-.205.753-.548.069-.344-.205-.687-.547-.755a36.343 36.343 0 00-3.834-.412c-1.711 0-3.422.206-5.065.48-.616.48-1.232 1.03-1.78 1.647 2.19-.48 4.518-.755 6.845-.823zM28.886 4.391c0 .069 0 .137.069.206.068.069.068.343.137.549l.068.206c.069.205.137.411.206.548v.07h10.54c-.889-.687-1.779-1.442-2.6-2.128h-4.039a1.32 1.32 0 01-1.3 1.03 1.375 1.375 0 01-1.37-1.373c0-.755.617-1.372 1.37-1.372.616 0 1.095.412 1.3.96h3.08c-2.19-1.715-4.175-3.018-5.75-2.058-.342.206-.684.412-.89.755-.068.068-.136.206-.205.274-.068.069-.068.138-.136.206a.525.525 0 00-.137.343c0 .069-.069.206-.069.275 0 .137-.068.205-.068.343-.069.206-.069.411-.069.617v.206c-.205.069-.205.206-.137.343zM61.195 5.352v-3.5a18.332 18.332 0 00-5.134 2.676l.822.824h4.312zM82.21 23.877c.205-.48.342-.961.547-1.373a113.258 113.258 0 00-6.023-5.077l.479-.412.205-.205.069-.069c.205-.137.41-.343.616-.48l.821-.55-1.574-1.577h-3.628l-2.19-2.196V7.204c-.754-.617-1.507-1.166-2.26-1.715v9.056l2.191 2.196h2.943l1.506 1.51-.547.548-.343.343c2.19 1.578 4.724 3.225 7.188 4.735zM27.86 5.009c0-.824.068-1.647.274-2.402L26.49 3.842c0 .275-.069.55-.069.892.48.069.959.206 1.438.412v-.137z" /><path d="M77.624 13.31l1.985 1.99c-.137.069-.343.137-.548.275 1.574.823 3.217 1.715 4.86 2.675a2.995 2.995 0 00-.753-2.47c-.274-.274-.547-.48-.89-.617h.069c-1.096-.823-3.218-2.333-5.613-4.048-.274.343-.685.617-1.096.617-.753-.068-1.369-.686-1.3-1.44 0-.275.068-.48.274-.755l-2.26-1.715v3.773l1.712 1.715h3.56zM57.362 38.148c.206.891.48 1.852.822 2.813 0 .068.068.137.068.205 1.985-3.499 3.354-7.341 4.107-11.252-1.916 2.539-3.628 5.283-4.997 8.233zM83.374 51.595c1.3-3.91 1.916-8.096 1.642-12.281a30.7 30.7 0 01-2.259-2.058c.206 3.224.343 7.753.617 14.34zM62.359 35.197c0 .069-1.37 4.185-2.875 8.851.342.755.753 1.51 1.164 2.196 1.3-3.5 1.848-7.273 1.711-11.047zM88.234 41.852l-1.575-1.234c-.068 1.852 0 3.773.137 5.625a47.012 47.012 0 001.438-4.39zM.821 48.165l-.205-.206c-.068-.069-.137-.206-.205-.343-.069-.069-.069-.137-.137-.137.342.96.89 2.744 1.506 4.734h2.738v-3.02H3.49a11.293 11.293 0 00-2.464-5.35 3.893 3.893 0 00-.822 1.234c.89 1.167 1.506 2.47 1.78 3.842-.41-.137-.89-.411-1.164-.754zM24.574 66.072h-.89l-1.985 1.99v4.116c.958.206 1.985.48 2.875.96v-7.066zM31.214 79.177v7.753c.616 1.51 1.437 2.607 2.67 2.744h.136v-8.508l-1.985-1.99h-.821zM27.517 107.787c-2.67-.068-4.928 2.059-4.997 4.734-.068 2.676 2.054 4.94 4.724 5.009 2.67.069 4.928-2.058 4.997-4.734v-.137c.068-2.608-1.917-4.803-4.518-4.872h-.206zm0 8.439c-1.985.138-3.627-1.372-3.764-3.362-.137-1.989 1.369-3.636 3.354-3.773s3.628 1.372 3.765 3.362v.206a3.338 3.338 0 01-3.218 3.567h-.137zM31.214 52.967v12.35h.821l1.985-1.99v-8.37l-1.985-1.99h-.821zM31.214 66.072v12.35h.821l1.985-1.99v-8.37l-1.985-1.99h-.821zM24.574 48.988l-1.438-.206-.479-.068-.958-.138v1.647l1.985 1.99h.89v-3.225zM30.735 79.177h-1.712c.685 2.058 1.164 4.39 1.712 6.243v-6.243zM21.699 54.957v8.37l1.985 1.99h.89v-12.35h-.89l-1.985 1.99zM30.735 52.967h-5.613v12.35h5.613v-12.35zM23.479 36.432v.48c0 .344-.069.618-.137.961a12.984 12.984 0 0110.404 6.106c.206-.548.411-1.029.617-1.646-2.465-3.5-6.503-5.626-10.884-5.9zM56.883 80.96c-.342-.068-.684.138-.821.48-.548 1.853-2.602 5.49-4.176 8.44h1.506c1.574-2.882 3.423-6.175 3.97-8.096 0-.412-.205-.755-.479-.824zM79.95 118.01a.937.937 0 00-.957.961c0 .549.41.96.958.96a.936.936 0 00.958-.96c0-.549-.479-.961-.958-.961zM67.356 67.513c-.274-4.391-2.259-5.9-3.833-6.38-2.054-.687-4.176-.893-6.298-.687-2.943.206-5.818.755-8.693 1.578-.821.274-1.643.617-2.464 1.03.068-.138.137-.207.205-.344.205-.274.342-.549.48-.823-.822-1.098-1.712-2.059-2.602-3.02v6.45h.48c1.3-.823 2.737-1.51 4.243-2.058 2.738-.755 5.545-1.304 8.351-1.51 1.985-.205 3.97 0 5.819.618 1.71.549 2.67 2.264 2.874 5.215.137 2.881-.136 5.831-.752 8.644.479-.754 1.026-1.509 1.71-2.126.48-2.127.617-4.392.48-6.587z" /><path d="M91.109 115.334h-7.393v-6.655h-1.37v6.655h-7.46c.41-.96.547-1.989.547-3.018.069-2.265-1.643-4.117-3.902-4.186h-.205c-2.259 0-4.107 1.853-4.107 4.117v.069a4.26 4.26 0 001.232 3.018c.41.412.89.687 1.37.892l.136.069.205.069a.749.749 0 00.343.068l.205.069h1.985c-1.164 1.441-2.943 2.195-4.791 2.195v1.235a7.246 7.246 0 006.365-3.43h18.14v-7.822H91.04l.069 6.655zM74.2 112.453c0 1.029-.274 1.99-.684 2.881h-2.19a3.101 3.101 0 01-3.218-2.881c-.137-1.715 1.163-3.088 2.875-3.225a3.103 3.103 0 013.217 2.882V112.453zM82.757 118.01a.937.937 0 00-.958.961c0 .549.41.96.958.96a.936.936 0 00.959-.96c0-.549-.48-.961-.959-.961zM60.99 108.062c-2.259 0-4.107 1.852-4.107 4.116v.069c0 1.166.48 2.264 1.3 3.087h-4.449v4.597h1.37v-3.43h6.776l.342-.069.206-.068.136-.069c1.575-.617 2.602-2.196 2.533-3.911.069-2.264-1.711-4.185-4.038-4.185 0-.069 0-.069-.069-.137zm.069 7.341a3.101 3.101 0 01-3.218-2.882c-.137-1.715 1.164-3.087 2.875-3.224a3.101 3.101 0 013.217 2.881v.138c.069 1.578-1.095 2.95-2.738 3.018-.068.069-.136.069-.136.069zM36.895 88.37l.206-.411c.068-.069.068-.137.136-.206.069-.069.137-.274.206-.412.068-.137.068-.206.137-.274.068-.069.068-.206.068-.275v-7.684h-.89l-1.985 1.99v8.508c.137 0 .206-.07.342-.07.137 0 .274-.068.343-.068.068 0 .137-.068.205-.068.41-.206.822-.55 1.095-.892l.137-.137zM30.735 66.072h-5.613v7.273c.273.137.547.274.753.48 1.369.96 2.258 2.676 2.943 4.597h1.985v-12.35h-.069zM41.07 113.688l-3.627-5.763h-.958v9.399h1.369v-6.312l2.738 4.322h.958l2.806-4.322v6.312h1.301v-9.399h-.958l-3.628 5.763zM50.654 79.863l-.41.343c-2.944 2.538-5.135 5.832-6.435 9.468h1.369c1.3-3.293 3.286-6.244 5.955-8.508l.41-.343a14.777 14.777 0 003.766-5.969c.273-.754.41-1.647-.137-2.058-.548-.412-1.506 0-2.396.549l-.342.206c-.959.549-2.601 2.401-4.518 4.528l-.89 1.029a10.859 10.859 0 00-2.396 4.117c-.137.343.069.686.41.823.343.137.685-.069.822-.412.411-1.372 1.096-2.607 2.122-3.636l.959-1.03c1.3-1.509 3.285-3.773 4.175-4.253l.342-.206c.206-.137.48-.274.753-.411 0 .137-.068.274-.136.48-.685 2.058-1.849 3.98-3.355 5.489" /><path d="M56.336 79.177c2.874-4.186 2.464-7.067 1.574-8.783-.41-.891-1.232-1.578-2.19-1.715-1.164-.137-2.328.343-3.15 1.167-.547.548-1.3 1.166-2.258 1.92-1.232 1.03-2.738 2.265-4.45 3.843-3.08 2.813-3.422 4.94-3.833 7.616l-.068.48c-.274 1.99-.753 3.98-1.506 5.9h1.369c.684-1.852 1.095-3.773 1.369-5.694l.068-.48c.411-2.54.685-4.323 3.423-6.861 1.711-1.579 3.217-2.814 4.38-3.843.959-.823 1.712-1.44 2.328-1.99.548-.548 1.3-.891 2.054-.823a1.797 1.797 0 011.232 1.098c1.027 1.921.479 4.528-1.506 7.41-.753 1.098-1.643 2.127-2.533 3.156a21.597 21.597 0 00-3.696 5.283c-.48 1.03-.89 1.99-1.232 2.813l1.369.069c.273-.755.684-1.51 1.026-2.333.89-1.853 2.054-3.5 3.491-5.009 1.096-.96 1.986-2.058 2.739-3.224zM12.732 35.678c0-.55-.068-1.098-.274-1.578-.274.754-.684 1.44-1.232 1.99-.205 1.92-1.848 3.43-3.765 3.43H7.12c-.548.343-1.095.686-1.643 1.097.616.275 1.37.412 2.054.412a5.325 5.325 0 005.202-5.352zM21.562 7.341l-1.711 1.235c-1.232 4.529-4.86 8.096-9.446 9.263 0 .48 0 .96.068 1.44 5.818-1.372 10.2-6.106 11.09-11.938zM23.547 28.405s.069-.069.069-.137l.273-.48.137-.275.069-.137c.068-.138.137-.206.205-.343a6.738 6.738 0 01-1.643.205c-3.833 0-6.913-3.087-6.913-6.86 0-.55.068-1.098.205-1.647-.068.068-.205.137-.274.205l-.205.138-.274.137-.548.274h-.068l-.274.138v.754c0 4.597 3.765 8.302 8.351 8.37.274 0 .548 0 .753-.068l.137-.274zM5.134 52.213h.821l1.985-1.99v-1.372l-.41.068-.411.069-.548.069c-.342-2.608-1.437-5.078-3.148-7.136-.411.275-.822.549-1.164.823 1.506 1.853 2.533 4.048 2.875 6.381v3.088zM7.94 54.957l-1.985-1.99h-.821v9.88c.205.824.479 1.647.684 2.402h.069l1.985-1.99v-8.302h.068zM7.94 68.062l-1.78-1.715c.548 1.646 1.096 2.95 1.712 3.499l.068-1.784z" /><path d="M17.455 10.223c-3.286 2.264-6.297 4.185-6.777 5.557 0 .069-.068.138-.068.275 3.012-.96 5.476-3.088 6.845-5.832zM4.655 61.063v-8.096H2.122c.685 2.059 1.37 4.46 2.054 6.656.137.48.273.96.479 1.44zM22.657 25.66c2.944 0 5.271-2.401 5.271-5.351s-2.396-5.283-5.339-5.283c-2.943 0-5.27 2.401-5.27 5.351s2.395 5.283 5.338 5.283zm-.068-9.194c2.122 0 3.902 1.716 3.902 3.843s-1.712 3.91-3.834 3.91-3.901-1.715-3.901-3.842 1.711-3.91 3.833-3.91zM22.589 10.36c5.476 0 9.925 4.46 9.994 9.949v.068c.479-.137.958-.343 1.437-.411-.205-6.038-5.065-10.91-11.089-11.047l-.41 1.441h.068z" /><path d="M21.22 13.173c0 .069-.068.137-.137.206a.52.52 0 00-.137.274 6.946 6.946 0 018.625 6.655c0 .55-.068 1.099-.205 1.647l.342-.205.137-.07.342-.205.48-.274.136-.069.206-.137v-.755c-.069-4.597-3.765-8.302-8.352-8.302-.273 0-.547 0-.753.069l-.136.274s0 .069-.069.069c-.068.206-.205.343-.274.549-.068.206-.137.137-.205.274zM8.693 54.957v8.37l1.985 1.99h.822v-12.35h-.822l-1.985 1.99zM14.648 112.864h3.08v-1.234h-3.08v-2.47h4.04v-1.235h-5.409v9.399h5.545v-1.235h-4.176v-3.225zM17.66 66.072h-5.613v5.283c1.712.274 3.697.274 5.613.343v-5.626zM18.208 66.072v5.695c.958.068 1.848.137 2.807.274v-3.98l-1.986-1.989h-.82zM18.208 52.967v12.35h.753l1.985-1.99v-8.37l-1.985-1.99h-.753zM6.571 114.854l-5.613-6.929H0v9.399h1.369v-6.929l5.613 6.929h.958v-9.399H6.571v6.929zM8.693 68.062v2.264c.89.48 1.848.823 2.875.96v-5.214h-.89l-1.985 1.99zM17.66 52.967h-5.613v12.35h5.613v-12.35zM19.85 48.44c1.37-1.648 3.766-1.853 5.408-.481.411.343.822.823 1.027 1.372-.41-.069-.821-.206-1.232-.274v3.156h5.613v-1.716l-.342-.137c.205-.274.41-.617.616-.892-.685-3.98-4.176-6.93-8.214-6.93-.274 0-.548 0-.753.07l-.137.274-.069.068c-.068.206-.205.343-.273.55l-.137.274-.069.137-.205.274a6.737 6.737 0 011.643-.206c3.49 0 6.434 2.676 6.845 6.175h-.137c-.548-.137-1.027-.274-1.575-.411-.684-2.813-3.49-4.597-6.365-3.911-1.438.343-2.67 1.303-3.423 2.538v3.911h.753l1.985-1.99v-1.783l-.547-.069h-.411z" /><path d="M12.047 52.213h5.613v-3.911H14.65a14.674 14.674 0 007.255-11.87h-.41c-.343 0-.685-.068-1.027-.137-.274 6.518-5.34 11.801-11.774 12.419v1.509l1.985 1.99h.89V48.37h.48v3.843z" /></svg>
