<svg width="79" height="90" viewBox="0 0 79 90" fill="none" xmlns="http://www.w3.org/2000/svg">
  <path
    d="M36.6981 82.4427C12.978 86.7544 1.90328 82.609 1.79241 82.5659L0 87.1178C0.326452 87.2471 5.66056 89.2921 16.6614 89.2921C23.6785 89.2338 30.6765 88.5515 37.5728 87.2533C61.3915 82.9417 73.7905 87.1116 73.9137 87.1486L75.5459 82.5413C74.9916 82.3503 61.9458 77.8724 36.6981 82.4427Z"
    fill="#B89535"/>
  <path
    d="M57.2166 26.7461L52.2891 29.4378V68.4888C54.0137 68.3903 55.6398 68.341 57.1735 68.3287V32.3759L75.5411 42.9763L78.0049 38.7386L57.2166 26.7461Z"
    fill="#B89535"/>
  <path d="M46.2852 24.4559L46.3036 24.4929L47.7881 23.6367L46.2852 24.4559Z" fill="#B89535"/>
  <path
    d="M32.1523 38.2996L48.6474 28.7771L55.3674 24.9028V19.4824L55.3736 0H50.4829L50.4768 22.0756L47.7851 23.6339L46.3007 24.4901L29.707 34.0681L32.1523 38.2996Z"
    fill="#B89535"/>
  <path
    d="M18.5726 72.2941C20.0919 72.2613 21.7201 72.1853 23.457 72.0662V50.5081L36.6753 58.1397L39.139 53.9081L23.494 44.8906L18.5664 47.5885L18.5726 72.2941Z"
    fill="#B89535"/>
  <path
    d="M16.0843 46.2999L21.9235 42.9307V39.4136L21.9296 23.5283H17.039L17.0328 40.1096L1.40625 49.1332L3.85156 53.3648L16.0843 46.2999Z"
    fill="#B89535"/>
  <path
    d="M36.6981 72.3242C12.978 76.6359 1.90328 72.4905 1.79241 72.4536L0.677542 75.2808L0 76.9931C0.326452 77.1225 5.66056 79.1674 16.6614 79.1674C23.6785 79.1143 30.6768 78.434 37.5728 77.1348C61.3915 72.8232 73.7905 76.9931 73.9137 77.0301L75.5459 72.4228C75.4905 72.4228 75.2749 72.3304 74.93 72.2257C72.0166 71.3695 59.2172 68.2467 36.6981 72.3242Z"
    fill="#B89535"/>
</svg>
