<svg width="47" height="71" viewBox="0 0 47 71" fill="none" xmlns="http://www.w3.org/2000/svg">
  <path
    d="M29.8981 8.99283H25.4509V4.89062H38.2811V0H7.73014V4.89062H20.5603V8.99283H16.1132C11.8418 8.99609 7.74614 10.6939 4.72522 13.7137C1.7043 16.7335 0.00489343 20.8284 0 25.0999L0 57.1784L4.92758 62.069H41.1207L46.0113 57.1414V25.0999C46.0064 20.8284 44.307 16.7335 41.2861 13.7137C38.2651 10.6939 34.1695 8.99609 29.8981 8.99283ZM4.89062 25.0999C4.89388 22.1244 6.0773 19.2718 8.18124 17.1679C10.2852 15.064 13.1378 13.8806 16.1132 13.8773H29.8981C32.8741 13.8806 35.7273 15.0638 37.8322 17.1675C39.9371 19.2713 41.1219 22.1239 41.1268 25.0999V36.1068H4.89062V25.0999ZM41.1268 57.1784H4.89062V40.9975H41.1268V57.1784Z"
    fill="#B89535"/>
  <path
    d="M11.0441 52.5771C11.7241 52.5783 12.3893 52.3778 12.9553 52.0009C13.5213 51.6239 13.9628 51.0876 14.2239 50.4597C14.4849 49.8317 14.5539 49.1405 14.422 48.4734C14.29 47.8063 13.9632 47.1933 13.4828 46.712C13.0023 46.2307 12.3899 45.9027 11.7231 45.7696C11.0562 45.6365 10.3648 45.7042 9.73642 45.9642C9.10804 46.2241 8.57089 46.6646 8.19295 47.23C7.81502 47.7953 7.61329 48.4601 7.61329 49.1401C7.61248 49.5912 7.70062 50.038 7.87267 50.4549C8.04473 50.8719 8.29731 51.2508 8.61597 51.5701C8.93464 51.8893 9.31312 52.1425 9.72977 52.3153C10.1464 52.4881 10.5931 52.5771 11.0441 52.5771Z"
    fill="#B89535"/>
  <path
    d="M34.9699 52.5771C35.6499 52.5783 36.315 52.3778 36.8811 52.0009C37.4471 51.6239 37.8886 51.0876 38.1496 50.4597C38.4107 49.8317 38.4797 49.1405 38.3477 48.4734C38.2158 47.8063 37.889 47.1933 37.4085 46.712C36.9281 46.2307 36.3157 45.9027 35.6488 45.7696C34.982 45.6365 34.2906 45.7042 33.6622 45.9642C33.0338 46.2241 32.4967 46.6646 32.1187 47.23C31.7408 47.7953 31.5391 48.4601 31.5391 49.1401C31.5391 50.0506 31.9003 50.9239 32.5436 51.5682C33.1868 52.2126 34.0594 52.5755 34.9699 52.5771Z"
    fill="#B89535"/>
  <path d="M8.06605 65.249H4.74609V70.1396H12.9567H33.0489H41.2594V65.249H37.9395H8.06605Z" fill="#B89535"/>
</svg>
