<svg width="92" height="78" viewBox="0 0 92 78" fill="none" xmlns="http://www.w3.org/2000/svg">
  <path
    d="M51.7478 50.5752H55.7196V44.652H51.7478V50.5752ZM55.8724 34.7799H51.9006V40.7032H55.8724V34.7799ZM42.4294 50.5752H46.4012V44.652H42.4294V50.5752ZM28.8337 59.0803V44.8038C28.8337 39.3363 31.1251 34.0205 35.2496 30.3755L43.4987 22.9335L40.138 19.2884L33.722 25.2117L31.4306 18.6809L26.695 20.3516L29.7502 29.0086C28.3754 30.5274 27.3061 32.198 26.3895 34.0205C23.7925 29.4642 19.5152 26.2748 14.1686 25.2117L13.252 30.0717C19.9735 31.4386 24.0981 36.9062 24.0981 44.3482V58.6247C25.1674 58.9284 26.8478 58.9284 28.8337 59.0803ZM64.427 30.3755H82.1473V25.8192H64.427V30.3755ZM14.1686 45.1076C8.51643 45.1076 3.32255 41.7663 1.03114 36.2987C-0.343713 32.8055 -0.343713 29.0086 1.03114 25.5154C2.40599 22.1741 5.00293 19.5922 8.21091 18.0734C7.90539 16.8584 7.59987 15.4915 7.59987 14.1246C7.59987 6.37885 14.0158 0 21.8067 0C27.7643 0 32.4999 3.03755 34.7913 7.89763C34.9441 7.89763 34.9441 7.89763 34.9441 7.89763C39.3742 7.89763 43.4987 9.56828 46.8595 12.1502L64.427 6.68261V21.8703H86.2719V56.0428C85.2025 55.8909 83.8277 55.5871 82.3001 55.4353V34.4762H64.427V55.2834C63.0522 55.4353 61.6773 55.5871 60.3025 55.739V12.1502L49.9147 15.3396C51.9006 18.0734 53.2754 21.2628 53.581 24.756H55.8724V30.6792H53.1227C51.1368 38.7287 43.8043 44.8038 35.0969 44.8038C33.8748 44.8038 32.6527 44.652 31.5834 44.5001C32.0416 42.8294 32.4999 41.1588 33.2637 39.64C33.8748 39.7919 34.4858 39.7919 35.0969 39.7919C42.5822 39.7919 48.6926 33.7168 48.6926 26.2748C48.6926 18.8328 42.5822 12.7577 35.0969 12.7577C34.9441 12.7577 34.3331 12.7577 33.722 12.9096L30.514 10.9352C29.4447 7.29012 26.084 5.01196 21.8067 5.01196C16.7655 5.01196 12.641 9.11265 12.641 14.1246C12.641 15.3396 13.0993 16.8584 13.8631 18.3772V18.529L12.1827 22.0222L10.6551 22.6297C8.36367 23.541 6.6833 25.2117 5.76673 27.4898C4.85017 29.768 4.85017 32.198 5.76673 34.4762C7.59987 39.0325 12.9465 41.3107 17.6821 39.4881L19.057 38.8806C19.8208 40.3994 20.5846 41.9182 21.0428 43.5888L19.5152 44.0445C17.8349 44.652 16.0017 45.1076 14.1686 45.1076ZM79.8559 55.1315V44.1963C79.8559 40.5513 76.9534 37.6656 73.2872 37.6656C69.6209 37.6656 66.7184 40.5513 66.7184 44.1963V55.1315C68.0933 54.9796 69.4681 54.9796 70.6902 54.9796V44.1963C70.6902 42.8294 71.7595 41.6144 73.2872 41.6144C74.662 41.6144 75.8841 42.6776 75.8841 44.1963V54.9796C77.2589 54.9796 78.6338 55.1315 79.8559 55.1315ZM12.9465 64.8517C13.252 65.0035 18.7514 67.1298 30.2085 67.1298C35.8607 67.1298 43.0404 66.6742 51.9006 65.0035C76.4951 60.5991 89.3271 64.8517 89.4798 64.8517L91.1602 60.1435C90.5492 59.9916 77.1062 55.2834 50.984 59.9916C26.3895 64.396 14.9324 60.1435 14.9324 60.1435L12.9465 64.8517ZM91.0074 70.623L89.3271 75.3312C89.1743 75.3312 76.3424 71.0786 51.7478 75.4831C43.0405 77.0019 35.8607 77.6094 30.0558 77.6094C18.5987 77.6094 13.0993 75.4831 12.7937 75.3312L14.6269 70.623C14.7796 70.623 26.2367 74.8756 50.6785 70.4711C76.9534 65.7629 90.5492 70.3193 91.0074 70.623Z"
    fill="#B89535"/>
</svg>
