<svg width="75" height="59" viewBox="0 0 75 59" fill="none" xmlns="http://www.w3.org/2000/svg">
  <path
    d="M37.533 16.9878C39.2129 16.9878 40.8551 16.4897 42.2519 15.5564C43.6488 14.623 44.7374 13.2965 45.3803 11.7444C46.0232 10.1923 46.1914 8.4845 45.8637 6.83684C45.5359 5.18918 44.727 3.67571 43.5391 2.48781C42.3512 1.29992 40.8377 0.490952 39.1901 0.163212C37.5424 -0.164528 35.8346 0.00368029 34.2825 0.646565C32.7304 1.28945 31.4039 2.37814 30.4705 3.77495C29.5372 5.17177 29.0391 6.81398 29.0391 8.49392C29.0423 10.7456 29.9383 12.9042 31.5305 14.4964C33.1227 16.0886 35.2812 16.9846 37.533 16.9878ZM37.533 4.89063C38.2474 4.88941 38.9461 5.10022 39.5406 5.49636C40.1351 5.8925 40.5987 6.45616 40.8727 7.11595C41.1466 7.77574 41.2186 8.50199 41.0795 9.20273C40.9405 9.90347 40.5966 10.5472 40.0914 11.0523C39.5862 11.5575 38.9425 11.9014 38.2418 12.0405C37.5411 12.1795 36.8148 12.1075 36.155 11.8336C35.4952 11.5596 34.9316 11.0961 34.5354 10.5015C34.1393 9.90702 33.9285 9.20832 33.9297 8.49392C33.9313 7.53877 34.3115 6.6232 34.9869 5.9478C35.6623 5.27241 36.5778 4.89225 37.533 4.89063Z"
    fill="#B89535"/>
  <path
    d="M60.7922 26.9552C62.2339 26.9564 63.6436 26.5299 64.8428 25.7297C66.042 24.9295 66.9769 23.7915 67.5292 22.4598C68.0815 21.1281 68.2263 19.6625 67.9453 18.2484C67.6644 16.8344 66.9702 15.5355 65.9508 14.5161C64.9314 13.4966 63.6325 12.8025 62.2184 12.5216C60.8044 12.2406 59.3388 12.3854 58.007 12.9377C56.6753 13.49 55.5374 14.4249 54.7372 15.6241C53.937 16.8233 53.5105 18.233 53.5117 19.6747C53.5134 21.6051 54.2809 23.4559 55.6459 24.8209C57.0109 26.1859 58.8618 26.9535 60.7922 26.9552ZM60.7922 17.2786C61.2664 17.2774 61.7302 17.4169 62.1251 17.6794C62.5199 17.942 62.828 18.3157 63.0103 18.7535C63.1925 19.1912 63.2409 19.6731 63.1491 20.1383C63.0574 20.6035 62.8297 21.031 62.4948 21.3667C62.16 21.7024 61.733 21.9312 61.2681 22.0242C60.8031 22.1171 60.3211 22.0701 59.8829 21.8889C59.4447 21.7077 59.0701 21.4006 58.8066 21.0065C58.543 20.6123 58.4023 20.1488 58.4023 19.6747C58.4023 19.0403 58.6539 18.4317 59.1019 17.9826C59.55 17.5334 60.1578 17.2802 60.7922 17.2786Z"
    fill="#B89535"/>
  <path
    d="M14.2867 26.9542C15.7281 26.9542 17.1371 26.5267 18.3355 25.7257C19.534 24.9248 20.4679 23.7864 21.0192 22.4546C21.5706 21.1228 21.7145 19.6573 21.4329 18.2437C21.1512 16.8301 20.4566 15.5317 19.4369 14.5129C18.4172 13.4941 17.1183 12.8006 15.7044 12.5201C14.2906 12.2397 12.8253 12.3848 11.4939 12.9373C10.1626 13.4898 9.02496 14.4247 8.22503 15.6238C7.4251 16.8228 6.99878 18.2323 7 19.6737C7.00326 21.6047 7.77221 23.4555 9.13819 24.8203C10.5042 26.1852 12.3557 26.9525 14.2867 26.9542ZM14.2867 17.2776C14.7606 17.2776 15.2238 17.4182 15.6178 17.6814C16.0119 17.9447 16.319 18.3189 16.5003 18.7568C16.6817 19.1946 16.7291 19.6763 16.6367 20.1411C16.5442 20.6059 16.316 21.0328 15.9809 21.3679C15.6458 21.703 15.2189 21.9312 14.7541 22.0237C14.2893 22.1161 13.8076 22.0687 13.3697 21.8873C12.9319 21.706 12.5577 21.3989 12.2944 21.0048C12.0311 20.6108 11.8906 20.1476 11.8906 19.6737C11.8906 19.0382 12.1431 18.4288 12.5924 17.9794C13.0418 17.5301 13.6512 17.2776 14.2867 17.2776Z"
    fill="#B89535"/>
  <path
    d="M69.4727 53.1011V37.7024C69.4124 35.4399 68.4713 33.2903 66.8497 31.7113C65.2281 30.1323 63.0542 29.2488 60.7909 29.2488C58.5276 29.2488 56.3537 30.1323 54.7321 31.7113C53.1105 33.2903 52.1694 35.4399 52.1091 37.7024V53.1011H47.7421V29.2885C47.6767 26.6259 46.573 24.0943 44.6666 22.2342C42.7603 20.3742 40.2024 19.333 37.5389 19.333C34.8755 19.333 32.3175 20.3742 30.4112 22.2342C28.5049 24.0943 27.4012 26.6259 27.3357 29.2885V53.1011H22.9625V37.7024C22.9625 35.4007 22.0482 33.1932 20.4206 31.5656C18.793 29.938 16.5856 29.0237 14.2838 29.0237C11.9821 29.0237 9.77462 29.938 8.14705 31.5656C6.51948 33.1932 5.60512 35.4007 5.60512 37.7024V53.1011H0V58.2627H5.61744L10.7668 53.1134V37.7147C10.7668 37.2528 10.8577 36.7955 11.0345 36.3688C11.2112 35.9421 11.4703 35.5544 11.7969 35.2278C12.1235 34.9012 12.5112 34.6421 12.9379 34.4654C13.3646 34.2886 13.822 34.1976 14.2838 34.1976C14.7457 34.1976 15.203 34.2886 15.6297 34.4654C16.0564 34.6421 16.4442 34.9012 16.7708 35.2278C17.0973 35.5544 17.3564 35.9421 17.5332 36.3688C17.7099 36.7955 17.8009 37.2528 17.8009 37.7147V53.1319L22.9317 58.2627H27.3604L32.4974 53.1257V29.2885C32.5431 27.9819 33.0942 26.7441 34.0347 25.8359C34.9752 24.9278 36.2315 24.4202 37.5389 24.4202C38.8463 24.4202 40.1026 24.9278 41.0431 25.8359C41.9836 26.7441 42.5348 27.9819 42.5804 29.2885V53.0703L47.7729 58.2627H52.0845L57.2831 53.0949V37.6962C57.2633 37.2224 57.3395 36.7494 57.5071 36.3058C57.6748 35.8622 57.9304 35.457 58.2587 35.1147C58.5869 34.7724 58.981 34.5001 59.4172 34.314C59.8535 34.1279 60.3228 34.032 60.7971 34.032C61.2713 34.032 61.7407 34.1279 62.1769 34.314C62.6132 34.5001 63.0072 34.7724 63.3355 35.1147C63.6638 35.457 63.9194 35.8622 64.0871 36.3058C64.2547 36.7494 64.3309 37.2224 64.3111 37.6962V53.0949L69.4665 58.2504H74.3325V53.1011H69.4727Z"
    fill="#B89535"/>
</svg>
