<svg width="38" height="63" viewBox="0 0 38 63" fill="none" xmlns="http://www.w3.org/2000/svg">
  <path
    d="M25.3811 33.5042C24.1221 34.5777 22.783 35.5535 21.3755 36.4232L21.1569 36.5518C23.0685 38.218 24.7932 40.0871 26.3005 42.1262H10.7732C13.2253 38.758 16.2766 35.8702 19.7746 33.6071C20.5718 33.1699 37.4622 22.9855 37.025 2.95758C37.025 1.99315 36.9607 1.02872 36.8514 0L31.7785 0.527221C31.9558 2.20796 31.9902 3.9007 31.8813 5.58725H5.17955C5.05974 3.90338 5.08986 2.21219 5.26956 0.53365L0.196671 0C-1.54573 16.7168 8.71579 27.1326 14.1423 31.4018C8.71579 35.671 -1.54573 46.1189 0.196671 62.8036L1.59188 62.6557L5.26956 62.2763C5.09027 60.6325 5.04726 58.9766 5.14097 57.3256H31.8878C31.9879 58.976 31.9513 60.6319 31.7785 62.2763L36.8514 62.8036C38.3559 48.4014 30.9169 38.6478 25.3811 33.5042ZM31.0519 10.6923C30.6081 12.4077 30.0054 14.078 29.2517 15.6816H7.8478C7.08649 14.0784 6.47522 12.4082 6.02182 10.6923H31.0519ZM10.9275 20.7866H26.1977C24.0477 23.6831 21.4625 26.2293 18.5337 28.3349C15.6319 26.2171 13.0675 23.6721 10.9275 20.7866ZM8.42003 52.2206H5.96395C6.40146 50.5058 6.9977 48.8355 7.74493 47.2313H29.3031C30.0503 48.8355 30.6466 50.5058 31.0841 52.2206H8.42003Z"
    fill="#B89535"/>
</svg>
