<svg width="139" height="84" viewBox="0 0 139 84" fill="none" xmlns="http://www.w3.org/2000/svg">
<path d="M64.8515 82.8169H77.2042L42.7592 0H34.4449L0 82.8169H12.3527L21.0233 61.5211H56.0621L64.8515 82.8169ZM38.6021 19.5211L51.4299 50.2817H25.7743L38.6021 19.5211Z" fill="#1D1F22"/>
<path d="M128.073 82.8169H139V27.2113H128.073V32.2986C122.965 27.9211 116.908 26.0282 110.613 26.0282C105.386 26.0282 100.754 27.3296 96.9534 29.5775C88.5203 34.5465 82.5816 43.893 82.5816 55.0141C82.5816 66.1352 88.4016 75.3634 96.8346 80.3324C100.635 82.5803 105.862 84 110.85 84C117.502 84 123.559 81.7521 128.073 77.7296V82.8169ZM127.716 65.4254C123.915 70.5127 118.095 73.3521 112.394 73.3521C101.586 73.3521 93.8652 64.9521 93.8652 55.0141C93.8652 45.3127 100.992 36.6761 111.8 36.6761C118.571 36.6761 124.272 40.107 127.716 44.6028V65.4254Z" fill="#1D1F22"/>
</svg>
