<svg width="138" height="140" viewBox="0 0 138 140" fill="none" xmlns="http://www.w3.org/2000/svg">
<path d="M17.909 13.6905H7.0442V11.5476C7.0442 8.57142 8.47692 6.54761 11.4618 6.54761H14.566V0H12.1781C4.53695 0 0 4.88095 0 12.1429V20.7143H17.909V13.6905ZM14.8048 100.595V30H3.10422V112.262H29.4901V100.595H14.8048Z" fill="#1D1F22"/>
<path d="M28.3065 112.262H66.7511V100.595H52.1851V46.0714H40.4846V100.595H28.3065V112.262ZM46.5736 140C50.1554 140 53.3791 137.5 53.3791 133.333C53.3791 129.524 50.2748 126.786 46.5736 126.786C42.6337 126.786 39.41 129.524 39.41 133.333C39.41 137.5 42.7531 140 46.5736 140Z" fill="#1D1F22"/>
<path d="M65.5283 112.262H138V82.1429C138 61.6667 127.852 51.7857 108.032 51.7857H85.4669L105.286 15.7143H90.959L72.3337 51.9048C72.5725 56.7857 74.3634 60.8333 76.2737 63.5714H109.226C119.733 63.5714 126.061 68.9286 126.061 80.4762V100.595H65.5283V112.262Z" fill="#1D1F22"/>
</svg>
