<svg width="98" height="112" viewBox="0 0 98 112" fill="none" xmlns="http://www.w3.org/2000/svg">
<path d="M18.0079 10.8541L17.6502 10.7348C15.3843 11.2119 13.4761 11.689 11.568 12.1661C8.82508 11.9276 6.08215 10.7348 5.12808 7.03727C6.67844 5.36741 8.58657 4.65175 10.4947 4.65175C11.8065 4.65175 13.7147 4.89031 15.3843 5.48669L15.742 5.12886C14.788 2.02769 12.2836 0 9.42136 0C5.60511 0 1.55035 2.98189 1.55035 8.34931C1.55035 10.8541 2.62367 13.1203 4.65106 14.6709C3.21996 15.2673 1.66961 16.1022 0 17.0564L0.834805 19.9191C7.03621 17.8914 10.7332 16.6986 17.6502 15.7444C17.8887 14.1938 18.0079 12.0469 18.0079 10.8541ZM28.6219 82.181C23.0168 82.181 18.8427 81.4654 15.9806 80.3919C15.6228 66.5559 14.788 39.0032 14.3109 22.4239C11.4488 22.901 9.18286 23.7359 6.91696 25.1672L10.4947 78.9606C10.6139 81.4654 14.3109 87.1906 15.8613 87.6677C19.2005 88.5027 23.0168 89.2183 28.6219 89.2183C29.3374 89.2183 29.6952 88.7412 29.6952 88.1448V83.1352C29.6952 82.6581 29.4567 82.181 28.6219 82.181Z" fill="#1D1F22"/>
<path d="M57.5494 82.181C52.1828 82.181 46.9354 81.5847 42.6421 80.2726C43.954 76.6944 45.5043 70.6113 48.0087 59.1608C46.1006 59.3994 43.5962 59.9957 42.1651 60.5921C40.1377 68.5836 38.3489 75.0245 36.56 80.869C33.9363 81.7039 31.0741 82.181 28.5697 82.181C27.7349 82.181 27.4964 82.6581 27.4964 83.1352V88.1448C27.4964 88.7412 27.8542 89.2183 28.5697 89.2183C33.1015 89.2183 37.2755 87.6677 39.4222 85.64L40.1377 84.9244C45.3851 87.787 52.302 89.2183 57.5494 89.2183C58.2649 89.2183 58.6227 88.7412 58.6227 88.1448V83.1352C58.6227 82.5389 58.2649 82.181 57.5494 82.181ZM42.7614 100.311C41.0918 101.862 39.0644 104.009 37.1563 106.275C38.7066 108.302 40.6147 110.33 42.7614 112C45.0273 110.33 47.1739 108.302 48.605 106.275C47.5317 104.486 45.5043 102.696 42.7614 100.311Z" fill="#1D1F22"/>
<path d="M97.9974 78.2449C97.4011 71.5655 88.6952 55.1054 65.6785 44.0128L96.0892 25.8829L97.5203 17.8914L96.924 17.295C83.2094 25.525 71.8799 32.6816 62.22 39.4803C60.9082 40.4345 60.0733 46.7561 60.3119 49.1416L69.9718 55.8211L72.3569 54.9862C82.9709 61.427 90.9611 71.3269 93.3463 79.6762C86.6678 81.4654 74.3843 82.181 57.5689 82.181C56.7341 82.181 56.4956 82.6581 56.4956 83.1352V88.1448C56.4956 88.7412 56.8534 89.2183 57.5689 89.2183C74.265 89.2183 86.5486 88.5027 92.5115 86.9521C94.1811 86.475 98.1166 79.7955 97.9974 78.2449Z" fill="#1D1F22"/>
</svg>
