<svg xmlns="http://www.w3.org/2000/svg" fill="none" viewBox="0 0 24 24">
  <path
    d="M22.5,10.5H4.71L10.15,3.96c.13-.15,.22-.33,.28-.52,.06-.19,.08-.39,.06-.58-.04-.4-.23-.76-.54-1.02-.31-.25-.7-.38-1.1-.34-.4,.04-.76,.23-1.02,.54L.34,11.04c-.05,.07-.1,.15-.14,.23,0,.07-.07,.12-.1,.19-.07,.17-.1,.36-.1,.54,0,.18,.04,.37,.1,.54,0,.08,.07,.12,.1,.2,.04,.08,.08,.15,.14,.23l7.5,9c.14,.17,.32,.31,.52,.4,.2,.09,.42,.14,.64,.14,.35,0,.69-.12,.96-.34,.15-.13,.28-.28,.37-.46,.09-.17,.15-.37,.17-.56,.02-.2,0-.39-.06-.58-.06-.19-.15-.36-.28-.51l-5.45-6.54H22.5c.4,0,.78-.16,1.06-.44,.28-.28,.44-.66,.44-1.06s-.16-.78-.44-1.06c-.28-.28-.66-.44-1.06-.44Z"
    />
</svg>
