<?xml version="1.0" encoding="UTF-8"?><svg id="Layer_1" xmlns="http://www.w3.org/2000/svg" viewBox="0 0 17.5 17.5"><defs><style>.cls-1{fill:#fff;}</style></defs><path class="cls-1" d="M17.5,8.66c-.02-2.21-.88-4.42-2.56-6.1S11.04,.02,8.83,0c-.05,0-.11,0-.16,0C6.46,.02,4.25,.88,2.56,2.56S.02,6.46,0,8.67c0,.03,0,.05,0,.08s0,.05,0,.08c.02,2.21,.87,4.42,2.56,6.11s3.89,2.54,6.1,2.56c.03,0,.06,0,.09,0s.06,0,.09,0c2.21-.02,4.42-.88,6.1-2.56,1.68-1.68,2.54-3.89,2.56-6.1,0-.03,0-.06,0-.09s0-.06,0-.09ZM9.46,1.54c1.38,.14,2.72,.66,3.85,1.58l-4.57,4.57-1.31-1.31c1.12-1.33,1.86-3.01,2.02-4.84Zm-1.51,0c-.16,1.42-.72,2.72-1.58,3.77l-2.2-2.2c1.11-.9,2.43-1.43,3.78-1.57ZM3.12,4.18l2.2,2.2c-1.05,.86-2.35,1.42-3.77,1.58,.15-1.35,.67-2.67,1.57-3.78Zm-1.58,5.28c1.83-.17,3.51-.9,4.84-2.02l1.31,1.31L3.12,13.32c-.92-1.13-1.45-2.48-1.58-3.85Zm6.5,6.5c-1.38-.13-2.72-.66-3.85-1.58l4.57-4.57,1.31,1.31c-1.12,1.33-1.86,3.01-2.02,4.84Zm1.51,0c.16-1.42,.72-2.72,1.58-3.77l2.2,2.2c-1.11,.9-2.42,1.43-3.77,1.57Zm4.83-2.63l-2.2-2.2c1.05-.86,2.35-1.42,3.77-1.58-.15,1.35-.67,2.67-1.57,3.78Zm-3.26-3.26l-1.31-1.31,4.57-4.57c.92,1.13,1.45,2.48,1.58,3.85-1.83,.17-3.51,.9-4.84,2.02Z"/></svg>