<?xml version="1.0" encoding="UTF-8"?><svg id="Layer_1" xmlns="http://www.w3.org/2000/svg" viewBox="0 0 16 16"><defs><style>.cls-1{fill:#fff;}</style></defs><path class="cls-1" d="M14.56,3.41c-.03-.05-.06-.1-.11-.15-.24-.32-.5-.63-.79-.92-.92-.92-2.01-1.57-3.17-1.94-.05-.02-.1-.04-.16-.05-1.51-.46-3.12-.46-4.63-.01-.08,0-.16,.03-.23,.07-1.14,.38-2.22,1.02-3.13,1.93-.29,.29-.55,.6-.79,.92-.05,.05-.08,.1-.11,.16C.51,4.75,.03,6.3,0,7.86c0,.03,0,.05,0,.08,0,.02,0,.05,0,.07,0,2.05,.78,4.09,2.34,5.65,1.51,1.51,3.52,2.34,5.66,2.34s4.15-.83,5.66-2.34c1.51-1.51,2.34-3.52,2.34-5.66v-.06h0v-.04c-.02-1.63-.52-3.18-1.44-4.49Zm-5.95-.22c.41-.08,.82-.25,1.18-.5l1.18-.81c.66,.32,1.28,.76,1.83,1.3,.03,.03,.06,.06,.1,.1l-.4,1.37c-.12,.43-.16,.86-.11,1.28l-1.55,.5s-.04,.01-.06,.02c-.22-.4-.52-.75-.91-1.03h0c-.39-.29-.82-.47-1.26-.56v-1.69Zm-5.41,0c.55-.55,1.17-.98,1.83-1.3l1.18,.81c.37,.25,.77,.41,1.18,.5v1.69c-.45,.09-.88,.27-1.26,.55h0c-.38,.29-.69,.64-.91,1.04-.02,0-.04-.02-.06-.02l-1.55-.5c.05-.42,.02-.86-.11-1.28l-.4-1.37s.06-.06,.09-.1Zm1.48,8.35c-.38-.18-.81-.28-1.25-.29l-1.42-.04c-.38-.72-.63-1.49-.74-2.27l1.12-.87c.35-.27,.63-.6,.84-.97l1.55,.5s.04,.01,.06,.02c-.06,.45-.01,.92,.13,1.37,.15,.45,.39,.86,.7,1.19-.01,.01-.02,.03-.04,.04l-.96,1.32h0Zm4.99,1.81h0l-.48,1.33c-.78,.14-1.61,.14-2.39,0l-.48-1.33c-.15-.42-.38-.79-.67-1.1l.96-1.33s.02-.03,.03-.04c.41,.19,.87,.3,1.35,.3s.94-.11,1.35-.3c0,.01,.02,.03,.03,.04l.96,1.33c-.29,.31-.52,.68-.67,1.1Zm4.31-2.14h0l-1.42,.04c-.44,.01-.87,.12-1.25,.29l-.96-1.32s-.02-.03-.03-.04c.31-.33,.55-.73,.7-1.19,.15-.45,.19-.92,.13-1.37,.02,0,.04,0,.06-.02l1.55-.5c.21,.37,.49,.7,.84,.97l1.12,.87c-.11,.8-.36,1.57-.74,2.27Z"/></svg>