<?xml version="1.0" encoding="UTF-8"?><svg id="Layer_1" xmlns="http://www.w3.org/2000/svg" viewBox="0 0 144 144"><path class="cls-1" d="M44.87,72.14l-.91-2.62c-4.58-13.19,1.23-27.45,13.51-33.17,12.28-5.73,26.93-1.01,34.09,10.97l1.42,2.38-48.12,22.44Zm23.51-33.21c-2.97,0-5.96,.63-8.79,1.95h0c-9.12,4.25-13.82,14.37-11.65,24.31l37.77-17.61c-4.29-5.55-10.74-8.65-17.32-8.65Z"/><path class="cls-1" d="M59.19,63.5c-.94,0-1.84-.54-2.27-1.44-6.22-13.33-3.21-19.84,.1-24.01,.86-1.08,2.43-1.26,3.51-.4,1.08,.86,1.26,2.43,.4,3.51-1.69,2.12-5.19,6.55,.51,18.79,.58,1.25,.04,2.74-1.21,3.32-.34,.16-.7,.24-1.06,.24Z"/><path class="cls-1" d="M75.25,56.01c-.94,0-1.84-.54-2.27-1.44-5.71-12.24-11.35-12.4-14.06-12.47-1.38-.04-2.47-1.19-2.43-2.57,.04-1.38,1.2-2.49,2.57-2.43,5.33,.15,12.24,2.02,18.46,15.36,.58,1.25,.04,2.74-1.21,3.32-.34,.16-.7,.24-1.06,.24Z"/><rect class="cls-1" x="69.87" y="57.68" width="5" height="21.25" transform="translate(-22.09 36.99) rotate(-25)"/><path class="cls-1" d="M63.75,98.76c-.19,.09-18.38,6.8-39.41,1.33-1.41-.37-2.79-.69-4.13-.98l-1.35,5.12c1.33,.28,2.71,.61,4.12,.98,6.09,1.57,12.36,2.36,18.66,2.35,13.7,0,23.43-3.62,24-3.83,.18-.06,18.5-6.72,37.85-1.27,8.38,2.36,15.62,3.15,21.64,3.11l-1.35-5.33c-5.3-.07-11.6-.84-18.83-2.88-21.09-5.91-40.4,1.11-41.21,1.41Z"/><path class="cls-1" d="M65.23,91.54c.19-.06,18.5-6.71,37.85-1.27,8.58,2.42,15.95,3.19,22.05,3.1l-1.35-5.32c-5.38-.03-11.81-.8-19.23-2.9-21.1-5.94-40.4,1.11-41.21,1.42-.2,.1-18.39,6.8-39.41,1.33-1.27-.33-2.52-.63-3.73-.9l-1.35,5.13c1.2,.26,2.43,.55,3.7,.88,6.09,1.57,12.37,2.36,18.66,2.35,13.7,0,23.43-3.62,24-3.83Z"/></svg>