<svg xmlns="http://www.w3.org/2000/svg" viewBox="0 0 60 60">
  <path d="M56.2 38.36a.86.86 0 0 0 0-.17L50 14.16a7.53 7.53 0 0 0-14.82 1.89v2.64a8.07 8.07 0 0 0-10.26 0v-2.64a7.53 7.53 0 0 0-14.82-1.89l-6.22 24v.09a10.68 10.68 0 1 0 21.05 2.45s0 0 0-.06V40a5.13 5.13 0 1 1 10.26 0v.8a10.68 10.68 0 1 0 21.01-2.44ZM42.66 11.52A4.54 4.54 0 0 1 47 14.91l4.36 16.8a10.67 10.67 0 0 0-13.14 1.55 1.79 1.79 0 0 0-.13.14V16.05a4.53 4.53 0 0 1 4.57-4.53ZM13 14.91a4.53 4.53 0 0 1 8.91 1.14V33.4l-.13-.14A10.67 10.67 0 0 0 8.6 31.71Zm6.66 31.34a7.69 7.69 0 1 1 0-10.87 7.69 7.69 0 0 1-.04 10.87ZM30 31.86a8.05 8.05 0 0 0-5.13 1.83V25a5.13 5.13 0 1 1 10.26 0v8.7A8.05 8.05 0 0 0 30 31.86Zm21.25 14.39a7.69 7.69 0 1 1 0-10.87 7.7 7.7 0 0 1 0 10.87Z"/>
</svg>
