<svg viewBox="0 0 60 60" xmlns="http://www.w3.org/2000/svg"><g clip-path="url(#a)"><path d="M60.942 49.907a14.59 14.59 0 0 1-12.058-2.11l-.94-.639-.88.579a13.903 13.903 0 0 1-15.845.374V33.087h-2.893v14.94a13.614 13.614 0 0 1-10.997 1.965 14.468 14.468 0 0 1-5.065-2.291l-.868-.675-.868.65a13.432 13.432 0 0 1-11.817 2.268L-2 49.75l.398 3.026.338.085c1.187.263 2.4.397 3.617.398a16.724 16.724 0 0 0 8.995-2.738 17.086 17.086 0 0 0 18.304 0 18.799 18.799 0 0 0 9.441 2.701 16.47 16.47 0 0 0 8.971-2.689 17.75 17.75 0 0 0 12.926 2.4l.338-.072.386-3.111-.772.156Z"/><path d="m48.993 54.743-.989-.736-.88.579a13.963 13.963 0 0 1-16.592 0l-.832-.651-.88.59a14.059 14.059 0 0 1-16.604 0l-.832-.663-.88.58A13.613 13.613 0 0 1-.71 56.851l-.7-.156.387 3.003h.361c1.014.197 2.043.297 3.075.301a16.398 16.398 0 0 0 8.947-2.725 17.05 17.05 0 0 0 18.316 0 18.7 18.7 0 0 0 9.417 2.7 16.471 16.471 0 0 0 8.971-2.688 18.003 18.003 0 0 0 12.287 2.412h.362l.301-2.894-.687.169a14.47 14.47 0 0 1-11.334-2.231ZM15.002 46.097l.205.073c.791.256 1.596.469 2.411.639l.989.229-8.44-18.449a56.865 56.865 0 0 1 39.284 0L40.854 47.1l.916-.146c.816-.17 1.621-.387 2.412-.65l.205-.073 8.923-19.1-2.834-1.073a48.439 48.439 0 0 0-4.63-1.543v-13.53H35.488V0H24.033v10.985H13.675v13.529c-1.362.373-2.857.868-4.606 1.483l-2.833 1.06 8.681 18.847.085.193ZM31.22 8.621V2.858h1.422v8.115h-5.715V2.858h1.423V8.62h2.87ZM16.593 23.742v-9.851h26.383v9.851a59.301 59.301 0 0 0-26.359 0h-.024Z"/><path d="M22.501 15.965h-.434a1.206 1.206 0 0 0-1.205 1.206v2.411a1.206 1.206 0 0 0 1.205 1.133h.434a1.206 1.206 0 0 0 1.206-1.205v-2.352a1.206 1.206 0 0 0-1.206-1.205v.012ZM29.953 15.965h-.446a1.206 1.206 0 0 0-1.206 1.205v2.412a1.301 1.301 0 0 0 1.206 1.133h.35a1.206 1.206 0 0 0 1.206-1.205v-2.352a1.205 1.205 0 0 0-1.11-1.193ZM37.465 15.965h-.373a1.205 1.205 0 0 0-1.206 1.206v2.411a1.206 1.206 0 0 0 1.206 1.133h.434a1.205 1.205 0 0 0 1.205-1.205v-2.352a1.205 1.205 0 0 0-1.205-1.205l-.06.012Z"/></g><defs><clipPath id="a"><path fill="#fff" d="M0 0h60v60H0z"/></clipPath></defs></svg>