<svg viewBox="0 0 60 60" fill="none" xmlns="http://www.w3.org/2000/svg">
<path d="M28.5944 45.6316C28.0062 45.6316 27.4427 45.3034 27.1765 44.7399C26.8173 43.9659 27.1517 43.0433 27.9257 42.6842L39.7399 37.1672C40.6625 36.7337 41.6904 36.5046 42.7121 36.4922L44.3591 36.4737C45.2136 36.4675 45.9133 37.1486 45.9195 38.0093C45.9257 38.87 45.2446 39.5635 44.3839 39.5697L42.7368 39.5882C42.1548 39.5882 41.5666 39.7244 41.0464 39.9721L29.2322 45.4892C29.0279 45.5882 28.8049 45.6316 28.5944 45.6378V45.6316Z" />
<path d="M14.8792 24.8701C14.2476 24.8763 13.647 24.4862 13.4117 23.8608C13.1145 23.062 13.5232 22.1704 14.3219 21.8732L20.7925 19.4707C22.7616 18.7401 24.9597 18.932 26.8235 19.9908C27.5665 20.4119 27.8266 21.3592 27.4055 22.1023C26.9845 22.8453 26.0371 23.1054 25.2941 22.6843C24.2229 22.0775 22.9783 21.9599 21.8699 22.3747L15.3993 24.7772C15.226 24.8391 15.0526 24.8701 14.873 24.8763L14.8792 24.8701Z" />
<path d="M26.9721 31.6621C25.5603 31.6745 24.1672 31.1729 23.0712 30.1946C21.7151 28.9872 21.0093 27.2596 21.1393 25.4516C21.2693 23.6435 22.2105 22.0336 23.7213 21.0367L31.034 16.1946C33.0588 14.8571 35.6037 14.628 37.8328 15.5816L44.904 18.6156C45.6904 18.95 46.0557 19.8602 45.7151 20.6466C45.3746 21.433 44.4644 21.7921 43.6842 21.4578L36.613 18.4237C35.3436 17.8788 33.8947 18.0088 32.743 18.7704L25.4303 23.6126C24.7244 24.0769 24.2848 24.8262 24.2291 25.6683C24.1671 26.5104 24.4953 27.3153 25.1269 27.8788C25.938 28.6033 27.1021 28.7643 28.0867 28.2937L32.452 26.2008C33.226 25.8293 34.1486 26.1574 34.5139 26.9314C34.8854 27.7054 34.5572 28.628 33.7832 28.9934L29.4179 31.0862C28.6377 31.4578 27.8018 31.6497 26.9721 31.6559V31.6621Z" />
<path d="M26.0557 46.2815C24.3344 46.3001 22.6006 45.6933 21.2074 44.4549L17.2632 40.9502C16.582 40.3496 15.8204 40.0214 14.935 39.9595C14.0805 39.8976 13.4427 39.1546 13.5046 38.3063C13.5666 37.4518 14.3034 36.814 15.1579 36.8759C16.7306 36.9874 18.13 37.5818 19.3251 38.6406L23.2693 42.1453C24.8545 43.557 27.226 43.5323 28.7802 42.0772L34.421 36.814C35.2693 36.0153 35.7337 34.9379 35.7214 33.7676C35.709 32.6035 35.2198 31.5323 34.3467 30.7645L32.0991 28.7645C31.4613 28.1948 31.4056 27.2165 31.969 26.5787C32.5387 25.9409 33.517 25.8852 34.1548 26.4487L36.4025 28.4487C37.9071 29.7861 38.7864 31.7118 38.8173 33.7304C38.8421 35.749 38.0124 37.6995 36.5387 39.0741L30.8978 44.3372C29.5294 45.619 27.8019 46.2691 26.0619 46.2815H26.0557Z" />
<path d="M14.8235 43.7435L4.03096 43.8487L4 40.7528L11.6966 40.6785L11.4923 19.4648L4.31579 19.5329L4.29102 16.437L14.5573 16.3379L14.8235 43.7435Z" />
<path d="M56 43.3457L45.2074 43.4509L44.9412 16.0454L55.2136 15.9463L55.2446 19.0423L48.0681 19.1104L48.2724 40.324L55.969 40.2497L56 43.3457Z" />
</svg>
