<svg xmlns="http://www.w3.org/2000/svg" viewBox="0 0 60 60"><path d="M36.369 25.041A26.416 26.416 0 0 0 50 28.5a1.5 1.5 0 0 0 0-3 23.648 23.648 0 0 1-12.026-3l.783-1.236a32.933 32.933 0 0 0 9.824 1.8c.528 0 1.05-.021 1.558-.068a1.5 1.5 0 0 0-.278-2.988 26.648 26.648 0 0 1-9.44-1.349q.585-.914 1.155-1.792a16.194 16.194 0 0 0 5.439.914 17.845 17.845 0 0 0 3.259-.3 1.5 1.5 0 1 0-.548-2.95 14.057 14.057 0 0 1-6.448-.262q.8-1.2 1.523-2.263h4.711a1.5 1.5 0 0 0 0-3h-2.566a14.842 14.842 0 0 1 1.616-1.883 1.5 1.5 0 0 0-2-2.234 31.3 31.3 0 0 0-3.7 4.658 1.492 1.492 0 0 0-.152.218c-2.647 3.811-6.059 9.221-9.6 14.828-.976 1.55-1.953 3.1-2.911 4.61-1.428 2.252-2.8 4.323-4.175 6.24a1.467 1.467 0 0 0-.154.17 1.5 1.5 0 0 0-.157.265c-4.86 6.721-9.658 11.382-16.3 14.251A1.5 1.5 0 0 0 10 53a1.484 1.484 0 0 0 .593-.123 34.816 34.816 0 0 0 9.28-5.91c2.877 2.675 8.462 6.934 14.121 8.48a1.5 1.5 0 1 0 .791-2.894c-4.734-1.293-9.834-4.982-12.732-7.654a49.305 49.305 0 0 0 1.681-1.778c4.292 2.808 10.835 6.525 16.024 8.3a1.469 1.469 0 0 0 .485.081 1.5 1.5 0 0 0 .485-2.919 77.932 77.932 0 0 1-15.038-7.765q.876-1.082 1.738-2.234c3.665 2.474 10.546 6.3 16.952 7.4a1.585 1.585 0 0 0 .255.021 1.5 1.5 0 0 0 .251-2.979c-5.881-1.005-12.262-4.554-15.7-6.87q.63-.9 1.261-1.843A34.276 34.276 0 0 0 46.992 40h.082a1.5 1.5 0 0 0 .08-3 31.5 31.5 0 0 1-15.063-5.2c.213-.332.425-.657.639-.995l.609-.961a61.39 61.39 0 0 0 15.5 4.646 1.559 1.559 0 0 0 .192.012 1.5 1.5 0 0 0 .189-2.988 57.616 57.616 0 0 1-14.257-4.233l.688-1.091Z"/></svg>