<svg xmlns="http://www.w3.org/2000/svg" viewBox="0 0 60 60"><path d="M31.078 22.714c2.365-1.269 4.179-2.211 6.353-2.211s3.989.942 6.353 2.211l.472-.881-.472.881.08.043c2.292 1.23 5.077 2.73 8.635 2.73a2 2 0 0 0 0-4c-2.428 0-4.389-.991-6.744-2.255l-.161-.087a18.244 18.244 0 0 0-7.338-2.6 1.515 1.515 0 0 0-.332-.039h-.987a1.517 1.517 0 0 0-.333.039 18.233 18.233 0 0 0-7.337 2.6l-.162.087c-2.322 1.246-4.259 2.226-6.64 2.253-2.381-.027-4.319-1.007-6.641-2.253l-.161-.087C13.454 17.959 10.8 16.5 7.5 16.5a2 2 0 0 0-.3 3.969 1.494 1.494 0 0 0 .3.031c2.174 0 3.988.942 6.353 2.211l.081.043a19.212 19.212 0 0 0 7.556 2.674 1.472 1.472 0 0 0 .384.056h1.183a1.472 1.472 0 0 0 .384-.056A19.212 19.212 0 0 0 31 22.757l.081-.043M31 31.765l.081-.043c2.365-1.269 4.179-2.211 6.353-2.211s3.989.942 6.353 2.211l.08.043c2.292 1.23 5.077 2.73 8.635 2.73a2 2 0 1 0 0-4c-2.428 0-4.389-.991-6.744-2.255l-.161-.086a18.244 18.244 0 0 0-7.338-2.6 1.515 1.515 0 0 0-.332-.039h-.987a1.508 1.508 0 0 0-.332.039 18.244 18.244 0 0 0-7.338 2.6l-.162.087c-2.322 1.245-4.259 2.225-6.64 2.252-2.381-.027-4.319-1.007-6.641-2.253l-.161-.086c-2.21-1.187-4.868-2.643-8.164-2.643a2 2 0 0 0-.3 3.969 1.494 1.494 0 0 0 .3.031c2.174 0 3.988.942 6.353 2.211l.473-.881-.006.01-.467.871.081.043a19.213 19.213 0 0 0 7.555 2.674 1.486 1.486 0 0 0 .385.056h1.183a1.486 1.486 0 0 0 .385-.056A19.213 19.213 0 0 0 31 31.765M52.5 39.5c-2.428 0-4.389-.992-6.743-2.255l-.162-.087a18.229 18.229 0 0 0-7.338-2.6 1.515 1.515 0 0 0-.332-.039h-.987a1.517 1.517 0 0 0-.333.039 18.224 18.224 0 0 0-7.337 2.6l-.162.087c-2.322 1.245-4.259 2.224-6.64 2.252-2.381-.028-4.319-1.007-6.641-2.253l-.162-.087c-2.209-1.182-4.863-2.638-8.163-2.638a2 2 0 0 0 0 4c2.174 0 3.988.942 6.353 2.211l.081.043a19.212 19.212 0 0 0 7.556 2.674 1.472 1.472 0 0 0 .384.056h1.183a1.486 1.486 0 0 0 .385-.056A19.213 19.213 0 0 0 31 40.773l.081-.043c2.365-1.269 4.179-2.211 6.353-2.211s3.989.942 6.353 2.211l.08.043C46.157 42 48.942 43.5 52.5 43.5a2 2 0 0 0 0-4Z"/></svg>