<svg xmlns="http://www.w3.org/2000/svg" viewBox="0 0 60 60">
  <path fill-rule="evenodd" d="M5.679 17.17C5.679 11.554 10.213 7 15.806 7h28.39c5.593 0 10.127 4.553 10.127 10.17v3.848c0 .133.102.243.234.252 3.041.22 5.443 2.77 5.443 5.88v13.499l-6.622 6.65h-1.643a.252.252 0 0 0-.252.252V53H48.26v-5.449a.252.252 0 0 0-.252-.253h-36.02a.252.252 0 0 0-.252.253V53H8.517v-5.449a.252.252 0 0 0-.252-.253H6.622L0 40.648V27.15c0-3.11 2.403-5.66 5.444-5.879a.252.252 0 0 0 .235-.252V17.17Zm10.127-6.934c-3.815 0-6.906 3.105-6.906 6.935v3.847c0 .133.103.243.234.252 3.041.22 5.444 2.769 5.444 5.88v5.256c0 .14.112.252.252.252h30.34c.14 0 .252-.113.252-.252v-5.257c0-3.11 2.403-5.66 5.445-5.879a.252.252 0 0 0 .234-.252V17.17c0-3.83-3.091-6.935-6.906-6.935H15.806ZM5.87 24.491a2.654 2.654 0 0 0-2.647 2.658v12.054c0 .067.026.132.074.18l4.586 4.605a.252.252 0 0 0 .178.074h43.88a.252.252 0 0 0 .178-.074l4.586-4.606a.253.253 0 0 0 .074-.178V27.148a2.654 2.654 0 0 0-2.647-2.658h-2.84a2.654 2.654 0 0 0-2.647 2.658v8.746H11.356v-8.746a2.654 2.654 0 0 0-2.648-2.658H5.87Z" clip-rule="evenodd"/>
</svg>
