<?xml version="1.0" encoding="UTF-8"?><svg id="Layer_1" xmlns="http://www.w3.org/2000/svg" viewBox="0 0 144 144"><path class="cls-1" d="M110.6,109.33H33.4l-2.5-2.5V37.17l2.5-2.5H110.6l2.5,2.5V106.83l-2.5,2.5Zm-74.7-5H108.1V39.67H35.9V104.33Z"/><rect class="cls-1" x="30.9" y="57.26" width="81.25" height="5"/><path class="cls-1" d="M39.99,61.32c-.36,0-.73-.08-1.07-.24-1.25-.59-1.78-2.08-1.18-3.33l9.41-19.77c.59-1.25,2.08-1.78,3.33-1.18,1.25,.59,1.78,2.08,1.18,3.33l-9.41,19.77c-.43,.9-1.32,1.43-2.26,1.43Z"/><path class="cls-1" d="M58.82,61.32c-.36,0-.73-.08-1.07-.24-1.25-.59-1.78-2.08-1.18-3.33l9.41-19.77c.59-1.25,2.08-1.78,3.33-1.18,1.25,.59,1.78,2.08,1.18,3.33l-9.41,19.77c-.43,.9-1.32,1.43-2.26,1.43Z"/><path class="cls-1" d="M77.65,61.32c-.36,0-.73-.08-1.07-.24-1.25-.59-1.78-2.08-1.18-3.33l9.41-19.77c.59-1.25,2.08-1.78,3.33-1.18,1.25,.59,1.78,2.08,1.18,3.33l-9.41,19.77c-.43,.9-1.32,1.43-2.26,1.43Z"/><path class="cls-1" d="M96.48,61.32c-.36,0-.73-.08-1.07-.24-1.25-.59-1.78-2.08-1.18-3.33l9.41-19.77c.59-1.25,2.08-1.78,3.33-1.18,1.25,.59,1.78,2.08,1.18,3.33l-9.41,19.77c-.43,.9-1.32,1.43-2.26,1.43Z"/></svg>