<svg viewBox="0 0 60 60" xmlns="http://www.w3.org/2000/svg"><g clip-path="url(#a)"><path d="M28.683 55.394c-15.924 2.903-23.385.123-23.458.086L4 58.542C4.22 58.628 7.822 60 15.209 60a78.39 78.39 0 0 0 14.05-1.372c15.999-2.891 24.34-.098 24.427 0l1.102-3.1c-.367-.195-9.138-3.209-26.104-.134ZM42.477 17.946l-3.32 1.813v26.264c1.164-.098 2.254-.098 3.32-.098V21.744l12.36 7.129 1.654-2.842-14.014-8.085ZM35.127 16.427l.992-.563-.992.563ZM25.633 25.725l11.025-6.395 4.594-2.597V0h-3.295v14.822l-1.813 1.005-1.017.576-11.148 6.492 1.654 2.83ZM16.495 48.57c1.005 0 2.132-.073 3.283-.146v-14.48l8.894 5.133 1.653-2.842L19.79 30.11 16.495 31.9V48.57ZM14.792 31.115l3.994-2.279V15.84h-3.259v11.11l-10.56 6.064 1.642 2.842 8.183-4.74Z"/><path d="M28.683 48.596c-15.925 2.903-23.385.122-23.458.085l-.723 1.899-.465 1.151c.22.086 3.822 1.458 11.208 1.458a77.235 77.235 0 0 0 14.05-1.36c16-2.89 24.341-.098 24.427 0l1.103-3.111-.429-.123c-1.985-.636-10.596-2.743-25.713 0Z"/></g><defs><clipPath id="a"><path fill="#fff" d="M0 0h60v60H0z"/></clipPath></defs></svg>