<svg xmlns="http://www.w3.org/2000/svg" viewBox="0 0 24 24">
  <path d="M19.9 4.59a3.62 3.62 0 0 0-5.11 0L11.18 8.2l-.94-.95a.75.75 0 0 0-1.06 0 .74.74 0 0 0 0 1.06l.94.95L4 15.41a1.78 1.78 0 0 0-.51 1.25v3.62a.74.74 0 0 0 .75.75h3.59a1.74 1.74 0 0 0 1.24-.51l6.16-6.16.95 1a.71.71 0 0 0 .53.22.74.74 0 0 0 .53-.22.75.75 0 0 0 0-1.06l-.95-.95 3.61-3.66a3.61 3.61 0 0 0 0-5.1ZM8 19.46a.24.24 0 0 1-.18.07H5v-2.87a.26.26 0 0 1 0-.19l6.15-6.15 3 3ZM18.84 8.63l-3.61 3.61-3-3 3.62-3.61a2.11 2.11 0 1 1 3 3Z"/>
</svg>
