<svg viewBox="0 0 60 60" xmlns="http://www.w3.org/2000/svg"><g clip-path="url(#a)"><path d="M46.024 11.783a13.398 13.398 0 0 0-9.518-3.94H32.12V3.265h11.145V0H17.7v3.265h11.144V7.82h-4.385A13.542 13.542 0 0 0 11 21.337v27.711l4 3.94h31.024l3.94-4v-27.65a13.397 13.397 0 0 0-3.94-9.555Zm.699 37.94H14.265v-15.06h32.458v15.06Zm0-28.386v10.06H14.265v-10.06a10.253 10.253 0 0 1 10.193-10.253h12.048a10.231 10.231 0 0 1 10.253 10.23l-.036.023Z"/><path d="M18.313 44c.23.233.504.418.808.542a2.483 2.483 0 1 0 0-4.59 2.507 2.507 0 0 0-1.53 2.289c-.013.338.049.675.18.988.131.288.315.55.542.77ZM40.88 44.735a2.518 2.518 0 0 0 2.3-1.542c.184-.446.238-.935.157-1.41a2.53 2.53 0 0 0-2.012-1.952 1.697 1.697 0 0 0-.494 0c-.338 0-.672.06-.988.181a2.554 2.554 0 0 0-1.12.928 2.41 2.41 0 0 0-.422 1.385 2.506 2.506 0 0 0 2.578 2.41ZM45.867 56.735h-30.77V60h30.77v-3.265Z"/></g><defs><clipPath id="a"><path fill="#fff" d="M0 0h60v60H0z"/></clipPath></defs></svg>