<svg xmlns="http://www.w3.org/2000/svg" viewBox="0 0 60 60"><path d="M46.8 42.5l-7.1-1.4c-.5-.1-1.1-.1-1.6 0L37 36.7c2.8-2.1 4.5-5.4 4.5-9.2V24h3.8v-3h-.8v-3.1c.1-8-6.3-14.5-14.3-14.5-8-.1-14.5 6.3-14.5 14.3V21h-.8v3h3.8v3.5c0 3.7 1.8 7 4.5 9.2l-1.1 4.5c-.5-.1-1-.1-1.6 0l-7.1 1.4C9 43.3 6 47 6 51.3V54h3v-2.7c0-2.9 2-5.3 4.8-5.9l7.1-1.4c.2 0 .4 0 .6.1 4.9 3.3 11.2 3.4 16.2.5.1 0 .2-.1.3-.2.2-.1.4-.2.5-.3s.4-.2.6-.1l7.1 1.4c2.8.6 4.8 3 4.8 5.9V54h3v-2.7c0-4.3-3-8-7.2-8.8zM18.6 17.7c0-5.8 4.4-10.4 9.9-11.2v4h3v-4c5.6.8 10 5.6 9.9 11.4V21H18.6v-3.3zm6.1 24.8l1.1-4.3c2.6 1 5.9 1 8.5 0l1.1 4.3c-3.4 1.6-7.4 1.6-10.7 0zM30 36c-4.7 0-8.5-3.8-8.5-8.5V24h17v3.5c0 4.7-3.8 8.5-8.5 8.5z"></path></svg>