<svg xmlns="http://www.w3.org/2000/svg" viewBox="0 0 20 16"><path d="M17.552 0H2.447A2.464 2.464 0 0 0 0 2.475v11.051a2.471 2.471 0 0 0 .722 1.755A2.413 2.413 0 0 0 2.445 16h15.108A2.464 2.464 0 0 0 20 13.526V2.475A2.464 2.464 0 0 0 17.552 0Zm0 1.548a.87.87 0 0 1 .488.166l-7.3 5.266a1.288 1.288 0 0 1-.759.246 1.321 1.321 0 0 1-.76-.247L1.948 1.721a.879.879 0 0 1 .5-.173Zm0 12.9H2.445a.892.892 0 0 1-.636-.267.929.929 0 0 1-.271-.659V3.331l6.781 4.905a2.857 2.857 0 0 0 1.657.538 2.809 2.809 0 0 0 1.655-.536l6.828-4.925v10.213a.919.919 0 0 1-.906.926Z" /></svg>