<svg width="24" height="24" viewBox="0 0 24 24" fill="none" xmlns="http://www.w3.org/2000/svg">
<path d="M19.3892 9.87598e-05C19.8864 0.12279 20.3977 0.206737 20.8791 0.375218C23.2924 1.21938 24.8481 3.89336 24.4331 6.41998C24.2358 7.62107 23.7351 8.666 22.878 9.52719C21.1216 11.2942 19.3792 13.0764 17.584 14.8035C15.557 16.7531 12.0606 16.8482 9.88618 14.692C9.25922 14.0703 9.21754 13.1205 9.78932 12.4718C10.3282 11.8601 11.3074 11.7808 11.9743 12.3115C12.3294 12.5939 12.6705 12.8839 13.1278 13.0001C13.9773 13.2162 14.7457 13.07 15.3938 12.4765C15.9292 11.9863 16.4311 11.4597 16.9453 10.9467C18.1453 9.74968 19.3487 8.55622 20.5416 7.35161C21.6957 6.18634 21.4568 4.32072 20.0625 3.52645C19.1332 2.99694 17.9504 3.16542 17.1532 3.95382C16.2092 4.88722 15.2664 5.82296 14.3383 6.7722C14.0964 7.01935 13.8734 7.08157 13.5493 6.95184C12.7727 6.64129 11.9567 6.51625 11.1219 6.51625C10.9182 6.51625 10.7515 6.46401 10.664 6.26324C10.5789 6.06776 10.6593 5.91454 10.7955 5.77893C12.2402 4.34127 13.6732 2.89069 15.1361 1.47122C15.9908 0.641735 17.0451 0.192648 18.2269 0.0447139C18.2873 0.0370823 18.346 0.0147748 18.4053 -0.000488281C18.7335 -0.000488281 19.0616 -0.000488281 19.3898 -0.000488281L19.3892 9.87598e-05Z" fill="white"/>
<path d="M0.5 17.9515C0.597449 17.5113 0.666133 17.0622 0.798217 16.633C1.06591 15.7672 1.55433 15.0287 2.1942 14.3888C3.85024 12.731 5.50159 11.0679 7.16409 9.41714C9.07667 7.51747 11.841 7.17112 14.107 8.54421C14.5949 8.84008 15.0704 9.17058 15.375 9.66898C15.7713 10.3177 15.638 11.1648 15.0962 11.6356C14.4992 12.1533 13.6362 12.1868 13.0275 11.7001C12.6735 11.4172 12.3347 11.1243 11.8774 11.0057C11.028 10.7849 10.2695 10.9405 9.60442 11.5129C9.40365 11.6855 9.22226 11.8815 9.0344 12.0694C7.50399 13.5986 5.97064 15.1255 4.44433 16.6589C3.4898 17.6181 3.44988 19.0869 4.34042 20.035C5.27969 21.0347 6.81598 21.057 7.81571 20.0737C8.62289 19.2794 9.41774 18.4722 10.2185 17.6709C10.3952 17.4942 10.5766 17.3216 10.7474 17.1391C10.9123 16.963 11.0961 16.9242 11.3192 17.0111C12.1504 17.3351 13.014 17.4872 13.9057 17.4831C14.1006 17.4825 14.2579 17.5494 14.336 17.7426C14.4117 17.9298 14.336 18.0783 14.208 18.2075C13.6849 18.7335 13.1607 19.2589 12.6347 19.7819C11.6931 20.7183 10.7809 21.6869 9.79932 22.5792C8.51135 23.7497 6.96039 24.2018 5.24388 23.9153C3.02545 23.5443 1.54493 22.2481 0.789998 20.1377C0.642064 19.7238 0.594514 19.2741 0.500587 18.8409C0.500587 18.5439 0.500587 18.2474 0.500587 17.9504L0.5 17.9515Z" fill="white"/>
</svg>
