<svg xmlns="http://www.w3.org/2000/svg" viewBox="0 0 60 60"><path d="M52.648 35.669a1.5 1.5 0 0 0-2 .7L48.811 40.2h-8.934a1.5 1.5 0 0 0-1.06.438l-8.057 8.039a1.538 1.538 0 0 0 .2-.369l6.59-17.864 7.305-5.824a1.5 1.5 0 0 0-1.87-2.346l-7.632 6.085a1.5 1.5 0 0 0-.473.654L31.009 39.5l.471-14.495 5.439-5.67a1.5 1.5 0 1 0-2.164-2.077L30.2 22.013 20.013 7.152a1.5 1.5 0 0 0-2.475 1.7l10.947 15.973-.749 23.04L22.6 44.4l-4.485-7.98 6.13-5.284a1.5 1.5 0 1 0-1.959-2.272l-5.671 4.888-1.47-2.615a1.5 1.5 0 0 0-.816-.682l-5.388-1.872a1.5 1.5 0 0 0-.984 2.834l4.851 1.683 2.075 3.69.029.052 3.215 5.718-9.591-3.66a1.5 1.5 0 0 0-1.072 2.8l13.309 5.088 6.848 4.619-.018.545a1.5 1.5 0 0 0 1.45 1.548h.05a1.5 1.5 0 0 0 .294-.029c.052.005.1.03.154.03a1.5 1.5 0 0 0 1.059-.438L40.5 43.2h9.258a1.5 1.5 0 0 0 1.352-.851l2.246-4.681a1.5 1.5 0 0 0-.708-1.999Z" /></svg>