<svg viewBox="0 0 24 40" fill="none" xmlns="http://www.w3.org/2000/svg">
<path d="M15.9662 21.3391C15.1643 22.0227 14.3114 22.6442 13.415 23.1982L13.2758 23.2801C14.4932 24.3413 15.5917 25.5317 16.5518 26.8305H6.66232C8.22406 24.6853 10.1675 22.846 12.3953 21.4046C12.9031 21.1261 23.6607 14.6396 23.3822 1.8837C23.3822 1.26945 23.3413 0.655201 23.2717 0L20.0407 0.33579C20.1536 1.40626 20.1755 2.48438 20.1062 3.55856H3.09967C3.02336 2.48609 3.04255 1.40896 3.157 0.339885L-0.0739576 0C-1.1837 10.647 5.35192 17.2809 8.80811 20C5.35192 22.7191 -1.1837 29.3735 -0.0739576 40L0.814658 39.9058L3.157 39.6642C3.04281 38.6172 3.01541 37.5626 3.0751 36.5111H20.1103C20.1741 37.5622 20.1508 38.6169 20.0407 39.6642L23.2717 40C24.2299 30.8272 19.492 24.6151 15.9662 21.3391ZM19.578 6.80999C19.2953 7.90253 18.9114 8.96637 18.4314 9.98771H4.7991C4.31422 8.96663 3.92489 7.90285 3.63612 6.80999H19.578ZM6.7606 13.2391H16.4862C15.1169 15.0839 13.4704 16.7056 11.605 18.0467C9.75684 16.6978 8.12354 15.0769 6.7606 13.2391ZM5.16355 33.2596H3.59926C3.87792 32.1675 4.25766 31.1036 4.73358 30.0819H18.4641C18.94 31.1036 19.3198 32.1675 19.5984 33.2596H5.16355Z" stroke="#F0F0EE"/>
</svg>
