<?xml version="1.0" encoding="UTF-8"?><svg id="Layer_1" xmlns="http://www.w3.org/2000/svg" viewBox="0 0 144 144"><path class="cls-1" d="M117.14,68.26c-5.01-2.41-10.96-6-17.26-9.8-11.89-7.17-25.36-15.29-32.73-15.29-9.93,0-29.74,9.41-39.26,13.93l-2.32,1.1-2.13-4.52,2.31-1.09c10.61-5.04,30.35-14.42,41.41-14.42,8.76,0,22.26,8.14,35.31,16.01,6.2,3.74,12.05,7.27,16.85,9.57l-2.17,4.51Z"/><path class="cls-1" d="M91.53,103.68c-.53-3.73-5.76-15.19-23.33-23.36-18.72-8.71-25.4-13.73-25.53-19.17-.11-4.77,5.24-7.56,7-8.48,4.36-2.27,8.8-3.58,12.37-4.63,3.45-1.01,7.01-2.06,7.57-3.3,.21-.46,.03-1.34-.5-2.48l4.52-2.13c1.22,2.58,1.39,4.76,.54,6.65-1.5,3.34-5.57,4.53-10.71,6.05-3.53,1.04-7.54,2.22-11.47,4.27-2.76,1.44-4.33,2.87-4.31,3.93,.1,4.27,17.06,12.16,22.64,14.76,23.6,10.98,26.07,26.53,26.17,27.19l-4.95,.71Z"/><path class="cls-1" d="M118.16,56.25c-7.63-4.84-15.44-9.79-20.06-9.79-2.44,0-6.71,.61-12.02,1.71-1.34,.28-1.81,.5-1.81,.51,.13-.07,.18-.11,.18-.11l-2.84-4.11c.62-.43,1.82-.84,3.46-1.18,3.98-.83,9.48-1.81,13.03-1.81,6.07,0,14.14,5.11,22.67,10.52l-2.61,4.27Z"/></svg>