<svg viewBox="0 0 60 60" fill="none" xmlns="http://www.w3.org/2000/svg">
<path d="M36.3942 47.7868V49.0048H38.8303V47.7868H36.3942ZM8 47.7868V49.0048H10.436V47.7868H8ZM38.825 47.7868V45.7568H36.389V47.7868H38.825ZM38.825 45.7568C38.825 40.6052 34.6489 36.4291 29.4974 36.4291V38.8652C33.3044 38.8652 36.3942 41.9498 36.3942 45.762H38.8303L38.825 45.7568ZM29.4974 36.4291H17.3277V38.8652H29.4974V36.4291ZM17.3277 36.4291C12.1761 36.4291 8 40.6052 8 45.7568H10.436C10.436 41.9498 13.5207 38.8599 17.3329 38.8599V36.4238L17.3277 36.4291ZM8 45.7568V47.7868H10.436V45.7568H8Z" />
<path d="M23.4127 30.8557C18.2137 30.8557 13.9849 26.6269 13.9849 21.4278C13.9849 16.2288 18.2137 12 23.4127 12C28.6117 12 32.8405 16.2288 32.8405 21.4278C32.8405 26.6269 28.6117 30.8557 23.4127 30.8557ZM23.4127 14.6311C19.669 14.6311 16.6213 17.6788 16.6213 21.4226C16.6213 25.1663 19.669 28.214 23.4127 28.214C27.1564 28.214 30.2041 25.1663 30.2041 21.4226C30.2041 17.6788 27.1564 14.6311 23.4127 14.6311V14.6311Z" />
<path d="M48.5586 47.7864V49.0044H50.9946V47.7864H48.5586ZM50.9946 47.7864V45.7564H48.5586V47.7864H50.9946ZM50.9946 45.7564C50.9946 40.6048 46.8186 36.4287 41.667 36.4287V38.8648C45.474 38.8648 48.5639 41.9494 48.5639 45.7616H50.9999L50.9946 45.7564Z" />
<path d="M35.582 12.0947H34.364V14.5308H35.582V12.0947V12.0947ZM35.582 28.3192H34.364V30.7553H35.582V28.3192ZM35.582 14.5308C39.389 14.5308 42.4789 17.6154 42.4789 21.4277H44.915C44.915 16.2761 40.7389 12.1 35.5873 12.1V14.5361L35.582 14.5308ZM42.4789 21.4277C42.4789 25.2346 39.3943 28.3245 35.582 28.3245V30.7606C40.7336 30.7606 44.9097 26.5845 44.9097 21.4329H42.4736L42.4789 21.4277Z"/>
</svg>
