<svg xmlns="http://www.w3.org/2000/svg" viewBox="0 0 24 24">
  <path d="M15.8261 3c-.1782 0-.2674.21543-.1414.34143l1.7799 1.77982-1.9595 1.9595c-.1172.11715-.1172.3071 0 .42426l.99.98999c.1171.11715.3071.11715.4243 0l1.9594-1.9595 1.7799 1.77993c.126.126.3414.03677.3414-.14141V3.4c0-.22091-.1791-.4-.4-.4h-4.774Zm1.0932 12.5051c-.1171-.1172-.3071-.1172-.4242 0l-.99.9899c-.1171.1171-.1172.3071 0 .4242l1.9595 1.9595-1.78 1.78c-.126.126-.0367.3414.1415.3414h4.774c.2209 0 .4-.1791.4-.4v-4.774c0-.1782-.2154-.2675-.3414-.1415l-1.7799 1.7799-1.9595-1.9594ZM7.08038 8.4945c.11715.11716.30709.11716.42425.00001l.98998-.98988c.11716-.11716.11717-.30711.00001-.42427l-1.959-1.95911 1.77983-1.77983C8.44145 3.21543 8.35221 3 8.17403 3H3.4c-.22091 0-.4.17909-.4.4v4.77403c0 .17818.21543.26742.34142.14142L5.12138 6.5355l1.959 1.959Zm.4245 7.0106c-.11716-.1172-.3071-.1172-.42425 0l-1.95925 1.9592-1.77996-1.7798c-.126-.126-.34142-.0368-.34142.1414V20.6c0 .2209.17909.4.4.4h4.77403c.17818 0 .26742-.2155.14142-.3415L6.5355 18.8786l1.95936-1.9594c.11716-.1171.11715-.3071-.00001-.4242l-.98997-.9899Z"/>
</svg>
