<svg xmlns="http://www.w3.org/2000/svg" viewBox="-5 0 70 70"><path d="m57.1 15.4-1.7-2.5-1.2.8-5.3 3.5c-1.8 1.2-2.9 3.2-2.9 5.4v.8h-4.5V23c0-3.9-2.2-7.4-5.6-9.3l-2.2-2.2c-2-2-4.7-3.1-7.5-3.1s-5.5 1.1-7.5 3.1l-2.2 2.2c-3.4 1.8-5.6 5.4-5.6 9.3v.4H6v8.1l7.1 7.6C11.8 40.8 11 42.8 11 45c0 5 4 9 9 9 4.5 0 8.1-3.3 8.9-7.5h8l3.5 3.5c.9.9 2.2 1.5 3.6 1.5 1.3 0 2.6-.5 3.6-1.5.9-.9 1.5-2.2 1.5-3.6V22.7c0-1.2.6-2.3 1.6-2.9l5.3-3.5 1.1-.9zm-38.5.7 2.3-2.3c1.4-1.4 3.3-2.2 5.3-2.2s3.9.8 5.3 2.2l2.3 2.3c.1.1.2.2.4.3 2.6 1.3 4.2 3.9 4.2 6.7v.4H14v-.4c0-2.9 1.6-5.5 4.2-6.7.1-.1.3-.2.4-.3M9 26.5h37v5.3L34.4 43.5h-5.5c-.8-4.2-4.4-7.5-8.9-7.5-1.7 0-3.2.5-4.6 1.3L9 30.4v-3.9zM20 51c-3.3 0-6-2.7-6-6 0-1.5.5-2.8 1.4-3.9l1-.9c1-.7 2.2-1.2 3.6-1.2 3.3 0 6 2.7 6 6s-2.7 6-6 6zm25.4-3.1c-.4.4-.9.6-1.4.6s-1.1-.2-1.4-.6l-4.2-4.2L46 36v10.4c0 .6-.2 1.1-.6 1.5z" /></svg>