<svg xmlns="http://www.w3.org/2000/svg" viewBox="0 0 24 24">
  <path d="M3.82608 15c-.17818 0-.26741.2154-.14142.3414l1.77994 1.7799-1.9595 1.9594c-.11716.1172-.11716.3072 0 .4243l.98999.99c.11716.1172.3071.1172.42426 0l1.9595-1.9595 1.77983 1.7799c.12599.126.34142.0368.34142-.1414V15.4c0-.2209-.17909-.4-.4-.4H3.82608ZM4.91934 3.50508c-.11715-.11715-.30709-.11715-.42425 0l-.98997.98988c-.11717.11716-.11717.30712-.00001.42428l1.95948 1.95948-1.77995 1.77996c-.12599.12599-.03676.34142.14142.34142h4.77403c.22092 0 .4-.17909.4-.4V3.82606c0-.17818-.21543-.26741-.34142-.14142L6.87884 5.46447l-1.9595-1.95939ZM19.0804 20.4945c.1171.1172.3071.1172.4242 0l.99-.9899c.1172-.1171.1172-.3071 0-.4242l-1.959-1.9591 1.7799-1.7799c.1259-.126.0367-.3414-.1415-.3414H15.4c-.2209 0-.4.1791-.4.4v4.774c0 .1782.2154.2674.3414.1415l1.78-1.78 1.959 1.959Zm.4245-16.98942c-.1172-.11715-.3071-.11714-.4243.00001l-1.9592 1.95925-1.78-1.77985C15.2154 3.5585 15 3.64774 15 3.82592v4.77404c0 .22092.1791.4.4.4h4.774c.1782 0 .2674-.21543.1415-.34142l-1.78-1.77995 1.9594-1.95936c.1171-.11716.1171-.30711-.0001-.42427l-.9899-.98988Z"/>
</svg>
