<svg width="100" height="100" viewBox="0 0 17 24" fill="none" xmlns="http://www.w3.org/2000/svg">
<path d="M4.18848 24C4.1846 23.8993 4.17685 23.7985 4.17685 23.6959C4.17685 20.2592 4.17685 16.8226 4.17685 13.3879V13.0586H0.5V8.79085H4.17491C4.17491 8.67074 4.17491 8.57969 4.17491 8.48864C4.17879 7.3728 4.15167 6.25308 4.19816 5.13918C4.25434 3.79475 4.65147 2.56267 5.60071 1.55725C6.3233 0.793985 7.22217 0.361984 8.23921 0.143078C9.06447 -0.0312725 9.90135 -0.00996304 10.7363 0.0210326C11.4143 0.0462165 12.0924 0.10627 12.7684 0.150827C12.8207 0.154701 12.875 0.170199 12.9389 0.181822V3.98653C12.8576 3.98653 12.7762 3.98653 12.6948 3.98653C11.8599 3.99816 11.023 3.98653 10.19 4.02915C9.20395 4.07952 8.64797 4.62775 8.60535 5.61961C8.56273 6.64828 8.58985 7.68082 8.58791 8.71142C8.58791 8.72498 8.5976 8.73854 8.61503 8.77923H12.8014C12.6173 10.2147 12.4352 11.6173 12.2531 13.0469H8.60341C8.59566 13.138 8.58404 13.2058 8.58404 13.2717C8.58404 16.7935 8.58404 20.3154 8.58404 23.8373C8.58404 23.8915 8.59179 23.9458 8.59566 24H4.18848Z" fill="white"/>
</svg>
