<?xml version="1.0" encoding="utf-8"?>
<!-- Generator: Adobe Illustrator 26.2.1, SVG Export Plug-In . SVG Version: 6.00 Build 0)  -->
<svg version="1.1" id="Layer_1" xmlns="http://www.w3.org/2000/svg" xmlns:xlink="http://www.w3.org/1999/xlink" x="0px" y="0px"
	 viewBox="0 0 55.7 55.7" style="enable-background:new 0 0 55.7 55.7;" xml:space="preserve">
<g>
	<polygon points="31.7,37.5 37.3,32.4 35.3,30.2 31.7,33.4 31.7,26.4 28.7,26.4 28.7,30.5 25.1,27.2 23.1,29.4 28.7,34.6 28.7,42 
		15.6,42 15.6,37.5 21.2,32.4 19.1,30.2 15.6,33.4 15.6,27.8 21.2,22.7 19.1,20.4 15.6,23.7 15.6,18.3 12.6,18.3 12.6,27.7 
		8.9,24.3 6.8,26.6 12.6,31.8 12.6,42 7.3,42 7.3,44.8 50.8,44.8 50.8,42 31.7,42 	"/>
	<path d="M50.1,29.3c0-1-0.8-1.9-1.9-1.9s-1.9,0.8-1.9,1.9c0,1,0.9,1.9,1.9,1.9S50.1,30.3,50.1,29.3z"/>
	<path d="M41.7,37.5c0-1-0.9-1.9-1.9-1.9c-1,0-1.9,0.8-1.9,1.9s0.8,1.9,1.9,1.9C40.8,39.3,41.7,38.5,41.7,37.5z"/>
	<path d="M14.9,14.7c1,0,1.9-0.8,1.9-1.9c0-1-0.9-1.9-1.9-1.9S13,11.8,13,12.8C13,13.8,13.9,14.7,14.9,14.7z"/>
	<path d="M1.9,31.7c-1,0-1.9,0.8-1.9,1.9c0,1,0.8,1.9,1.9,1.9c1,0,1.9-0.8,1.9-1.9C3.8,32.5,3,31.7,1.9,31.7z"/>
	<path d="M54.2,12.9c-3.3,0-6.3,1.2-8,3.1c-2.4-2.5-6.3-4-10.5-4c-4.8,0-9.2,2-11.5,5.2L23.9,18l0.3,0.8c2.2,3.2,6.7,5.2,11.5,5.2
		c4,0,7.7-1.4,10.2-3.7c1.7,2.2,5.3,3.5,8.4,3.5l1.5-1.6v-8L54.2,12.9z M35.7,21.1c-3.4,0-6.5-1.1-8.3-3.1c1.9-1.9,5-3.1,8.3-3.1
		c3.4,0,6.5,1.1,8.3,3.1C42.2,19.9,39.1,21.1,35.7,21.1z M52.7,20.9c-2.1-0.4-4-1.5-4.6-2.4c0.6-1,2.2-2,4.6-2.3V20.9z"/>
</g>
</svg>
