<svg xmlns="http://www.w3.org/2000/svg" viewBox="0 0 60 60"><path d="M12.9 60C5.7 60 1.5 58.9 0 58.3l1.1-2.9c1.7.6 5.6 1.5 11.9 1.5 4.9 0 10.3-.6 16.1-1.7 6.1-1.2 12-1.7 17.4-1.7 7.7 0 12.1 1.2 13.4 1.6l-1 3c-1.8-.6-6-1.4-12.8-1.4-5.1 0-10.7.6-16.4 1.7-5.9 1-11.6 1.6-16.8 1.6zm.1-8.4C5.9 51.6 1.8 50.5.1 50l1.1-2.9c1.5.5 5.4 1.4 11.8 1.4 5 0 10.4-.6 16.3-1.7 6-1.1 11.8-1.7 17.1-1.7 7.6 0 12.1 1.2 13.6 1.7l-1 2.9c-3.4-.9-7.9-1.4-12.8-1.4-5.1 0-10.6.6-16.4 1.7-5.9 1-11.6 1.6-16.8 1.6zm15.5-19.1h-.7c-8.1-.6-13.1-6.2-13-14.6l3.4-3.1c5.1.4 9 2.7 11.2 6.6l.5.9.5-.9c2.1-3.9 6-6.2 11.2-6.6l3.4 3.1c.2 8.4-4.7 14-12.9 14.6h-.7v9.2l-2.4.5h-.1c-.2 0-.4 0-.5.1v-9.8zM18 18.4c0 6.5 3.5 10.5 9.7 11l.5.1v-.6c0-6.5-3.5-10.5-9.7-11l-.5-.1v.6zm23.6-.5c-6.3.6-9.8 4.6-9.7 11v.5l.5-.1c6.2-.6 9.7-4.6 9.7-11v-.6l-.5.2zm-12.8-1.7c-2.4-2.4-3.5-5-3.5-7.7 0-3.7 2-6.5 2.8-7.6h3.4c2.1 2.4 3.1 5 3.1 7.8-.1 3.8-2.3 6.5-3.2 7.5h-2.6zm.7-11.9c-.8 1.5-1.1 2.8-1.1 4.2s.5 2.6 1.4 4l.4.6.4-.6c.5-.9 1.1-2.3 1.1-3.9s-.5-3-1.4-4.3l-.5-.6-.3.6z" /></svg>