<svg width="48" height="48" viewBox="0 0 48 48" fill="none" xmlns="http://www.w3.org/2000/svg">
<path d="M38.3116 23.262L29.5916 19.662C29.4521 19.6047 29.3329 19.5071 29.2492 19.3817C29.1654 19.2563 29.121 19.1087 29.1216 18.958V10.772C29.1241 10.0987 28.9928 9.43155 28.7353 8.80942C28.4778 8.18729 28.0992 7.62254 27.6216 7.14796C26.9948 6.52767 26.2197 6.07815 25.37 5.84219C24.5204 5.60623 23.6245 5.59169 22.7676 5.79996C21.6353 6.11439 20.6393 6.79537 19.9354 7.7363C19.2315 8.67724 18.8595 9.82502 18.8776 11V26.498L16.0776 23.698C15.5782 23.2148 14.9875 22.8362 14.34 22.5843C13.6924 22.3324 13.0011 22.2122 12.3066 22.2308C11.612 22.2494 10.9281 22.4065 10.295 22.6928C9.66193 22.979 9.09233 23.3888 8.61959 23.898C7.76174 24.9322 7.32751 26.2529 7.40433 27.5944C7.48114 28.9359 8.06329 30.1985 9.03359 31.128L19.3456 41.442C19.6383 41.7355 19.9862 41.9683 20.3693 42.1269C20.7524 42.2855 21.163 42.3667 21.5776 42.366H35.6416C36.3501 42.3671 37.0383 42.1298 37.5955 41.6923C38.1528 41.2547 38.5466 40.6425 38.7136 39.954L41.3356 29.224C41.6343 28.0326 41.4928 26.7735 40.9372 25.6781C40.3816 24.5827 39.4493 23.7248 38.3116 23.262ZM38.9996 28.642L36.3776 39.37C36.3373 39.5358 36.2424 39.6834 36.1082 39.7889C35.974 39.8944 35.8083 39.9519 35.6376 39.952H21.5736C21.3713 39.9524 21.1771 39.8725 21.0336 39.73L10.7236 29.416C10.1921 28.9125 9.86675 28.2295 9.81057 27.4995C9.7544 26.7696 9.97145 26.0449 10.4196 25.466C10.6659 25.19 10.9662 24.9674 11.3019 24.812C11.6376 24.6566 12.0016 24.5717 12.3714 24.5625C12.7412 24.5533 13.1089 24.6201 13.4519 24.7586C13.7949 24.8971 14.1059 25.1045 14.3656 25.368L19.2296 30.232C19.3975 30.3989 19.6111 30.5124 19.8434 30.5582C20.0757 30.6041 20.3163 30.5801 20.535 30.4895C20.7538 30.3988 20.9408 30.2455 21.0726 30.0488C21.2044 29.852 21.275 29.6207 21.2756 29.384V10.984C21.2556 10.3465 21.4469 9.72039 21.8199 9.20308C22.1929 8.68578 22.7265 8.30636 23.3376 8.12396C23.7966 8.00959 24.2774 8.01617 24.7331 8.14306C25.1888 8.26995 25.6038 8.51282 25.9376 8.84796C26.1892 9.09926 26.3885 9.39803 26.5237 9.72693C26.659 10.0558 26.7276 10.4083 26.7256 10.764V18.944C26.7241 19.5698 26.909 20.1818 27.2566 20.7022C27.6042 21.2226 28.0989 21.6277 28.6776 21.866L37.3976 25.466C38.0028 25.7131 38.4982 26.1707 38.7926 26.7543C39.087 27.338 39.1605 28.0084 38.9996 28.642V28.642ZM8.15159 16.642L5.08159 13.6C4.96916 13.4887 4.87983 13.3564 4.81874 13.2105C4.75764 13.0646 4.72599 12.9081 4.72559 12.75V12.75C4.72559 12.73 4.73559 12.714 4.73759 12.694C4.74187 12.5569 4.7696 12.4216 4.81959 12.294C4.84069 12.2615 4.86339 12.2302 4.88759 12.2C4.93643 12.0968 4.99974 12.0012 5.07559 11.916L8.14559 8.83396C8.25708 8.72234 8.38946 8.63377 8.53519 8.57331C8.68091 8.51285 8.83711 8.48168 8.99488 8.48159C9.15265 8.48149 9.30889 8.51248 9.45468 8.57277C9.60047 8.63305 9.73296 8.72147 9.84459 8.83296C9.95621 8.94445 10.0448 9.07684 10.1052 9.22256C10.1657 9.36828 10.1969 9.52449 10.197 9.68225C10.1971 9.84002 10.1661 9.99626 10.1058 10.1421C10.0455 10.2878 9.95708 10.4203 9.84559 10.532L8.81959 11.558H14.1016C14.4198 11.558 14.7251 11.6844 14.9501 11.9094C15.1752 12.1345 15.3016 12.4397 15.3016 12.758C15.3016 13.0762 15.1752 13.3814 14.9501 13.6065C14.7251 13.8315 14.4198 13.958 14.1016 13.958H8.84959L9.84959 14.936C9.96174 15.0468 10.051 15.1786 10.1122 15.324C10.1733 15.4693 10.2053 15.6252 10.2063 15.7829C10.2072 15.9406 10.177 16.0969 10.1176 16.2429C10.0581 16.3889 9.97042 16.5218 9.85959 16.634C9.74875 16.7461 9.61691 16.8353 9.47159 16.8965C9.32628 16.9577 9.17033 16.9897 9.01266 16.9906C8.85498 16.9916 8.69867 16.9614 8.55264 16.9019C8.40662 16.8425 8.27373 16.7548 8.16159 16.644L8.15159 16.642ZM43.2716 12.714C43.2716 12.744 43.2576 12.768 43.2556 12.798C43.251 12.9279 43.2253 13.0562 43.1796 13.178C43.1477 13.2363 43.1109 13.2919 43.0696 13.344C43.0293 13.4225 42.9803 13.4963 42.9236 13.564L39.8536 16.638C39.6284 16.8634 39.3229 16.9901 39.0043 16.9903C38.6857 16.9905 38.38 16.8641 38.1546 16.639C37.9292 16.4138 37.8024 16.1083 37.8022 15.7897C37.802 15.471 37.9284 15.1654 38.1536 14.94L39.1776 13.916H33.8976C33.5793 13.916 33.2741 13.7895 33.0491 13.5645C32.824 13.3394 32.6976 13.0342 32.6976 12.716C32.6976 12.3977 32.824 12.0925 33.0491 11.8674C33.2741 11.6424 33.5793 11.516 33.8976 11.516H39.1516L38.1516 10.536C37.9251 10.3121 37.7968 10.0075 37.7949 9.68903C37.793 9.3706 37.9177 9.06446 38.1416 8.83796C38.3654 8.61147 38.6701 8.48317 38.9885 8.48129C39.307 8.47942 39.6131 8.60412 39.8396 8.82796L42.9096 11.862C43.0214 11.9731 43.1102 12.1052 43.171 12.2507C43.2317 12.3962 43.2632 12.5523 43.2636 12.71L43.2716 12.714Z" fill="white"/>
</svg>
