<svg width="48" height="48" viewBox="0 0 48 48" fill="none" xmlns="http://www.w3.org/2000/svg">
<path d="M40.8798 24.0701L31.7278 20.2841C31.5693 20.2193 31.4339 20.1084 31.339 19.9658C31.2442 19.8232 31.1943 19.6554 31.1958 19.4841V10.9061C31.1992 10.2073 31.0635 9.51487 30.7967 8.86902C30.5299 8.22317 30.1373 7.63683 29.6418 7.14411C28.9906 6.50129 28.1861 6.03532 27.3045 5.79033C26.4229 5.54534 25.4933 5.52943 24.6038 5.74411C23.4278 6.0702 22.3931 6.77725 21.662 7.75446C20.9309 8.73168 20.5447 9.92383 20.5638 11.1441V27.5441L17.5198 24.4981C17.0015 23.9972 16.3884 23.6048 15.7164 23.3438C15.0445 23.0828 14.3273 22.9584 13.6067 22.9779C12.8862 22.9975 12.1767 23.1606 11.52 23.4577C10.8632 23.7548 10.2723 24.1799 9.78184 24.7081C8.89211 25.7818 8.44186 27.1525 8.52163 28.5446C8.60141 29.9368 9.20529 31.2471 10.2118 32.2121L21.0338 43.0361C21.336 43.3392 21.6951 43.5796 22.0905 43.7433C22.4859 43.9071 22.9099 43.9909 23.3378 43.9901H38.0958C38.8259 43.9918 39.5352 43.7477 40.1095 43.2971C40.6839 42.8464 41.0898 42.2156 41.2618 41.5061L44.0118 30.2461C44.3198 29.0121 44.1726 27.7085 43.5974 26.5741C43.0221 25.4398 42.0573 24.5508 40.8798 24.0701V24.0701ZM41.6798 29.6701L38.9298 40.9301C38.8845 41.1169 38.7775 41.2831 38.6262 41.4017C38.4749 41.5203 38.2881 41.5846 38.0958 41.5841H23.3378C23.1127 41.5831 22.8971 41.4933 22.7378 41.3341L11.9098 30.5161C11.3406 29.9778 10.9921 29.2468 10.9322 28.4656C10.8723 27.6844 11.1053 26.9089 11.5858 26.2901C11.8494 25.9942 12.1709 25.7555 12.5304 25.5888C12.8899 25.4222 13.2797 25.331 13.6759 25.3211C14.072 25.3112 14.466 25.3826 14.8334 25.5311C15.2008 25.6795 15.5338 25.9018 15.8118 26.1841L20.9158 31.2881C21.0837 31.4557 21.2974 31.5698 21.53 31.6161C21.7627 31.6623 22.0038 31.6385 22.2229 31.5478C22.4421 31.457 22.6294 31.3034 22.7613 31.1062C22.8931 30.9091 22.9636 30.6773 22.9638 30.4401V11.1341C22.9425 10.4532 23.1465 9.78436 23.5444 9.23139C23.9422 8.67841 24.5115 8.27229 25.1638 8.07611C25.6552 7.95399 26.1699 7.96148 26.6575 8.09785C27.1452 8.23422 27.5891 8.4948 27.9458 8.85411C28.2174 9.12225 28.4328 9.44182 28.5794 9.79415C28.726 10.1465 28.801 10.5245 28.7998 10.9061V19.4921C28.8005 20.1355 28.9922 20.7641 29.3508 21.2982C29.7094 21.8324 30.2186 22.2479 30.8138 22.4921L39.9638 26.2781C40.6116 26.5419 41.1421 27.0308 41.4579 27.6549C41.7736 28.2789 41.8531 28.996 41.6818 29.6741L41.6798 29.6701ZM9.28384 17.0381L5.03984 17.0641C4.72158 17.0641 4.41636 16.9377 4.19132 16.7126C3.96627 16.4876 3.83984 16.1824 3.83984 15.8641V15.8641V11.6001C3.83984 11.2818 3.96627 10.9766 4.19132 10.7516C4.41636 10.5265 4.72158 10.4001 5.03984 10.4001C5.3581 10.4001 5.66333 10.5265 5.88837 10.7516C6.11342 10.9766 6.23984 11.2818 6.23984 11.6001V12.9621L12.7238 6.44211H11.3978C11.0796 6.44211 10.7744 6.31568 10.5493 6.09064C10.3243 5.86559 10.1978 5.56037 10.1978 5.24211C10.1978 4.92385 10.3243 4.61862 10.5493 4.39358C10.7744 4.16854 11.0796 4.04211 11.3978 4.04211L15.5998 4.01611C15.7603 4.01156 15.92 4.03924 16.0695 4.0975C16.219 4.15577 16.3554 4.24344 16.4704 4.35533C16.5855 4.46721 16.6769 4.60104 16.7394 4.7489C16.8018 4.89675 16.8339 5.05562 16.8338 5.21611V9.48611C16.8338 9.80437 16.7074 10.1096 16.4824 10.3346C16.2573 10.5597 15.9521 10.6861 15.6338 10.6861C15.3156 10.6861 15.0104 10.5597 14.7853 10.3346C14.5603 10.1096 14.4338 9.80437 14.4338 9.48611V8.11811L7.93584 14.6461H9.26784C9.42633 14.6428 9.58383 14.6716 9.7309 14.7308C9.87797 14.7899 10.0116 14.8782 10.1237 14.9903C10.2357 15.1024 10.324 15.236 10.3832 15.383C10.4423 15.5301 10.4711 15.6876 10.4678 15.8461C10.4658 16.1602 10.3406 16.461 10.1193 16.6839C9.89788 16.9067 9.59794 17.0339 9.28384 17.0381V17.0381Z" fill="white"/>
</svg>
