<svg xmlns="http://www.w3.org/2000/svg" viewBox="0 0 60 60" xml:space="preserve"><path d="M54.1 38.3c.9-2.6 1.4-5.4 1.4-8.3s-.5-5.7-1.4-8.3c0-.1-.1-.2-.1-.4-3.6-9.8-13-16.8-24-16.8s-20.4 7-24 16.9c-.1.1-.1.2-.1.4-.9 2.5-1.4 5.3-1.4 8.2s.5 5.7 1.4 8.3c0 .1.1.3.1.4 3.6 9.8 13 16.9 24 16.9s20.4-7 24-16.9c0-.2.1-.3.1-.4zm-31.3-1.8c-.8-4.3-.8-8.7 0-13h14.3c.8 4.3.8 8.7 0 13H22.8zm13.6 3c-1.3 4.3-3.4 8.4-6.4 12-3-3.6-5.2-7.7-6.4-12h12.8zM7.5 30c0-2.3.3-4.4 1-6.5h11.3c-.8 4.3-.8 8.7 0 13H8.5c-.7-2.1-1-4.2-1-6.5zm16.1-9.5c1.3-4.3 3.4-8.4 6.4-12 3 3.6 5.2 7.7 6.4 12H23.6zm16.6 3h11.3c.6 2.1 1 4.2 1 6.5s-.3 4.4-1 6.5H40.2c.8-4.3.8-8.7 0-13zm10.2-3H39.5c-1.2-4.6-3.3-8.9-6.3-12.8 7.6 1.1 14 6.1 17.2 12.8zM26.8 7.7c-3 3.8-5.1 8.2-6.3 12.8H9.6c3.2-6.7 9.6-11.7 17.2-12.8zM9.6 39.5h10.8c1.2 4.6 3.3 8.9 6.3 12.8-7.5-1.1-13.9-6.1-17.1-12.8zm23.6 12.8c3-3.8 5.1-8.2 6.3-12.8h10.8c-3.1 6.7-9.5 11.7-17.1 12.8z" /></svg>