<?xml version="1.0" encoding="utf-8"?>
<svg version="1.1" id="Layer_1" xmlns="http://www.w3.org/2000/svg" x="0px" y="0px"
	 viewBox="0 0 60 60" style="enable-background:new 0 0 60 60;" xml:space="preserve">
<g>
	<path d="M22.9,9.2c0.2,0.7,0.8,1.1,1.4,1.1c0.1,0,0.3,0,0.4-0.1c0.8-0.2,1.3-1,1.1-1.8l-1-3.9c-0.2-0.8-1-1.3-1.8-1.1
		c-0.8,0.2-1.3,1-1.1,1.8L22.9,9.2z"/>
	<path d="M37.2,51c-0.2-0.8-1-1.3-1.8-1.1c-0.8,0.2-1.3,1-1.1,1.8l1,3.7c0.2,0.7,0.8,1.1,1.4,1.1c0.1,0,0.3,0,0.4-0.1
		c0.8-0.2,1.3-1,1.1-1.8L37.2,51z"/>
	<path d="M13.5,15.6c0.3,0.3,0.7,0.4,1.1,0.4s0.8-0.1,1.1-0.4c0.6-0.6,0.6-1.5,0-2.1l-2.8-2.8c-0.6-0.6-1.5-0.6-2.1,0
		c-0.6,0.6-0.6,1.5,0,2.1L13.5,15.6z"/>
	<path d="M46.7,44.6c-0.6-0.6-1.5-0.6-2.1,0s-0.6,1.5,0,2.1l2.7,2.7c0.3,0.3,0.7,0.4,1.1,0.4s0.8-0.1,1.1-0.4c0.6-0.6,0.6-1.5,0-2.1
		L46.7,44.6z"/>
	<path d="M4.6,24.7l3.9,1c0.1,0,0.3,0.1,0.4,0.1c0.7,0,1.3-0.4,1.4-1.1c0.2-0.8-0.3-1.6-1.1-1.8l-3.9-1c-0.8-0.2-1.6,0.3-1.8,1.1
		C3.3,23.7,3.8,24.5,4.6,24.7z"/>
	<path d="M55.4,35.3l-3.7-1c-0.8-0.2-1.6,0.3-1.8,1.1c-0.2,0.8,0.3,1.6,1.1,1.8l3.7,1c0.1,0,0.3,0.1,0.4,0.1c0.7,0,1.3-0.4,1.4-1.1
		C56.7,36.3,56.2,35.5,55.4,35.3z"/>
	<path d="M10.3,35.3c-0.2-0.8-1-1.3-1.8-1.1l-3.9,1c-0.8,0.2-1.3,1-1.1,1.8c0.2,0.7,0.8,1.1,1.4,1.1c0.1,0,0.3,0,0.4-0.1l3.9-1
		C10,36.9,10.5,36.1,10.3,35.3z"/>
	<path d="M51.3,25.8c0.1,0,0.3,0,0.4-0.1l3.7-1c0.8-0.2,1.3-1,1.1-1.8s-1-1.3-1.8-1.1l-3.7,1c-0.8,0.2-1.3,1-1.1,1.8
		C50.1,25.3,50.7,25.8,51.3,25.8z"/>
	<path d="M13.5,44.4l-2.8,2.8c-0.6,0.6-0.6,1.5,0,2.1c0.3,0.3,0.7,0.4,1.1,0.4s0.8-0.1,1.1-0.4l2.8-2.8c0.6-0.6,0.6-1.5,0-2.1
		S14,43.8,13.5,44.4z"/>
	<path d="M47.2,10.6l-2.7,2.7c-0.6,0.6-0.6,1.5,0,2.1c0.3,0.3,0.7,0.4,1.1,0.4s0.8-0.1,1.1-0.4l2.7-2.7c0.6-0.6,0.6-1.5,0-2.1
		C48.8,10.1,47.8,10.1,47.2,10.6z"/>
	<path d="M24.7,49.7c-0.8-0.2-1.6,0.3-1.8,1.1l-1,3.9c-0.2,0.8,0.3,1.6,1.1,1.8c0.1,0,0.3,0.1,0.4,0.1c0.7,0,1.3-0.4,1.4-1.1l1-3.9
		C26,50.7,25.5,49.9,24.7,49.7z"/>
	<path d="M35.3,10.1c0.1,0,0.3,0.1,0.4,0.1c0.7,0,1.3-0.4,1.4-1.1l1-3.6c0.2-0.8-0.3-1.6-1.1-1.8c-0.8-0.2-1.6,0.3-1.8,1.1l-1,3.6
		C34.1,9.1,34.5,9.9,35.3,10.1z"/>
	<path d="M35.8,17.9c-2.6,0-4.5,1-5.8,2.1c-1.3-1.1-3.2-2.1-5.8-2.1c-5.9,0-9.8,5.4-9.8,10.5c0,9.6,11.7,17.5,15.6,17.5
		c3.8,0,15.6-7.9,15.6-17.5C45.6,23.3,41.6,17.9,35.8,17.9z M30,42.9c-2,0-12.6-6.4-12.6-14.5c0-3.6,2.7-7.5,6.8-7.5
		c2.3,0,3.8,1.2,4.6,2.1c0.3,0.3,0.7,0.5,1.1,0.5c0,0,0,0,0,0c0.4,0,0.9-0.2,1.1-0.5c0.8-1,2.3-2.1,4.6-2.1c4.1,0,6.8,3.9,6.8,7.5
		C42.6,36.5,32,42.9,30,42.9z"/>
</g>
</svg>
