<svg xmlns="http://www.w3.org/2000/svg" viewBox="-5 0 70 70"><path d="M30 36H15C8.7 36 3.5 41.2 3.5 47.5v4h3v-4c0-4.7 3.8-8.5 8.5-8.5h15c4.7 0 8.5 3.8 8.5 8.5v4h3v-4C41.5 41.2 36.3 36 30 36zM22.5 29C28.8 29 34 23.8 34 17.5S28.8 6 22.5 6 11 11.2 11 17.5 16.2 29 22.5 29zm0-20c4.7 0 8.5 3.8 8.5 8.5S27.2 26 22.5 26 14 22.2 14 17.5 17.8 9 22.5 9zM45 36h-1.5v3H45c4.7 0 8.5 3.8 8.5 8.5v4h3v-4C56.5 41.2 51.3 36 45 36zM49 17.5C49 11.2 43.8 6 37.5 6H36v3h1.5c4.7 0 8.5 3.8 8.5 8.5S42.2 26 37.5 26H36v3h1.5C43.8 29 49 23.8 49 17.5z"/></svg>