<svg xmlns="http://www.w3.org/2000/svg" viewBox="0 0 60 60">
  <path fill-rule="evenodd" d="M33.895 18.887a6.446 6.446 0 0 1-3.59 1.094 6.46 6.46 0 0 1-4.57-1.904 6.514 6.514 0 0 1-1.895-4.587 6.51 6.51 0 0 1 1.089-3.606 6.47 6.47 0 0 1 2.9-2.39 6.44 6.44 0 0 1 7.045 1.407 6.516 6.516 0 0 1 1.401 7.073 6.485 6.485 0 0 1-2.38 2.913Zm-1.662-8.292a3.461 3.461 0 0 0-4.38.436 3.492 3.492 0 0 0 1.124 5.684 3.458 3.458 0 0 0 3.786-.755 3.49 3.49 0 0 0 .752-3.801 3.483 3.483 0 0 0-1.282-1.564ZM52.434 27.27a5.457 5.457 0 0 1-6.908-.685 5.506 5.506 0 0 1-.683-6.936 5.477 5.477 0 0 1 2.456-2.026 5.452 5.452 0 0 1 5.967 1.19 5.516 5.516 0 0 1 1.185 5.99 5.49 5.49 0 0 1-2.017 2.467Zm-1.667-6.635a2.469 2.469 0 0 0-3.124.314 2.491 2.491 0 0 0 .807 4.052 2.465 2.465 0 0 0 2.698-.541 2.488 2.488 0 0 0 .533-2.711 2.482 2.482 0 0 0-.914-1.114ZM7.35 26.585a5.512 5.512 0 0 1-.686-6.935 5.478 5.478 0 0 1 2.455-2.026 5.452 5.452 0 0 1 5.966 1.188 5.516 5.516 0 0 1 1.189 5.99 5.491 5.491 0 0 1-2.016 2.466c-.9.604-1.958.927-3.04.927a5.467 5.467 0 0 1-3.868-1.61Zm5.242-5.947a2.468 2.468 0 0 0-3.125.309 2.49 2.49 0 0 0 .803 4.054 2.465 2.465 0 0 0 2.697-.539 2.49 2.49 0 0 0-.375-3.824Z" clip-rule="evenodd"/>
  <path d="M56.01 37.571v13.196H60v3.223h-3.275l-3.934-3.95V37.57a3.424 3.424 0 0 0-.943-2.492 3.396 3.396 0 0 0-2.45-1.05 3.382 3.382 0 0 0-2.451 1.05 3.413 3.413 0 0 0-.942 2.491v12.47L42.036 54h-3.119l-3.964-3.98V30.61a4.677 4.677 0 0 0-1.417-3.195 4.64 4.64 0 0 0-6.46 0 4.677 4.677 0 0 0-1.417 3.195v19.454L21.74 54h-3.214l-3.914-3.93V37.574a3.42 3.42 0 0 0-.994-2.41 3.394 3.394 0 0 0-2.401-.999 3.384 3.384 0 0 0-2.401.999 3.41 3.41 0 0 0-.995 2.41v12.48L3.892 54H0v-3.233h4.601V37.564c0-1.761.697-3.451 1.938-4.697a6.602 6.602 0 0 1 4.678-1.945c1.754 0 3.437.7 4.678 1.945a6.656 6.656 0 0 1 1.937 4.697v13.203h4.607V30.636a7.917 7.917 0 0 1 2.371-5.456 7.853 7.853 0 0 1 5.496-2.246c2.053 0 4.026.806 5.496 2.246a7.917 7.917 0 0 1 2.37 5.456v20.13h4.603V37.572a6.66 6.66 0 0 1 1.999-4.579 6.607 6.607 0 0 1 4.619-1.885c1.725 0 3.382.676 4.618 1.885a6.66 6.66 0 0 1 2 4.58Z"/>
</svg>
