<svg width="100" height="100" viewBox="0 0 24 24" fill="none" xmlns="http://www.w3.org/2000/svg">
<g clip-path="url(#clip0_930_12347)">
<path d="M23.8993 4.57932C23.6251 3.43277 23.0713 2.44769 22.2164 1.63471C21.1136 0.585165 19.8106 0.00500481 18.2766 0.00312726C14.0947 -0.00187952 9.91282 -1.97305e-06 5.7309 0.00437896C5.39733 0.00437896 5.06125 0.0162701 4.73143 0.0882425C3.5323 0.349221 2.49465 0.903096 1.646 1.79493C0.591445 2.9033 0.00440006 4.21133 0.00314836 5.75404C-0.00185842 9.92031 1.91271e-05 14.0872 0.00252252 18.2535C0.00252252 18.7372 0.0438285 19.2173 0.184644 19.686C0.754165 21.5767 1.94453 22.9004 3.77576 23.6489C4.28645 23.8579 4.81717 23.9549 5.36228 24H18.5677C18.7955 23.9524 19.0308 23.9825 19.258 23.933C21.1036 23.5319 22.4755 22.4961 23.3754 20.8388C23.7359 20.1748 23.9362 19.4607 24 18.7085V18.4744C23.9368 18.4431 23.9506 18.4118 24 18.3805V5.87733C23.9349 5.78345 23.9212 5.6902 24 5.59633V5.4092C23.9449 5.13508 23.9656 4.85345 23.9005 4.57932H23.8993ZM21.6024 18.0175C21.5842 19.8068 20.4252 21.1924 18.6728 21.5304C18.4669 21.5698 18.2547 21.5911 18.0451 21.5911C14.0259 21.5949 10.0073 21.6018 5.98813 21.5905C4.20321 21.5855 2.81508 20.4083 2.47838 18.6565C2.42956 18.4037 2.41642 18.1464 2.41642 17.888C2.41829 15.9216 2.41767 13.9545 2.41767 11.9881C2.41767 10.006 2.40891 8.02399 2.4208 6.0413C2.42893 4.73579 2.95089 3.68687 4.06177 2.96401C4.63129 2.59351 5.26715 2.41201 5.94244 2.41076C9.98479 2.4045 14.0271 2.39449 18.0695 2.41264C20.0916 2.4214 21.5974 3.98101 21.6036 6.03004C21.6118 8.94086 21.6062 11.8517 21.6055 14.7625C21.6055 15.8471 21.6143 16.9323 21.603 18.0169L21.6024 18.0175Z" fill="#FEFEFE"/>
<path d="M23.9993 5.87733V5.59633C23.9612 5.69021 23.9612 5.78346 23.9993 5.87733Z" fill="#FEFEFE"/>
<path d="M23.9986 18.4744V18.3805C23.9692 18.4118 23.9692 18.4431 23.9986 18.4744Z" fill="#FEFEFE"/>
<path d="M12.0107 6.01814C8.65428 6.01814 6.01508 8.66047 6.01758 12.0181C6.02008 15.3639 8.65428 18.0006 12.0001 18.0063C15.3565 18.0119 18.0019 15.3733 18.0044 12.0175C18.0069 8.66047 15.3671 6.01814 12.0107 6.01877V6.01814ZM12.0107 15.6118C9.97857 15.6118 8.40832 14.039 8.41145 12.0063C8.41458 9.97412 9.98921 8.40638 12.022 8.41263C14.046 8.41889 15.6068 9.98163 15.6099 12.0056C15.6137 14.0384 14.0428 15.6118 12.0107 15.6118Z" fill="#FEFEFE"/>
<path d="M18.0126 4.81778C17.3542 4.8109 16.8016 5.36164 16.8047 6.02128C16.8078 6.67467 17.3417 7.21102 17.9963 7.21791C18.6547 7.22479 19.2073 6.67404 19.2042 6.01377C19.2011 5.35976 18.6672 4.82404 18.0126 4.81715V4.81778Z" fill="#FEFEFE"/>
</g>
<defs>
<clipPath id="clip0_930_12347">
<rect width="23.9994" height="24" fill="white"/>
</clipPath>
</defs>
</svg>
