<?xml version="1.0" encoding="UTF-8"?><svg id="Layer_1" xmlns="http://www.w3.org/2000/svg" viewBox="0 0 18.73 20"><defs><style>.cls-1{fill:#fff;}</style></defs><path class="cls-1" d="M9.81,6.7c.07,.12,.13,.24,.17,.36,.22,.61,.13,1.26-.19,1.78L16.97,1.67c-1.36,0-2.66,.54-3.62,1.5l-3.54,3.54Zm-1.8-1.03c.3,0,.59,.07,.86,.19L14.74,0c-1.36,0-2.67,.54-3.63,1.5L6.4,6.21l.74-.34c.28-.13,.58-.2,.88-.2h0Zm2.53,9.81c-6.43,1.17-9.44,.05-9.47,.04l-.3,.77-.18,.46c.09,.04,1.54,.59,4.52,.59,1.9-.01,3.82-.1,5.67-.55,2.93-.71,6.23-.54,7.38-.45l.57-1.28c-1.76-.19-4.49-.24-8.18,.43ZM2.16,8.85c-.13,.25-.11,.55,.01,.8l1.37,2.77c.21,.42,.63,.68,1.1,.69l2.72,.15c.71,.77,1.76,1.14,2.8,.96,.04,0,.07-.01,.11-.02l-2.21-2.41-3.23-.18-.91-1.84,2.1-.24,2.3-1.07c.36-.17,.55-.57,.42-.94-.15-.42-.63-.62-1.02-.43l-2.11,.98-2.73,.32c-.3,.02-.56,.2-.7,.47Zm.26-1.27c1.33,0,2.42-1.08,2.42-2.42s-1.08-2.42-2.42-2.42S0,3.82,0,5.16s1.08,2.42,2.42,2.42h0Zm0-3.48c.58,0,1.06,.48,1.06,1.06s-.48,1.06-1.06,1.06-1.06-.48-1.06-1.06,.48-1.06,1.06-1.06h0Zm8.05,14.05c-6.43,1.17-9.44,.05-9.47,.04l-.3,.77-.18,.46c.09,.04,1.54,.59,4.52,.59,1.9-.01,3.82-.1,5.67-.55,2.93-.71,6.23-.54,7.38-.45l.57-1.28c-1.76-.19-4.48-.24-8.18,.43Z"/></svg>