<svg xmlns="http://www.w3.org/2000/svg" width="40" height="40" viewBox="0 0 40 40" fill="none">
  <path d="M20 0C8.9542 0 0 8.9542 0 20C0 31.0458 8.9542 40 20 40C31.0458 40 40.0002 31.0458 40.0002 20C40.0002 8.9542 31.0456 0 20 0ZM14.664 29.6691H10.2728V15.4823H14.664V29.6691ZM12.4474 13.6245C11.0133 13.6245 9.85063 12.4525 9.85063 11.0067C9.85063 9.56102 11.0133 8.38897 12.4474 8.38897C13.8815 8.38897 15.044 9.56102 15.044 11.0067C15.044 12.4525 13.8815 13.6245 12.4474 13.6245ZM31.1201 29.6691H26.7501V22.2222C26.7501 20.1798 25.9743 19.0396 24.3591 19.0396C22.6014 19.0396 21.6832 20.227 21.6832 22.2222V29.6691H17.4716V15.4823H21.6832V17.3929C21.6832 17.3929 22.9501 15.0494 25.9584 15.0494C28.9666 15.0494 31.1201 16.8862 31.1201 20.6861V29.6689V29.6691Z" fill="white"></path>
</svg>
