<svg viewBox="0 0 24 24" xmlns="http://www.w3.org/2000/svg"><path d="M19 0H5a5 5 0 00-5 5v14a5 5 0 005 5h14a5 5 0 005-5V5a5 5 0 00-5-5zm-7.69 18.86a4.363 4.363 0 01-6.17-6.17l2.92-2.91A4.28 4.28 0 019 9a4.34 4.34 0 015.72 1.4L13.24 12a2.3 2.3 0 00-2.6-1.32 2.27 2.27 0 00-1.11.61l-2.91 2.88a2.27 2.27 0 003.21 3.21l.9-.9a5.64 5.64 0 002.56.39l-1.98 1.99zm7.55-7.55l-2.92 2.91A4.28 4.28 0 0115 15a4.38 4.38 0 01-3.13.42 4.49 4.49 0 01-2.06-1.16 4.14 4.14 0 01-.53-.66l1.48-1.6c.122.262.288.502.49.71a2.27 2.27 0 003.21 0l2.92-2.92a2.27 2.27 0 00-3.21-3.21l-.9.9a5.64 5.64 0 00-2.56-.39l2-2a4.363 4.363 0 016.17 6.17l-.02.05z"/></svg>