<svg width="100" height="100" viewBox="0 0 24 24" fill="none" xmlns="http://www.w3.org/2000/svg">
<path fill-rule="evenodd" clip-rule="evenodd" d="M2.39839 0.0455856C1.67823 0.203847 1.02455 0.725981 0.704207 1.39872C0.526811 1.77123 0.5 1.91722 0.5 2.50943C0.5 3.10164 0.526811 3.24763 0.704207 3.62014C0.949109 4.13447 1.36406 4.53933 1.92357 4.80979C2.2874 4.9857 2.42792 5.00934 3.10768 5.00934C3.79838 5.00934 3.92502 4.98722 4.3197 4.79737C4.90646 4.51509 5.42021 3.98674 5.60606 3.47446C5.7858 2.97906 5.798 2.20389 5.635 1.63782C5.4792 1.09675 4.78556 0.362563 4.24624 0.167937C3.81895 0.0137667 2.83868 -0.0511591 2.39839 0.0455856ZM15.8279 6.8256C14.843 7.05591 13.8074 7.76683 13.0866 8.70738L12.8038 9.07626V8.04669V7.01712H10.4533H8.10267V14.3658V21.7144H10.4505H12.7984L12.8195 17.1499L12.8406 12.5854L13.0512 12.1425C13.3457 11.5234 13.9331 10.9381 14.4691 10.7298C15.0994 10.4847 15.9889 10.5348 16.5444 10.8466C17.2244 11.2284 17.5912 11.9402 17.7241 13.1357C17.7645 13.4997 17.7979 15.5788 17.7982 17.756L17.7988 21.7144H20.1494H22.5L22.4988 17.2636C22.4974 12.6707 22.4577 11.8015 22.2021 10.7672C21.943 9.71862 21.5314 8.9658 20.8137 8.2279C20.1366 7.53167 19.6458 7.21917 18.7905 6.93961C18.1241 6.72188 16.5333 6.66067 15.8279 6.8256ZM0.757095 14.3658V21.7144H3.10768H5.45826V14.3658V7.01712H3.10768H0.757095V14.3658Z" fill="white"/>
</svg>
