<svg xmlns="http://www.w3.org/2000/svg" viewBox="0 0 24 24">
  <path
    d="M2.07,.21C1.29,.38,.57,.95,.22,1.68c-.19,.41-.22,.57-.22,1.21s.03,.81,.22,1.21c.27,.56,.72,1,1.33,1.3,.4,.19,.55,.22,1.29,.22s.89-.02,1.32-.23c.64-.31,1.2-.88,1.4-1.44,.2-.54,.21-1.39,.03-2-.17-.59-.93-1.39-1.52-1.6-.47-.17-1.54-.24-2.02-.13Zm14.65,7.4c-1.07,.25-2.2,1.03-2.99,2.05l-.31,.4v-2.25h-5.13V23.84h5.12l.02-4.98,.02-4.98,.23-.48c.32-.68,.96-1.31,1.55-1.54,.69-.27,1.66-.21,2.26,.13,.74,.42,1.14,1.19,1.29,2.5,.04,.4,.08,2.67,.08,5.04v4.32h5.13v-4.86c0-5.01-.05-5.96-.32-7.09-.28-1.14-.73-1.97-1.51-2.77-.74-.76-1.27-1.1-2.21-1.41-.73-.24-2.46-.3-3.23-.12ZM.28,15.83v8.02H5.41V7.81H.28V15.83Z"
  />
</svg>
