<svg version="1.1" id="Layer_1" xmlns="http://www.w3.org/2000/svg" xmlns:xlink="http://www.w3.org/1999/xlink" x="0px"
     y="0px"
     viewBox="0 0 19.5 15.4" style="enable-background:new 0 0 19.5 15.4;" xml:space="preserve">
<path d="M19.4,1.6C19.4,1.6,19.4,1.6,19.4,1.6C19,0.7,18.1,0,17.1,0H2.4c-1,0-1.9,0.7-2.2,1.6c0,0,0,0,0,0C0.1,1.9,0,2.1,0,2.4V13
	c0,0.6,0.2,1.2,0.7,1.7c0.5,0.4,1,0.7,1.7,0.7c0,0,0,0,0,0h14.7c1.3,0,2.4-1.1,2.4-2.4V2.4C19.5,2.1,19.4,1.9,19.4,1.6z M17.1,1.5
	c0.2,0,0.3,0.1,0.4,0.1l-7.1,5.1C10,7,9.4,7,9,6.7l-7-5c0.1-0.1,0.3-0.1,0.4-0.1H17.1z M17.1,13.9H2.4c0,0,0,0,0,0
	c-0.2,0-0.5-0.1-0.6-0.3c-0.2-0.2-0.3-0.4-0.3-0.6V3.2l6.6,4.7c0.5,0.3,1,0.5,1.6,0.5c0.6,0,1.1-0.2,1.6-0.5L18,3.1V13
	C18,13.5,17.6,13.9,17.1,13.9z"
      fill="currentColor"/>
</svg>
