<svg width="18" height="24" viewBox="0 0 18 24" fill="none" xmlns="http://www.w3.org/2000/svg">
<path d="M8.9999 0C6.61359 0.0022961 4.32585 0.932401 2.63855 2.58599C0.951153 4.23977 0.00234902 6.48209 0 8.82061C0 16.2783 8.07264 23.4789 8.41399 23.7792C8.57487 23.9214 8.78337 24 8.9999 24C9.21644 24 9.42511 23.9214 9.58601 23.7792C9.92708 23.4792 18 16.2788 18 8.82061C17.9977 6.48204 17.0487 4.23967 15.3613 2.58599C13.6739 0.932401 11.3862 0.00230222 8.9999 0ZM8.9999 21.9534C7.18076 20.1875 1.74942 14.4271 1.74942 8.82095C1.74942 6.28223 3.13124 3.93617 5.37466 2.66666C7.61807 1.39711 10.3821 1.39711 12.6256 2.66666C14.8691 3.93602 16.2509 6.28209 16.2509 8.82095C16.2509 14.4188 10.8186 20.1792 8.9999 21.9534Z" fill="#B89535"/>
<path d="M9.0006 4.2855C7.84073 4.2855 6.7285 4.73707 5.90834 5.5409C5.08818 6.34473 4.62742 7.4348 4.62742 8.57156C4.62742 9.70832 5.08817 10.7984 5.90834 11.6022C6.72851 12.406 7.84073 12.8576 9.0006 12.8576C10.1605 12.8576 11.2727 12.406 12.0929 11.6022C12.913 10.7984 13.3738 9.70832 13.3738 8.57156C13.3738 7.4348 12.913 6.34472 12.0929 5.5409C11.2727 4.73708 10.1605 4.2855 9.0006 4.2855ZM9.0006 11.1432C8.30459 11.1432 7.63732 10.8723 7.14512 10.3901C6.65314 9.9077 6.37669 9.25371 6.37669 8.57156C6.37669 7.88942 6.65314 7.23544 7.14512 6.75305C7.6373 6.27086 8.30459 5.99993 9.0006 5.99993C9.69661 5.99993 10.3639 6.27086 10.8561 6.75305C11.3481 7.23542 11.6245 7.88942 11.6245 8.57156C11.6245 9.25371 11.3481 9.90768 10.8561 10.3901C10.3639 10.8723 9.69661 11.1432 9.0006 11.1432Z" fill="#B89535"/>
</svg>
