<?xml version="1.0" encoding="UTF-8"?><svg id="Layer_1" xmlns="http://www.w3.org/2000/svg" viewBox="0 0 22 13.14"><defs><style>.cls-1{fill:#fff;}</style></defs><path class="cls-1" d="M8.61,2.14c.34,0,.62-.28,.62-.62s-.28-.62-.62-.62h-3.73v.75l.49,.49h3.24Zm8.83,1.86h0c-.73,0-1.42,.18-2.04,.48l-2-2.92,.77-.4c.31-.16,.43-.53,.27-.84-.16-.31-.53-.43-.84-.27l-1.43,.73V1.99l.62,.9-3.66,.98-.37-.62h-1.45l.68,1.14-.67,.56c-.77-.59-1.73-.94-2.78-.94-2.51,0-4.56,2.05-4.56,4.56s2.05,4.56,4.56,4.56c2.3,0,4.21-1.71,4.52-3.93h.85c.21,.51,.71,.86,1.29,.86,.77,0,1.4-.63,1.4-1.4,0-.38-.15-.73-.4-.98l1.65-3.26,.51,.75c-.92,.84-1.5,2.04-1.5,3.38,0,2.52,2.05,4.56,4.56,4.56s4.56-2.05,4.56-4.56-2.05-4.56-4.56-4.56ZM4.56,11.89h0c-1.83,0-3.32-1.49-3.32-3.32s1.49-3.32,3.32-3.32c.66,0,1.28,.19,1.8,.53l-2.43,2.06v.73l.86,.63h3.04c-.3,1.54-1.64,2.7-3.26,2.7Zm1.15-3.93l1.55-1.31c.28,.39,.47,.83,.56,1.32h-2.11Zm4.31,0h-.94c-.11-.79-.41-1.52-.87-2.13l.43-.37,1.43,2.4s-.04,.06-.06,.09Zm1.2,1.14c-.24,0-.43-.19-.43-.43s.19-.43,.43-.43,.43,.19,.43,.43-.19,.43-.43,.43Zm-.12-1.95l-1.29-2.17,2.77-.74-1.47,2.91Zm6.34,4.74c-1.83,0-3.32-1.49-3.32-3.32,0-.91,.37-1.74,.97-2.34l1.84,2.69,1.03-.7-1.84-2.69c.41-.18,.86-.28,1.33-.28,1.83,0,3.32,1.49,3.32,3.32s-1.49,3.32-3.32,3.32Z"/></svg>