<?xml version="1.0" encoding="UTF-8"?><svg id="a" xmlns="http://www.w3.org/2000/svg" viewBox="0 0 24 24"><path d="M22.37,23.72l-3.37-3.37c-.41,.29-.83,.55-1.27,.78-.44,.24-.89,.43-1.36,.6-.33,.1-.62,.05-.89-.15-.27-.2-.4-.48-.4-.83,0-.16,.05-.31,.14-.44,.09-.13,.22-.22,.38-.26,.37-.12,.73-.27,1.09-.43,.36-.16,.69-.36,1-.58l-5.06-5.09v5.06c0,.41-.19,.69-.57,.84-.38,.15-.71,.09-1-.2l-4.57-4.57H2.5c-.27,0-.49-.09-.66-.26-.17-.17-.26-.39-.26-.66v-5.52c0-.27,.09-.49,.26-.66,.17-.17,.39-.26,.66-.26h3.86L.26,1.6C.08,1.42,0,1.2,0,.94,.01,.69,.11,.47,.29,.28,.48,.1,.69,0,.94,0s.46,.09,.64,.28L23.72,22.4c.18,.18,.28,.4,.28,.66s-.09,.48-.28,.66c-.18,.18-.41,.28-.67,.28s-.49-.09-.67-.28ZM16.36,.99c2.19,.78,3.95,2.11,5.29,4,1.34,1.89,2.01,4.01,2.01,6.36,0,1.04-.14,2.07-.43,3.07-.29,1-.72,1.95-1.29,2.85l-1.32-1.32c.41-.7,.71-1.43,.9-2.21,.19-.78,.29-1.57,.29-2.39,0-2.02-.57-3.84-1.7-5.46-1.13-1.62-2.64-2.7-4.52-3.25-.16-.04-.29-.13-.38-.26-.09-.13-.14-.28-.14-.44,0-.35,.14-.62,.41-.81,.28-.19,.57-.24,.87-.14Zm1.47,12.18l-2.76-2.76v-3.99c.96,.45,1.71,1.12,2.25,2.02,.54,.9,.81,1.88,.81,2.94,0,.31-.03,.61-.08,.9-.05,.3-.13,.59-.23,.87Zm-5.21-5.21l-3.19-3.19,1.63-1.63c.29-.29,.62-.35,1-.2,.38,.15,.57,.43,.57,.84V7.95Zm-1.84,8.77v-4.6l-2.58-2.58H3.42v3.68h3.86l3.5,3.5Z" fill="#521160"/></svg>