<svg xmlns="http://www.w3.org/2000/svg" viewBox="0 0 60 60" xml:space="preserve"><path d="M29.8 58.3c-5.3 1-10.8 1.5-16.2 1.5-7.9 0-12-1.3-12.8-1.6L2.1 55c1 .3 9.7 2.9 27-.1 18.7-3.3 28.7-.4 30 0L58 58.2c-1.2-.3-10.7-2.9-28.2.1zM36.5 30.1c1.4 0 2.7-.2 4-.7 1.3-.5 2.4-1.2 3.4-2.2 1-1 1.8-2.1 2.3-3.3.5-1.3.8-2.6.8-4s-.3-2.7-.8-4-1.3-2.4-2.3-3.3c-1-1-2.1-1.7-3.4-2.2-1.3-.5-2.6-.7-4-.7-.1 0-.5 0-.9.1l-2.3-1.5c-.9-2.8-3.4-4.5-6.6-4.5-1.8 0-3.6.7-4.9 2-1.3 1.3-2 3.1-2 4.9.1 1.1.4 2.3.9 3.3l-1.2 2.5-1.2.4c-1.6.8-2.9 2.1-3.5 3.8-.6 1.7-.6 3.5.1 5.1.7 1.6 2 3 3.6 3.7 1.6.7 3.5.8 5.2.2l1-.4c.6 1 1 2.1 1.3 3.3l-1 .4c-1.3.5-2.7.8-4 .8-1.4 0-2.8-.3-4-.8-1.9-.8-3.5-2.1-4.7-3.8-1.2-1.7-1.8-3.7-1.8-5.7s.5-4 1.6-5.8c1.1-1.7 2.7-3.1 4.6-3.9h.1v-.1c-.3-1-.5-2-.5-3 0-2.8 1.1-5.4 3.1-7.4S24.1.2 26.9.2c4.4 0 8 2.3 9.6 5.9v.1H36.8c3.6.1 7.1 1.5 9.6 4.1 2.5 2.6 4 6 4 9.6s-1.4 7.1-4 9.6c-2.5 2.6-6 4.1-9.6 4.1-.9 0-1.7-.1-2.6-.2.3-1.2.7-2.3 1.2-3.4.2 0 .7.1 1.1.1zm0 0V30v.1z"/><path d="m40.1 14.4 2.4 2.6-6.1 5.5c-1.5 1.4-2.7 3.1-3.6 4.9-.8 1.9-1.3 3.9-1.3 6V44c-.8.1-1.7.3-2.6.4l-1 .2V33.2c0-2.2-.5-4.3-1.5-6.2-.7-1.2-1.7-2.3-2.8-3.1-1.1-.8-2.4-1.3-3.7-1.6l.7-3.5c1.9.4 3.7 1.1 5.2 2.2 1.6 1.1 2.9 2.6 3.8 4.3l.1.2.1-.2c.7-1.4 1.5-2.6 2.5-3.8v-.2L30 15.1l3.4-1.2 1.7 4.7.1.2.1-.1 4.8-4.3zM59.1 46.9 58 50.2c-1.1-.3-10.7-3-28.1.1v.1-.1c-5.3 1-10.8 1.5-16.2 1.5-7.9 0-12-1.3-12.8-1.6l.7-1.8.6-1.4c1 .3 9.7 2.9 27-.1 16.9-3 26.7-.9 29.3-.1.2.1.4.1.5.2l.1-.1z"/></svg>