<svg xmlns="http://www.w3.org/2000/svg" xmlns:xlink="http://www.w3.org/1999/xlink" xml:space="preserve" viewBox="0 0 300 300"><rect id="backgroundrect" width="100%" height="100%" x="0" y="0" fill="none" stroke="none"/><style>.st0{fill:#fff}</style><g class="currentLayer"><g id="svg_18"><g id="svg_19"><g id="svg_20"><g id="svg_21"><defs transform="translate(-24.138 -11.494)"><path id="SVGID_1_" d="M79.8 170.9c-.3 0-.6 0-.8.1-12.8.6-27.1 5.8-31-2.2 1.8 5.5 6.3 19.3 10.1 31.5 3.7 12.1 6.4 24.1 10 26.7 11 8 33.2.6 46.3 10.1 12.4 9 9.6 39.7 21 41.1 11.8 1.4 10.6-15.9 14.4-29.5 3.3-11.6 8-25.8 19.3-42.6-4-5.4-10.2-12.1-19.5-18.8-6.9-5-15.1-8.6-23.5-11.1-19.5-5.6-34.3-5.7-46.3-5.3z"/></defs><clipPath id="SVGID_00000132078570350075712550000003984878237220024988_" transform="translate(-24.138 -11.494)"><use xlink:href="#SVGID_1_" style="overflow:visible" id="svg_22"/></clipPath><g style="clip-path:url(#SVGID_00000132078570350075712550000003984878237220024988_)" id="svg_23"><g id="svg_24"><path class="st0" id="svg_25" d="M55.262 191.506v12.3l3 2.9h1.4v-18.1h-1.4z"/><path class="st0" id="svg_26" d="M60.262 264.806h8.4v18.2h-8.4z"/><path class="st0" id="svg_27" d="M55.262 210.606v12.2l3 3h1.4v-18.2h-1.4z"/><path class="st0" id="svg_28" d="M50.162 245.806v18.1h1.3l3-2.9v-12.3l-3-2.9z"/><path class="st0" id="svg_29" d="M55.262 153.406v12.2l3 3h1.4v-18.2h-1.4z"/><path class="st0" id="svg_30" d="M60.262 207.606h8.4v18.2h-8.4z"/><path class="st0" id="svg_31" d="M60.262 245.806h8.4v18.2h-8.4z"/><path class="st0" id="svg_32" d="M60.262 188.606h8.4v18.2h-8.4z"/><path class="st0" id="svg_33" d="M60.262 226.706h8.4v18.2h-8.4z"/><path class="st0" id="svg_34" d="M50.162 226.706v18.2h1.3l3-3v-12.2l-3-3z"/><path class="st0" id="svg_35" d="M55.262 229.706v12.2l3 3h1.4v-18.2h-1.4z"/><path class="st0" id="svg_36" d="M50.162 188.606v18.1h1.3l3-2.9v-12.3l-3-2.9z"/><path class="st0" id="svg_37" d="M60.262 169.506h8.4v18.2h-8.4z"/><path class="st0" id="svg_38" d="M50.162 169.506v18.2h1.3l3-3v-12.2l-3-3z"/><path class="st0" id="svg_39" d="M50.162 207.606v18.2h1.3l3-3v-12.2l-3-3z"/><path class="st0" id="svg_40" d="M50.162 150.406v18.2h1.3l3-3v-12.2l-3-3z"/><path class="st0" id="svg_41" d="M55.262 248.706v12.3l3 2.9h1.4v-18.1h-1.4z"/><path class="st0" id="svg_42" d="M55.262 267.806v12.3l3 2.9h1.4v-18.2h-1.4z"/><path class="st0" id="svg_43" d="M55.262 172.506v12.2l3 3h1.4v-18.2h-1.4z"/><path class="st0" id="svg_44" d="M74.362 172.506v12.2l3 3h1.4v-18.2h-1.4z"/><path class="st0" id="svg_45" d="M74.362 153.406v12.2l3 3h1.4v-18.2h-1.4z"/><path class="st0" id="svg_46" d="M74.362 210.606v12.2l3 3h1.4v-18.2h-1.4z"/><path class="st0" id="svg_47" d="M74.362 229.706v12.2l3 3h1.4v-18.2h-1.4z"/><path class="st0" id="svg_48" d="M79.262 245.806h8.4v18.2h-8.4z"/><path class="st0" id="svg_49" d="M79.262 264.806h8.4v18.2h-8.4z"/><path class="st0" id="svg_50" d="M79.262 226.706h8.4v18.2h-8.4z"/><path class="st0" id="svg_51" d="M74.362 248.706v12.3l3 2.9h1.4v-18.1h-1.4z"/><path class="st0" id="svg_52" d="M69.262 150.406v18.2h1.3l2.9-3v-12.2l-2.9-3z"/><path class="st0" id="svg_53" d="M69.262 226.706v18.2h1.3l2.9-3v-12.2l-2.9-3z"/><path class="st0" id="svg_54" d="M69.262 245.806v18.1h1.3l2.9-2.9v-12.3l-2.9-2.9z"/><path class="st0" id="svg_55" d="M69.262 264.806v18.2h1.3l2.9-2.9v-12.3l-2.9-3z"/><path class="st0" id="svg_56" d="M69.262 207.606v18.2h1.3l2.9-3v-12.2l-2.9-3z"/><path class="st0" id="svg_57" d="M74.362 267.806v12.3l3 2.9h1.4v-18.2h-1.4z"/><path class="st0" id="svg_58" d="M69.262 188.606v18.1h1.3l2.9-2.9v-12.3l-2.9-2.9z"/><path class="st0" id="svg_59" d="M60.262 150.406h8.4v18.2h-8.4z"/><path class="st0" id="svg_60" d="M69.262 169.506v18.2h1.3l2.9-3v-12.2l-2.9-3z"/><path class="st0" id="svg_61" d="M79.262 207.606h8.4v18.2h-8.4z"/><path class="st0" id="svg_62" d="M22.162 188.606h8.4v18.2h-8.4z"/><path class="st0" id="svg_63" d="M22.162 207.606h8.4v18.2h-8.4z"/><path class="st0" id="svg_64" d="M50.162 264.806v18.2h1.3l3-2.9v-12.3l-3-3z"/><path class="st0" id="svg_65" d="M22.162 226.706h8.4v18.2h-8.4z"/><path class="st0" id="svg_66" d="M22.162 150.406h8.4v18.2h-8.4z"/><path class="st0" id="svg_67" d="M31.162 245.806v18.1h1.3l2.9-2.9v-12.3l-2.9-2.9z"/><path class="st0" id="svg_68" d="M31.162 226.706v18.2h1.3l2.9-3v-12.2l-2.9-3z"/><path class="st0" id="svg_69" d="M31.162 264.806v18.2h1.3l2.9-2.9v-12.3l-2.9-3z"/><path class="st0" id="svg_70" d="M22.162 245.806h8.4v18.2h-8.4z"/><path class="st0" id="svg_71" d="M22.162 264.806h8.4v18.2h-8.4z"/><path class="st0" id="svg_72" d="M17.162 229.706v12.2l3 3h1.4v-18.2h-1.4z"/><path class="st0" id="svg_73" d="M17.162 248.706v12.3l3 2.9h1.4v-18.1h-1.4z"/><path class="st0" id="svg_74" d="M17.162 267.806v12.3l3 2.9h1.4v-18.2h-1.4z"/><path class="st0" id="svg_75" d="M17.162 210.606v12.2l3 3h1.4v-18.2h-1.4z"/><path class="st0" id="svg_76" d="M17.162 191.506v12.3l3 2.9h1.4v-18.1h-1.4z"/><path class="st0" id="svg_77" d="M17.162 153.406v12.2l3 3h1.4v-18.2h-1.4z"/><path class="st0" id="svg_78" d="M31.162 207.606v18.2h1.3l2.9-3v-12.2l-2.9-3z"/><path class="st0" id="svg_79" d="M17.162 172.506v12.2l3 3h1.4v-18.2h-1.4z"/><path class="st0" id="svg_80" d="M22.162 169.506h8.4v18.2h-8.4z"/><path class="st0" id="svg_81" d="M41.162 207.606h8.4v18.2h-8.4z"/><path class="st0" id="svg_82" d="M41.162 226.706h8.4v18.2h-8.4z"/><path class="st0" id="svg_83" d="M41.162 245.806h8.4v18.2h-8.4z"/><path class="st0" id="svg_84" d="M41.162 264.806h8.4v18.2h-8.4z"/><path class="st0" id="svg_85" d="M41.162 150.406h8.4v18.2h-8.4z"/><path class="st0" id="svg_86" d="M36.262 153.406v12.2l3 3h1.4v-18.2h-1.4z"/><path class="st0" id="svg_87" d="M31.162 188.606v18.1h1.3l2.9-2.9v-12.3l-2.9-2.9z"/><path class="st0" id="svg_88" d="M41.162 188.606h8.4v18.2h-8.4z"/><path class="st0" id="svg_89" d="M41.162 169.506h8.4v18.2h-8.4z"/><path class="st0" id="svg_90" d="M31.162 150.406v18.2h1.3l2.9-3v-12.2l-2.9-3z"/><path class="st0" id="svg_91" d="M36.262 248.706v12.3l3 2.9h1.4v-18.1h-1.4z"/><path class="st0" id="svg_92" d="M36.262 267.806v12.3l3 2.9h1.4v-18.2h-1.4z"/><path class="st0" id="svg_93" d="M36.262 172.506v12.2l3 3h1.4v-18.2h-1.4z"/><path class="st0" id="svg_94" d="M31.162 169.506v18.2h1.3l2.9-3v-12.2l-2.9-3z"/><path class="st0" id="svg_95" d="M36.262 191.506v12.3l3 2.9h1.4v-18.1h-1.4z"/><path class="st0" id="svg_96" d="M36.262 229.706v12.2l3 3h1.4v-18.2h-1.4z"/><path class="st0" id="svg_97" d="M36.262 210.606v12.2l3 3h1.4v-18.2h-1.4z"/><path class="st0" id="svg_98" d="M74.362 191.506v12.3l3 2.9h1.4v-18.1h-1.4z"/><path class="st0" id="svg_99" d="M126.362 207.606v18.2h1.3l3-3v-12.2l-3-3z"/><path class="st0" id="svg_100" d="M126.362 188.606v18.1h1.3l3-2.9v-12.3l-3-2.9z"/><path class="st0" id="svg_101" d="M126.362 245.806v18.1h1.3l3-2.9v-12.3l-3-2.9z"/><path class="st0" id="svg_102" d="M126.362 169.506v18.2h1.3l3-3v-12.2l-3-3z"/><path class="st0" id="svg_103" d="M131.462 210.606v12.2l3 3h1.4v-18.2h-1.4z"/><path class="st0" id="svg_104" d="M131.462 229.706v12.2l3 3h1.4v-18.2h-1.4z"/><path class="st0" id="svg_105" d="M126.362 150.406v18.2h1.3l3-3v-12.2l-3-3z"/><path class="st0" id="svg_106" d="M131.462 248.706v12.3l3 2.9h1.4v-18.1h-1.4z"/><path class="st0" id="svg_107" d="M131.462 267.806v12.3l3 2.9h1.4v-18.2h-1.4z"/><path class="st0" id="svg_108" d="M126.362 226.706v18.2h1.3l3-3v-12.2l-3-3z"/><path class="st0" id="svg_109" d="M117.362 207.606h8.4v18.2h-8.4z"/><path class="st0" id="svg_110" d="M126.362 264.806v18.2h1.3l3-2.9v-12.3l-3-3z"/><path class="st0" id="svg_111" d="M117.362 245.806h8.4v18.2h-8.4z"/><path class="st0" id="svg_112" d="M117.362 264.806h8.4v18.2h-8.4z"/><path class="st0" id="svg_113" d="M117.362 226.706h8.4v18.2h-8.4z"/><path class="st0" id="svg_114" d="M117.362 188.606h8.4v18.2h-8.4z"/><path class="st0" id="svg_115" d="M112.462 153.406v12.2l3 3h1.4v-18.2h-1.4z"/><path class="st0" id="svg_116" d="M117.362 169.506h8.4v18.2h-8.4z"/><path class="st0" id="svg_117" d="M117.362 150.406h8.4v18.2h-8.4z"/><path class="st0" id="svg_118" d="M145.462 226.706v18.2h1.3l2.9-3v-12.2l-2.9-3z"/><path class="st0" id="svg_119" d="M145.462 245.806v18.1h1.3l2.9-2.9v-12.3l-2.9-2.9z"/><path class="st0" id="svg_120" d="M145.462 207.606v18.2h1.3l2.9-3v-12.2l-2.9-3z"/><path class="st0" id="svg_121" d="M136.462 150.406h8.4v18.2h-8.4z"/><path class="st0" id="svg_122" d="M145.462 264.806v18.2h1.3l2.9-2.9v-12.3l-2.9-3z"/><path class="st0" id="svg_123" d="M146.762 150.406h-1.3v18.2h1.3l2.9-3v-12.2z"/><path class="st0" id="svg_124" d="M145.462 188.606v18.1h1.3l2.9-2.9v-12.3l-2.9-2.9z"/><path class="st0" id="svg_125" d="M145.462 169.506v18.2h1.3l2.9-3v-12.2l-2.9-3z"/><path class="st0" id="svg_126" d="M136.462 245.806h8.4v18.2h-8.4z"/><path class="st0" id="svg_127" d="M131.462 191.506v12.3l3 2.9h1.4v-18.1h-1.4z"/><path class="st0" id="svg_128" d="M136.462 169.506h8.4v18.2h-8.4z"/><path class="st0" id="svg_129" d="M131.462 153.406v12.2l3 3h1.4v-18.2h-1.4z"/><path class="st0" id="svg_130" d="M131.462 172.506v12.2l3 3h1.4v-18.2h-1.4z"/><path class="st0" id="svg_131" d="M136.462 264.806h8.4v18.2h-8.4z"/><path class="st0" id="svg_132" d="M136.462 226.706h8.4v18.2h-8.4z"/><path class="st0" id="svg_133" d="M136.462 188.606h8.4v18.2h-8.4z"/><path class="st0" id="svg_134" d="M136.462 207.606h8.4v18.2h-8.4z"/><path class="st0" id="svg_135" d="M112.462 248.706v12.3l3 2.9h1.4v-18.1h-1.4z"/><path class="st0" id="svg_136" d="M93.362 248.706v12.3l3 2.9h1.4v-18.1h-1.4z"/><path class="st0" id="svg_137" d="M93.362 210.606v12.2l3 3h1.4v-18.2h-1.4z"/><path class="st0" id="svg_138" d="M98.362 245.806h8.4v18.2h-8.4z"/><path class="st0" id="svg_139" d="M93.362 267.806v12.3l3 2.9h1.4v-18.2h-1.4z"/><path class="st0" id="svg_140" d="M93.362 172.506v12.2l3 3h1.4v-18.2h-1.4z"/><path class="st0" id="svg_141" d="M93.362 153.406v12.2l3 3h1.4v-18.2h-1.4z"/><path class="st0" id="svg_142" d="M98.362 264.806h8.4v18.2h-8.4z"/><path class="st0" id="svg_143" d="M93.362 191.506v12.3l3 2.9h1.4v-18.1h-1.4z"/><path class="st0" id="svg_144" d="M88.262 150.406v18.2h1.3l3-3v-12.2l-3-3z"/><path class="st0" id="svg_145" d="M93.362 229.706v12.2l3 3h1.4v-18.2h-1.4z"/><path class="st0" id="svg_146" d="M88.262 264.806v18.2h1.3l3-2.9v-12.3l-3-3z"/><path class="st0" id="svg_147" d="M79.262 150.406h8.4v18.2h-8.4z"/><path class="st0" id="svg_148" d="M88.262 169.506v18.2h1.3l3-3v-12.2l-3-3z"/><path class="st0" id="svg_149" d="M88.262 245.806v18.1h1.3l3-2.9v-12.3l-3-2.9z"/><path class="st0" id="svg_150" d="M79.262 169.506h8.4v18.2h-8.4z"/><path class="st0" id="svg_151" d="M88.262 188.606v18.1h1.3l3-2.9v-12.3l-3-2.9z"/><path class="st0" id="svg_152" d="M88.262 226.706v18.2h1.3l3-3v-12.2l-3-3z"/><path class="st0" id="svg_153" d="M88.262 207.606v18.2h1.3l3-3v-12.2l-3-3z"/><path class="st0" id="svg_154" d="M98.362 188.606h8.4v18.2h-8.4z"/><path class="st0" id="svg_155" d="M112.462 267.806v12.3l3 2.9h1.4v-18.2h-1.4z"/><path class="st0" id="svg_156" d="M98.362 226.706h8.4v18.2h-8.4z"/><path class="st0" id="svg_157" d="M107.362 169.506v18.2h1.3l2.9-3v-12.2l-2.9-3z"/><path class="st0" id="svg_158" d="M79.262 188.606h8.4v18.2h-8.4z"/><path class="st0" id="svg_159" d="M112.462 210.606v12.2l3 3h1.4v-18.2h-1.4z"/><path class="st0" id="svg_160" d="M112.462 191.506v12.3l3 2.9h1.4v-18.1h-1.4z"/><path class="st0" id="svg_161" d="M107.362 188.606v18.1h1.3l2.9-2.9v-12.3l-2.9-2.9z"/><path class="st0" id="svg_162" d="M112.462 229.706v12.2l3 3h1.4v-18.2h-1.4z"/><path class="st0" id="svg_163" d="M107.362 150.406v18.2h1.3l2.9-3v-12.2l-2.9-3z"/><path class="st0" id="svg_164" d="M112.462 172.506v12.2l3 3h1.4v-18.2h-1.4z"/><path class="st0" id="svg_165" d="M98.362 169.506h8.4v18.2h-8.4z"/><path class="st0" id="svg_166" d="M98.362 150.406h8.4v18.2h-8.4z"/><path class="st0" id="svg_167" d="M98.362 207.606h8.4v18.2h-8.4z"/><path class="st0" id="svg_168" d="M107.362 207.606v18.2h1.3l2.9-3v-12.2l-2.9-3z"/><path class="st0" id="svg_169" d="M107.362 226.706v18.2h1.3l2.9-3v-12.2l-2.9-3z"/><path class="st0" id="svg_170" d="M107.362 264.806v18.2h1.3l2.9-2.9v-12.3l-2.9-3z"/><path class="st0" id="svg_171" d="M107.362 245.806v18.1h1.3l2.9-2.9v-12.3l-2.9-2.9z"/></g></g></g><g id="svg_172"><defs transform="translate(-24.138 -11.494)"><path id="SVGID_00000070798370030319469640000017261477140909326753_" d="M149.7 248.5c-.1.3-.1.6-.2.8-3.4 12.4-2.8 27.5-11.7 28.8 5.8 0 20.3 0 33.1.2 12.6.2 24.9 1.3 28.5-1.3 11-8 10.8-31.4 23.9-40.9 12.4-9 40.7 3.1 45.5-7.3 5-10.8-11.9-15-23.6-22.8-10-6.7-22-15.6-34.5-31.5-6.4 2.2-14.6 6-23.9 12.8-6.9 5-12.8 11.7-17.8 18.9-11.3 16.6-16 30.7-19.3 42.3z"/></defs><clipPath id="SVGID_00000067938462781460432100000001557240608400630661_" transform="translate(-24.138 -11.494)"><use xlink:href="#SVGID_00000070798370030319469640000017261477140909326753_" style="overflow:visible" id="svg_173"/></clipPath><g style="clip-path:url(#SVGID_00000067938462781460432100000001557240608400630661_)" id="svg_174"><path class="st0" d="M156.062 251.806c.4-1.9 4-18.9 4-21.2 0-2.8-3.5-7.4-3.9-7.8-.3-.3-.9-.3-1.2.1-.3.3-.3.9.1 1.2.6.5 3.3 4.5 3.4 6.5v.1c0 1.6-2.4 13.3-4 20.8-.2.7-2.8 9.5-3.5 16.1h1.7c.7-6.6 3.3-15.6 3.4-15.8z" id="svg_175"/><path class="st0" d="M160.362 247.706c1.3-5.5 3-13.1 2.8-16.3-.3-4.1-.8-8.5-3.5-10-2.3-1.2-7.2-1.1-9.8-1h-.8c-2 0-8.8 2.7-11.2 4.9-.4.4-.9.8-1.6 1.4-3 2.6-7.6 6.5-9.2 9.9-.8 1.7-1.8 3.2-2.8 4.4l-.6 3.3c1.5-1.6 3.6-4 5-7 1.5-3.1 6-7 8.8-9.4.6-.5 1.2-1 1.6-1.4 2.2-2 8.6-4.4 10.1-4.4h.8c2.1-.1 7-.2 8.9.8 2.2 1.1 2.5 6.2 2.6 8.6v.1c.1 3-1.6 10.6-2.8 15.7-.3 1.4-.6 2.6-.8 3.6-.7 3.4-1.7 10.9-2.3 16.7h1.7c.6-5.6 1.5-13 2.2-16.3.3-1 .6-2.2.9-3.6z" id="svg_176"/><path class="st0" d="M132.862 227.506c4.8-2.9 10.3-6.5 10.4-6.5.4-.3.5-.8.3-1.2-.2-.4-.8-.5-1.2-.3-.1 0-5.6 3.6-10.4 6.5-1.8 1.1-3.7 3.2-5.4 5.6-.4 1.6-.8 3.1-1.2 4.7 2.2-3.4 5.1-7.3 7.5-8.8z" id="svg_177"/><path class="st0" d="M141.962 219.106c4.6-.8 12.6-.9 12.7-.9.1 0 7.4.1 8.3 4.1 1.2 4.9 1.9 13.3 1.3 15.9-.6 2.8-4.7 17.2-4.8 17.4-.1.5.1.9.6 1.1.4.1.9-.1 1-.6.2-.6 4.2-14.7 4.8-17.5.6-3-.2-11.9-1.4-16.6-1.3-5.3-9.6-5.4-10-5.4-.4 0-8.2.1-13 .9-3.7.6-9.6 4.1-12.5 5.9-.3.9-.7 1.8-1 2.8l.3-.3c1.2-.8 9.4-6.1 13.7-6.8z" id="svg_178"/><path class="st0" d="M169.162 236.306c0-.8 0-1.7-.1-2.7-.1-6.1-.2-13.6-3.1-16.6-3.2-3.3-7.8-4.9-13.2-4.5-5.2.4-12.9 2.1-15.2 2.8-1.1.3-3.9 1.7-6.6 3.1-.4.8-.7 1.7-1 2.5 3.1-1.7 6.8-3.6 8.1-4 2.2-.6 9.8-2.4 14.8-2.7 4.9-.3 9 1 11.9 4 2.4 2.5 2.5 9.9 2.6 15.4 0 .9 0 1.8.1 2.7.1 4.4-1.8 11.6-5.6 21.4-1.3 3.2-2.2 6.5-2.8 9.9h1.7c.6-3.1 1.5-6.2 2.7-9.2 3.9-10.1 5.8-17.5 5.7-22.1z" id="svg_179"/><path class="st0" d="M170.362 250.206c.6-3.9 1.2-8 2-10.4 1.6-5.2-.3-17.2-1-20.8-1-5.6-5.1-7.7-8.1-8.8-3-1.1-12.5-.1-15.9.3-2.7.3-9.5 2-14.3 3.6-.3.7-.7 1.4-1 2.1 4.7-1.6 12.7-3.7 15.5-4 4.9-.5 12.9-1.2 15.2-.4 2.8 1 6.2 2.8 7 7.5 1.3 7.1 2.2 16.1 1 20-.8 2.5-1.4 6.7-2 10.7-.5 3.3-1 6.4-1.5 8.1-.5 1.8-1.5 5.7-2.5 9.5h1.7c1-3.7 1.9-7.3 2.4-9 .5-1.9.9-5 1.5-8.4z" id="svg_180"/><path class="st0" d="M166.662 256.106c.1-.5-.1-.9-.6-1.1-.4-.1-.9.1-1 .6 0 0-.6 2.2-1.3 4.1-.4 1-1.3 4.7-2 7.8h1.7c.7-2.9 1.5-6.2 1.9-7.2.7-1.9 1.3-4.1 1.3-4.2z" id="svg_181"/><path class="st0" d="M175.162 244.606v-.1c.1-.7 1.4-17.4.5-21.4-.9-3.9-2.8-11.6-5.9-13.8-2.9-2-10.4-4.8-13.7-4.9-2.1-.1-6.7.8-10 1.3-1.6.2-2.9.4-3.4.5-.7 0-3.1.3-5.9.7-.3.6-.7 1.2-1 1.8 3.2-.4 6.2-.8 6.9-.8.5 0 1.8-.2 3.5-.5 3.1-.5 7.8-1.4 9.7-1.3 2.7.1 10 2.7 12.8 4.6 2.6 1.8 4.4 9.4 5.2 12.8.7 3 0 14.8-.5 20.8-.2.9-2.9 13.2-3.4 15.6-.3 1.3-1.1 4.5-2 7.7h1.7c.9-3.2 1.7-6.2 1.9-7.3.7-2.6 3.6-15.7 3.6-15.7z" id="svg_182"/><path class="st0" d="M143.462 210.206c1.9-.4 6.5-.9 9-1.2l1-.1c1.8-.2 5.3.1 5.3.1.5 0 .9-.3.9-.8s-.3-.9-.8-.9c-.1 0-3.7-.3-5.6-.1l-1 .1c-2.5.3-7.2.8-9.2 1.2-1.2.3-4.8.9-8 1.4-.3.6-.6 1.3-.9 1.9.4-.1.8-.1 1.2-.2 3.3-.5 6.8-1.1 8.1-1.4z" id="svg_183"/><path class="st0" d="M164.162 204.906c.5.1.9-.2 1-.7.1-.5-.2-.9-.6-1-1.1-.2-10.7-1.7-12.8-1.4-1.4.2-5.6.7-12.6.8-.3.6-.7 1.1-1 1.7 5.6-.1 12-.6 13.9-.8 1.3-.2 8.2.5 12.1 1.4z" id="svg_184"/><path class="st0" d="M151.162 200.706c3.7-.1 11.7 1 14.2 2.1s5.4 5.2 7.4 8.1c2.1 3.1 3.9 9.7 4.1 11.1.2 1 .1 7.7 0 12.1 0 .5.4.9.8.9.5 0 .9-.4.9-.8 0-1.1.2-10.9 0-12.4-.3-1.6-2.2-8.4-4.4-11.8-2.3-3.4-5.3-7.5-8.1-8.7-2.7-1.2-10.9-2.3-14.9-2.3h-9.8c-.4.6-.7 1.1-1.1 1.7h4.5c2.6.1 5.1.1 6.4 0z" id="svg_185"/><path class="st0" d="M184.662 252.406c.2-.6 3.9-15.7 4-23.1.1-7-4.1-16.5-8.3-21.6-4.2-5.1-9.9-11.3-13.6-12.4-3.4-1-14.5-3.8-20.2-3.8l-.9 1.2c-.1.2-.2.3-.3.5h.7c5.2-.2 16.8 2.7 20.2 3.7 2.5.7 7.2 5.1 12.8 11.9 3.9 4.7 8 13.9 7.9 20.4-.2 7.3-3.8 22.1-4 22.7v.2c-.5 1.9-1.3 5.2-2 8.8 1.1-1.7 2-3.6 2.9-5.6.3-1.1.5-2.1.7-2.8l.1-.1z" id="svg_186"/><path class="st0" d="M190.562 221.206c-1.8-6-6.3-13.1-6.8-13.9-1.5-2.3-7.5-9.7-12.2-13-4.3-3-13.7-5.1-19.8-6.4l-1.3-.3c-.2 0-.4-.1-.6-.1l-1.2 1.5 1.5.3 1.3.3c5.7 1.2 15.2 3.3 19.2 6.1 4.3 3 10.2 10.2 11.8 12.6 1.8 2.8 5.3 8.8 6.6 13.5 1.5 5 1 12.7.8 16.9 0 .3 0 .6-.1 1 .6-1.5 1.2-3 1.9-4.5.1-4.5.1-10-1.1-14z" id="svg_187"/><path class="st0" d="M181.962 187.706c-5-3.6-11.3-7.9-15.5-9.4-1.5-.5-3.7-1.3-6.1-2-.5.4-1 .9-1.5 1.3 2.6.8 5.3 1.7 7 2.3 4 1.5 10.2 5.7 15.1 9.2 4.3 3.1 11.6 13 13.2 16.8 1.6 3.7 3.8 17.8 3.5 20v.6c.5-.5 1.1-1 1.7-1.5-.2-4.2-2.1-16.1-3.6-19.7-1.8-4.1-9.2-14.3-13.8-17.6z" id="svg_188"/><path class="st0" d="M187.662 192.006c.3.3.9.3 1.2 0 .3-.3.3-.9 0-1.2-.2-.2-3.8-4-8.1-6.9-3.7-2.6-13.2-8.2-17.6-10-.2.1-.4.3-.5.4-.3.3-.6.6-1 .8 3.2 1 13.8 7.1 18.1 10.1 4.1 3 7.8 6.8 7.9 6.8z" id="svg_189"/><path class="st0" d="M190.162 188.406c-3.7-5.3-13-12.1-18-14.8-1.4-.8-3.3-1.6-5.3-2.5-.5.4-1.1.8-1.6 1.2 2.3 1 4.5 1.9 6.1 2.8 5 2.7 14 9.4 17.5 14.3 3.4 4.8 8.9 18.9 10 23 .4 1.6 1.5 6.1 2.4 11.3.5-.3 1-.6 1.6-.9-.9-5-1.9-9.3-2.3-10.9-1.3-4.2-6.8-18.4-10.4-23.5z" id="svg_190"/><path class="st0" d="M199.062 201.106c-1.1-2.5-2.1-4.8-2.7-6.3l-.2-.6c-1.4-3.9-3.6-10.3-8.7-13.6-5-3.3-11.6-7.8-11.7-7.9-.4-.3-.9-.2-1.2.2-.1.2-.2.3-.1.5 0 .3.1.5.4.7.1 0 6.7 4.6 11.7 7.9 4.5 3 6.7 9.1 8 12.8l.2.7c.6 1.6 1.6 3.9 2.7 6.4 1.5 3.3 3.2 7.1 3.8 9.3.7 2.3 1.8 8.1 2.6 12.3.5-.2 1-.4 1.6-.6-.8-4.2-1.9-9.8-2.6-12.2-.6-2.4-2.3-6-3.8-9.6z" id="svg_191"/><path class="st0" d="M201.062 191.006c-.7-.6-1.7-2-3-3.7-2-2.7-4.6-6.1-7.2-8.5-4.5-4.2-12-8.2-17-9.2-.9-.2-2.1-.5-3.3-1l-1.8 1.2c1.7.7 3.4 1.2 4.7 1.5 4.7.9 12 4.9 16.2 8.8 2.5 2.3 5 5.6 7 8.3 1.3 1.8 2.4 3.2 3.1 3.9 1.7 1.7 8.8 13.7 9.8 20.4.4 2.4.5 6.2.6 9.1.5 0 1.1-.1 1.7-.1 0-2.9-.2-6.8-.6-9.3-1-7.1-8.3-19.6-10.2-21.4z" id="svg_192"/><path class="st0" d="M204.462 188.506c-.4-.7-.8-1.4-1.1-2-2.8-5.1-6.7-9.6-12.7-14.5-4.8-3.9-8.6-6.5-11.8-7.8-.7.3-1.4.7-2.1 1 3.3 1 7.4 3.6 12.9 8.1 5.8 4.8 9.6 9.1 12.3 14 .3.6.7 1.3 1.1 2 3 5.4 7.1 12.8 8.9 20.2.9 3.6 1.4 8.5 1.7 12.1h1.7c-.2-3.7-.8-8.8-1.7-12.6-2.1-7.5-6.2-15-9.2-20.5z" id="svg_193"/><path class="st0" d="M188.562 175.106c1.5 1.3 8.7 9.6 9.7 11.1.2.4.8.5 1.2.3.4-.3.5-.8.3-1.2-1.1-1.7-8.5-10.1-10-11.5-1.6-1.5-9.6-5.2-13.6-6.2-.7-.2-1.5-.5-2.4-.8-.6.3-1.2.7-1.8 1.1 1.4.6 2.8 1.2 3.8 1.4 3.8.9 11.5 4.6 12.8 5.8z" id="svg_194"/><path class="st0" d="M205.662 182.806c-.4-.4-.9-.8-1.3-1.2-4.3-4-8.5-8.1-12.3-12.8-3-2.1-6.3-4-9.9-5.7-.1-.1-.3-.1-.4-.2-.7.3-1.3.6-2 .9.6.3 1.1.6 1.7.8 9.7 4.6 16.8 10.4 21.7 17.6 6.5 9.6 9.5 17.1 11.7 28.6.7 3.8 1.1 7.8 1.3 10.8.6 0 1.1.1 1.7.1-.2-3-.6-7.2-1.4-11.2-2.1-10.9-5.1-18.8-10.8-27.7z" id="svg_195"/><path class="st0" d="M189.962 166.206c-.9-1.1-1.7-2.3-2.6-3.4-.8-.5-1.6-.9-2.4-1.4-.7.3-1.3.5-2 .8 1.9 1.1 4 2.3 6.4 3.7l.6.3z" id="svg_196"/><path class="st0" d="M211.362 187.406c-1.1-.8-2.2-1.7-3.3-2.6.2.3.5 1.2.7 1.5 4.2 7.6 6.7 16.8 7.6 20.4.8 3.1 2 9.9 3 15 .6 0 1.2.1 1.7.1-1-5.2-2.3-12.3-3.1-15.6-.8-3.2-3.1-11.7-6.6-18.8z" id="svg_197"/><path class="st0" d="M217.162 191.506c-.8-.5-1.6-1.1-2.4-1.7 1.2 3 2.2 6.6 2.7 9.8 1.3 7.4 2.9 16.3 4.1 22.3.6 0 1.2.1 1.7.1-1.3-6-2.9-15.1-4.2-22.7-.3-2.4-1-5.3-1.9-7.8z" id="svg_198"/><path class="st0" d="M221.062 194.006c-.7-.4-1.4-.9-2.1-1.3 1.3 4.4 4 19.9 4.9 26 .1.7.3 2.3.5 3.3.6 0 1.1.1 1.7.1-.2-1-.4-2.7-.5-3.6-.7-4.8-3-18.3-4.5-24.5z" id="svg_199"/><path class="st0" d="M229.962 204.206c-.1-.8-.3-2.8-.6-5-.6-.3-1.2-.7-1.8-1 .3 2.5.7 5 .7 6.1.1 1.1.8 6.5 1.7 12.7.2 1.5.6 4.1.8 5.6h1.7c-.2-1.6-.6-4.3-.8-5.8-.9-6-1.7-11.5-1.7-12.6z" id="svg_200"/><path class="st0" d="M234.162 213.106c.4-3.3.2-7.5-.4-11.5-.6-.3-1.2-.7-1.9-1 .8 4.2 1.1 8.7.6 12.3-.3 2.4-.1 6.6.3 9.6.6 0 1.1 0 1.7-.1-.3-2.9-.6-7.1-.3-9.3z" id="svg_201"/><path class="st0" d="M237.762 203.806c-.5-.3-1.1-.6-1.6-.9v.6c-.3 4.1-.6 12.9-.3 18.9.6-.1 1.1-.1 1.7-.2-.3-5.2-.2-13.1.2-18.4z" id="svg_202"/><path class="st0" d="m242.262 206.406-.1-.1c-.3-.2-.6-.4-.8-.6-.2-.1-.5-.3-.7-.4.7 4.1 1.1 10.1 1.4 15.3.6-.3 1.1-.5 1.6-.9-.2-4.4-.6-9.6-1.1-13.3-.1.1-.2 0-.3 0z" id="svg_203"/><path class="st0" d="M245.862 214.006c-.1-1.5-.2-3-.4-4.5-.3-.5-.7-1-1.2-1.5l-.6-.6-.1-.1c.3 2.2.4 4.5.6 6.8.1 1.4.2 2.8.4 4.2.6-.6 1.2-1.3 1.5-2.2-.1-.7-.1-1.4-.2-2.1z" id="svg_204"/><path class="st0" d="M152.362 229.106c-2.2-2.5-4.3-1.4-6.1-.4-.1.1-.3.2-.4.2-1.7.9-6.9 6.1-11.7 11.1l-.7.7c-2 2-3.5 5-4.1 8.1-.3 1.4-1 3.6-1.7 5.6-.7 2-1.1 3.3-1.2 3.9-.1 1-2.9 7.3-4.1 9.2h1.9c1.4-2.6 3.7-7.8 3.8-9 .1-.5.6-2.1 1.1-3.6.7-2 1.4-4.3 1.7-5.8.6-2.7 2-5.5 3.7-7.2l.7-.7c2.4-2.4 9.6-9.9 11.3-10.8.2-.1.3-.2.5-.2 1.9-1 2.8-1.4 4 .1 1.2 1.3 0 5.6-1.6 9-.6 1.3-3 5.9-5.9 9.5-3 3.7-5.9 9.4-6.7 12-.7 2.1-.4 4.7 0 6.8h1.7c-.4-2-.7-4.5-.1-6.3.8-2.5 3.7-8.1 6.4-11.5 3-3.7 5.4-8.4 6.1-9.8 1.1-2.5 3.5-8.4 1.4-10.9z" id="svg_205"/><path class="st0" d="M156.762 230.506c-.1-2-.3-4.1-2-5.6s-3.5-2.8-6.5-1c-1.4.9-4.4 3.2-7.2 5.5-2.1 1.7-4 3.2-4.9 3.8-.3.2-8.6 5.8-9.6 10.3-.8 3.5-2.2 10.4-2.3 11-.8 4.9-5.3 12.2-6 12.9h2.1c1.8-2.5 4.8-8.4 5.6-12.6v-.1c0-.1 1.5-7.4 2.2-10.9.6-2.8 5.8-7.2 8.8-9.2 1-.6 2.8-2.1 5-3.9 2.7-2.1 5.7-4.6 7-5.4 1.9-1.2 2.9-.7 4.6.8 1.1 1 1.4 2.3 1.5 4.4.1 1.6-1 8.9-1.4 11.7-.3 1-4.6 15.7-6.5 21.5-.4 1.2-.6 2.5-.8 3.7h1.7c.2-1.1.4-2.2.7-3.2 2-6.1 6.5-21.5 6.6-21.6v-.1c0-.3 1.5-9.9 1.4-12z" id="svg_206"/><g id="svg_207"><path class="st0" d="M134.762 263.106c.1-.5.3-1.1.4-1.7.5-2.1 1-4.7 2-6.5 3.3-6.1 3.7-6.6 5.1-8.4.5-.6 1-1.3 1.8-2.4l.5-.6c1.1-1.5 2-2.7 4-6.8.8-1.6 1.4-3.3.4-4.2-.3-.3-1.3-1-4.4 1.4-1 .8-4 3.8-5.4 5.4-1.3 1.5-1.4 1.7-3 5.2l-.5 1c-.2.4 0 .9.4 1.2.4.2.9 0 1.1-.4l.5-1c1.6-3.4 1.6-3.5 2.8-4.8 1.3-1.5 4.3-4.5 5.2-5.2 1-.8 1.7-1.2 2.1-1.3-.1.3-.2.9-.7 1.9-1.9 3.9-2.7 5-3.8 6.5l-.5.6c-.8 1.1-1.3 1.8-1.8 2.3-1.4 1.8-1.9 2.4-5.3 8.7-1.1 2-1.7 4.7-2.1 6.9-.1.6-.3 1.2-.4 1.7-.3 1.4-.4 3.3-.4 4.8h1.7c0-1.3 0-3 .3-4.3z" id="svg_208"/><path class="st0" d="m130.262 266.006.3-.7c.9-2.4 2.1-5.4 2.4-7.8l.1-1.1c.3-2.2.6-4 .8-6.5.1-.5-.3-.9-.8-1-.5-.1-.9.3-.9.8-.3 2.5-.5 4.3-.8 6.5l-.1 1.1c-.3 2.3-1.4 5.1-2.3 7.4l-.3.7c-.3.7-.5 1.5-.7 2.2h1.8c.1-.6.3-1.1.5-1.6z" id="svg_209"/></g><path class="st0" d="m184.162 222.206-.3-1.5c-.3-2.2-1.4-4.8-2.4-6.5-1-1.8-5.5-6-6.1-6.5h-.1c-1.1-1.8-2.2-3.5-3.1-4.7-3.4-4.3-9.4-5.9-11.5-6-.9 0-4.1-.3-7.5-.6-3.5-.3-7.2-.6-9.7-.8-.4.5-.7 1.1-1.1 1.6 2.3.1 6.9.5 10.7.8 3.6.3 6.6.5 7.6.6 2.2.1 7.4 1.7 10.3 5.4 3.2 4 7.4 12.6 7.6 14.1l.1.5c1.4 11.7 1.2 14.8 1 15.6-.3 1-1.4 5.7-2.7 11.1-1.7 7-3.7 15.8-4.2 17.4-.2.7-.6 2.5-1.1 4.8h.6c.4 0 .8 0 1.1-.1.4-2.1.8-3.6.9-4.2.5-1.6 2.5-10 4.2-17.5 1.2-5.2 2.4-10.1 2.7-11.1.4-1.6.1-6.9-.9-16.2l-.1-.5c-.1-.8-.9-2.8-2.1-5.1.9.9 1.6 1.8 1.9 2.3 1 1.8 1.9 4.2 2.1 5.9.1.7.2 1.2.4 1.7.3 1.1.6 2.3.6 5.2 0 5.5-.7 10.8-2.2 15.9-1.7 6-2.1 7.4-2.1 7.4-.1.5.2.9.6 1h.2c.4 0 .7-.3.8-.7 0 0 .4-1.4 2.1-7.4 1.5-5.2 2.3-10.7 2.3-16.4.1-3-.3-4.3-.6-5.5z" id="svg_210"/><g id="svg_211"><path class="st0" d="M178.662 264.106c.2-4.1.8-8.1.8-8.1.1-.5-.2-.9-.7-1-.5-.1-.9.3-1 .7 0 .3-.8 5.3-.9 10.1.6-.5 1.2-1.1 1.8-1.7z" id="svg_212"/></g><g id="svg_213"><path class="st0" d="M191.462 212.806c-1.8-4.1-7.6-13-9.5-14.7l-.4-.4c-2-1.9-6.5-6.3-12.5-8.8-6.3-2.6-14.8-3.9-15.2-4-.5-.1-.9.3-1 .7-.1.5.3.9.7 1 .1 0 8.7 1.3 14.8 3.8 5.7 2.4 10.1 6.7 12 8.5l.4.4c1.5 1.5 7.3 10.1 9.1 14.2 1.5 3.4 2.7 13 3.3 17.6 0 .3.1.6.1.9.5-.7.9-1.5 1.5-2.2-.7-5.2-1.8-13.6-3.3-17z" id="svg_214"/></g><g id="svg_215"><path class="st0" d="M208.662 222.206c-.1-4.4-1.1-12.1-2.3-15.4-.9-2.6-3.3-6.3-5.3-9.3-1.1-1.6-2.1-3.2-2.3-3.8-.2-.4-.7-.6-1.1-.5-.4.2-.6.7-.5 1.1.3.7 1.2 2.2 2.4 4.1 1.8 2.8 4.2 6.6 5.1 8.9 1.1 3.2 2.2 11 2.2 15.1h.1c.6 0 1.1-.1 1.7-.2z" id="svg_216"/></g><path class="st0" d="M227.662 211.806c-.4-3.1-.6-4.2-1.2-6.9-.6-2.9-1.4-6.3-2-8.4l-2.1-1.2c.3 1.4 1.5 6.1 2.4 10 .6 2.6.7 3.7 1.2 6.7.3 1.9.8 5.7 1.5 10.3.6 0 1.2 0 1.7.1-.6-4.8-1.2-8.6-1.5-10.6z" id="svg_217"/><path class="st0" d="M195.462 215.906c-1.2-6.8-6.4-17.7-12.1-22.5-5.4-4.6-18.2-12.8-23.2-13.9-.7-.1-1.5-.4-2.4-.6l-1.4 1.4c1.3.4 2.5.7 3.5.9 1.5.3 4.1 1.5 6.9 3.1l-2.7-.3c-1.7-.1-5.6-1.7-8.5-3-.4.4-.8.9-1.3 1.3 3.4 1.4 7.5 3.2 9.6 3.3 2.6.2 6.1.8 6.9 1 4.3 2.6 8.7 5.7 11.5 8 5.4 4.6 10.4 15 11.5 21.5.8 4.7 1.5 9.3 1.4 13 .5-.7 1.1-1.3 1.7-2-.2-3-.7-6.8-1.4-11.2z" id="svg_218"/><path class="st0" d="M238.962 221.806h.1c.5-.1 1-.2 1.5-.4v-2.2c0-2.8-.4-10-.4-10.3 0-.5-.4-.8-.9-.8s-.8.4-.8.9c0 .1.4 7.5.4 10.2 0 .5 0 2 .1 2.6z" id="svg_219"/><path class="st0" d="M143.062 267.506c.1-2.6.7-6.8 1.4-8.9.5-1.4 1.6-3 2.6-4.4.6-.9 1.2-1.7 1.6-2.4.5-.9 3-7.6 3.3-8.3.2-.4-.1-.9-.5-1.1-.4-.2-.9.1-1.1.5-1.1 2.9-2.9 7.5-3.2 8.1-.3.6-.9 1.4-1.5 2.2-1.1 1.5-2.3 3.2-2.8 4.9-.7 2.1-1.4 6.4-1.4 9.4h1.6z" id="svg_220"/></g></g><g id="svg_221"><defs transform="translate(-24.138 -11.494)"><path id="SVGID_00000105419758103268980290000001677585247199606925_" d="M131.9 80.5c-.1-.3-.2-.5-.3-.8-4.6-12-13.9-23.9-7.5-30.2-4.7 3.4-16.4 11.9-26.9 19.3C86.9 76 76.3 82.3 75 86.6c-4.2 13 9.7 31.7 4.7 47.1-4.7 14.6-34.8 21.4-32.6 32.6 2.3 11.6 18.4 5.1 32.5 4.6 12-.5 27-.4 46.4 5.2 3.9-5.5 8.3-13.4 11.9-24.4 2.6-8.1 3.5-17 3.3-25.8-.7-20-5.1-34.1-9.3-45.4z"/></defs><clipPath id="SVGID_00000034075435307469451150000012107501901815607704_" transform="translate(-24.138 -11.494)"><use xlink:href="#SVGID_00000105419758103268980290000001677585247199606925_" style="overflow:visible" id="svg_222"/></clipPath><g style="clip-path:url(#SVGID_00000034075435307469451150000012107501901815607704_)" id="svg_223"><path class="st0" d="M93.262 85.606c-.1-.1-.2-.3-.3-.4.8.2 1.6.3 2.5.3 5.7 0 10.3-4.7 10.2-10.3 0-.9-.1-1.7-.3-2.5.2.1.3.2.5.3.1 0 .1.1.2.1.2.1.3.2.5.3.2.1.5.3.8.4.1 0 .1.1.2.1.1.1.2.1.4.2 0 .4.1.8.1 1.2 0 6.9-5.5 12.5-12.4 12.5-.4 0-.8 0-1.2-.1-.1-.1-.1-.2-.2-.4 0 0 0-.1-.1-.1-.1-.3-.3-.5-.4-.8-.1-.1-.2-.3-.2-.4-.2-.2-.3-.3-.3-.4zm-20.2 27.3h-.1c-8.2 0-14.9-6.6-14.9-14.7v-.1c-.7.2-1.4.5-2.1.7.3 9 7.6 16.2 16.6 16.4 0-.9.3-1.6.5-2.3zm3.3 6.9c.4-9.9 8.4-17.9 18.3-18.5-.1-.5-.1-.9-.2-1.4 0-.2 0-.5-.1-.7-10.9.6-19.7 9.5-20.2 20.4.3 0 .5 0 .8.1.5 0 .9 0 1.4.1zm-2.1-9.8c0-.1 0-.1.1-.2.1-.3.3-.5.4-.8.1-.2.2-.3.3-.4 0-.1.1-.1.1-.2.1-.2.2-.3.3-.5-.8.2-1.6.3-2.5.3-5.7 0-10.3-4.6-10.3-10.2 0-.9.1-1.7.3-2.5-.1.1-.3.2-.4.3-.1.1-.2.1-.3.2-.1.1-.3.2-.4.2-.3.1-.5.3-.8.4 0 0-.1 0-.1.1-.1.1-.3.1-.4.2 0 .4-.1.8-.1 1.2 0 6.9 5.6 12.4 12.5 12.4.4 0 .8 0 1.2-.1-.1-.1 0-.2.1-.4zm21.2-20h-.1c.2.7.5 1.4.6 2.1 9-.3 16.2-7.6 16.4-16.5l-2.1-.6v.1c0 8.2-6.6 14.9-14.8 14.9zm-53.4-14.5c0-4.3 3.5-7.9 7.8-7.9s7.9 3.5 7.9 7.8-3.5 7.9-7.8 7.9c-4.3.1-7.8-3.5-7.9-7.8zm2.2 0c0 3.2 2.6 5.7 5.8 5.7 3.2 0 5.7-2.6 5.7-5.8s-2.6-5.7-5.8-5.7c-3.2 0-5.7 2.6-5.7 5.8zm51.2 7.6c-4.3 0-7.9-3.5-7.9-7.8s3.5-7.9 7.8-7.9 7.9 3.5 7.9 7.8c.1 4.3-3.5 7.9-7.8 7.9zm5.7-7.9c0-3.2-2.6-5.7-5.8-5.7-3.2 0-5.7 2.6-5.7 5.8 0 3.2 2.6 5.7 5.8 5.7 3.1-.1 5.7-2.7 5.7-5.8zm-27.3 2.1c0 .5-.1.9-.1 1.4 9.9.4 17.9 8.4 18.5 18.3.5-.1 1-.1 1.5-.2.2 0 .4 0 .7-.1-.8-10.9-9.7-19.6-20.6-20.2v.8zm-2.3-3.2c0-.2 0-.5.1-.7 0-.5.1-.9.1-1.4-9.9-.4-17.9-8.4-18.5-18.3-.4.1-.9.1-1.3.2-.3 0-.5.1-.8.1.6 10.8 9.4 19.6 20.4 20.1zm-21.5 11.6c-.9 0-1.7-.1-2.5-.3.1.1.2.3.3.4.1.1.1.2.2.3.1.1.2.3.2.4.1.3.3.5.4.8 0 0 0 .1.1.1.1.1.1.2.2.4.4 0 .8.1 1.2.1 6.9 0 12.4-5.6 12.4-12.5 0-.4 0-.8-.1-1.2-.1-.1-.2-.1-.4-.2-.1 0-.1-.1-.2-.1-.3-.1-.5-.3-.8-.4-.2-.1-.3-.2-.5-.3-.1 0-.1-.1-.2-.1-.2-.1-.3-.2-.5-.3.2.8.3 1.6.3 2.5.1 5.8-4.4 10.4-10.1 10.4zm14.9 12.4c0-4.3 3.5-7.9 7.8-7.9s7.9 3.5 7.9 7.8-3.5 7.9-7.8 7.9-7.9-3.5-7.9-7.8zm2.1 0c0 3.2 2.6 5.7 5.8 5.7 3.2 0 5.7-2.6 5.7-5.8 0-3.2-2.6-5.7-5.8-5.7-3.1 0-5.7 2.6-5.7 5.8zm-17-7.8h-.1c.2.7.5 1.4.6 2.1 9-.3 16.2-7.6 16.4-16.5l-2.1-.6v.1c0 8.1-6.6 14.8-14.8 14.9zm22.5-7.1h.1c8.2 0 14.9 6.6 14.9 14.7v.1c.7-.2 1.4-.5 2.1-.7-.3-9-7.6-16.2-16.6-16.4 0 .9-.2 1.6-.5 2.3zm-1.1 2.8s0 .1-.1.1c-.1.3-.3.5-.4.8-.1.1-.2.3-.2.4-.1.1-.1.2-.2.3-.1.1-.2.3-.3.4.8-.2 1.6-.3 2.5-.3 5.7 0 10.3 4.6 10.3 10.2 0 .9-.1 1.7-.3 2.5.2-.1.3-.2.5-.3.1 0 .1-.1.2-.1.1-.1.3-.2.5-.3.2-.1.5-.3.7-.4.1 0 .1-.1.2-.1.1-.1.2-.1.3-.2 0-.4.1-.8.1-1.2 0-6.9-5.6-12.4-12.5-12.4-.4 0-.8 0-1.2.1 0 .3-.1.4-.1.5zm-2.1-9.7c-.4 9.9-8.4 17.9-18.3 18.5.1.5.1.9.2 1.4 0 .2 0 .5.1.7 10.9-.7 19.7-9.5 20.2-20.4h-.6c-.6-.1-1.1-.1-1.6-.2zm24.8-22.6c-10.9.7-19.7 9.5-20.2 20.4.3 0 .5 0 .8.1.4 0 .9.1 1.3.1.4-9.9 8.4-17.9 18.3-18.5-.1-.5-.1-.9-.2-1.4v-.7zm1.2 9.1c-6.9 0-12.4 5.6-12.4 12.5 0 .4 0 .8.1 1.2.1.1.3.1.4.2 0 0 .1 0 .1.1.3.1.5.3.8.4.1.1.3.2.4.2.1.1.2.1.3.2.1.1.3.2.4.3-.2-.8-.3-1.6-.3-2.5 0-5.7 4.6-10.3 10.2-10.3.9 0 1.7.1 2.5.3-.1-.2-.2-.3-.3-.5 0-.1-.1-.1-.1-.2-.1-.1-.2-.3-.3-.4-.1-.2-.3-.5-.4-.8l-.1-.1c-.1-.1-.1-.2-.2-.4-.3-.2-.7-.2-1.1-.2zm-16.9 12 2.1.6v-.1c0-8.2 6.6-14.9 14.7-14.9h.1c-.2-.7-.5-1.4-.6-2.1-8.9.3-16.1 7.5-16.3 16.5zm17.8-25.7c.1.5.1.9.2 1.4 0 .2 0 .5.1.7 10.9-.6 19.7-9.5 20.2-20.4h-.6c-.5 0-1-.1-1.5-.2-.6 9.9-8.5 18-18.4 18.5zm-4.4 2.4c.1 0 .1 0 0 0 .5-.1 1-.1 1.5-.2.2 0 .4 0 .7-.1-.7-10.9-9.5-19.7-20.4-20.2 0 .2 0 .5-.1.7 0 .5-.1.9-.1 1.4 9.9.6 17.9 8.5 18.4 18.4zm-4.1 69.2c0-4.3 3.5-7.9 7.8-7.9s7.9 3.5 7.9 7.8-3.5 7.9-7.8 7.9-7.9-3.5-7.9-7.8zm2.2-.1c0 3.2 2.6 5.7 5.8 5.7 3.2 0 5.7-2.6 5.7-5.8 0-3.2-2.6-5.7-5.8-5.7-3.2.1-5.8 2.7-5.7 5.8zm-35.7-16.9c-.5-1.5-1.5-3-1.5-4.6-.4.1-.1.1-.6.2-.3 0-.5.1-.8.1.6 10.9 9.5 19.7 20.4 20.2 0-.2 0-.5.1-.7 0-.5.1-.9.1-1.4-8.3-.5-15.3-6.1-17.7-13.8zm-4.1 9.3c4.3 0 7.9 3.5 7.9 7.8s-3.5 7.9-7.8 7.9-7.9-3.5-7.9-7.8 3.5-7.9 7.8-7.9zm-5.7 7.9c0 3.2 2.6 5.7 5.8 5.7 3.2 0 5.7-2.6 5.7-5.8 0-3.2-2.6-5.7-5.8-5.7-3.1 0-5.7 2.6-5.7 5.8zm49.4 21.3c.2 0 .4 0 .7-.1-.7-10.9-9.5-19.7-20.4-20.2 0 .2 0 .5-.1.7 0 .5-.1.9-.1 1.4 9.9.4 17.9 8.4 18.5 18.3.5 0 .9 0 1.4-.1zm24.3-52.3c4.3 0 7.9 3.5 7.9 7.8s-3.5 7.9-7.8 7.9-7.9-3.5-7.9-7.8 3.5-7.9 7.8-7.9zm.1 2.1c-3.2 0-5.7 2.6-5.7 5.8 0 3.2 2.6 5.7 5.8 5.7 3.2 0 5.7-2.6 5.7-5.8-.1-3.1-2.7-5.7-5.8-5.7zm-10 3.3c-.1.1-.3.2-.4.3-.1.1-.2.1-.3.2-.1.1-.3.2-.4.2-.3.1-.5.3-.8.4 0 0-.1 0-.1.1-.1.1-.3.1-.4.2 0 .4-.1.8-.1 1.2 0 6.9 5.6 12.4 12.5 12.4.4 0 .8 0 1.2-.1.1-.1.1-.2.2-.4 0-.1 0-.1.1-.2.1-.3.3-.5.4-.8.1-.2.2-.3.3-.4 0-.1.1-.1.1-.2.1-.2.2-.3.3-.5-.8.2-1.6.3-2.5.3-5.7 0-10.3-4.6-10.3-10.2-.1-.8 0-1.7.2-2.5 0 .1 0 .1 0 0zm-10.9-41.7c-.3 0-.5.1-.8.1.7 10.9 9.5 19.7 20.4 20.2 0-.2 0-.5.1-.7 0-.5.1-.9.1-1.4-9.9-.4-17.9-8.4-18.5-18.3-.4 0-.9 0-1.3.1zm-22.8 101.7c.1-.3.3-.5.4-.8.1-.2.2-.3.3-.4 0-.1.1-.1.1-.2.1-.2.2-.3.3-.5-.8.2-1.6.3-2.5.3-5.7 0-10.3-4.6-10.3-10.2 0-.9.1-1.7.3-2.5-.1.1-.3.2-.4.3-.1.1-.2.1-.3.2-.1.1-.3.2-.4.2-.3.1-.5.3-.8.4 0 0-.1 0-.1.1-.1.1-.3.1-.4.2 0 .4-.1.8-.1 1.2 0 6.9 5.6 12.4 12.5 12.4.4 0 .8 0 1.2-.1.1-.1.1-.2.2-.4-.1-.1 0-.1 0-.2zm-1.4 3c-8.2 0-14.9-6.6-14.9-14.7v-.1c-.7.2-1.4.5-2.1.7.3 9 7.6 16.2 16.6 16.4l.6-2.1c-.1-.2-.1-.2-.2-.2zm9.9-12.4c.2-.1.3-.2.5-.3.1 0 .1-.1.2-.1.1-.1.3-.2.5-.3.2-.1.5-.3.7-.4.1 0 .1-.1.2-.1.1-.1.2-.1.3-.2 0-.4.1-.8.1-1.2 0-6.9-5.6-12.4-12.5-12.4-.4 0-.8 0-1.2.1-.1.1-.1.2-.2.4 0 0 0 .1-.1.1-.1.3-.3.5-.4.8-.1.1-.2.3-.2.4-.1.1-.1.2-.2.3-.1.1-.2.3-.3.4.8-.2 1.6-.3 2.5-.3 5.7 0 10.3 4.6 10.3 10.2.1 1 0 1.8-.2 2.6zm4.8-2.4c.7-.2 1.4-.5 2.1-.7-.3-9-7.6-16.2-16.6-16.4l-.6 2.1h.1c8.2 0 14.9 6.6 14.9 14.7.2.2.1.3.1.3zm-60.3-14.6c8.2 0 14.9 6.6 14.9 14.7v.1c.7-.2 1.4-.5 2.1-.7-.3-9-7.6-16.2-16.6-16.4l-.6 2.1c.1.2.2.2.2.2zm37.6 14.6c0-4.3 3.5-7.9 7.8-7.9s7.9 3.5 7.9 7.8-3.5 7.9-7.8 7.9c-4.3.1-7.8-3.5-7.9-7.8zm2.2 0c0 3.2 2.6 5.7 5.8 5.7 3.2 0 5.7-2.6 5.7-5.8 0-3.2-2.6-5.7-5.8-5.7-3.2 0-5.7 2.6-5.7 5.8zm43.3-.3c0-4.3 3.5-7.9 7.8-7.9s7.9 3.5 7.9 7.8-3.5 7.9-7.8 7.9c-4.4.1-7.9-3.4-7.9-7.8zm2.1 0c0 3.2 2.6 5.7 5.8 5.7 3.2 0 5.7-2.6 5.7-5.8 0-3.2-2.6-5.7-5.8-5.7s-5.7 2.7-5.7 5.8zm-85.2-9.8c5.7 0 10.3 4.6 10.3 10.2 0 .9-.1 1.7-.3 2.5.2-.1.3-.2.5-.3.1 0 .1-.1.2-.1.1-.1.3-.2.5-.3.2-.1.5-.3.7-.4.1 0 .1-.1.2-.1.1-.1.2-.1.3-.2 0-.4.1-.8.1-1.2 0-6.9-5.6-12.4-12.5-12.4-.4 0-.8 0-1.2.1-.1.1-.1.2-.2.4 0 0 0 .1-.1.1-.1.3-.3.5-.4.8-.1.1-.2.3-.2.4-.1.1-.1.2-.2.3-.1.1-.2.3-.3.4 1-.1 1.8-.2 2.6-.2zm19.4 9.2c.5-.1 1-.1 1.5-.2.2 0 .4 0 .7-.1-.6-10.9-9.5-19.7-20.4-20.2 0 .2 0 .5-.1.7 0 .5-.1.9-.1 1.4 9.9.6 17.9 8.5 18.4 18.4zm73 12.5c.1-.3.3-.5.4-.8.1-.2.2-.3.3-.4 0-.1.1-.1.1-.2.1-.2.2-.3.3-.5-.8.2-1.6.3-2.5.3-5.7 0-10.3-4.6-10.3-10.2 0-.9.1-1.7.3-2.5-.1.1-.3.2-.4.3-.1.1-.2.1-.3.2-.1.1-.3.2-.4.2-.3.1-.5.3-.8.4 0 0-.1 0-.1.1-.1.1-.3.1-.4.2 0 .4-.1.8-.1 1.2 0 6.9 5.6 12.4 12.5 12.4.4 0 .8 0 1.2-.1.1-.1.1-.2.2-.4v-.2zm-92.2 3.4c-8.2 0-14.9-6.6-14.9-14.7v-.1c-.7.2-1.4.5-2.1.7.3 9 7.6 16.2 16.6 16.4l.6-2.1c-.1-.2-.2-.2-.2-.2zm90.8-.5c-8.2 0-14.9-6.6-14.9-14.7v-.1c-.7.2-1.4.5-2.1.7.3 9 7.6 16.2 16.6 16.4l.6-2.1c-.1-.2-.1-.2-.2-.2zm-46-115.7c5.7 0 10.3 4.6 10.3 10.2 0 .9-.1 1.7-.3 2.5.2-.1.3-.2.5-.3.1 0 .1-.1.2-.1.1-.1.3-.2.5-.3.2-.1.5-.3.7-.4.1 0 .1-.1.2-.1.1-.1.2-.1.3-.2 0-.4.1-.8.1-1.2 0-6.9-5.6-12.4-12.5-12.4-.4 0-.8 0-1.2.1-.1.1-.1.2-.2.4 0 0 0 .1-.1.1-.1.3-.3.5-.4.8-.1.1-.2.3-.2.4-.1.1-.1.2-.2.3-.1.1-.2.3-.3.4.9-.1 1.7-.2 2.6-.2zm-7.9 10.4c0-4.3 3.5-7.9 7.8-7.9s7.9 3.5 7.9 7.8-3.5 7.9-7.8 7.9-7.8-3.5-7.9-7.8zm2.2-.1c0 3.2 2.6 5.7 5.8 5.7 3.2 0 5.7-2.6 5.7-5.8 0-3.2-2.6-5.7-5.8-5.7s-5.8 2.7-5.7 5.8zm-37.7 103c.1-.3.3-.5.4-.8.1-.2.2-.3.3-.4 0-.1.1-.1.1-.2.1-.2.2-.3.3-.5-.8.2-1.6.3-2.5.3-5.7 0-10.3-4.6-10.3-10.2 0-.9.1-1.7.3-2.5-.1.1-.3.2-.4.3-.1.1-.2.1-.3.2-.1.1-.3.2-.4.2-.3.1-.5.3-.8.4 0 0-.1 0-.1.1-.1.1-.3.1-.4.2 0 .4-.1.8-.1 1.2 0 6.9 5.6 12.4 12.5 12.4.4 0 .8 0 1.2-.1.1-.1.1-.2.2-.4-.1-.1-.1-.2 0-.2zm87.7-79.4h-.6c-.5 0-1-.1-1.5-.1-.4 9.9-8.4 17.9-18.3 18.5.1.5.1.9.2 1.4 0 .2 0 .5.1.7 10.9-.7 19.6-9.5 20.1-20.5zm-21.3 34.1c.9 0 1.7.1 2.5.3-.1-.1-.2-.3-.3-.5 0-.1-.1-.1-.1-.2-.1-.1-.2-.3-.3-.4-.1-.2-.3-.5-.4-.8l-.1-.1c-.1-.1-.1-.2-.2-.4-.4 0-.8-.1-1.2-.1-6.9 0-12.4 5.6-12.4 12.5 0 .4 0 .8.1 1.2.1.1.3.1.4.2 0 0 .1 0 .1.1.3.1.5.3.8.4.1.1.3.2.4.2.1.1.2.1.3.2.1.1.3.2.4.3-.2-.8-.3-1.6-.3-2.5.1-5.7 4.7-10.3 10.3-10.4zm-22.9-45.3c.4 0 .8 0 1.2-.1.1-.1.1-.2.2-.4 0-.1 0-.1.1-.2.1-.3.3-.5.4-.8.1-.1.2-.3.3-.4 0-.1.1-.1.1-.2.1-.2.2-.3.3-.5-.8.2-1.6.3-2.5.3-5.7 0-10.3-4.6-10.3-10.2 0-.9.1-1.7.3-2.5-.1.1-.3.2-.4.3-.1.1-.2.1-.3.2-.1.1-.3.2-.4.2-.3.1-.5.3-.8.4 0 0-.1 0-.1.1-.1.1-.3.1-.4.2 0 .4-.1.8-.1 1.2-.1 6.9 5.5 12.5 12.4 12.4zm45.8 47.6h-.1c-8.2 0-14.9-6.6-14.9-14.7v-.1c-.7.2-1.4.5-2.1.7.3 9 7.6 16.2 16.6 16.4.1-.9.3-1.6.5-2.3zm-15.3-60.2v-.1c-.7.2-1.4.5-2.1.7.3 9 7.6 16.2 16.6 16.4l.6-2.1h-.1c-8.3-.1-15-6.7-15-14.9zm-30.7-14.6c8.2 0 14.9 6.6 14.9 14.7v.1c.7-.2 1.4-.5 2.1-.7-.3-9-7.6-16.2-16.6-16.4l-.6 2.1c.1.2.2.2.2.2zm-.3 31.8.6-2.1h-.1c-8.2 0-14.9-6.6-14.9-14.7v-.1c-.7.2-1.4.5-2.1.7.3 8.8 7.5 16 16.5 16.2zm-52.4 74.2c0-4.3 3.5-7.9 7.8-7.9s7.9 3.5 7.9 7.8-3.5 7.9-7.8 7.9-7.9-3.5-7.9-7.8zm2.2-.1c0 3.2 2.6 5.7 5.8 5.7 3.2 0 5.7-2.6 5.7-5.8 0-3.2-2.6-5.7-5.8-5.7-3.2.1-5.8 2.7-5.7 5.8zm73.6-37.9h.1c-.2-.7-.5-1.4-.6-2.1-9 .3-16.2 7.6-16.4 16.6l2.1.6v-.1c0-8.3 6.6-15 14.8-15zm-45.1 52.6c-4.3 0-7.9 3.6-7.8 7.9h2.1c0-3.2 2.5-5.8 5.7-5.8s5.8 2.5 5.8 5.7h2.1c0-4.3-3.6-7.8-7.9-7.8zm0-2.4c.9 0 1.7.1 2.5.3-.1-.1-.2-.3-.3-.5 0-.1-.1-.1-.1-.2-.1-.1-.2-.3-.3-.4-.1-.2-.3-.5-.4-.8l-.1-.1c-.1-.1-.1-.2-.2-.4-.4 0-.8-.1-1.2-.1-6.9 0-12.4 5.6-12.4 12.5h2.1c.1-5.6 4.7-10.3 10.4-10.3zm0-4.5h.1c-.2-.7-.5-1.4-.6-2.1-9 .3-16.2 7.6-16.4 16.5.6.1 1.2.3 1.7.5h.4c0-8.2 6.6-14.9 14.8-14.9zm45.4-.3h.1c-.2-.7-.5-1.4-.6-2.1-9 .3-16.2 7.6-16.4 16.5.6.1 1.2.3 1.7.5h.4c0-8.2 6.6-14.8 14.8-14.9zm0 7c-4.3 0-7.9 3.6-7.8 7.9h2.1c0-3.2 2.5-5.8 5.7-5.8s5.8 2.5 5.8 5.7h2.1c0-4.4-3.5-7.9-7.9-7.8zm0-2.4c.9 0 1.7.1 2.5.3-.1-.1-.2-.3-.3-.5 0-.1-.1-.1-.1-.2-.1-.1-.2-.3-.3-.4-.1-.2-.3-.5-.4-.8l-.1-.1c-.1-.1-.1-.2-.2-.4-.4 0-.8-.1-1.2-.1-6.9 0-12.4 5.6-12.4 12.5h2.1c.1-5.7 4.7-10.3 10.4-10.3zm45.4 2.1c-4.3 0-7.9 3.6-7.8 7.9h2.1c0-3.2 2.5-5.8 5.7-5.8v-2.1zm0-6.9v-.4c-.2-.6-.4-1.1-.5-1.7-9 .3-16.2 7.6-16.4 16.6.6.1 1.2.3 1.7.5h.4c0-8.3 6.6-15 14.8-15zm0 4.5v-2.1c-6.9 0-12.4 5.6-12.4 12.5h2.1c.1-5.7 4.7-10.4 10.3-10.4zm-45.5-22.5c6.9 0 12.4-5.6 12.4-12.5 0-.4 0-.8-.1-1.2-.1-.1-.2-.1-.4-.2-.1 0-.1-.1-.2-.1-.3-.1-.5-.3-.8-.4-.2-.1-.3-.2-.5-.3-.1 0-.1-.1-.2-.1-.2-.1-.3-.2-.5-.3.2.8.3 1.6.3 2.5 0 5.7-4.6 10.3-10.2 10.3-.9 0-1.7-.1-2.5-.3.1.1.2.3.3.4.1.1.1.2.2.3.1.1.2.3.2.4.1.3.3.5.4.8 0 0 0 .1.1.1.1.1.1.2.2.4.5.2.9.2 1.3.2zm16.9-12-2.1-.6v.1c0 8.2-6.6 14.9-14.7 14.9h-.1c.2.7.5 1.4.6 2.1 8.9-.2 16.1-7.5 16.3-16.5zm-58.9 23.5c-.4.1-.9.1-1.3.2-.3 0-.5.1-.8.1.7 10.9 9.5 19.7 20.4 20.2 0-.2 0-.5.1-.7 0-.5.1-.9.1-1.4-9.9-.5-18-8.5-18.5-18.4zm86.5 1.9c-.1-.5-.1-.9-.2-1.4 0-.2 0-.5-.1-.7-10.9.6-19.7 9.5-20.2 20.4.3 0 .5 0 .8.1.4 0 .9.1 1.3.1.6-9.9 8.5-17.9 18.4-18.5zm-88.7-4.1c10.9-.7 19.7-9.5 20.2-20.4h-.6c-.5 0-1-.1-1.5-.2-.4 9.9-8.4 17.9-18.3 18.5.1.5.1.9.2 1.4-.1.2 0 .5 0 .7zm45.4-.2c10.9-.7 19.7-9.5 20.2-20.4h-.6c-.5 0-1-.1-1.5-.2-.4 9.9-8.4 17.9-18.3 18.5.1.5.1.9.2 1.4v.7zm2.2 2.2c-.4.1-.9.1-1.3.2-.3 0-.5.1-.8.1.7 10.9 9.5 19.7 20.4 20.2 0-.2 0-.5.1-.7 0-.5.1-.9.1-1.4-9.9-.6-18-8.5-18.5-18.4zm-4.3 2.4c-.1-.5-.1-.9-.2-1.4 0-.2 0-.5-.1-.7-10.9.6-19.7 9.5-20.2 20.4.3 0 .5 0 .8.1.4 0 .9.1 1.3.1.5-9.9 8.5-18 18.4-18.5zm-27.7-25.4-2.1-.6v.1c0 8.2-6.6 14.9-14.7 14.9h-.1c.2.7.5 1.4.6 2.1 8.9-.3 16.1-7.6 16.3-16.5zm-17.7 25.7c-.1-.5-.1-.9-.2-1.4 0-.2 0-.5-.1-.7-10.9.6-19.7 9.5-20.2 20.4.3 0 .5 0 .8.1.4 0 .9.1 1.3.1.5-10 8.5-18 18.4-18.5zm-1.2-15.4c.1.1.2.3.2.4.1.3.3.5.4.8 0 0 0 .1.1.1.1.1.1.2.2.4.4 0 .8.1 1.2 0 6.9 0 12.4-5.6 12.4-12.5 0-.4 0-.8-.1-1.2-.1-.1-.2-.1-.4-.2-.1 0-.1-.1-.2-.1-.3-.1-.5-.3-.8-.4-.2-.1-.3-.2-.5-.3-.1 0-.1-.1-.2-.1-.2-.1-.3-.2-.5-.3.2.8.3 1.6.3 2.5 0 5.7-4.6 10.3-10.2 10.3-.9 0-1.7-.1-2.5-.3.1.1.2.3.3.4.2.3.2.4.3.5zm-39.9 13.2c-.4.1-.9.1-1.3.2-.3 0-.5.1-.8.1.7 10.9 9.5 19.7 20.4 20.2 0-.2 0-.5.1-.7 0-.5.1-.9.1-1.4-10-.6-18-8.5-18.5-18.4zm86.9-100.2h-.1c.2.7.5 1.4.6 2.1 9-.3 16.2-7.6 16.4-16.5-.6-.1-1.2-.3-1.7-.5h-.4c0 8.2-6.6 14.9-14.8 14.9zm-2.1-4.1c.1.1.2.3.2.4.1.3.3.5.4.8 0 0 0 .1.1.1.1.1.1.2.2.4.4 0 .8.1 1.2.1 6.9 0 12.4-5.6 12.4-12.5h-2.1c0 5.7-4.6 10.3-10.2 10.3-.9 0-1.7-.1-2.5-.3.1.1.2.3.3.4-.1.1-.1.2 0 .3zm24.5 78.8c0-.7.1-1.4.1-2.1h-.3c-9.9-.4-17.9-8.4-18.5-18.3-.4.1-.9.1-1.3.2-.3 0-.5.1-.8.1.6 10.9 9.5 19.7 20.4 20.2l.4-.1z" id="svg_224"/></g></g><g id="svg_225"><defs transform="translate(-24.138 -11.494)"><path id="SVGID_00000059997804490706327330000003502166183806104201_" d="M245 205.9c.2.1.5.3.7.4 10.7 7 25.3 11.2 23.8 20.1 1.8-5.5 6.2-19.3 10.4-31.4 4.1-11.9 9-23.3 7.6-27.5-4.2-13-26.5-20-31.5-35.4-4.7-14.6 15.6-37.8 7.2-45.6-8.7-8-17.9 6.7-29 15.4-9.5 7.4-21.6 16.1-40.7 23.1.1 6.7 1.2 15.8 4.7 26.7 2.6 8.1 7.2 15.8 12.5 22.8 12.4 15.9 24.4 24.7 34.3 31.4z"/></defs><clipPath id="SVGID_00000097476732747009246100000004768801061882756011_" transform="translate(-24.138 -11.494)"><use xlink:href="#SVGID_00000059997804490706327330000003502166183806104201_" style="overflow:visible" id="svg_226"/></clipPath><g style="clip-path:url(#SVGID_00000097476732747009246100000004768801061882756011_)" id="svg_227"><g id="svg_228"><g id="svg_229"><g id="svg_230"><g id="svg_231"><path class="st0" d="M189.962 152.706c.1.3 7.5 29.8 9.9 38.6-7.2-11.4-11.3-24.9-9.9-38.6z" id="svg_232"/><path class="st0" d="M190.362 134.506c1.9 9.5 14.9 45.3 18 50.2-7.2-6.9-20.3-29.3-18-50.2z" id="svg_233"/><path class="st0" d="M192.162 123.206c2.2 13 6.6 21.5 15.7 38.9l5.9 11c.1 0-.2 0-.1.1-.1-.1-.2-.3-.2-.4l.3.3c0 .1-.2.1-.1.1-9.6-7-23.8-29.6-21.5-50z" id="svg_234"/><path class="st0" d="M193.362 116.106c2.5 12.2 18.5 34.2 25.9 46.1-13-11.2-27.5-29.1-25.9-46.1z" id="svg_235"/><path class="st0" d="M194.962 108.706c2.4 11.3 17.9 27.8 28.8 45.5-12.7-11.1-30.3-29-28.8-45.5z" id="svg_236"/><path class="st0" d="M196.462 102.706c2.3 10.7 18.8 21.7 32.9 43.5-14.9-12.9-33.9-29.1-32.9-43.5z" id="svg_237"/><path class="st0" d="M198.162 98.106c2.2 9.1 23.7 17.9 37.1 39.1-18.8-16-37.8-27.9-37.1-39.1z" id="svg_238"/><path class="st0" d="M199.462 93.506c1.2 4.5 6.7 5.6 17.7 12.2 8.4 5 18 13.8 23.6 22.6-21.8-18.4-41.6-26.3-41.3-34.8z" id="svg_239"/><path class="st0" d="M200.562 89.906s0 .6.6 1.1c3.9 3.5 28 1.7 44.8 27.6-18.7-16.3-31.6-18.5-42.1-24.8-3.9-2.3-3.3-3.9-3.3-3.9z" id="svg_240"/><path class="st0" d="M201.962 87.306s-.2.7 2 .8c3.8.1 29.8-5.2 47.8 22.1-9.4-8.2-15.3-12.2-28.1-16.6-12.6-4.4-21.7-3.9-21.7-6.3z" id="svg_241"/><path class="st0" d="M202.662 84.206s-.3.4 2.4-.5c22.1-7.8 39.7-.5 51.9 18-14.2-12.6-28.1-19.1-48.8-17.5-2.7.2-5 .5-5.5.3-.1-.2 0-.3 0-.3z" id="svg_242"/><path class="st0" d="M203.462 81.006c12.7-11.3 38.7-14 58 13.2-13-11.6-24.9-18.7-43.6-16.9-6.4.7-11.6 2.3-14.4 3.7z" id="svg_243"/></g><g id="svg_244"><path class="st0" d="M184.362 143.506c-3.5 8.7-8.8 18.8-21.2 28.3 9.3-16.1 13.8-21.2 21.2-28.3z" id="svg_245"/><path class="st0" d="M186.462 132.006c-9.6 21.4-28 29.8-31.7 30.7 3.9-2.5 4.4-3.7 31.7-30.7z" id="svg_246"/><path class="st0" d="M187.962 122.706c-6.7 14.3-21.2 26-39.2 29 0 .2-.1-.2-.1-.2.1 0 .5-.1.5-.1s-.4.2-.5.2c0 0-.1-.3-.1-.2 27.2-15.9 33.7-22.6 39.4-28.7z" id="svg_247"/><path class="st0" d="M189.062 115.706c-7.4 15.1-26.4 21-43.1 23.3 15-7.6 34.2-14.1 43.1-23.3z" id="svg_248"/><path class="st0" d="M191.162 108.006c-7.2 14.5-28.2 19.1-44.7 21.4 11.3-5.6 36.6-13.2 44.7-21.4z" id="svg_249"/><path class="st0" d="M192.162 102.106c-6 11.9-25.4 14.7-46.6 17.6 21.9-10.5 38.7-9.7 46.6-17.6z" id="svg_250"/></g></g><path class="st0" d="M207.062 58.806c-10.1 26-15.9 50.5-19.4 76.4-.7 4.9-1.6 10-2.7 14.9-2.8 12.6-3.6 27.5-1.4 41.8 2.4-13.6 3.5-27.9 3.7-38.2.3-10.7 1.5-21.8 3.7-32.3 4.3-20.8 10.4-40.7 19-61.5l-2.9-1.1z" id="svg_251"/></g><g id="svg_252"><g id="svg_253"><g id="svg_254"><path class="st0" d="M246.162 163.606c8.5-3.6 43.7-12.4 49.2-12.6-9.2-1.9-34-.3-49.2 12.6z" id="svg_255"/><path class="st0" d="M238.162 171.006c11.4-5.2 20.5-6.2 39.1-8.3l11.8-1.2c0 .1-.1-.2 0-.1h-.4l.4.1c.1 0 0-.2 0-.1-10.6-3.9-36-3-50.9 9.6z" id="svg_256"/><path class="st0" d="M233.162 175.806c11-4.5 36.9-3.6 50.2-4.1-15.8-4.3-37.6-6.2-50.2 4.1z" id="svg_257"/><path class="st0" d="M228.162 181.006c10.2-4.2 31.4-.7 51.3-1.4-15.4-4.2-39-8.5-51.3 1.4z" id="svg_258"/><path class="st0" d="M224.362 185.406c9.7-3.9 27.1 3.3 51.9 2.8-18.3-4.9-41.2-11.3-51.9-2.8z" id="svg_259"/><path class="st0" d="M221.562 189.206c8.3-3.1 26.8 9.2 50.7 8.5-22.7-6.3-42.2-15-50.7-8.5z" id="svg_260"/><path class="st0" d="M218.562 192.706c4.2-1.4 8 2.3 19 7.5 8.4 3.9 20.4 6.8 30.4 6.6-26-7.4-42.8-18.9-49.4-14.1z" id="svg_261"/></g><g id="svg_262"><path class="st0" d="M250.062 154.106c5-7.4 10.2-16.9 11.1-31.8-7.8 15.9-9.5 22.2-11.1 31.8z" id="svg_263"/><path class="st0" d="M242.062 161.906c11.8-19 8.6-38 7.3-41.4.2 4.4-.5 5.5-7.3 41.4z" id="svg_264"/><path class="st0" d="M235.562 168.006c7.7-12.9 9.2-30.6 2-46.4h-.2c0 .1.2.4.2.5l-.1-.5s-.3.1-.2 0c1.9 29.9.1 38.7-1.7 46.4z" id="svg_265"/><path class="st0" d="M230.662 172.606c8-13.9 2.5-32-4.6-46.4 2 15.9 7 34.5 4.6 46.4z" id="svg_266"/><path class="st0" d="M225.662 178.306c7.6-13.4.4-31.8-6.5-46 1.5 12 8.7 35.3 6.5 46z" id="svg_267"/><path class="st0" d="M221.562 182.306c6.2-11.1-1.9-27.9-10.9-46.1 3.3 22.8 12.9 35.6 10.9 46.1z" id="svg_268"/><path class="st0" d="M217.662 186.806c4.8-8.9-5-23.2-15.8-44.8 3.4 24.2 17.5 35.5 15.8 44.8z" id="svg_269"/><path class="st0" d="M214.562 190.106c3.5-7-9.3-17.8-21.8-42.4 1.6 11.3 6.9 21.6 14 30.2 5.3 6.4 8.3 8.5 7.8 12.2z" id="svg_270"/></g></g><path class="st0" d="M195.262 217.206c15.2-21.8 31.4-39.5 50-56 3.5-3.1 7.1-6.6 10.3-10 8.5-8.9 19.8-17.4 32.3-23.4-9.5 9.1-20.1 17.6-28.2 23.3-8.3 5.9-16.4 12.8-23.5 20.1-14.1 14.5-26.6 29.9-38.5 47.7l-2.4-1.7z" id="svg_271"/></g></g></g></g><g id="svg_272"><path class="st0" d="M118.262 42.906c-.8-.7-1.6-1.3-2.4-1.9h-17.7c-.2.6-.3 1.3-.3 1.9h20.4z" id="svg_273"/><path class="st0" d="M115.162 40.406c-.8-.6-1.6-1.2-2.4-1.7h-13.4c-.4.5-.8 1.1-1 1.7h16.8z" id="svg_274"/><path class="st0" d="M111.962 38.206c-3.7-2.3-7-3.3-9.9-1.7-.9.5-1.6 1.1-2.2 1.7h12.1z" id="svg_275"/><path class="st0" d="M112.662 55.506c-.6 0-1.1-.4-1.2-1h-10.3c.6 1.2 1.2 2.5 1.8 3.7h12.7l6-6c.1-.1.1-.1.2-.1h8.1c-3.8-2.6-7.5-5.8-11-8.7h-21.1c0 1.2.2 2.5.6 3.8h18.8c.2-.5.6-.8 1.2-.8.7 0 1.2.5 1.2 1.2s-.5 1.2-1.2 1.2c-.6 0-1.1-.5-1.2-1h-18.6l.9 2.7h6.6c.2-.5.6-.8 1.2-.8.7 0 1.2.5 1.2 1.2s-.5 1.2-1.2 1.2c-.6 0-1.1-.5-1.2-1h-6.3c.4 1 .8 1.9 1.3 2.9h10.5c.1-.6.6-1 1.2-1 .7 0 1.2.5 1.2 1.2-.2.8-.7 1.3-1.4 1.3z" id="svg_276"/><path class="st0" d="m116.962 60.206 6.2-6.2c.1-.1.1-.1.2-.1h9.4c-.6-.4-1.3-.8-1.9-1.2h-8.7l-6 6c-.1.1-.1.1-.2.1h-12.6c.2.4.4.9.6 1.3h13z" id="svg_277"/><path class="st0" d="M234.662 72.906c.8.1 1.5.4 2.3.8-.5-.4-1.1-.8-1.8-1.3l-.5.5z" id="svg_278"/><path class="st0" d="M234.762 72.006c-1-.7-2.1-1.5-3.3-2.4l-3.4 3.4c.1.2.2.4.2.6 0 .7-.5 1.2-1.2 1.2s-1.2-.5-1.2-1.2.5-1.2 1.2-1.2c.2 0 .5.1.6.2l3.4-3.4c-1.1-.8-2.3-1.7-3.5-2.6l-.5.5v.6c.6 0 1.1.6 1.1 1.2 0 .7-.5 1.2-1.2 1.2s-1.2-.5-1.2-1.2c0-.5.3-1 .8-1.1v-.8c0-.1 0-.1.1-.2l.5-.5c-.8-.6-1.6-1.2-2.5-1.8l-2.1 2.1v1.2c.6.1 1 .6 1 1.2 0 .7-.5 1.2-1.2 1.2s-1.2-.5-1.2-1.2c0-.6.4-1.1 1-1.2v-1.3c0-.1 0-.1.1-.2l2.1-2.1-4.5-3.3v9.8l1.9 1.9c.2-.1.4-.2.7-.2.7 0 1.2.5 1.2 1.2s-.5 1.2-1.2 1.2-1.2-.5-1.2-1.2c0-.2.1-.4.1-.6l-2.1-2.1v-10.3c-1-.7-2-1.5-3-2.3v24c0 .1 0 .1-.1.2l-8.6 8.6c.1.2.2.4.2.7 0 .7-.5 1.2-1.2 1.2s-1.2-.5-1.2-1.2.5-1.2 1.2-1.2c.2 0 .5.1.7.2l8.6-8.6v-24.3c-.7-.5-1.4-1.1-2.1-1.6v22c.6.1 1 .6 1 1.2 0 .7-.5 1.2-1.2 1.2s-1.2-.5-1.2-1.2c0-.6.4-1.1 1-1.2v-22.4c-.4-.3-.8-.6-1.1-.9v21.1c0 .1 0 .1-.1.2l-1.3 1.3c.1.1.1.3.1.4 0 .7-.5 1.2-1.2 1.2s-1.2-.5-1.2-1.2.5-1.2 1.2-1.2c.3 0 .6.1.8.3l1.1-1.1v-21.3c-.3-.2-.6-.4-.9-.7-.3-.2-.6-.4-.8-.6v18c.6.1 1 .6 1 1.2 0 .7-.5 1.2-1.2 1.2s-1.2-.5-1.2-1.2c0-.6.4-1.1 1-1.2v-18.4c-.4-.3-.9-.7-1.3-1l-.2.2v17.1c0 .1 0 .1-.1.2l-5.6 5.6v2c.6.1 1 .6 1 1.2 0 .7-.5 1.2-1.2 1.2s-1.2-.5-1.2-1.2c0-.6.4-1.1 1-1.2v-2.1c0-.1 0-.1.1-.2l5.6-5.6v-17.1c0-.1 0-.1.1-.2l.2-.2c-.2-.2-.4-.3-.6-.5l-.8.8v11.3l-6 6v13.1l2.1 2.1c.2-.2.5-.3.8-.3.7 0 1.2.5 1.2 1.2s-.5 1.2-1.2 1.2-1.2-.5-1.2-1.2c0-.2 0-.3.1-.5l-2.3-2.3v-13.5l6-6v-11.3l.1-.1.8-.8c-.3-.2-.5-.4-.8-.6l-7.1 7.1v14.1c0 .1 0 .1-.1.2l-1.7 1.7v11.6c0 .1 0 .1-.1.2l-1.3 1.3c.1.2.1.3.1.5 0 .7-.5 1.2-1.2 1.2s-1.2-.5-1.2-1.2.5-1.2 1.2-1.2c.3 0 .6.1.8.3l1.2-1.2v-11.7c0-.1 0-.1.1-.2l1.7-1.7v-14.1c0-.1 0-.1.1-.2l7.2-7.2c-2.3-1.8-4.6-3.5-6.7-5.1v6.6c.5.1.9.6.9 1.2 0 .7-.5 1.2-1.2 1.2s-1.2-.5-1.2-1.2c0-.6.4-1.1.9-1.2v-7c-4.8-3.5-8.7-6-11.2-6-.9 0-1.9.1-2.8.3l10.3 11.1c.1.1.1.1.1.2v13.9c0 .1 0 .1-.1.2l-7.1 7.1c-.1.1-.1.1-.2.1h-2.6l-2.5 2.5v10.5c0 .1 0 .1-.1.2l-2.7 2.7c0 .1.1.3.1.4 0 .7-.5 1.2-1.2 1.2s-1.2-.5-1.2-1.2.5-1.2 1.2-1.2c.3 0 .6.1.9.4l2.6-2.6v-10.5c0-.1 0-.1.1-.2l2.7-2.7s.1-.1.2-.1h2.6l6.9-6.9v-13.7l-11.3-11.3c-1.7.4-3.3.9-5 1.7l14.6 14.7c.1.1.1.1.1.2v7.7c0 .1 0 .1-.1.2l-6 6s-.1.1-.2.1h-3.2l-2.8 2.8v9.2c0 .1 0 .1-.1.2l-1.1 1.1c.1.1.1.3.1.4 0 .7-.5 1.2-1.2 1.2s-1.2-.5-1.2-1.2.5-1.2 1.2-1.2c.3 0 .6.1.8.3l.9-.9v-9.2c0-.1 0-.1.1-.2l2.9-2.9s.1-.1.2-.1h3.2l5.8-5.8v-7.5l-14.8-14.8c-.8.4-1.6.8-2.3 1.2v7.8l3.4 3.4c.1 0 .1.1.1.2v5.3c.6.1 1 .6 1 1.2 0 .7-.5 1.2-1.2 1.2s-1.2-.5-1.2-1.2c0-.6.4-1.1 1-1.2v-5.2l-3.4-3.4c0-.1-.1-.1-.1-.2v-7.7c-.7.4-1.5.8-2.2 1.3v22.9c0 .1 0 .1-.1.2l-.4.4c.1.1.1.3.1.5 0 .7-.5 1.2-1.2 1.2s-1.2-.5-1.2-1.2.5-1.2 1.2-1.2c.3 0 .6.1.8.3l.3-.3v-22.4c-1.6 1-3.3 2.1-4.9 3.2v21l1.7 1.7h5.4c.1 0 .1 0 .2.1l2.8 2.8c.1 0 .1.1.1.2v3l.5.5c.2-.1.4-.2.7-.2.7 0 1.2.5 1.2 1.2s-.5 1.2-1.2 1.2-1.2-.5-1.2-1.2c0-.2.1-.5.2-.7l-.6-.6c-.1 0-.1-.1-.1-.2v-3l-2.6-2.6h-5.4c-.1 0-.1 0-.2-.1l-1.8-1.8c-.1-.1-.1-.1-.1-.2v-20.8c-.3.2-.5.4-.8.5v21.7l2.4 2.4h4.6c.1 0 .3 0 2.4 2.3 0 0 .1.1.1.2v7.2c0 .1 0 .1-.1.2l-2.8 2.8c.1.2.1.4.1.5 0 .7-.5 1.2-1.2 1.2s-1.2-.5-1.2-1.2.5-1.2 1.2-1.2c.3 0 .5.1.8.3l2.7-2.7v-7c-.9-1-1.8-1.9-2-2.1h-4.7c-.1 0-.1 0-.2-.1l-2.6-2.6c-.1-.1-.1-.1-.1-.2v-21.3c-.8.5-1.5 1-2.3 1.5l.9 1.4s.1.1.1.2v20.1l2.3 2.3h5.1c.1 0 .1 0 .2.1l2 2c.1 0 .1.1.1.2v3.6c0 .1 0 .1-.1.2l-4.8 4.8v2.5l.8.8h3.9c.1 0 .1 0 .2.1l2.6 2.6h6l2.4-2.4c-.1-.2-.2-.4-.2-.6 0-.7.5-1.2 1.2-1.2s1.2.5 1.2 1.2-.5 1.2-1.2 1.2c-.3 0-.5-.1-.7-.2l-2.5 2.5s-.1.1-.2.1h-6.2c-.1 0-.1 0-.2-.1l-2.6-2.6h-3.9c-.1 0-.1 0-.2-.1l-.9-.9c-.1-.1-.1-.1-.1-.2v-2.8c0-.1 0-.1.1-.2l4.8-4.8v-3.4l-1.9-1.9h-5.1c-.1 0-.1 0-.2-.1l-2.4-2.4c-.1-.1-.1-.1-.1-.2v-20.1l-.9-1.4c-.4.2-.8.5-1.1.7l.7 1.1s.1.1.1.2v20.3l4.8 4.8h1.6c.1-.6.6-1 1.2-1 .7 0 1.2.5 1.2 1.2s-.5 1.2-1.2 1.2c-.6 0-1.1-.4-1.2-1h-1.7c-.1 0-.1 0-.2-.1l-4.9-4.9c-.1-.1-.1-.1-.1-.2v-20.2l-.7-1.1c-.5.3-1.1.7-1.6 1l1.2 1.2c.1.1.1.1.1.2v26.3l1.6 1.6c.2-.1.4-.2.7-.2.7 0 1.2.5 1.2 1.2s-.5 1.2-1.2 1.2-1.2-.5-1.2-1.2c0-.2.1-.5.2-.7l-1.6-1.6c-.1-.1-.1-.1-.1-.2v-26.3l-1.2-1.2c-.3.2-.6.4-.9.5l.9 1c.1.1.1.1.1.2v18.3c0 .1 0 .1-.1.2l-1.6 1.5c0 .1.1.2.1.3 0 .7-.5 1.2-1.2 1.2s-1.2-.5-1.2-1.2.5-1.2 1.2-1.2c.3 0 .7.1.9.4l1.4-1.3v-18.1l-.9-1c-.3.2-.7.4-1 .5 0 2.5 0 5.6-.1 7.7v.3h-6l-4.4-4.4c-.9.1-1.7.2-2.6.2-3.2 0-6.4-1.2-9.6-2.9h-10.2l-6.2 6.2c-.1.1-.1.1-.2.1h-12.9c.8 1.6 1.5 3.1 2.2 4.7h12.6l4.4-4.4c.1-.1.1-.1.2-.1h9.9c.1 0 .1 0 .2.1l2.4 2.4h6.8c.1 0 .1 0 .2.1l2 2h1.3l1.4-1.4c.1-.1.1-.1.2-.1h4.4c.1 0 .1 0 .2.1l2.9 2.9c.2-.2.5-.2.7-.2.7 0 1.2.5 1.2 1.2s-.5 1.2-1.2 1.2-1.2-.5-1.2-1.2c0-.2.1-.4.2-.6l-2.8-2.8h-4.2l-1.4 1.4c-.1.1-.1.1-.2.1h-1.5c-.1 0-.1 0-.2-.1l-2-2h-7.5c-.1 0-.1 0-.2-.1l-2.4-2.4h-9.6l-4.4 4.4c-.1.1-.1.1-.2.1h-12.5c.2.4.4.9.5 1.3h12.8l4.2-4.2c.1-.1.1-.1.2-.1h8.1c.1 0 .1 0 .2.1l2.2 2.2h7.1c.1 0 .1 0 .2.1l2.4 2.4h3.8c.1-.6.6-1 1.2-1 .7 0 1.2.5 1.2 1.2s-.5 1.2-1.2 1.2c-.6 0-1.1-.4-1.2-1h-3.9c-.1 0-.1 0-.2-.1l-2.4-2.4h-7.1c-.1 0-.1 0-.2-.1l-2.2-2.2h-7.9l-4.2 4.2c-.1.1-.1.1-.2.1h-12.6c.1.3.3.7.4 1 0 .1.1.2.1.3h14.4l4-4c.1-.1.1-.1.2-.1h5.3c.1 0 .1 0 .2.1l2 2h7.3c.1 0 .1 0 .2.1l2.8 2.8h3.7c.1 0 .1 0 .2.1l1.7 1.7c.2-.1.4-.2.7-.2.7 0 1.2.5 1.2 1.2s-.5 1.2-1.2 1.2-1.2-.5-1.2-1.2c0-.2.1-.5.2-.7l-1.6-1.6h-3.7c-.1 0-.1 0-.2-.1l-2.8-2.8h-7.3c-.1 0-.1 0-.2-.1l-2-2h-5.1l-4 4c-.1.1-.1.1-.2.1h-14.3c.2.5.4 1 .5 1.5h14.2l3.6-3.6c.1-.1.1-.1.2-.1h1.4c.1-.6.6-1 1.2-1 .7 0 1.2.5 1.2 1.2s-.5 1.2-1.2 1.2c-.6 0-1.1-.4-1.2-1h-1.3l-3.6 3.6c-.1.1-.1.1-.2.1h-14.3c.2.5.3 1 .5 1.5h13.8l2.8-2.8c.1-.1.1-.1.2-.1h4.5l1.6-1.6c0-.1.1-.1.2-.1h8.5c.1 0 .1 0 .2.1l3.1 3.1c.2-.1.4-.2.7-.2.7 0 1.2.5 1.2 1.2s-.5 1.2-1.2 1.2-1.2-.5-1.2-1.2c0-.2.1-.5.2-.7l-3-3h-8.2l-1.6 1.6c-.1.1-.1.1-.2.1h-4.5l-2.8 2.8c-.1.1-.1.1-.2.1h-13.7c.1.4.2.7.4 1.1h14.3l2.4-2.4c.1-.1.1-.1.2-.1h4.6l1.9-1.9c.1-.1.1-.1.2-.1h4.7c.1 0 .1 0 .2.1l1.3 1.3c.1 0 .3-.1.4-.1.7 0 1.2.5 1.2 1.2s-.5 1.2-1.2 1.2-1.2-.5-1.2-1.2c0-.3.1-.6.4-.9l-1.1-1.1h-4.4l-1.9 1.9c-.1.1-.1.1-.2.1h-4.9l-2.4 2.4c-.1.1-.1.1-.2.1h-14.2c.1.4.2.8.4 1.1h15.4l.8-.8c-.1-.2-.2-.4-.2-.7 0-.7.5-1.2 1.2-1.2s1.2.5 1.2 1.2-.5 1.2-1.2 1.2c-.2 0-.4-.1-.6-.2l-.8.8c-.1.1-.1.1-.2.1h-15.5c.1.3.2.6.3.8h19.7l2-2c.1-.1.1-.1.2-.1h5.6c.1 0 .1 0 .2.1l1 1c.1 0 .2-.1.3-.1.7 0 1.2.5 1.2 1.2s-.5 1.2-1.2 1.2-1.2-.5-1.2-1.2c0-.3.1-.7.4-.9l-.8-.8h-5.4l-2 2c-.1.1-.1.1-.2.1h-19.7c.1.3.2.7.3 1.1h21.4l.8-.8c-.1-.2-.2-.4-.2-.7 0-.7.5-1.2 1.2-1.2s1.2.5 1.2 1.2-.5 1.2-1.2 1.2c-.2 0-.5-.1-.7-.2l-.9.9c-.1.1-.1.1-.2.1h-21.4l.3.9h20.3c.1 0 .1 0 .2.1l1.2 1.2c.2-.1.4-.2.7-.2.7 0 1.2.5 1.2 1.2s-.5 1.2-1.2 1.2-1.2-.5-1.2-1.2c0-.2.1-.5.2-.7l-1.1-1.1h-20c.1.3.2.7.3 1h18.1c.1 0 .1 0 .2.1l2.5 2.5h16.8l5.2-5.2c-.1-.2-.1-.4-.1-.6 0-.7.5-1.2 1.2-1.2s1.2.5 1.2 1.2-.5 1.2-1.2 1.2c-.3 0-.5-.1-.7-.3l-5.2 5.2c-.1.1-.1.1-.2.1h-17c-.1 0-.1 0-.2-.1l-2.5-2.5h-17.8c.1.4.2.7.3 1.1h6.6c.1 0 .1 0 .2.1l3.9 3.9h8.8l1.1-1.1c.1-.1.1-.1.2-.1h10.1c.1 0 .1 0 .2.1l1.4 1.4c.2-.1.4-.2.6-.2.7 0 1.2.5 1.2 1.2s-.5 1.2-1.2 1.2-1.2-.5-1.2-1.2c0-.3.1-.5.2-.7l-1.3-1.3h-9.9l-1.1 1.1c-.1.1-.1.1-.2.1h-9.1c-.1 0-.1 0-.2-.1l-3.9-3.9h-6.3c.1.3.2.6.3 1h5.5c.1 0 .1 0 .2.1l3.9 3.9h12.8c.1-.6.6-1 1.2-1 .7 0 1.2.5 1.2 1.2s-.5 1.2-1.2 1.2c-.6 0-1.1-.4-1.2-1h-13c-.1 0-.1 0-.2-.1l-3.9-3.9h-5.2c.1.3.2.7.3 1h3.8c.1 0 .1 0 .2.1l3.4 3.4.5.5h12.6c.1 0 .1 0 .2.1l1.2 1.2h3.1l2-2c-.1-.2-.1-.4-.1-.6 0-.7.5-1.2 1.2-1.2s1.2.5 1.2 1.2-.5 1.2-1.2 1.2c-.3 0-.5-.1-.7-.2l-2 2c-.1.1-.1.1-.2.1h-3.4c-.1 0-.1 0-.2-.1l-1.2-1.2h-12.6c-.1 0-.1 0-.2-.1l-3.9-3.9h-3.5c.1.5.3 1.1.4 1.6h2.9l3.8 3.8h12.5c.1 0 .1 0 .2.1l3.2 3.2h.8c.1-.6.6-1 1.2-1 .7 0 1.2.5 1.2 1.2s-.5 1.2-1.2 1.2c-.6 0-1.1-.4-1.2-1h-1c-.1 0-.1 0-.2-.1l-3.2-3.2h-12.5c-.1 0-.1 0-.2-.1l-3.8-3.8h-2.5c.4 1.9.8 3.9 1.2 6h10.8c.1-.6.6-1 1.2-1 .7 0 1.2.5 1.2 1.2s-.5 1.2-1.2 1.2c-.6 0-1.1-.4-1.2-1h-10.7c0 .2.1.5.1.7l6 6.1h13.3l18.8-18.8c-.1-.2-.2-.4-.2-.6 0-.7.5-1.2 1.2-1.2s1.2.5 1.2 1.2-.5 1.2-1.2 1.2c-.3 0-.5-.1-.7-.2l-18.9 18.9c-.1.1-.1.1-.2.1h-13.7c-.1 0-.1 0-.2-.1l-5.5-5.6c.2 1 .3 2 .4 3l4.4 4.5h14.8l15-15c.1-.1.1-.1.2-.1h7.7l2.8-2.8c.1-.1.1-.1.2-.1h.5c.1-.6.6-1 1.2-1 .7 0 1.2.5 1.2 1.2s-.5 1.2-1.2 1.2c-.6 0-1.1-.4-1.2-1h-.4l-2.8 2.8c-.1.1-.1.1-.2.1h-7.7l-15 15c-.1.1-.1.1-.2.1h-15c-.1 0-.1 0-.2-.1l-4-4.1c.2 1.9.4 3.8.6 5.9h11.4c.1-.6.6-1 1.2-1 .7 0 1.2.5 1.2 1.2s-.5 1.2-1.2 1.2c-.6 0-1.1-.4-1.2-1h-11.4c.1.8.1 1.6.2 2.4h10.6c.1 0 .1 0 .2.1l1.2 1.2h6.4l1.6-1.6v-3.8c0-.1 0-.1.1-.2l13.9-13.9c.1-.1.1-.1.2-.1h8.5l1.8-1.8c.1-.1.1-.1.2-.1h12c.1 0 .1 0 .2.1l2.1 2.1h11l3-3v-3.9c0-.1 0-.1.1-.2l3-3c-.1-.2-.2-.4-.2-.6 0-.7.5-1.2 1.2-1.2s1.2.5 1.2 1.2-.5 1.2-1.2 1.2c-.2 0-.5-.1-.7-.2l-2.9 2.9v3.9c0 .1 0 .1-.1.2l-3.1 3.1c-.1.1-.1.1-.2.1h-11.2c-.1 0-.1 0-.2-.1l-2.1-2.1h-11.8l-1.7 3c-.1.1-.1.1-.2.1h-8.5l-13.8 13.8v3.8c0 .1 0 .1-.1.2l-1.8 1.8c-.1.1-.1.1-.2.1h-6.6c-.1 0-.1 0-.2-.1l-1.2-1.2h-10.4c0 .4 0 .9.1 1.3h7.6c.1 0 .1 0 .2.1l2.1 2.1h9.6l2.8-2.8v-3.7c0-.1 0-.1.1-.2l12.1-12.1c.1-.1.1-.1.2-.1h16.5c.1 0 .1 0 .2.1l3.3 3.3h16.7l10.4-10.4c-.1-.1-.1-.3-.1-.4 0-.7.5-1.2 1.2-1.2s1.2.5 1.2 1.2-.5 1.2-1.2 1.2c-.3 0-.6-.1-.8-.3l-10.4 10.4s-.1.1-.2.1h-16.9c-.1 0-.1 0-.2-.1l-3.3-3.3h-16.3l-12 12v3.7c0 .1 0 .1-.1.2l-2.9 2.9c-.1.1-.1.1-.2.1h-9.9c-.1 0-.1 0-.2-.1l-2.1-2.1h-7.4c0 .6.1 1.1.1 1.7 5.4 1.7 12.7 3.2 21.7 3.6l3.3-3.3h2.5v-5.9c-.5-.1-.9-.6-.9-1.2 0-.7.5-1.2 1.2-1.2s1.2.5 1.2 1.2c0 .6-.4 1.1-.9 1.2v6.4h-2.8l-2.8 2.8c1.4.1 2.9.1 4.4.1 1.5 0 3-.1 4.5-.2l-.4-.4c-.1-.1-.1-.1-.1-.2v-4.8c-.6-.1-1-.6-1-1.2 0-.7.5-1.2 1.2-1.2s1.2.5 1.2 1.2c0 .6-.4 1.1-1 1.2v4.7l.6.6c6.9-.6 13.8-2.3 20.4-4.6 3.5-1.3 6.9-2.6 10-4l-.7-.7c-.2.1-.4.2-.6.2-.7 0-1.2-.5-1.2-1.2s.5-1.2 1.2-1.2 1.2.5 1.2 1.2c0 .2-.1.5-.2.6l.8.8c3.2-1.4 6.1-2.9 8.9-4.5v-.6h-12.4l-3.9 3.9h-16.9c-.1.5-.6.9-1.2.9-.7 0-1.2-.5-1.2-1.2s.5-1.2 1.2-1.2c.6 0 1.1.4 1.2.9h16.7l3.9-3.9h13.2v.9c3.4-1.9 6.4-3.8 9.2-5.6-.1-.1-.1-.2-.2-.3h-5.6l-3.4 3.4c-.1.1-.1.1-.2.1h-22.3l-1.2 1.2c.1.2.1.4.1.5 0 .7-.5 1.2-1.2 1.2s-1.2-.5-1.2-1.2.5-1.2 1.2-1.2c.3 0 .5.1.8.3l1.2-1.2c.1-.1.1-.1.2-.1h22.3l3.4-3.4c.1-.1.1-.1.2-.1h5.7c.1-.6.6-1 1.2-1 .4 0 .7.2.9.5.8-.6 1.6-1.1 2.4-1.7l-.8-.8v-5l3.9-3.9c-.1-.2-.2-.4-.2-.6 0-.7.5-1.2 1.2-1.2s1.2.5 1.2 1.2-.5 1.2-1.2 1.2c-.2 0-.5-.1-.6-.2l-3.8 3.8v4.5l.7.7c2.3-1.7 4.4-3.3 6.4-4.9.2-.2.4-.4.6-.5 8.7-7 16.3-17.5 23.4-17.3l1.1-.7zm-55.1-2.6c0 .7-.5 1.2-1.2 1.2s-1.2-.5-1.2-1.2.5-1.2 1.2-1.2c.2 0 .4.1.6.2l4.6-4.6v-9.8l-4.5-4.5c-.2.1-.4.2-.6.2-.7 0-1.2-.5-1.2-1.2s.5-1.2 1.2-1.2 1.2.5 1.2 1.2c0 .2-.1.5-.2.6l4.7 4.7v10.3l-4.7 4.7c.1.2.1.4.1.6zm-34.1-5.7c-.7 0-1.2-.5-1.2-1.2 0-.2.1-.5.2-.6l-2.7-2.7h-16.8c-.1.5-.6.9-1.2.9-.7 0-1.2-.5-1.2-1.2s.5-1.2 1.2-1.2c.6 0 1.1.4 1.2.9h17l2.9 2.9c.2-.1.4-.2.6-.2.7 0 1.2.5 1.2 1.2.1.6-.5 1.2-1.2 1.2zm-18.4 23.2c-.7 0-1.2-.5-1.2-1.2s.5-1.2 1.2-1.2 1.2.5 1.2 1.2-.6 1.2-1.2 1.2zm28.9 1.9c-.7 0-1.2-.5-1.2-1.2s.5-1.2 1.2-1.2 1.2.5 1.2 1.2-.6 1.2-1.2 1.2zm-21.1 20.2c-.7 0-1.2-.5-1.2-1.2s.5-1.2 1.2-1.2 1.2.5 1.2 1.2c0 .6-.6 1.2-1.2 1.2zm50.7-25.4c-.7 0-1.2-.5-1.2-1.2 0-.6.4-1.1.9-1.2v-4.5l.1-.1 7.3-7.3c-.1-.2-.2-.4-.2-.6 0-.7.5-1.2 1.2-1.2s1.2.5 1.2 1.2-.5 1.2-1.2 1.2c-.2 0-.5-.1-.7-.2l-7.2 7.2v4.3c.5.1.9.6.9 1.2.1.7-.4 1.2-1.1 1.2zm8.1-7.4c-.2 0-.4-.1-.6-.2l-2.3 2.3c.1.2.2.4.2.6 0 .7-.5 1.2-1.2 1.2s-1.2-.5-1.2-1.2.5-1.2 1.2-1.2c.2 0 .5.1.6.2l2.3-2.3c-.1-.2-.2-.4-.2-.6 0-.7.5-1.2 1.2-1.2s1.2.5 1.2 1.2-.5 1.2-1.2 1.2zm-40.5 35.3h14.6c.1-.6.6-1 1.2-1 .7 0 1.2.5 1.2 1.2s-.5 1.2-1.2 1.2c-.6 0-1.1-.4-1.2-1h-14.7c-.1 0-.1 0-.2-.1l-3.1-3.1c-.1-.1-.1-.1-.1-.2v-4.8c-.6-.1-1-.6-1-1.2 0-.7.5-1.2 1.2-1.2s1.2.5 1.2 1.2c0 .6-.4 1.1-1 1.2v4.7l3.1 3.1zm68.5-32.1h-2.2c-.1.5-.6.9-1.2.9-.7 0-1.2-.5-1.2-1.2s.5-1.2 1.2-1.2c.6 0 1.1.4 1.2.9h2.8c-.3.2-.5.4-.6.6zm2.9-2.3h-2.3c-.1.5-.6.9-1.2.9-.7 0-1.2-.5-1.2-1.2s.5-1.2 1.2-1.2c.6 0 1.1.4 1.2.9h2.9l-.6.6z" id="svg_279"/><path class="st0" d="M155.762 61.006c0-1.2.1-4.5.1-7.1-3 1.5-6.1 2.7-9.3 3.2l4 3.9h5.2z" id="svg_280"/></g></g></g></g></g></svg>