<svg viewBox="0 0 60 60" xmlns="http://www.w3.org/2000/svg"><path d="m61.462 53.664.036-.352-.343.083c-6.539 1.572-11.58-2.192-11.848-2.393l-.002-.001-.573-.447-.143-.11-.15.1-.577.385-.005.003c-8.594 6.035-16.237.648-17.098.042l-.056-.04-.571-.444-.142-.11-.15.1-.578.385-.005.003c-8.594 6.034-16.237.648-17.098.042l-.056-.04-.571-.444-.142-.11-.15.1-.577.384-.007.005C6.3 53.897 2.143 53.959-.945 53.264l-.349-.077.046.354.257 1.988.023.18.178.034c3.419.645 7.669.394 12.17-2.514 2.37 1.494 10.165 5.423 18.602-.002 1.456.885 5.011 2.776 9.489 2.776 2.764 0 5.905-.697 9.11-2.774 1.75 1.092 6.59 3.592 12.485 2.514l.184-.034.02-.186.192-1.86ZM61.462 46.664l.036-.352-.343.083c-6.539 1.572-11.58-2.192-11.848-2.393l-.002-.001-.573-.447-.143-.11-.15.1-.577.385-.005.003c-8.594 6.035-16.237.648-17.098.042l-.056-.04-.571-.444-.142-.11-.15.1-.578.385-.005.003c-8.594 6.034-16.237.648-17.098.042l-.056-.04-.571-.444-.142-.11-.15.1-.577.384-.007.005C6.3 46.897 2.143 46.959-.945 46.264l-.349-.077.046.354.257 1.988.023.18.178.034c3.419.645 7.669.394 12.17-2.514 2.37 1.494 10.165 5.423 18.602-.002 1.456.885 5.011 2.776 9.489 2.776 2.764 0 5.905-.697 9.11-2.774 1.75 1.092 6.59 3.592 12.485 2.514l.184-.034.02-.186.192-1.86ZM43 42.623l6.877-15.5-5.822-14.054L30 7.247 15.946 13.07l-5.822 14.055L17 42.624l-4.117-1-6.006-14.5 6.773-16.351L30 4l16.351 6.773 6.773 16.35-6.006 14.5-4.118 1Z"/></svg>
