<svg xmlns="http://www.w3.org/2000/svg" viewBox="0 0 60 60"><path d="M40.342 30A10.342 10.342 0 1 0 30 40.343 10.354 10.354 0 0 0 40.342 30Zm-17.684 0A7.342 7.342 0 1 1 30 37.343 7.351 7.351 0 0 1 22.658 30Z" /><path d="M42.828 44.687a19.506 19.506 0 0 1-30.789-22.293 1.5 1.5 0 1 0-2.762-1.171A22.5 22.5 0 0 0 44.8 46.944a1.5 1.5 0 1 0-1.975-2.257ZM30 7.5a22.482 22.482 0 0 0-14.8 5.555 1.5 1.5 0 0 0 1.974 2.258 19.506 19.506 0 0 1 30.79 22.293 1.5 1.5 0 0 0 2.762 1.172A22.512 22.512 0 0 0 30 7.5Z" /></svg>