<svg xmlns="http://www.w3.org/2000/svg" x="0px" y="0px" viewBox="0 0 60 60">
  <path d="M36.6,11.6c-0.2-1.3-0.9-2.4-1.8-3.3c-0.9-0.9-2.1-1.5-3.3-1.8c-1.3-0.3-2.6-0.1-3.7,0.4
	c-1.2,0.5-2.2,1.3-2.9,2.4c-0.7,1.1-1.1,2.3-1.1,3.6c0,1.7,0.7,3.4,1.9,4.6c0.6,0.6,1.3,1.1,2.1,1.4c0.8,0.3,1.6,0.5,2.5,0.5
	c1.3,0,2.5-0.4,3.6-1.1c1.1-0.7,1.9-1.7,2.4-2.9C36.8,14.2,36.9,12.9,36.6,11.6z M33.7,13.6c-0.1,0.7-0.5,1.3-1,1.8
	c-0.5,0.5-1.1,0.8-1.8,1c-0.7,0.1-1.4,0.1-2-0.2c-0.5-0.2-1-0.6-1.4-1s-0.6-1-0.7-1.5c-0.1-0.6-0.1-1.1,0.1-1.7s0.5-1,0.9-1.5
	c0.6-0.6,1.3-0.9,2.1-1c0.8-0.1,1.6,0.1,2.3,0.6c0.6,0.4,1,0.9,1.3,1.6C33.8,12.2,33.8,12.9,33.7,13.6z"/>
  <path d="M54.8,21c-0.2-1.1-0.7-2-1.5-2.8c-0.8-0.8-1.7-1.3-2.8-1.5c-1.1-0.2-2.2-0.1-3.2,0.3c-1,0.4-1.9,1.1-2.5,2
	c-0.7,1.1-1,2.3-0.9,3.6c0.1,1.3,0.7,2.4,1.6,3.3c0.9,0.9,2.1,1.5,3.3,1.6c1.3,0.1,2.5-0.2,3.6-0.9c0.9-0.6,1.6-1.5,2-2.5
	C54.9,23.2,55,22.1,54.8,21z M51.8,22.6c-0.1,0.5-0.3,0.9-0.7,1.3c-0.3,0.3-0.8,0.6-1.3,0.7c-0.5,0.1-1,0-1.4-0.1
	c-0.4-0.2-0.7-0.4-1-0.7C47.2,23.4,47,23,47,22.6c-0.1-0.4-0.1-0.8,0.1-1.2c0.1-0.4,0.3-0.7,0.6-1c0.4-0.4,0.9-0.7,1.5-0.7
	c0.6-0.1,1.1,0.1,1.6,0.4c0.4,0.3,0.7,0.7,0.9,1.1C51.9,21.6,51.9,22.1,51.8,22.6z"/>
  <path d="M16.6,21c-0.2-1.1-0.7-2-1.5-2.8c-0.8-0.8-1.7-1.3-2.8-1.5c-1.1-0.2-2.2-0.1-3.2,0.3c-1,0.4-1.9,1.1-2.5,2
	c-0.7,1.1-1,2.3-0.9,3.6s0.7,2.4,1.6,3.3c0.5,0.5,1.1,0.9,1.8,1.2c0.7,0.3,1.4,0.4,2.1,0.4c1.1,0,2.1-0.3,3-0.9
	c0.9-0.6,1.6-1.5,2-2.5C16.7,23.2,16.8,22.1,16.6,21z M13.5,22.9c-0.1,0.3-0.3,0.7-0.6,0.9c-0.3,0.3-0.8,0.6-1.3,0.7
	c-0.5,0.1-1,0-1.4-0.1c-0.4-0.2-0.7-0.4-1-0.7C9,23.4,8.9,23,8.8,22.6c-0.1-0.4-0.1-0.8,0.1-1.2c0.1-0.4,0.3-0.7,0.6-1
	c0.4-0.4,0.9-0.7,1.5-0.7s1.1,0.1,1.6,0.4c0.3,0.2,0.6,0.5,0.7,0.8c0.2,0.3,0.3,0.7,0.3,1C13.7,22.2,13.7,22.6,13.5,22.9z"/>
  <path d="M56,37v13.2h4v3.2h-3.3l-3.9-3.9V37c0-0.5-0.1-0.9-0.2-1.3c-0.2-0.4-0.4-0.8-0.7-1.2c-0.3-0.3-0.7-0.6-1.1-0.8
	c-0.4-0.2-0.9-0.3-1.3-0.3c-0.5,0-0.9,0.1-1.3,0.3c-0.4,0.2-0.8,0.4-1.1,0.8c-0.3,0.3-0.6,0.7-0.7,1.1C46.1,36.1,46,36.5,46,37v12.5
	l-4,4h-3.1l-4-4V30c0-1.2-0.5-2.4-1.4-3.2c-0.9-0.8-2-1.3-3.2-1.3c-1.2,0-2.4,0.5-3.2,1.3c-0.9,0.8-1.4,2-1.4,3.2v19.5l-3.9,3.9
	h-3.2l-3.9-3.9V37c0-0.9-0.4-1.8-1-2.4c-0.3-0.3-0.7-0.6-1.1-0.7c-0.4-0.2-0.9-0.3-1.3-0.3c-0.4,0-0.9,0.1-1.3,0.3
	c-0.4,0.2-0.8,0.4-1.1,0.7c-0.6,0.6-1,1.5-1,2.4v12.5l-3.9,3.9H0v-3.2h4.6V37c0-1.8,0.7-3.5,1.9-4.7c0.6-0.6,1.3-1.1,2.1-1.4
	c0.8-0.3,1.7-0.5,2.5-0.5c1.8,0,3.4,0.7,4.7,1.9c1.2,1.2,1.9,2.9,1.9,4.7v13.2h4.6V30c0.1-2.1,0.9-4,2.4-5.5
	c1.5-1.4,3.4-2.2,5.5-2.2c2.1,0,4,0.8,5.5,2.2c1.5,1.4,2.3,3.4,2.4,5.5v20.1h4.6V37c0-1.7,0.8-3.4,2-4.6c1.2-1.2,2.9-1.9,4.6-1.9
	c1.7,0,3.4,0.7,4.6,1.9C55.2,33.6,56,35.2,56,37L56,37z"/>
</svg>
