<!-- Generator: Adobe Illustrator 26.2.1, SVG Export Plug-In . SVG Version: 6.00 Build 0)  -->
<svg version="1.1" id="Layer_1" xmlns="http://www.w3.org/2000/svg" xmlns:xlink="http://www.w3.org/1999/xlink" x="0px" y="0px"
	 viewBox="0 0 18 18.1" style="enable-background:new 0 0 18 18.1;" xml:space="preserve">
<g>
	<path d="M13.8,18.1c-0.3,0-0.5,0-0.8-0.1c-2.9-0.5-5.9-2.2-8.3-4.7C2.3,10.9,0.6,7.9,0.1,5c-0.2-1.3,0.1-2.6,1.1-3.5l0.7-0.7
		c1.1-1.1,2.8-1.1,3.9,0L6.8,2c0.4,0.4,0.7,1,0.6,1.6c0,0.6-0.3,1.2-0.7,1.6L5.9,6.1c0.6,1.3,1.4,2.5,2.5,3.6
		c1.1,1.1,2.3,1.9,3.6,2.5l0.9-0.9c0.8-0.8,2.3-0.8,3.2,0l1.2,1.2c1.1,1.1,1.1,2.8,0,3.9l-0.7,0.7C15.9,17.7,14.9,18.1,13.8,18.1z
		 M3.7,1.5c-0.3,0-0.6,0.1-0.9,0.4L2.2,2.5C1.6,3.1,1.4,3.9,1.5,4.7c0.5,2.6,2,5.3,4.3,7.5s4.9,3.8,7.5,4.3c0.8,0.2,1.6-0.1,2.2-0.6
		l0.7-0.7c0.5-0.5,0.5-1.3,0-1.8L15,12.3c-0.3-0.3-0.8-0.3-1.1,0L13,13.2c-0.4,0.4-1.1,0.6-1.7,0.3c-1.5-0.6-2.8-1.6-4-2.8
		c-1.2-1.2-2.1-2.6-2.8-4C4.3,6.1,4.4,5.5,4.9,5l0.8-0.8C5.9,4,6,3.8,6,3.6c0-0.2-0.1-0.4-0.2-0.5L4.6,1.9C4.4,1.6,4,1.5,3.7,1.5z"
        fill="currentColor"
		/>
</g>
</svg>
