<svg xmlns="http://www.w3.org/2000/svg" viewBox="0 0 60 60" xml:space="preserve"><path d="m38.2 34.1-1.7-.2-.5 3.5 1.7.2c9.4 1.3 14.5 4.6 14.5 7.1 0 3.2-8.5 7.6-22.2 7.6S7.8 47.8 7.8 44.7c0-2.5 5.1-5.8 14.5-7.1l1.7-.2-.5-3.5-1.7.2C11 35.6 4.2 39.7 4.2 44.7c0 7.2 13.3 11.1 25.8 11.1s25.8-3.9 25.8-11.1c0-5-6.8-9.1-17.6-10.6z"/><path d="M28.3 23.6v21.5h3.5V23.6c1.9-.3 3.7-1.2 5.1-2.7 3.8-3.8 3.8-10 0-13.8-1.8-1.8-4.3-2.9-6.9-2.9s-5.1 1-6.9 2.9c-3.8 3.8-3.8 10 0 13.8 1.5 1.4 3.3 2.3 5.2 2.7zm-2.7-14c1.2-1.2 2.8-1.8 4.4-1.8 1.7 0 3.2.6 4.4 1.8 2.4 2.4 2.4 6.4 0 8.8-2.4 2.4-6.4 2.4-8.8 0a6.1 6.1 0 0 1 0-8.8z"/></svg>