<svg xmlns="http://www.w3.org/2000/svg" viewBox="0 0 60 60"><path d="M30 60C13.443 60 0 46.557 0 30 0 13.443 13.443 0 30 0c16.557 0 30 13.443 30 30 0 16.557-13.443 30-30 30zm1.595-10.253v6.911l.532-.228c3.265-1.367 6.303-5.468 8.278-11.392l.38-.987-9.19 5.696zm-12.228-5.544c1.899 6.303 5.165 10.936 8.582 12.227l.532.228v-8.354h.38l-3.114-4.557h-6.532l.152.456zm24.608-.228c-1.14 4.177-2.886 7.822-4.937 10.557l-.835 1.063 1.29-.456c5.545-2.126 10.102-5.848 13.216-10.86l.38-.608H44.05l-.076.304zm-36.76.303c3.19 5.013 7.899 8.81 13.215 10.785l1.216.456-.76-1.063c-2.127-2.81-3.797-6.38-4.937-10.557l-.076-.304H6.835l.38.684zm24 2.051l15.266-9.57-.456-1.594-4.253.455-6.987-13.898 2.126-6.228-14.126-2.203-8.734 21.57h9.493l7.671 11.468zm15.114-5.696h8.279l.076-.228c1.367-3.19 2.05-6.76 2.05-10.33 0-3.569-.683-7.214-2.05-10.328l-.076-.228h-9.874l.076.456c.608 3.19.911 6.531.911 10.1v2.204l2.507-.228 1.747 6.38-3.646 2.202zM18 38.354c.076.608.152 1.292.304 1.9l.076.303h5.24l-1.747-2.582H18v.38zM5.165 19.671A27.23 27.23 0 003.114 30c0 3.646.683 7.215 2.05 10.33l.152.227h9.874l-.076-.456c-.076-.303-.076-.607-.152-.987-.076-.304-.152-.608-.152-.911l-.076-.228h-1.14c-.53-.836-.91-1.443-1.366-1.975-.38-.532-.76-1.14-1.291-1.975l3.341-8.278v-.076c.152-2.279.456-4.101.76-5.772l.076-.456H5.316l-.151.228zm32.962 1.899l3.797 7.595.684-.152c-.076-3.494-.456-6.608-.988-9.266l-.076-.304H38.81l-.683 2.127zm.911-16.102c2.127 2.81 3.797 6.38 4.937 10.557l.076.304h9.114l-.38-.607c-3.266-5.09-7.899-8.81-13.291-10.861l-1.215-.456.759 1.063zm-18.532-.607c-5.392 2.05-10.025 5.772-13.29 10.86l-.38.532h9.113l.076-.304c1.14-4.177 2.886-7.822 4.937-10.557l.835-1.063-1.29.532zm11.089 6.683l8.05 1.367-.303-.607c-1.975-4.481-4.633-7.671-7.291-8.658l-.532-.228v8.126h.076zM27.873 3.57c-2.202.911-4.253 3.038-5.924 6l-.303.455 6.76.988V3.342l-.533.228z" /></svg>