<?xml version="1.0" encoding="UTF-8"?><svg id="Layer_1" xmlns="http://www.w3.org/2000/svg" viewBox="0 0 144 144"><path class="cls-1" d="M58.32,59.64l-11.97-9.74,1.36-5.51,4.88-1.91c2.07-.81,4.39-.92,6.53-.32l26.81,8.33-8.16,2.7-20.08-6.24c-1.04-.29-2.22-.24-3.29,.18l-2.39,.93,11.92,9.71-5.63,1.86Zm56.86,4.06l-23.56,7.63-14.85,23.17c-1.34,2.09-3.24,3.73-5.5,4.75l-6.58,2.97-3.76-3.73,.15-3.49,.74-17.87-24.6,5.94-6.53,7.2c-1.1,1.19-2.58,1.89-4.17,1.97l-6.15,.33-2.72-3.8,4.65-9.98-.65-.77-5.32-6.38,1.94-5.98,2.98-1.2c1.31-.53,2.82-.41,4.04,.3l9.55,5.62,71.07-23.54c.32-.11,9.08-3.19,15.48-.65,2.15,.71,5.52,2.74,6.17,6.17,.07,.37,.12,.76,.12,1.17,.04,1.3-.52,7.04-12.5,10.18Zm7.43-10.22l.07,.07c0-.51-.31-.98-.74-1.37-.73-.67-1.79-1.14-2.18-1.27l-.16-.06c-3.85-1.56-10.01-.01-12.07,.71l-71.6,23.72-1.44,.48-.23,.08-10.86-6.39-.47-.27-1.6,.64,6.26,7.51,.58,.7-2.93,6.28-1.43,3.07,2.43-.13c.29-.02,.56-.14,.75-.35l7.55-8.32,27.93-6.74,4.41,3.59-.86,20.72,3.18-1.44c1.37-.62,2.53-1.62,3.34-2.89l15.82-24.68,2.08-.67,23.39-7.57c.29-.08,.56-.15,.84-.23,6.08-1.74,7.8-4.03,7.98-4.93l-.06-.23Z"/></svg>