<svg xmlns="http://www.w3.org/2000/svg" viewBox="-5 0 70 70" ><path d="M52.8 44.1v-28h9.4v-3H49.8v2.4l-7.7-3.4c-2.7-1.2-5.8-.9-8.3.7L27 17.2c-2.1-.9-4.4-1-6.5-.3l-6.3 2.3v-6.1H1.8v3h9.4V44H.9v3h13.3v-4.5c.6.2 1.2.6 1.7 1.1l5 4.5c1.7 1.5 3.8 2.3 5.9 2.3 1.4 0 2.8-.3 4-1l15.1-6.9c.7-.3 1.5-.5 2.4-.5h1.5v5h13.3v-3H52.8v.1zM22.9 46l-5-4.5c-1.1-1-2.3-1.6-3.7-2v-17l7.3-2.6c.7-.2 1.4-.4 2.1-.3-1.4 1.2-2.3 2.9-2.5 4.8-.2 2.2.6 4.2 2.3 5.7 1.3 1.2 3 1.8 4.7 1.8 1 0 2-.2 2.9-.7l4.7-2.2 2.1 1.9c1.2 1.1 1.9 2.6 1.9 4.2s-.7 3.1-1.9 4.2L30.5 46c-2 2-5.4 2-7.6 0zm25.4-6.9c-1.3 0-2.5.3-3.6.8l-5.8 2.6 1.1-1c1.8-1.7 2.8-4 2.8-6.5s-1.1-4.8-2.9-6.4L37.1 26c-.1-.1-.3-.2-.5-.3h-.1c-.2-.1-.3-.1-.5-.1h-.1c-.2 0-.3 0-.5.1h-.1l-5.6 2.6c-1.4.7-3.1.4-4.3-.7-.9-.8-1.4-2-1.3-3.2s.8-2.3 1.8-3l9.4-6.1c1.6-1.1 3.7-1.2 5.4-.4l8.9 3.9v20.3h-1.3z" /></svg>