<svg viewBox="0 0 71 53" xmlns="http://www.w3.org/2000/svg"><path d="m44.0713 33.0718c0-9.3516 2.2456-16.6729 6.7368-21.9639 4.5527-5.29101 10.9204-8.76708 19.103-10.428212v9.597612c-6.2138 1.9073-10.3974 5.3526-12.5507 10.336-1.2305 2.6455-1.7227 5.1987-1.4766 7.6596h14.4888v24.271h-26.3013zm-43.743175 0c0-9.2285 2.184085-16.5191 6.552245-21.8716 4.42973-5.35254 10.85893-8.85938 19.28763-10.520512v9.597612c-6.2754 1.9688-10.4898 5.3526-12.6431 10.1514-1.1074 2.5225-1.5688 5.1372-1.3843 7.8442h14.4888v24.271h-26.301275z" /></svg>
