<svg xmlns="http://www.w3.org/2000/svg" viewBox="0 0 60 60">
  <path fill-rule="evenodd" d="M5.077 13.855c0-3.75 3.053-6.79 6.818-6.79h12.68V4h-12.68C6.43 4 2 8.412 2 13.855v22.193c0 5.443 4.43 9.855 9.895 9.855h9.396l-1.008 8.032h-6.586V57h29.816v-3.065h-6.587l-1.008-8.032h9.4c5.464 0 9.894-4.412 9.894-9.855v-7.08h-3.077v7.08c0 3.75-3.052 6.79-6.817 6.79H11.895c-3.765 0-6.818-3.04-6.818-6.79V13.855Zm28.747 40.08-1.008-8.032h-8.424l-1.008 8.032h10.44Z" clip-rule="evenodd"/>
  <path fill-rule="evenodd" d="m50.337 8.43 5.745-1.457L58 8.458v9.87l-1.918 1.485-5.745-1.456v2.896L48.8 22.785H31.39l-1.539-1.532V5.533L31.391 4h17.408l1.538 1.533V8.43Zm.003 3.162v3.602l4.583 1.162V10.43l-4.583 1.162ZM32.93 19.72V7.065h14.33V19.72H32.93Z" clip-rule="evenodd"/>
</svg>
