<svg viewBox="0 0 60 60" xmlns="http://www.w3.org/2000/svg"><path d="m29.49 46.725 3.164 2.809V60H29.17v-9.779h-6.044a7.752 7.752 0 0 1-7.693-7.752v-5.014h-4.92L8 35.014v-1.719l6.294-11.45C14.484 2.88 32.678.024 32.904 0l.058.391v3.153c-2.572.498-15.23 3.77-15.16 18.752v.45l-6.175 11.177h7.313v8.606a4.196 4.196 0 0 0 4.196 4.196h6.354Zm-.297-34.256c-.92.717-1.752 1.54-2.477 2.454l2.987 2.999 2.489-2.466-2.999-2.987Zm-5.512 11.178c.005.594.044 1.188.12 1.778h4.16v-3.497h-4.196c-.064.579-.091 1.16-.084 1.742v-.023Zm2.81 8.522c.68.952 1.477 1.816 2.37 2.572l2.987-2.975-2.465-2.513-2.892 2.916ZM39.458 9.565a14.07 14.07 0 0 0-1.576-.094c-.64.001-1.277.049-1.909.142v4.338h3.556l-.071-4.386Zm0 23.884h-3.485v4.28c.641.082 1.286.13 1.932.141.543 0 1.085-.032 1.624-.094l-.071-4.327Zm9.411-.794-3.129-3.153-2.465 2.478 3.081 3.081a14.779 14.779 0 0 0 2.537-2.37l-.024-.036Zm-1.398-7.218h4.504c.085-.585.128-1.175.13-1.767 0-.574-.035-1.148-.107-1.718h-4.527v3.485Zm1.647-10.42a15.405 15.405 0 0 0-2.37-2.488l-3.2 3.129 2.43 2.489 3.14-3.13Zm-16.203 8.654a4.965 4.965 0 0 1 5.927-4.837 5.037 5.037 0 0 1 2.548 1.352 4.967 4.967 0 0 1 0 7.017c-.224.234-.475.44-.747.616a4.741 4.741 0 0 1-2.75.842 4.943 4.943 0 0 1-4.966-4.943l-.012-.047Zm2.797 0c-.005.422.119.835.356 1.185a2.158 2.158 0 0 0 2.228.972 2.193 2.193 0 0 0 1.695-1.707c.08-.422.038-.857-.118-1.256a2.17 2.17 0 0 0-4.172.83l.011-.024Z"/></svg>