<svg xmlns="http://www.w3.org/2000/svg" viewBox="0 0 60 60">
  <path
    d="m38.753 7.49-1.5 1.5v1.573l3 2.228v-2.3h7.005v7.5l3 2.229V8.99l-1.512-1.5c-.765.006-.783.006-.841 0H38.753Z"
    fill="currentColor"
  />
  <path d="m32.251 36.5 1.5-1.5h10.005l1.5 1.5V44l-1.5 1.5H33.751l-1.5-1.5Zm3 1.5v4.5h7.005V38Z" fill-rule="evenodd" fill="currentColor" />
  <path
    d="M27.75 10.74a4 4 0 0 1 4.693 0l18.4 13.374q.047.032.09.066l6.171 4.486-1.763 2.434-3.833-2.787v21.7h5v3H3.489v-3h5V28.324l-3.839 2.77-1.75-2.433 24.854-17.92ZM16 50.01h-4.5V26.4a1.611 1.611 0 0 0-.016-.222l18.033-13a1 1 0 0 1 1.174 0l17.817 12.95V50.01H27.749V36.5l-1.5-1.5H17.5L16 36.5Zm3 0h5.754V38H19Z"
    fill-rule="evenodd" fill="currentColor" />
</svg>
