<svg viewBox="0 0 60 60" fill="none" xmlns="http://www.w3.org/2000/svg">
<path d="M51.9949 45.8394L51.1421 48.2447C51.0808 48.2243 44.6054 46.0488 32.1653 48.2957C27.753 49.0924 24.1272 49.3631 21.247 49.3631C15.5018 49.3631 12.7135 48.2957 12.545 48.2294L13.4796 45.8547C13.5357 45.8751 19.3217 48.0251 31.7057 45.7883C44.8914 43.4035 51.7038 45.7424 51.9898 45.8394H51.9949ZM12.5501 42.9438C12.7186 43.0102 15.507 44.0775 21.2521 44.0775C24.1323 44.0775 27.7581 43.8069 32.1704 43.0102C44.6105 40.7632 51.0859 42.9387 51.1472 42.9592L52 40.5539C51.714 40.4517 44.9067 38.1179 31.7159 40.5028C19.3319 42.7396 13.5459 40.5896 13.4898 40.5692L12.5552 42.9438H12.5501ZM46.3621 38.0362V32.4596C46.3621 30.6263 44.8709 29.1351 43.0376 29.1351C41.2043 29.1351 39.7131 30.6263 39.7131 32.4596V37.9954C40.4229 37.9545 41.1072 37.929 41.7558 37.9137V32.4596C41.7558 31.7549 42.3278 31.1778 43.0376 31.1778C43.7474 31.1778 44.3194 31.7498 44.3194 32.4596V37.9239C45.0548 37.9494 45.734 37.9852 46.3621 38.0362ZM13.1783 32.8886C10.3542 32.8886 7.67826 31.2085 6.53945 28.4457C5.81428 26.6736 5.81939 24.728 6.55987 22.961C7.26461 21.2758 8.55662 19.948 10.2163 19.1973C10.0172 18.5845 9.87417 17.89 9.87417 17.1648C9.87417 13.2122 13.0863 10 17.039 10C20.0162 10 22.4675 11.5525 23.5603 14.0344C23.6012 14.0344 23.6369 14.0344 23.6676 14.0344C25.9401 14.0344 28.0237 14.8463 29.6527 16.1945L38.513 13.4113V21.1072H49.5692V38.4397C48.9921 38.3375 48.3078 38.2354 47.5265 38.1486V27.4856H38.5436V38.072C37.8798 38.123 37.1852 38.1894 36.4703 38.2711V16.1945L31.2052 17.8491C32.2163 19.2126 32.87 20.857 33.0181 22.6444H34.2029V25.6676H32.7781C31.7669 29.7683 28.0747 32.8171 23.6676 32.8171C23.0599 32.8171 22.4522 32.7507 21.8598 32.6333C22.0538 31.7906 22.3398 30.9684 22.7228 30.1922C23.0343 30.2331 23.351 30.2637 23.6727 30.2637C27.4415 30.2637 30.5107 27.1945 30.5107 23.4257C30.5107 19.6569 27.4415 16.5877 23.6727 16.5877C23.591 16.5877 23.2999 16.6133 23.0139 16.6388L21.4104 15.5817C20.8589 13.7382 19.1583 12.5534 17.039 12.5534C14.4958 12.5534 12.4276 14.6216 12.4276 17.1648C12.4276 17.7981 12.642 18.5743 13.0404 19.3505L13.0659 19.3965L12.208 21.1736L11.4011 21.4647C10.2725 21.9345 9.39414 22.8129 8.9192 23.9415C8.44427 25.0752 8.43917 26.3315 8.90899 27.4703C9.87417 29.8194 12.5706 30.948 14.9248 29.9879L15.6244 29.6969C16.0381 30.4475 16.3598 31.2391 16.5947 32.0562L15.9002 32.3473C15.0116 32.7099 14.0924 32.8835 13.1885 32.8835L13.1783 32.8886ZM38.5436 25.4429H47.5265V23.15H38.5436V25.4429ZM20.5576 39.9768V32.715H20.5627C20.5627 29.942 21.7321 27.2762 23.7697 25.402L27.9113 21.6332L26.1903 19.7437L22.9169 22.7261L21.7525 19.4475L19.3472 20.3004L20.915 24.7126C20.2563 25.5042 19.6996 26.3723 19.2553 27.2916C17.9735 24.9833 15.8083 23.3593 13.0455 22.8078L12.545 25.3101C15.9104 25.9842 17.9991 28.7623 17.9991 32.5618V39.8491C18.7549 39.9155 19.6026 39.9615 20.5524 39.9768H20.5576ZM27.4619 32.6384V35.6616H29.5046V32.6384H27.4619ZM34.2029 27.6388H32.1602V30.662H34.2029V27.6388ZM32.1602 35.6616H34.2029V32.6384H32.1602V35.6616Z" />
</svg>
