<svg xmlns="http://www.w3.org/2000/svg" viewBox="0 0 60 60"><path d="M44.129 28.953a2.919 2.919 0 0 1-.242-.32C40.262 22.928 33.564 10.992 33.564 9a1.5 1.5 0 0 0-3-.043V9c0 1.2-1.846 5.624-6.947 14.163a16.2 16.2 0 0 1-1.408-2.963 1.511 1.511 0 0 0-1.5-1.512 1.487 1.487 0 0 0-1.5 1.445v.048c-.09.8-1.922 4.3-4.739 8.589a4.232 4.232 0 0 1-.285.37 7.132 7.132 0 0 0-1.685 4.593 7.517 7.517 0 0 0 4.355 6.677c1.236 6.918 7.693 12.09 15.209 12.09C40.575 52.5 47.5 46 47.5 38a13.993 13.993 0 0 0-3.371-9.047Zm-27.635 2.1a7.121 7.121 0 0 0 .483-.638c1.108-1.689 2.643-4.121 3.763-6.265 1.423 2.715 3.37 5.749 3.7 6.265a6.575 6.575 0 0 0 .478.634 4.16 4.16 0 0 1 1 2.683c0 2.518-2.337 4.567-5.21 4.567S15.5 36.251 15.5 33.733a4.165 4.165 0 0 1 .994-2.679ZM32.064 49.5a12.391 12.391 0 0 1-11.91-8.226c.184.011.368.026.555.026 4.527 0 8.21-3.395 8.21-7.567a7.128 7.128 0 0 0-1.69-4.6 3.508 3.508 0 0 1-.266-.344 80.909 80.909 0 0 1-1.637-2.648 122.9 122.9 0 0 0 6.794-12.43c2.968 6.488 9.153 16.4 9.234 16.532a5.777 5.777 0 0 0 .489.655A10.848 10.848 0 0 1 44.5 38c0 6.341-5.578 11.5-12.436 11.5Z" /></svg>