<svg viewBox="0 0 87 81" fill="none" xmlns="http://www.w3.org/2000/svg"><path fill-rule="evenodd" clip-rule="evenodd" d="M34.787 22.143c.396-1.038.445-1.878-.197-2.866-.33-.44-.17-.8.035-1.259a5.53 5.53 0 00.212-.52l.06.074c.175.215.335.41.335.766.08-.337.095-.698.11-1.064.025-.545.049-1.101.285-1.604.308.192.256.474.219.683a.95.95 0 00-.021.157c.18-.271.155-.594.13-.902-.029-.366-.057-.712.265-.927.198 0 .198.161.198.346 0 .186 0 .396.198.495 0-.115-.008-.239-.015-.367-.032-.534-.069-1.143.41-1.462.198 0 .198.643.198.84 0-.79.444-1.63 1.037-2.026.198 0 .396 0 .396.198-.198.123-.198.284-.198.438 0 .155 0 .303-.198.402.347 0 .58.152 1.198.556l.285.185c-.79.593-1.236 1.186-1.63 2.026.197-.395.84-.593 1.235-.198-.989.445-2.027 1.038-1.829 2.274 0-.445.445-.84.84-1.038.198 0 .593 0 .593.198-.84.84-1.63 1.63-1.433 2.866.067-.12.116-.252.163-.38.128-.343.245-.658.677-.658.198 0 .395.198.198.395-1.038 1.038-1.038 2.471-.84 3.706 0-.117-.014-.244-.027-.365-.036-.337-.067-.62.224-.475.298 0 .26.365.222.714-.012.114-.024.227-.024.324l.198-.198c.218.328.135.61.05.898-.069.233-.139.468-.05.733.099.297.148.556.197.816.05.259.1.518.198.815.084-.253.06-.55.037-.855-.033-.41-.066-.831.16-1.171.396.84.396 1.828.396 2.866 0-.198 0-.395.198-.395.197.098.197.308.197.518 0 .21 0 .42.198.52-.113-.82.032-1.638.178-2.457.108-.614.217-1.229.217-1.843-.197 0-.395 0-.395-.198 0-.092-.01-.208-.022-.332-.038-.409-.083-.903.22-.903.197-.099.197.111.197.37 0 .26 0 .569.198.668-.198-.593 0-1.236.198-1.63.07 0 .114-.099.161-.2.085-.186.176-.383.432.002 0 .197 0 .395-.198.395.198.395.84.593 1.038.197 0-.058-.011-.124-.023-.195-.038-.227-.082-.494.22-.645.396 8.352.396 12.502 0 20.903 0 .395-.197.84-.395 1.236-.072.662-.007 1.273.055 1.86.11 1.033.211 1.992-.45 3.032-.12.357-.023.732.072 1.104.063.245.125.489.125.724.18 1.333-.532 2.455-1.257 3.597-.27.425-.54.853-.769 1.295h8.203c-1.037-1.433-1.68-2.866-2.273-4.299-.099-.42.05-.828.198-1.235.148-.408.296-.816.198-1.236-.396-.593-.593-1.235-.593-1.828-.198-.395 0-1.038.197-1.433.113-.592-.031-1.167-.176-1.745-.11-.436-.22-.873-.22-1.319-.394-8.154-.592-12.502 0-20.705.177.176.214.406.246.608.049.308.087.55.595.43.336-.14.291-.455.261-.665-.023-.161-.037-.261.134-.175.593.197.593.988.593 1.828.198-.099.198-.408.198-.667 0-.26 0-.47.198-.37.303 0 .257.494.22.902-.012.124-.023.24-.023.333 0 .197-.197.197-.395.197 0 .614.109 1.229.218 1.843.145.819.29 1.638.177 2.456.198-.098.198-.308.198-.518 0-.21 0-.42.198-.52.197 0 .197.198.197.396 0-1.038 0-2.026.396-2.866.226.34.193.761.16 1.17-.023.305-.047.603.037.856.1-.297.148-.556.198-.815.05-.26.099-.52.198-.816.088-.265.018-.5-.05-.733-.085-.287-.169-.57.05-.897l.197.197a3.52 3.52 0 00-.025-.357c-.037-.352-.071-.68.223-.68.295-.148.26.172.223.508-.013.115-.025.231-.025.332.378-1.373-.196-2.565-.766-3.75l-.075-.154s.198-.198.396-.198c.395.198.593.642.593 1.038.198-1.236-.593-2.026-1.433-2.866 0-.198.395-.198.593-.198.444.198.84.642.84 1.038.198-1.236-.79-1.878-1.829-2.273.396-.396 1.038-.198 1.236.197 0-.296-.148-.506-.297-.716-.148-.21-.296-.42-.296-.717-.101-.329-.371-.49-.637-.647-.253-.15-.502-.299-.599-.588 0-.198.198-.198.396-.198.197 0 .197.198.197.396h.396c.099-.124.099-.334.099-.513 0-.18 0-.328.098-.328.643.198.84 1.236.84 1.829 0-.247 0-.84.198-.84.479.319.442.927.41 1.462-.007.128-.014.252-.014.366.227-.142.258-.4.281-.592.017-.141.03-.248.114-.248.322.215.294.56.265.927-.025.308-.05.63.13.902 0-.059-.01-.125-.023-.196-.037-.227-.081-.494.22-.645.237.503.262 1.06.285 1.605.016.366.032.727.111 1.064 0-.445.198-.643.395-.84.198.395.396.84.396 1.235-.396.988-.79 2.224-.396 3.262 0-.117-.013-.231-.026-.339-.037-.3-.067-.553.224-.7.198 0 .198.199.198.396 0-.445.197-.642.395-.84.395 1.186.395 2.224.395 3.46.198-.124.198-.384.198-.588 0-.203 0-.352.198-.253.556.185.243 1.108.039 1.712l-.04.117c1.434-2.867 1.83-6.375.396-9.241-.577-.907-1.338-1.692-2.112-2.49-.618-.638-1.244-1.283-1.792-2.007 0-.198 0-.593.198-.593.642.198 1.038.643 1.235 1.236l.396-.396c.102.247.231.503.36.76.182.36.364.723.48 1.069 0-.248 0-.84.197-.84.474.145.599.749.71 1.294.04.193.079.379.13.534 0-.198 0-.79.198-.593.493.341.608 1.002.724 1.671.035.203.07.407.116.602 0-.056-.01-.13-.021-.21-.038-.276-.087-.63.219-.63.477.159.442.734.41 1.261-.007.128-.015.254-.015.37 0-.198.198-.396.198-.396.48.48.442 1.122.41 1.663-.008.128-.015.25-.015.363.228-.142.259-.4.282-.592.017-.141.03-.248.113-.248.4.432.44.931.485 1.467.021.261.044.531.108.806 0-.092-.01-.197-.022-.31-.038-.37-.083-.82.22-1.123.261.392.35.806.437 1.212.045.209.089.416.156.617.086-.258.06-.524.035-.776-.032-.329-.061-.631.163-.855.226.34.193.761.16 1.17-.023.305-.047.603.037.856.84-2.668 0-5.337-1.63-7.808-.974-1.327-2.317-2.091-3.63-2.838-.888-.505-1.76-1.001-2.498-1.658.198-.198.457-.149.717-.1.26.05.519.1.716-.098l.395.395c0-.395.198-.593.396-.395.29.257.474.18.677.094a.902.902 0 01.36-.094l.594.593c0-.198.197-.395.197-.395.08.079.194.132.313.188.253.12.527.248.527.652l.396-.396.06.074c.175.215.335.411.335.766 0-.197 0-.395.198-.395.11.146.228.28.345.412.356.403.692.784.692 1.416 0-.197.198-.395.198-.395.198.198.198.457.198.717 0 .259 0 .518.197.716.198-1.186 0-2.421-.395-3.459-.642-.79-1.63-1.63-2.47-1.828-2.224-.791-5.09-1.236-7.561-.198-.198 0 .642-1.235 1.037-1.63.059 0 .125-.012.196-.023.227-.038.493-.082.644.22.089-.11.02-.25-.05-.389-.084-.172-.169-.342.05-.451.396 0 .84.198 1.236.395 0-.197 0-.395-.198-.395.324-.324.68-.118 1.016.076.074.043.148.086.22.122 0-.1-.05-.149-.1-.198-.049-.05-.098-.099-.098-.198 0-.197.198-.395.395-.197.08.079.194.132.313.188.224.106.466.22.517.525l-.011-.084c-.038-.275-.087-.63.219-.63.412.127.641.519.857.888.12.205.237.404.378.546.198-2.866-3.459-3.46-5.732-3.064-1.433.395-2.668 1.235-3.261 2.668-.445-.84-.643-1.63-.84-2.668 0 .198 0 .395-.198.593-.198-.42-.247-.877-.297-1.334-.049-.457-.098-.915-.296-1.335-.198.42-.247.878-.297 1.335-.049.457-.098.914-.296 1.334-.198-.198-.198-.395-.198-.593-.247 1.038-.444 1.828-.84 2.668l-.087-.141c-.61-.99-1.204-1.952-2.383-2.33-2.027-.592-3.904-.395-5.733.84-.84.396-1.037 1.187-.84 2.027.144-.144.267-.346.395-.554.225-.367.463-.753.84-.88.31 0 .256.392.218.658a.782.782 0 00-.02.183c0-.042.01-.104.02-.175v-.008c.074-.309.337-.42.555-.512.109-.046.207-.087.265-.145.198 0 .396 0 .396.197l-.198.198c.164.082.337-.006.51-.095.246-.125.494-.252.725.095l-.197.198c.161.08.364-.004.575-.091.304-.127.624-.26.858.09-.198.198-.198.396-.198.594.79-.791 1.433.444 1.63 1.037 0 .198-.197.396-.197.396-2.47-1.236-4.892-.643-7.165.197-2.273.643-3.261 2.866-2.866 5.337.08-.16.095-.36.11-.567.024-.307.05-.63.285-.866 0 0 .198.198.198.395 0-.395.198-.84.395-1.235l.198.198c0-.445.197-.643.395-.84.198 0 .198.197.198.395 0-.445.197-.642.395-.84l.395.395c0-.452.318-.586.575-.694a.863.863 0 00.265-.146s.198.198.198.395c.072-.057.14-.132.21-.208.17-.186.35-.385.63-.385.198 0 .198.198.198.396l.074-.06c.215-.176.41-.336.766-.336.198 0 .198.198.198.396l.395-.396c.198.198.457.149.716.1.26-.05.52-.1.717.098-.583.695-1.354 1.061-2.137 1.433-.61.29-1.226.584-1.767 1.038-.84.593-1.68 1.186-2.273 2.026-.593.84-1.038 1.63-1.433 2.47-.593 1.631-.593 3.51-.198 5.338.085-.253.061-.551.037-.856-.032-.409-.066-.83.161-1.17.224.223.194.526.162.854-.024.252-.05.519.036.776.067-.2.111-.408.156-.616.087-.407.175-.82.437-1.212.227.227.193.535.16.832-.024.22-.047.433.037.6.065-.274.087-.55.109-.817.044-.546.086-1.057.484-1.455.084 0 .097.114.114.26.023.202.053.466.282.58 0-.113-.008-.236-.015-.363-.032-.542-.07-1.183.41-1.663 0 0 .198.197.198.395 0-.116-.008-.241-.016-.37-.031-.527-.066-1.101.41-1.26.313 0 .256.4.218.665-.01.071-.02.133-.02.175.07-.24.121-.494.17-.746.126-.633.246-1.245.67-1.528.198-.247.198.396.198.593.076-.182.129-.407.183-.636.12-.516.247-1.055.657-1.192.198 0 .198.642.198.84.103-.247.232-.502.361-.76.181-.36.364-.722.48-1.068l.394.395c.198-.642.643-1.235 1.236-1.038.593 0 .197.643 0 .84-1.433 1.433-2.866 2.867-3.706 4.497-1.236 2.866-1.038 6.128.395 8.796l-.04-.117c-.203-.603-.516-1.526.04-1.711.198-.099.198.062.198.272 0 .21 0 .469.197.568 0-1.186 0-2.224.396-3.46l.06.074c.175.216.335.411.335.767 0-.198 0-.396.198-.396.294.148.26.433.223.732a2.531 2.531 0 00-.026.306zm8.797 37.951C38.05 55.993 32.12 52.237 25.35 50.26 16.95 47.79 8.351 47.147 0 48.827c14.578.396 29.699 4.3 40.373 14.529l-8.599 8.005c-.348-.544-.543-1.165-.74-1.795-.252-.8-.508-1.615-1.088-2.307-.84-.79-1.63-1.235-2.669-1.63-1.877-.396-3.508.642-3.903 2.47-.198 1.433.593 2.867 1.828 3.46 1.025.384 2.087-.044 3.026-.422.148-.06.292-.118.433-.171.642-.198 1.235 1.235.84 1.828-.84 1.433-2.47 2.273-4.101 2.866-1.038-1.433-2.866-1.878-4.3-1.038-1.433 1.038-1.877 2.866-1.037 4.3.395.84 1.186 1.235 2.026 1.433 3.904.395 7.165-1.829 10.031-4.102 1.236 2.075 3.262 3.508 5.535 3.904 1.828.198 4.101-.643 4.496-2.669.198-1.433-.593-2.866-1.828-3.459-1.038-.395-2.026-.197-3.064.198-.532.228-.674.82-.8 1.343-.12.496-.224.93-.633.93-.593 0-1.828-.84-1.433-1.433 1.649-2.523 3.801-4.268 5.974-6.029 1.019-.825 2.042-1.655 3.02-2.57.947.887 1.974 1.692 3.001 2.498 2.297 1.8 4.593 3.602 5.992 6.299.198.197-.84 1.235-1.433 1.235-.459.115-.451-.187-.442-.576.007-.281.015-.608-.15-.857-.396-.84-1.186-1.038-2.027-1.235-1.68-.396-3.31.84-3.706 2.47-.197.84 0 1.68.396 2.273 2.866 3.657 7.807.593 9.636-2.273 3.063 2.422 7.165 5.09 11.069 3.46 1.433-.643 2.075-2.669 1.037-4.102-1.235-1.828-4.101-1.828-5.337 0-1.63-.593-3.26-1.433-4.101-2.866-.445-.593.198-2.026.593-1.828 2.273 1.433 4.942.84 5.535-1.631.395-1.68-.84-3.311-2.471-3.706-1.433-.198-3.064.395-4.102 1.63-.53.662-.775 1.437-1.018 2.204-.211.665-.42 1.324-.81 1.898l-8.598-8.006c10.673-10.228 25.844-14.132 40.372-14.528-15.17-2.866-31.576 1.038-43.238 11.267z" fill="#B89535"/></svg>