<svg xmlns="http://www.w3.org/2000/svg" viewBox="0 0 24 24"><path d="M14.6 15.9l-3.4-2.4c.3-.4.4-.9.4-1.4 0-.5-.1-.9-.4-1.4l3.4-2.4c.5.3 1.1.5 1.6.5.9 0 1.6-.3 2.3-.9.6-.6 1-1.4 1-2.3s-.4-1.8-1-2.4a3.32 3.32 0 00-4.7 0c-.6.6-1 1.4-1 2.3 0 .5.1 1 .4 1.4L9.8 9.4c-1.3-.8-2.9-.5-4 .5-.6.6-1 1.4-1 2.3 0 .9.4 1.6 1 2.3.6.6 1.5.9 2.3.9.6 0 1.1-.1 1.6-.5l3.4 2.4c-.3.4-.4.9-.4 1.4 0 .9.4 1.6 1 2.3.6.6 1.5.9 2.3.9.8 0 1.6-.3 2.3-.9.6-.6 1-1.4 1-2.3 0-.9-.4-1.6-1-2.3-.8-1-2.4-1.1-3.7-.5zm.6-11.2c.3-.3.6-.4 1-.4s.8.1 1 .4c.3.3.4.6.4.9 0 .4-.1.6-.4.9-.5.5-1.5.5-2 0-.3-.3-.4-.6-.4-.9.1-.4.2-.6.4-.9zm-8 8.3c-.3-.3-.4-.6-.4-.9 0-.4.1-.6.4-.9.3-.3.6-.4 1-.4s.8.1 1 .4c.3.3.4.5.4.9s-.2.7-.4.9c-.6.5-1.5.5-2 0zm10.1 6.6c-.5.5-1.5.5-2 0-.3-.3-.4-.6-.4-.9 0-.4.1-.6.4-.9.3-.3.6-.4 1-.4s.8.1 1 .4c.3.3.4.6.4.9-.1.4-.2.6-.4.9z"/></svg>