<svg viewBox="0 0 42 40" fill="none" xmlns="http://www.w3.org/2000/svg">
<g clip-path="url(#clip0_31311_30148)">
<path d="M20.2718 22.4062V32.2795C17.3734 34.1882 14.6515 34.1928 12.6211 33.6982C10.5675 33.198 9.22091 32.1863 9.1261 32.1105L9.12431 32.1091L8.73948 31.8098L8.63716 31.7302L8.53484 31.8098L8.1528 32.1069C5.08064 34.294 2.14277 34.2496 0.0449383 33.6622L-0.197517 33.5943L-0.165296 33.844L0.0057364 35.1695L0.0207038 35.2855L0.134878 35.3109C2.45806 35.8272 5.46328 35.7454 8.63748 33.7213C10.2175 34.7173 15.4139 37.3374 21.0395 33.7204C22.0103 34.3103 24.3804 35.5714 27.3653 35.5714C29.2076 35.5714 31.3018 35.1062 33.4376 33.7221C34.652 34.4941 38.0499 36.2415 42.1537 35.3107L42.2677 35.2849L42.2822 35.1689L42.4533 33.8006L42.4848 33.5484L42.2409 33.62C37.6717 34.9614 34.0591 32.285 33.8801 32.1509C33.8797 32.1506 33.8793 32.1503 33.879 32.1501L33.4965 31.8525L33.4017 31.7788L33.3017 31.8454L32.9169 32.102L32.9169 32.1019L32.9131 32.1046C27.8381 35.6942 23.2128 33.2544 21.8878 32.3662V22.4062V22.2396H21.7212H20.4384H20.2718V22.4062Z"/>
<path d="M42.026 38.5854L42.0503 38.3511L41.8213 38.4062C37.4621 39.4541 34.1015 36.9449 33.9229 36.811C33.9225 36.8107 33.9221 36.8104 33.9217 36.8101L33.5392 36.5126L33.4444 36.4388L33.3444 36.5054L32.9596 36.762L32.9596 36.7619L32.9563 36.7643C27.2266 40.7872 22.1312 37.1964 21.5575 36.7921C21.5413 36.7807 21.5287 36.7718 21.5198 36.7658L21.1393 36.4698L21.0445 36.396L20.9445 36.4627L20.5597 36.7192L20.5597 36.7192L20.5564 36.7215C14.8267 40.7445 9.73135 37.1537 9.15761 36.7494C9.14143 36.738 9.12885 36.7291 9.11995 36.723L8.73943 36.427L8.6446 36.3533L8.54465 36.4199L8.15983 36.6765L8.15979 36.6764L8.15578 36.6793C5.25152 38.7417 2.48014 38.7823 0.421272 38.3201L0.189006 38.268L0.219469 38.504L0.390503 39.8295L0.405988 39.9496L0.524898 39.972C2.80413 40.402 5.63726 40.2346 8.63802 38.2962C10.2187 39.2924 15.4146 41.9115 21.0395 38.2949C22.0103 38.8848 24.3804 40.1459 27.3652 40.1459C29.2078 40.1459 31.3024 39.6806 33.4384 38.296C34.606 39.0243 37.8318 40.6906 41.7619 39.9722L41.8849 39.9497L41.8978 39.8254L42.026 38.5854Z"/>
<path d="M10.5188 7.27326H10.3521V7.43993V16.3772C9.27255 16.6731 8.15903 17.0453 7.12716 17.4168L7.12716 17.4168L7.12464 17.4177L5.54258 18.0164L5.37542 18.0796L5.45018 18.242L11.1798 30.6846L11.2089 30.7478L11.2742 30.7715C11.7541 30.946 12.318 31.0762 12.8692 31.2034L12.8757 31.2049L13.2052 31.2809L13.0649 30.9733L7.57707 18.9424L7.71605 18.8828C16.2279 15.6919 25.9749 15.6919 34.4868 18.8828L34.6248 18.942L29.0101 31.0579L28.8774 31.3443L29.1887 31.2924C29.7128 31.205 30.2775 31.0313 30.8286 30.8617L30.8352 30.8597L30.9062 30.8378L30.9374 30.7703L36.7098 18.2849L36.7849 18.1225L36.6175 18.0591L35.0363 17.4608C35.0361 17.4608 35.0359 17.4607 35.0357 17.4606C33.9585 17.0463 32.8823 16.7122 31.808 16.4199V7.43993V7.27326H31.6413H24.7956V0V-0.166667H24.629H17.5311H17.3644V0V7.27326H10.5188ZM21.8881 5.17375V1.44941H23.1796V7.27326H18.9805V1.44941H20.272V5.17375V5.34041H20.4387H21.7214H21.8881V5.17375ZM30.1919 8.88934V15.9519C24.2248 14.557 17.9375 14.5568 12.0109 15.9516V8.88934H30.1919Z" />
<path d="M15.8632 13.6407H16.1625C16.5901 13.6407 16.9749 13.2986 16.9749 12.8283V11.289C16.9749 10.8614 16.6328 10.4766 16.1625 10.4766H15.8632C15.4356 10.4766 15.0508 10.8186 15.0508 11.289V12.871C15.0508 13.2558 15.4356 13.6407 15.8632 13.6407Z"/>
<path d="M20.9101 13.6407H21.2094C21.637 13.6407 22.0218 13.2986 22.0218 12.8283V11.289C22.0218 10.8614 21.6797 10.4766 21.2094 10.4766H20.9101C20.4825 10.4766 20.0977 10.8186 20.0977 11.289V12.871C20.1404 13.2558 20.4825 13.6407 20.9101 13.6407Z"/>
<path d="M25.996 13.6407H26.2953C26.7229 13.6407 27.1077 13.2986 27.1077 12.8283V11.289C27.1077 10.8614 26.7656 10.4766 26.2953 10.4766H25.996C25.5684 10.4766 25.1836 10.8186 25.1836 11.289V12.871C25.1836 13.2558 25.5257 13.6407 25.996 13.6407Z"/>
</g>
<defs>
<clipPath id="clip0_31311_30148">
<rect width="42" height="40" fill="white"/>
</clipPath>
</defs>
</svg>
