<svg width="17" height="16" viewBox="0 0 17 16" fill="none" xmlns="http://www.w3.org/2000/svg">
<path d="M16.0035 7.92831C16.0035 7.92025 16.0035 7.91083 16.0035 7.90276C15.9847 6.27148 15.4804 4.7182 14.5592 3.40833C14.5323 3.35454 14.496 3.30613 14.4543 3.26175C14.2149 2.93764 13.9513 2.62967 13.6608 2.34054C12.7423 1.42201 11.6543 0.773806 10.4964 0.395908C10.4453 0.371701 10.3915 0.354218 10.3364 0.344804C8.83017 -0.111094 7.21368 -0.115129 5.70478 0.334045C5.62409 0.342114 5.54609 0.366321 5.47347 0.406666C4.32902 0.785909 3.25315 1.43008 2.34404 2.33919C2.0549 2.62833 1.79132 2.93495 1.55597 3.25637C1.5089 3.30344 1.47125 3.35723 1.44166 3.41506C0.511036 4.74644 0.032276 6.29838 0.00537933 7.85704C0.00268967 7.88259 0 7.90949 0 7.93504C0 7.9579 0 7.98076 0.0040345 8.00362C0.00537933 10.0505 0.785382 12.0973 2.34404 13.656C3.85564 15.1675 5.86482 16 8.00175 16C10.1387 16 12.1479 15.1675 13.6595 13.656C15.1711 12.1444 16.0035 10.1352 16.0035 7.99825C16.0035 7.97942 16.0035 7.96059 16.0035 7.94176C16.0035 7.93638 16.0035 7.93235 16.0035 7.92831ZM10.9738 1.89136C11.6355 2.21278 12.2555 2.64716 12.8042 3.19585C12.8364 3.22812 12.8687 3.2604 12.8996 3.29268L12.5002 4.66306C12.3751 5.08937 12.3429 5.5251 12.394 5.94469L10.8447 6.449C10.8246 6.45572 10.8057 6.46245 10.7869 6.47052C10.5677 6.07514 10.2624 5.72144 9.87914 5.44172L9.86973 5.43499C9.48376 5.15527 9.05207 4.97103 8.60693 4.88496V3.19316C9.02114 3.11247 9.42324 2.94705 9.79038 2.69692L10.9738 1.89136ZM3.19936 3.19585C3.74805 2.64716 4.36802 2.21278 5.02967 1.89136L6.21313 2.69692C6.58027 2.94705 6.98237 3.11112 7.39658 3.19316V4.88496C6.95144 4.97237 6.51975 5.15527 6.13378 5.43499C6.13109 5.43768 6.1284 5.43903 6.12437 5.44172C5.74109 5.72144 5.43581 6.07514 5.21661 6.47052C5.19778 6.46245 5.17895 6.45438 5.15878 6.449L3.60953 5.94469C3.66063 5.5251 3.62836 5.08937 3.50329 4.66306L3.10387 3.29268C3.1348 3.2604 3.16708 3.22812 3.19936 3.19585ZM4.68271 11.5459C4.29943 11.3684 3.87715 11.2648 3.43336 11.2514L2.0159 11.2084C1.63263 10.4929 1.38652 9.72098 1.27759 8.93425L2.39784 8.06683C2.74749 7.79652 3.02991 7.46435 3.23432 7.09586L4.78491 7.60017C4.80509 7.6069 4.82526 7.61228 4.84543 7.61631C4.79029 8.06683 4.83064 8.53483 4.97857 8.98804C5.1265 9.44125 5.36723 9.84336 5.67654 10.1755C5.66443 10.189 5.65368 10.2038 5.64157 10.2186L4.68002 11.5432L4.68271 11.5459ZM9.67607 13.3547L9.19866 14.6861C8.41731 14.8246 7.58889 14.8246 6.8062 14.6861L6.32878 13.3547C6.17951 12.9378 5.95088 12.5666 5.66309 12.2573L6.62465 10.9313C6.6354 10.9165 6.64482 10.9017 6.65423 10.8869C7.0671 11.0793 7.52568 11.1855 8.0031 11.1855C8.48051 11.1855 8.9391 11.0793 9.35197 10.8869C9.36138 10.9017 9.37079 10.9165 9.38155 10.9313L10.3431 12.2573C10.0553 12.5666 9.82669 12.9378 9.67742 13.3547H9.67607ZM13.9903 11.2097L12.5702 11.2527C12.1277 11.2662 11.7041 11.3684 11.3208 11.5473L10.3592 10.2226C10.3485 10.2078 10.3364 10.193 10.3243 10.1796C10.6336 9.84739 10.8757 9.44529 11.0222 8.99208C11.1702 8.53887 11.2105 8.07087 11.1554 7.62035C11.1756 7.61631 11.1957 7.61093 11.2159 7.60421L12.7665 7.0999C12.9723 7.46838 13.2533 7.79921 13.603 8.07087L14.7273 8.94097C14.617 9.74115 14.3668 10.5077 13.9889 11.2124L13.9903 11.2097Z" fill="white"/>
</svg>
