<svg xmlns="http://www.w3.org/2000/svg" viewBox="0 0 60 60">
  <path d="M56.49 14.75a1.53 1.53 0 0 0-.81-1.1l-6.22-3.11-3.11-6.22a1.53 1.53 0 0 0-1.1-.81 1.49 1.49 0 0 0-1.3.42l-10 10A1.52 1.52 0 0 0 33.5 15v9.39l-6.8 6.79 2.13 2.13 6.79-6.8H45a1.52 1.52 0 0 0 1.06-.44l10-10a1.49 1.49 0 0 0 .43-1.32Zm-12.1 8.75H36.5v-7.89l8.1-8.09 2.4 4.81a1.45 1.45 0 0 0 .67.67l4.81 2.4Z"/>
  <path d="M28.82 54h-.48a22.81 22.81 0 0 1-.93-45.57l1.49-.09.19 3-1.5.1a19.81 19.81 0 1 0 21 21l.09-1.5 3 .19-.09 1.49A22.75 22.75 0 0 1 28.82 54Z"/>
  <path d="M28.78 44.54h-.48a13.32 13.32 0 0 1-1-26.55l1.49-.16.32 3-1.45.17A10.32 10.32 0 1 0 39 32.34l.16-1.49 3 .32-.16 1.49a13.37 13.37 0 0 1-13.22 11.88Z"/>
</svg>
