<svg xmlns="http://www.w3.org/2000/svg" viewBox="-5 0 70 70"><path d="M51 36.1c0 1.3-.5 2.6-1.4 3.5S47.4 41 46.1 41H13.9C11.2 41 9 38.8 9 36.1V13.9C9 11.2 11.2 9 13.9 9H29V6H13.9C9.5 6 6 9.5 6 13.9v22.2c0 4.4 3.6 7.9 7.9 7.9h9.4l-.9 7h-3.6v3h22.3v-3h-3.6l-.9-7H46c2.1 0 4.1-.8 5.6-2.3s2.3-3.5 2.3-5.6V31H51v5.1zM34.6 51h-9.1l.9-7h7.4l.8 7z"/><path d="M45 3.3 33.5 9.6v12.8L45 28.7l11.5-6.3V9.6L45 3.3zm6.8 7.1L45 14.3l-6.8-3.9L45 6.7l6.8 3.7zm-15.3 2.5 7 4v7.6l-7-3.8v-7.8zm10 11.6V17l7-4v7.7l-7 3.8z"/></svg>