<svg xmlns="http://www.w3.org/2000/svg" viewBox="0 0 60 60">
  <path
    d="M58.931,20.238a4.721,4.721,0,0,0-3.241-3.194c-3.349-1.3-7.908.34-8.072.4L10.646,30l-5-2.893a2.406,2.406,0,0,0-2.109-.142L1.988,27.6,1,30.725l2.8,3.308.339.4-2.388,5.22,1.431,1.969,3.205-.194a3.177,3.177,0,0,0,2.169-1.044l3.379-3.779,12.8-3.192-.319,9.325-.062,1.818,1.977,1.933,3.42-1.574a6.638,6.638,0,0,0,2.849-2.5l7.658-12.141L52.52,26.205c6.237-1.683,6.5-4.681,6.479-5.357A3.211,3.211,0,0,0,58.931,20.238Zm-2.545.732c-.093.468-.979,1.671-4.144,2.6-.143.042-.284.084-.435.124L39.638,27.737l-1.084.36L30.4,41.028a4.036,4.036,0,0,1-1.733,1.519l-1.655.762.37-10.81-2.316-1.853L10.528,34.27,6.621,38.641a.574.574,0,0,1-.391.188l-1.266.076L5.7,37.3l1.5-3.286-.306-.362L3.6,29.758l.834-.341.245.141,5.69,3.291.12-.04.749-.255L48.483,19.9c1.067-.385,4.277-1.215,6.29-.417l.084.03A3.658,3.658,0,0,1,56,20.168a1.019,1.019,0,0,1,.393.714l-.039-.034Z"
    fill="currentColor"
  />
  <path
    d="M24.366,22.178,19.525,18.3l1.241-.5a2.739,2.739,0,0,1,1.713-.1l7.939,2.4,4.216-1.45L23.2,15.19a5.387,5.387,0,0,0-3.4.19L17.26,16.394l-.687,2.878,4.875,3.909Z"
    fill="currentColor"
  />
</svg>
