<svg xmlns="http://www.w3.org/2000/svg" viewBox="-5 0 70 70"><path d="M26 29h3V8.5H3.5v3H26z"/><path d="M56.5 26.2c0-1-.2-2-.7-2.9l-3.1-6.2c-1.1-2.2-3.3-3.6-5.8-3.6H36.5v-5h-3v25h-30v3H35c.8 0 1.5-.7 1.5-1.5V16.5h10.4c1.3 0 2.5.7 3.1 1.9l2.5 5.1h-9.1v13h10v8.3h-4.8c-.2-.8-.7-1.6-1.3-2.2-2.1-2-5.4-2-7.4 0-.6.6-1 1.4-1.3 2.2h-25c-.2-.8-.7-1.6-1.3-2.2-2-2-5.4-2-7.4 0-1 1-1.5 2.3-1.5 3.7C3.5 47.7 4 49 5 50s2.4 1.5 3.7 1.5c1.3 0 2.7-.5 3.7-1.5.6-.6 1.1-1.4 1.3-2.2h25c.2.8.7 1.6 1.3 2.2 1 1 2.4 1.5 3.7 1.5s2.7-.5 3.7-1.5c.6-.6 1.1-1.4 1.3-2.2h7.8V26.2zM10.3 44.7c.9.9.9 2.3 0 3.2-.9.9-2.3.9-3.2 0-.4-.4-.7-1-.7-1.6 0-.6.2-1.2.7-1.6.4-.4 1-.7 1.6-.7s1.2.2 1.6.7m31.9 3.1c-.4-.4-.7-1-.7-1.6 0-.6.2-1.1.7-1.6.4-.4 1-.7 1.6-.7.6 0 1.2.2 1.6.7.4.4.6 1 .6 1.6 0 .6-.2 1.1-.7 1.6-.8.9-2.3.9-3.1 0zm4.3-14.3v-7h7v7h-7z"/></svg>