<?xml version="1.0" encoding="UTF-8"?><svg id="Layer_1" xmlns="http://www.w3.org/2000/svg" viewBox="0 0 20 14.74"><defs><style>.cls-1{fill:#fff;}</style></defs><path class="cls-1" d="M9.72,12.93c-6.28,1.14-9.21,.04-9.24,.03l-.47,1.21c.09,.03,1.5,.58,4.41,.58,1.86-.01,3.71-.2,5.54-.54,6.31-1.14,9.59-.04,9.62-.03l.43-1.22c-.15-.05-3.6-1.24-10.28-.03Zm.23-1.41c6.31-1.14,9.59-.04,9.62-.03l.43-1.22s-.07-.02-.16-.05c-.77-.23-4.16-1.05-10.12,.03-6.28,1.14-9.21,.04-9.24,.03l-.3,.75-.18,.45c.09,.03,1.5,.58,4.41,.58,1.86-.01,3.71-.19,5.54-.54Zm-3.23-2.42l1.69-1.12c.36-.22,.8-.29,1.21-.2,.41,.09,.78,.34,1.01,.69,.01,.02,.02,.03,.03,.05,.62-.06,1.2-.09,1.75-.11-.09-.3-.22-.59-.4-.85-.48-.72-1.21-1.23-2.06-1.41-.75-.16-1.53-.06-2.21,.29l.58-1.81L15.33,0h-2.91l-4.07,2.7-1.83,2.34-.72,2.66-2.14,1.41s1.7,.2,3.06-.01h0ZM13.42,3.33c-.61,.4-1.03,1.03-1.18,1.75-.15,.72,0,1.46,.4,2.07,.3,.46,.73,.81,1.23,1.02,.5,.21,1.06,.27,1.59,.16,.53-.1,1.03-.36,1.41-.75,.39-.38,.65-.87,.76-1.41,.11-.53,.06-1.09-.15-1.59-.21-.5-.56-.94-1.01-1.24-.45-.3-.98-.47-1.53-.47-.54,0-1.08,.16-1.53,.46h0Zm2.49,1.65c.13,.19,.2,.42,.2,.65s-.07,.46-.2,.65c-.13,.19-.31,.34-.53,.43-.22,.09-.45,.11-.68,.06-.23-.05-.44-.16-.6-.32-.16-.16-.27-.37-.32-.6-.04-.23-.02-.46,.07-.68,.09-.21,.24-.4,.44-.52,.26-.17,.57-.23,.88-.17s.57,.24,.74,.5h0Z"/></svg>