<svg viewBox="0 0 40 40" fill="none" xmlns="http://www.w3.org/2000/svg">
<path d="M27.4075 32.3334H7.03711" stroke="currentColor" stroke-width="2.22222" stroke-linecap="round" stroke-linejoin="round"/>
<path d="M36.6677 25.1119H37.7788V22.8897H36.6677V25.1119ZM31.1172 24.0008L30.0061 24.0008L30.0061 25.1119H31.1172V24.0008ZM31.1172 16.5903V15.4792H30.0061L30.0061 16.5903L31.1172 16.5903ZM36.6677 17.7014H37.7788V15.4792H36.6677V17.7014ZM36.6677 22.8897H31.1172V25.1119H36.6677V22.8897ZM32.2283 24.0008L32.2283 16.5903L30.0061 16.5903L30.0061 24.0008L32.2283 24.0008ZM31.1172 17.7014H36.6677V15.4792H31.1172V17.7014Z" />
<path d="M32.1482 30.3732C32.943 31.168 33.1808 32.3632 32.7508 33.4017C32.3207 34.4401 31.3074 35.1173 30.1834 35.1173C29.0595 35.1173 28.0461 34.4403 27.616 33.4019C27.1858 32.3635 27.4235 31.1682 28.2182 30.3734L28.2184 30.3732C29.3036 29.288 31.063 29.288 32.1482 30.3732V30.3732" stroke="currentColor" stroke-width="2.22222" stroke-linecap="round" stroke-linejoin="round"/>
<path d="M1.47266 4.36423H0.361545V6.58645H1.47266V4.36423ZM18.147 6.58645H19.2581V4.36423H18.147V6.58645ZM1.47266 6.58645H18.147V4.36423H1.47266V6.58645Z" />
<path d="M19.2601 7.32788V6.21677H17.0379V7.32788H19.2601ZM17.0379 18.4436V19.5547H19.2601V18.4436H17.0379ZM17.0379 7.32788V18.4436H19.2601V7.32788H17.0379Z" />
<path d="M6.21658 30.3734C7.01139 31.1681 7.2492 32.3634 6.81912 33.4018C6.38905 34.4403 5.37578 35.1174 4.2518 35.1174C3.12783 35.1174 2.1145 34.4405 1.68432 33.4021C1.25415 32.3637 1.49184 31.1684 2.28658 30.3736L2.28713 30.373C2.80822 29.852 3.51499 29.5593 4.25191 29.5593C4.98884 29.5594 5.69555 29.8522 6.21655 30.3734V30.3734" stroke="currentColor" stroke-width="2.22222" stroke-linecap="round" stroke-linejoin="round"/>
<path d="M32.9599 31.2273H31.8488V33.4496H32.9599V31.2273ZM38.5269 32.3385V33.4496H39.638V32.3385H38.5269ZM38.1355 15.8086L37.1417 16.3057L37.1417 16.3057L38.1355 15.8086ZM35.8446 11.2284L34.8509 11.7255L34.8509 11.7255L35.8446 11.2284ZM25.1855 8.06955H24.0744V10.2918H25.1855V8.06955ZM32.9599 33.4496H38.5269V31.2273H32.9599V33.4496ZM39.638 32.3385V17.4661H37.4157V32.3385H39.638ZM39.638 17.4661C39.638 16.7182 39.4638 15.9805 39.1292 15.3116L37.1417 16.3057C37.3219 16.666 37.4157 17.0633 37.4157 17.4661H39.638ZM39.1292 15.3116L36.8384 10.7314L34.8509 11.7255L37.1417 16.3057L39.1292 15.3116ZM36.8384 10.7314C36.0224 9.10001 34.3548 8.06955 32.5308 8.06955V10.2918C33.5132 10.2918 34.4114 10.8468 34.8509 11.7255L36.8384 10.7314ZM32.5308 8.06955H25.1855V10.2918H32.5308V8.06955Z" />
<path d="M1.47266 22.8905H0.361545V25.1127H1.47266V22.8905ZM23.7041 24.0016V25.1127C24.3178 25.1127 24.8152 24.6152 24.8152 24.0016H23.7041ZM24.8152 5.47534V4.36423H22.593V5.47534H24.8152ZM1.47266 25.1127H23.7041V22.8905H1.47266V25.1127ZM24.8152 24.0016V5.47534H22.593V24.0016H24.8152Z" />
</svg>
