<svg viewBox="0 -2 24 24" fill="none" xmlns="http://www.w3.org/2000/svg"><path d="M16.751.307c-2.781.042-4.973 2.444-4.973 5.225v.675C6.806 5.322 4.361 3.973 1.664 1.15.063 4.268 1.833 6.88 3.771 8.314c-1.306 0-2.402-.169-3.245-.927-.084-.042-.168 0-.126.084.716 2.613 3.16 4.51 5.057 5.057-1.728 0-2.866.253-4.088-.505-.084-.043-.169 0-.126.084.927 2.57 2.781 3.371 5.478 3.371-1.348 1.012-3.16 2.023-6.574 2.107-.127 0-.21.169-.084.253 1.264 1.054 4.382 1.855 8.765 1.855 7.207 0 13.065-6.406 13.065-14.33v-.42C23.03 4.52 23.663 3.51 24 2.497a.09.09 0 0 0-.084-.084l-2.402.843c-.043 0-.085-.085-.043-.127 1.012-.8 1.77-1.812 2.108-2.781 0 0-.043-.042-.085-.042-1.138.463-2.233.927-3.076 1.18a.499.499 0 0 1-.422-.042C19.45 1.15 17.805.307 16.751.307Z" fill="#65BBF2"/></svg>
