<svg viewBox="0 0 24 24" xmlns="http://www.w3.org/2000/svg"><path d="M19 0H5a5 5 0 0 0-5 5v14a5 5 0 0 0 5 5h14a5 5 0 0 0 5-5V5a5 5 0 0 0-5-5Zm-.69 9v.39A8.89 8.89 0 0 1 9 18a9.82 9.82 0 0 1-5-1.4 6.85 6.85 0 0 0 .79 0 6.91 6.91 0 0 0 4.06-1.29 3.26 3.26 0 0 1-3.06-2.1 4.32 4.32 0 0 0 .62.05 4 4 0 0 0 .86-.1 3.09 3.09 0 0 1-2.62-3 3.42 3.42 0 0 0 1.48.39 3 3 0 0 1-1.47-2.49 2.84 2.84 0 0 1 .44-1.52 9.6 9.6 0 0 0 6.75 3.16 3.25 3.25 0 0 1-.08-.7A3.15 3.15 0 0 1 15 6a3.4 3.4 0 0 1 2.39 1 6.68 6.68 0 0 0 2.08-.73 3.08 3.08 0 0 1-1.44 1.66A6.9 6.9 0 0 0 20 7.41 6.59 6.59 0 0 1 18.31 9Z"></path></svg>