<svg width="24" height="24" viewBox="0 0 30 24" fill="none" xmlns="http://www.w3.org/2000/svg">
<path d="M0.500723 21.2971C3.80447 21.5941 6.72307 20.7985 9.37719 18.8085C6.61395 18.5592 4.77348 17.166 3.73727 14.5856C4.6557 14.6882 5.50981 14.7149 6.42824 14.462C4.97942 14.1058 3.8341 13.3983 2.95396 12.2884C2.076 11.1814 1.63955 9.91827 1.64099 8.45789C2.4821 8.88061 3.33044 9.15809 4.2691 9.17977C1.61787 6.94187 1.00293 4.28052 2.47704 1.08227C5.78007 4.97277 9.91481 7.0994 14.9362 7.44119C14.9145 6.83781 14.8618 6.26479 14.8784 5.69393C14.9514 3.20384 16.8561 0.838031 19.2718 0.22454C21.5083 -0.343427 23.4723 0.166732 25.1531 1.74779C25.2781 1.86557 25.3822 1.89809 25.5577 1.85907C26.805 1.58231 27.9806 1.12635 29.1621 0.443489C28.6888 1.87569 27.8383 2.91335 26.6706 3.727C27.8022 3.62439 28.8709 3.29778 29.9786 2.84326C29.2018 3.98497 28.3405 4.93664 27.2956 5.70911C27.0311 5.90421 26.9625 6.10943 26.969 6.42882C27.0268 9.20868 26.4111 11.8455 25.2066 14.3428C23.7599 17.3409 21.66 19.7681 18.8187 21.5269C16.7962 22.7792 14.5937 23.5249 12.2373 23.8364C10.1684 24.1102 8.11336 24.0445 6.07345 23.608C4.13036 23.1918 2.31807 22.4475 0.631514 21.3954C0.607668 21.3809 0.586712 21.3622 0.5 21.2964L0.500723 21.2971Z" fill="white"/>
</svg>
