<?xml version="1.0" encoding="UTF-8"?><svg id="b" xmlns="http://www.w3.org/2000/svg" viewBox="0 0 24 22.65"><g id="c"><path d="M16.07,22.59c-.36,.11-.68,.06-.97-.17-.29-.22-.43-.52-.43-.9,0-.18,.05-.34,.15-.48s.24-.24,.42-.28c2.02-.71,3.66-1.92,4.9-3.63s1.87-3.64,1.87-5.8-.62-4.09-1.87-5.82c-1.24-1.72-2.88-2.93-4.9-3.62-.18-.04-.32-.14-.42-.3s-.15-.32-.15-.5c0-.38,.15-.67,.45-.88,.3-.21,.62-.26,.95-.15,2.38,.84,4.29,2.29,5.75,4.35,1.46,2.06,2.18,4.36,2.18,6.92s-.73,4.86-2.18,6.92c-1.46,2.06-3.37,3.51-5.75,4.35ZM1,15.36c-.29,0-.53-.09-.72-.28-.19-.19-.28-.43-.28-.72v-6c0-.29,.09-.53,.28-.72,.19-.19,.43-.28,.72-.28H5.33L10.3,2.39c.31-.31,.67-.38,1.08-.22,.41,.17,.62,.47,.62,.92V19.62c0,.44-.21,.75-.62,.92-.41,.17-.77,.09-1.08-.22l-4.97-4.97H1Zm13,1.6V5.72c1.2,.38,2.17,1.09,2.9,2.13s1.1,2.21,1.1,3.5-.37,2.48-1.1,3.5-1.7,1.72-2.9,2.1ZM10,5.76l-3.77,3.6H2v4H6.23l3.77,3.63V5.76Z" fill="#521160"/></g></svg>