<svg xmlns="http://www.w3.org/2000/svg" viewBox="0 0 24 24">
  <path d="M15.196 4.02c.769.153 1.849.585 2.929 1.45C19.92 6.904 21 9.064 21 12c0 3.753-1.924 6.447-5.629 7.928a1 1 0 01-.742-1.856C17.59 16.887 19 14.914 19 12c0-2.315-.795-3.905-2.125-4.97a5.792 5.792 0 00-1.935-1.015l-.136-.034a1 1 0 11.392-1.962zM11 5.507a1 1 0 011 1v9.984a1 1 0 01-1.726.688l-2.423-2.556a1 1 0 00-.725-.312H5a1 1 0 01-1-1V9.688a1 1 0 011-1h2.126a1 1 0 00.725-.312l2.423-2.556A1 1 0 0111 5.508zm3.21 2.514c.4.086.922.31 1.44.754C16.497 9.501 17 10.581 17 12c0 1.83-.907 3.19-2.606 3.92a1 1 0 11-.788-1.84C14.574 13.667 15 13.028 15 12c0-.831-.246-1.358-.65-1.705a1.605 1.605 0 00-.51-.303l-.05-.014a1 1 0 11.42-1.956z"/>
</svg>
