<svg viewBox="0 0 82 80" fill="none" xmlns="http://www.w3.org/2000/svg">
<path d="M79.1477 41.1485H81.1477V37.1485H79.1477V41.1485ZM57.8711 39.1485V37.1485H55.8711V39.1485H57.8711ZM57.8711 56.1697H55.8711V58.1697L57.8711 58.1697L57.8711 56.1697ZM79.1477 58.1697L81.1477 58.1697L81.1477 54.1697L79.1477 54.1697L79.1477 58.1697ZM79.1477 37.1485H57.8711V41.1485H79.1477V37.1485ZM55.8711 39.1485V56.1697H59.8711V39.1485H55.8711ZM57.8711 58.1697L79.1477 58.1697L79.1477 54.1697L57.8711 54.1697L57.8711 58.1697Z" fill="white"/>
<path d="M2.55273 77.4456H79.1485V17.8711H2.55273V77.4456Z" stroke="white" stroke-width="4" stroke-linecap="round"/>
<path d="M48.1888 17.7909L49.8094 18.9629L52.1536 15.7218L50.533 14.5497L48.1888 17.7909ZM32.3396 3.85938L33.5117 2.23882L32.3396 1.39108L31.1675 2.23882L32.3396 3.85938ZM14.1463 14.5497L12.5257 15.7218L14.8699 18.9629L16.4905 17.7909L14.1463 14.5497ZM50.533 14.5497L33.5117 2.23882L31.1675 5.47993L48.1888 17.7909L50.533 14.5497ZM31.1675 2.23882L14.1463 14.5497L16.4905 17.7909L33.5117 5.47993L31.1675 2.23882Z" fill="white"/>
<path d="M65.209 17.7909L66.8295 18.9629L69.1737 15.7218L67.5531 14.5497L65.209 17.7909ZM49.3598 3.85938L50.5319 2.23882L49.3598 1.39108L48.1877 2.23882L49.3598 3.85938ZM41.0076 7.43193L39.387 8.60403L41.7312 11.8451L43.3518 10.673L41.0076 7.43193ZM67.5531 14.5497L50.5319 2.23882L48.1877 5.47993L65.209 17.7909L67.5531 14.5497ZM48.1877 2.23882L41.0076 7.43193L43.3518 10.673L50.5319 5.47993L48.1877 2.23882Z" fill="white"/>
</svg>
