<svg viewBox="0 0 60 60" xmlns="http://www.w3.org/2000/svg"><g clip-path="url(#a)"><path d="M62.813 18.749a12.129 12.129 0 0 1-10.618 6.431h-.105a6.082 6.082 0 0 1-6.256-5 4.397 4.397 0 0 1 0-2.129c.15-.696.464-1.346.918-1.895a2.5 2.5 0 0 1 2.605-.617 6.396 6.396 0 0 1 3.49 2.535l1.686 2.175.86-2.675c1.163-3.489 1.28-8.49-4.233-12.885-4.315-3.455-10.595-3.582-16.782-.373-4.942 2.594-7.885 6.897-10.722 11.049l-.082.116c-.256.36-.488.675-.756 1.163-.267.488-.605.93-.919 1.384l-.22.326c-1.71 2.407-3.629 5.128-6.164 5.535-3.768.605-7.362-3.303-9.455-7.094L4.7 14.248l-1.28 2.559a13.095 13.095 0 0 1-3.396 4.198A12.793 12.793 0 0 1-4 23.145l2.326 2.43a15.677 15.677 0 0 0 6.06-4.651l.371-.465.407.488c3.14 4.408 7.036 6.606 10.816 6 3.78-.604 6.28-4.174 8.14-6.78l.233-.313.78-1.163c.302-.442.616-.919.918-1.396 2.768-4.082 5.362-7.92 9.711-10.176 1.92-1.058 8.571-4.024 13.619 0a8.654 8.654 0 0 1 3.686 5.908l.082.942-.78-.477a8.143 8.143 0 0 0-2.325-.953 5.675 5.675 0 0 0-1.524-.221 5.42 5.42 0 0 0-3.826 1.605 7.617 7.617 0 0 0-1.71 3.302 7.744 7.744 0 0 0 0 3.722 8.897 8.897 0 0 0 9.072 7.338h.104a14.63 14.63 0 0 0 7.908-2.326 15.444 15.444 0 0 0 5.373-5.814l-2.628-1.396ZM54.928 33.995l-1.325-2.675-1.35 2.675a12.619 12.619 0 0 1-4.488 5.036 12.095 12.095 0 0 1-12.793 0 12.444 12.444 0 0 1-4.49-5.036l-1.325-2.663-1.291 2.663a12.525 12.525 0 0 1-4.5 5.024 12.118 12.118 0 0 1-12.793 0 12.409 12.409 0 0 1-4.455-5.024L4.77 31.332l-1.325 2.663a12.723 12.723 0 0 1-3.047 3.92 12.444 12.444 0 0 1-3.57 2.15l2.325 2.327a15.712 15.712 0 0 0 5.28-4.35l.36-.453.35.453a15.119 15.119 0 0 0 11.63 5.815h.162a15.12 15.12 0 0 0 11.816-5.815l.36-.465.35.465a15.12 15.12 0 0 0 11.699 5.815h.198a14.92 14.92 0 0 0 11.874-5.815l.36-.465.36.465a15.2 15.2 0 0 0 6.583 4.862l2.326-2.478a12.188 12.188 0 0 1-7.931-6.43ZM54.847 48.068l-1.29-2.663-1.338 2.663a12.257 12.257 0 0 1-10.863 6.803h-.116a12.165 12.165 0 0 1-10.757-6.838L29.18 45.37l-1.314 2.663a12.699 12.699 0 0 1-4.524 4.977 12.106 12.106 0 0 1-6.408 1.896 12.152 12.152 0 0 1-10.816-6.885L4.77 45.37l-1.326 2.663a12.793 12.793 0 0 1-3.082 3.966 12.314 12.314 0 0 1-3.616 2.163L-1 56.488a15.49 15.49 0 0 0 5.384-4.373l.36-.465.35.465A14.99 14.99 0 0 0 16.806 58h.22a14.98 14.98 0 0 0 11.805-5.815l.36-.466.361.466A14.98 14.98 0 0 0 41.252 58h.14c2.28.02 4.532-.502 6.57-1.524a15.119 15.119 0 0 0 5.245-4.35l.36-.465.361.465a15.328 15.328 0 0 0 5.978 4.652l2.326-2.419a12.35 12.35 0 0 1-7.385-6.291Z"/></g><defs><clipPath id="a"><path fill="#fff" d="M0 0h60v60H0z"/></clipPath></defs></svg>