<svg viewBox="0 0 24 24" xmlns="http://www.w3.org/2000/svg">
<path d="M12.036 5.339C8.401 5.339 5.445 8.295 5.443 11.928C5.442 13.411 5.877 14.522 6.607 15.684L5.941 18.116L8.435 17.462C9.552 18.125 10.619 18.523 12.03 18.523C15.662 18.523 18.621 15.567 18.622 11.933C18.625 8.292 15.68 5.34 12.036 5.339ZM15.912 14.762C15.747 15.225 14.955 15.647 14.575 15.704C14.234 15.755 13.802 15.776 13.327 15.626C13.039 15.535 12.67 15.413 12.198 15.209C10.211 14.351 8.913 12.35 8.814 12.218C8.715 12.086 8.005 11.144 8.005 10.169C8.005 9.194 8.517 8.715 8.698 8.516C8.88 8.316 9.094 8.266 9.226 8.266L9.606 8.273C9.728 8.279 9.891 8.227 10.052 8.613C10.217 9.01 10.613 9.985 10.663 10.084C10.712 10.183 10.746 10.299 10.679 10.431C10.613 10.563 10.58 10.646 10.481 10.761L10.184 11.108C10.085 11.207 9.982 11.314 10.097 11.512C10.213 11.71 10.61 12.359 11.199 12.884C11.956 13.559 12.594 13.768 12.792 13.867C12.99 13.966 13.106 13.95 13.221 13.817C13.337 13.685 13.716 13.239 13.848 13.04C13.98 12.841 14.112 12.875 14.294 12.941C14.476 13.007 15.45 13.486 15.648 13.586C15.846 13.685 15.978 13.735 16.028 13.817C16.077 13.902 16.077 14.299 15.912 14.762ZM19 0H5C2.239 0 0 2.239 0 5V19C0 21.761 2.239 24 5 24H19C21.762 24 24 21.761 24 19V5C24 2.239 21.762 0 19 0ZM12.033 19.862C10.706 19.862 9.399 19.529 8.241 18.897L4.038 20L5.163 15.892C4.469 14.69 4.104 13.326 4.105 11.928C4.107 7.556 7.663 4 12.033 4C14.154 4.001 16.145 4.827 17.642 6.325C19.139 7.823 19.963 9.816 19.962 11.934C19.96 16.306 16.403 19.862 12.033 19.862Z" />
</svg>
