<svg width="24" height="24" viewBox="0 0 25 25" fill="none" xmlns="http://www.w3.org/2000/svg">
<path d="M11.8046 0.516602C12.2734 0.516602 12.7428 0.516602 13.2116 0.516602C13.6135 0.567126 14.0177 0.602963 14.4166 0.669938C16.9075 1.08647 19.0819 2.15336 20.8755 3.93229C23.5962 6.63183 24.7941 9.91945 24.4492 13.7323C24.2201 16.262 23.2484 18.5145 21.547 20.4062C18.6888 23.584 15.1092 24.9205 10.8634 24.4112C9.14968 24.2056 7.5658 23.6022 6.11057 22.671C5.96487 22.5776 5.84091 22.5629 5.677 22.6164C4.29698 23.0646 2.9146 23.5047 1.53282 23.9465C1.46349 23.9688 1.39182 23.9835 1.30017 24.0076C1.3313 23.9118 1.35187 23.8454 1.37419 23.7796C1.81305 22.4707 2.24838 21.1606 2.69605 19.8546C2.76538 19.6519 2.75598 19.5015 2.62849 19.3194C1.62916 17.8906 0.984096 16.312 0.688586 14.5947C0.602812 14.0959 0.561687 13.5901 0.5 13.0878C0.5 12.6654 0.5 12.2436 0.5 11.8212C0.513512 11.7536 0.53525 11.6872 0.53995 11.6191C0.675073 9.7573 1.20734 8.01421 2.1773 6.42268C4.08137 3.29839 6.83554 1.37846 10.4398 0.703425C10.8904 0.619413 11.3498 0.577701 11.8046 0.516602ZM16.3765 19.2912C16.7654 19.2171 17.1067 19.193 17.4193 19.0861C19.1183 18.5051 19.6952 17.685 19.7446 16.1175C19.7522 15.8684 19.6605 15.7022 19.4349 15.5952C18.5472 15.1728 17.6654 14.7375 16.7748 14.3221C16.2948 14.0983 16.0251 14.1876 15.7073 14.62C15.4852 14.922 15.2661 15.2263 15.0346 15.5212C14.6533 16.0065 14.4042 16.067 13.8391 15.8361C11.8786 15.0348 10.4157 13.6641 9.31594 11.8793C9.06332 11.4693 9.07625 11.3318 9.39878 10.9652C9.62085 10.7132 9.85291 10.4688 10.0621 10.2067C10.2536 9.96645 10.4322 9.70208 10.2947 9.37191C9.87759 8.37081 9.45753 7.37149 9.02278 6.37803C8.96932 6.25642 8.8342 6.11542 8.71317 6.0884C8.0728 5.94623 7.4107 5.91333 6.88078 6.35982C5.74163 7.3192 5.3762 8.5876 5.60122 10.027C5.76043 11.048 6.23982 11.9428 6.81968 12.7888C7.75203 14.1482 8.80482 15.3978 10.0603 16.4741C11.4568 17.6714 13.0788 18.4317 14.8249 18.9457C15.3454 19.0991 15.8859 19.1842 16.3776 19.2917L16.3765 19.2912Z" fill="white"/>
</svg>
