<svg version="1.1" id="Layer_1" xmlns="http://www.w3.org/2000/svg" x="0px"
     y="0px"
     viewBox="0 0 60 60" >
	<path d="M44.8,57.2h-1.2c-3.2,0-6.2-1.1-8.5-3.2l-1.1-1c-2.1-1.9-6-1.9-8.2,0l-1.1,1c-2.3,2-5.3,3.2-8.5,3.2h-1.2
		c-6.6,0-12.1-5-12.1-11c0-3.7,2-7.2,5.4-9.2l0.2-0.1c2.8-1.7,5.2-4,7-6.6l3.2-4.8c2.4-3.5,6.7-5.7,11.2-5.7c4.6,0,9,2.3,11.3,5.9
		l2.9,4.5c1.7,2.7,4.2,5.1,7.1,6.8c3.4,2,5.4,5.5,5.4,9.2C56.9,52.2,51.5,57.2,44.8,57.2z M30,47.8c2.5,0,4.8,0.9,6.6,2.5l1.1,1
		c1.6,1.4,3.7,2.2,5.9,2.2h1.2c4.6,0,8.3-3.3,8.3-7.3c0-2.4-1.4-4.7-3.6-6c-3.4-2-6.3-4.8-8.4-8l-2.9-4.5c-1.7-2.6-4.8-4.2-8.2-4.2
		c-3.3,0-6.4,1.6-8.1,4.1l-3.2,4.8c-2,3.1-4.9,5.7-8.1,7.7l-0.2,0.1c-2.3,1.4-3.6,3.6-3.6,6c0,4,3.7,7.3,8.3,7.3h1.2
		c2.2,0,4.4-0.8,5.9-2.2c0,0,0,0,0,0l1.1-1C25.2,48.7,27.5,47.8,30,47.8z"/>
  <path d="M6.6,29.1C2.9,29.1,0,26.3,0,23s2.9-6.1,6.6-6.1s6.6,2.7,6.6,6.1S10.2,29.1,6.6,29.1z M6.6,20.6c-1.6,0-2.8,1.1-2.8,2.3
		s1.3,2.3,2.8,2.3c1.6,0,2.8-1.1,2.8-2.3S8.1,20.6,6.6,20.6z"/>
  <path d="M53.4,29.1c-3.6,0-6.6-2.7-6.6-6.1s2.9-6.1,6.6-6.1c3.6,0,6.6,2.7,6.6,6.1S57.1,29.1,53.4,29.1z M53.4,20.6
		c-1.6,0-2.8,1.1-2.8,2.3s1.3,2.3,2.8,2.3c1.6,0,2.8-1.1,2.8-2.3S55,20.6,53.4,20.6z"/>
  <path d="M20,15c-3.6,0-6.6-2.7-6.6-6.1s2.9-6.1,6.6-6.1s6.6,2.7,6.6,6.1S23.6,15,20,15z M20,6.6c-1.6,0-2.8,1.1-2.8,2.3
		s1.3,2.3,2.8,2.3c1.6,0,2.8-1.1,2.8-2.3S21.5,6.6,20,6.6z"/>
  <path d="M40,15c-3.6,0-6.6-2.7-6.6-6.1s2.9-6.1,6.6-6.1c3.6,0,6.6,2.7,6.6,6.1S43.7,15,40,15z M40,6.6c-1.6,0-2.8,1.1-2.8,2.3
		s1.3,2.3,2.8,2.3c1.6,0,2.8-1.1,2.8-2.3S41.6,6.6,40,6.6z"/>
</svg>
