<svg viewBox="0 0 37 41" fill="none" xmlns="http://www.w3.org/2000/svg">
<g clip-path="url(#clip0_32957_33238)">
<path d="M17.3192 37.8984C6.57548 39.8513 1.55933 37.9737 1.50911 37.9542L0.697266 40.0159C0.845128 40.0745 3.26114 41.0007 8.24381 41.0007C11.4221 40.9743 14.5918 40.6653 17.7153 40.0773C28.5037 38.1244 34.1197 40.0131 34.1755 40.0299L34.9148 37.943C34.6637 37.8566 28.7548 35.8283 17.3192 37.8984Z" />
<path d="M26.6127 12.6699L24.3809 13.8891V31.5767C25.162 31.5321 25.8985 31.5098 26.5932 31.5042V15.2198L34.9125 20.0212L36.0285 18.1018L26.6127 12.6699Z" />
<path d="M21.6602 11.6328L21.6685 11.6495L22.3409 11.2617L21.6602 11.6328Z" />
<path d="M15.2599 17.9039L22.7311 13.5908L25.7749 11.836V9.38093L25.7776 0.556641H23.5625L23.5597 10.5555L22.3406 11.2613L21.6682 11.6491L14.1523 15.9873L15.2599 17.9039Z" />
<path d="M9.10826 33.3007C9.79642 33.2858 10.5339 33.2514 11.3206 33.1975V23.433L17.3076 26.8896L18.4236 24.973L11.3373 20.8887L9.10547 22.1106L9.10826 33.3007Z" />
<path d="M7.9822 21.527L10.627 20.0009V18.4079L10.6298 11.2129H8.41462L8.41183 18.7232L1.33398 22.8103L2.44155 24.7269L7.9822 21.527Z" />
<path d="M17.3192 33.3147C6.57548 35.2676 1.55933 33.39 1.50911 33.3733L1.00415 34.6538L0.697266 35.4294C0.845128 35.488 3.26114 36.4142 8.24381 36.4142C11.4221 36.3902 14.5919 36.0821 17.7153 35.4936C28.5037 33.5407 34.1197 35.4294 34.1755 35.4462L34.9148 33.3594C34.8897 33.3594 34.792 33.3175 34.6358 33.2701C33.3162 32.8823 27.5189 31.4678 17.3192 33.3147Z" />
</g>
<defs>
<clipPath id="clip0_32957_33238">
<rect width="35.3279" height="40.4444" fill="white" transform="translate(0.695312 0.554688)"/>
</clipPath>
</defs>
</svg>
