<svg width="352" height="78" viewBox="0 0 352 78" fill="none" xmlns="http://www.w3.org/2000/svg">
<path d="M55.66 76H63.08V1.79999H52.48V56.284L7.96 1.79999H0.54V76H11.14V21.516L55.66 76ZM112.85 30.95V11.87H144.65V1.79999H102.25V76H145.71V65.93H112.85V41.02H137.23V30.95H112.85ZM171.734 38.9C171.734 60.524 187.846 77.06 208.834 77.06C229.822 77.06 245.934 60.524 245.934 38.9C245.934 17.276 229.822 0.739996 208.834 0.739996C187.846 0.739996 171.734 17.276 171.734 38.9ZM182.334 38.9C182.334 22.894 193.676 10.81 208.834 10.81C223.992 10.81 235.334 22.894 235.334 38.9C235.334 55.012 223.992 66.99 208.834 66.99C193.676 66.99 182.334 55.012 182.334 38.9ZM340.754 26.074V76H351.354V1.79999H343.934L315.314 47.062L286.694 1.79999H279.274V76H289.874V26.074L311.604 60.1H319.024L340.754 26.074Z" fill="#1D1F22"/>
</svg>
