<svg version="1.1" xmlns="http://www.w3.org/2000/svg" xmlns:xlink="http://www.w3.org/1999/xlink" x="0px" y="0px"
     viewBox="0 0 335 397.1" enable-background="new 0 0 335 397.1" xml:space="preserve">
  <g id="logo-color">
    <g>
      <g>
        <g>
          <defs>
            <path id="SVGID_1_" d="M79.9,171c-0.3,0-0.6,0-0.8,0.1c0,0,0,0,0,0c-12.8,0.6-27.1,5.8-31-2.2c1.8,5.5,6.3,19.3,10.1,31.5
              c3.7,12.1,6.4,24.1,10,26.7c11,8,33.2,0.6,46.3,10.1c12.4,9,9.6,39.7,21,41.1c11.8,1.4,10.6-15.9,14.4-29.5
              c3.3-11.6,8-25.8,19.3-42.6c-4-5.4-10.2-12.1-19.5-18.8c-6.9-5-15.1-8.6-23.5-11.1C106.7,170.7,91.9,170.6,79.9,171z"/>
          </defs>
          <use xlink:href="#SVGID_1_"  overflow="visible" fill="#BCE3F9"/>
          <clipPath id="SVGID_00000155847934027356480070000008380725365848873635_">
            <use xlink:href="#SVGID_1_"  overflow="visible"/>
          </clipPath>
          <g clip-path="url(#SVGID_00000155847934027356480070000008380725365848873635_)">
            <g>
              <polygon fill="#006292" points="79.6,203.1 79.6,215.4 82.5,218.4 83.9,218.4 83.9,200.2 82.5,200.2 						"/>
              <rect x="84.5" y="276.4" fill="#006292" width="8.4" height="18.2"/>
              <polygon fill="#006292" points="79.6,222.2 79.6,234.5 82.5,237.4 83.9,237.4 83.9,219.2 82.5,219.2 						"/>
              <polygon fill="#006292" points="74.4,257.4 74.4,275.6 75.7,275.6 78.7,272.6 78.7,260.3 75.7,257.4 						"/>
              <polygon fill="#006292" points="79.6,165 79.6,177.3 82.5,180.2 83.9,180.2 83.9,162 82.5,162 						"/>
              <rect x="84.5" y="219.2" fill="#006292" width="8.4" height="18.2"/>
              <rect x="84.5" y="257.4" fill="#006292" width="8.4" height="18.2"/>
              <rect x="84.5" y="200.2" fill="#006292" width="8.4" height="18.2"/>
              <rect x="84.5" y="238.3" fill="#006292" width="8.4" height="18.2"/>
              <polygon fill="#006292" points="74.4,238.3 74.4,256.5 75.7,256.5 78.7,253.5 78.7,241.3 75.7,238.3 						"/>
              <polygon fill="#006292" points="79.6,241.3 79.6,253.5 82.5,256.5 83.9,256.5 83.9,238.3 82.5,238.3 						"/>
              <polygon fill="#006292" points="74.4,200.2 74.4,218.4 75.7,218.4 78.7,215.4 78.7,203.1 75.7,200.2 						"/>
              <rect x="84.5" y="181.1" fill="#006292" width="8.4" height="18.2"/>
              <polygon fill="#006292" points="74.4,181.1 74.4,199.3 75.7,199.3 78.7,196.3 78.7,184.1 75.7,181.1 						"/>
              <polygon fill="#006292" points="74.4,219.2 74.4,237.4 75.7,237.4 78.7,234.5 78.7,222.2 75.7,219.2 						"/>
              <polygon fill="#006292" points="74.4,162 74.4,180.2 75.7,180.2 78.7,177.3 78.7,165 75.7,162 						"/>
              <polygon fill="#006292" points="79.6,260.3 79.6,272.6 82.5,275.6 83.9,275.6 83.9,257.4 82.5,257.4 						"/>
              <polygon fill="#006292" points="79.6,279.4 79.6,291.7 82.5,294.6 83.9,294.6 83.9,276.4 82.5,276.4 						"/>
              <polygon fill="#006292" points="79.6,184.1 79.6,196.3 82.5,199.3 83.9,199.3 83.9,181.1 82.5,181.1 						"/>
              <polygon fill="#006292" points="98.6,184.1 98.6,196.3 101.6,199.3 103,199.3 103,181.1 101.6,181.1 						"/>
              <polygon fill="#006292" points="98.6,165 98.6,177.3 101.6,180.2 103,180.2 103,162 101.6,162 						"/>
              <polygon fill="#006292" points="98.6,222.2 98.6,234.5 101.6,237.4 103,237.4 103,219.2 101.6,219.2 						"/>
              <polygon fill="#006292" points="98.6,241.3 98.6,253.5 101.6,256.5 103,256.5 103,238.3 101.6,238.3 						"/>
              <rect x="103.5" y="257.4" fill="#006292" width="8.4" height="18.2"/>
              <rect x="103.5" y="276.4" fill="#006292" width="8.4" height="18.2"/>
              <rect x="103.5" y="238.3" fill="#006292" width="8.4" height="18.2"/>
              <polygon fill="#006292" points="98.6,260.3 98.6,272.6 101.6,275.6 103,275.6 103,257.4 101.6,257.4 						"/>
              <polygon fill="#006292" points="93.5,162 93.5,180.2 94.8,180.2 97.7,177.3 97.7,165 94.8,162 						"/>
              <polygon fill="#006292" points="93.5,238.3 93.5,256.5 94.8,256.5 97.7,253.5 97.7,241.3 94.8,238.3 						"/>
              <polygon fill="#006292" points="93.5,257.4 93.5,275.6 94.8,275.6 97.7,272.6 97.7,260.3 94.8,257.4 						"/>
              <polygon fill="#006292" points="93.5,276.4 93.5,294.6 94.8,294.6 97.7,291.7 97.7,279.4 94.8,276.4 						"/>
              <polygon fill="#006292" points="93.5,219.2 93.5,237.4 94.8,237.4 97.7,234.5 97.7,222.2 94.8,219.2 						"/>
              <polygon fill="#006292" points="98.6,279.4 98.6,291.7 101.6,294.6 103,294.6 103,276.4 101.6,276.4 						"/>
              <polygon fill="#006292" points="93.5,200.2 93.5,218.4 94.8,218.4 97.7,215.4 97.7,203.1 94.8,200.2 						"/>
              <rect x="84.5" y="162" fill="#006292" width="8.4" height="18.2"/>
              <polygon fill="#006292" points="93.5,181.1 93.5,199.3 94.8,199.3 97.7,196.3 97.7,184.1 94.8,181.1 						"/>
              <rect x="103.5" y="219.2" fill="#006292" width="8.4" height="18.2"/>
              <rect x="46.4" y="200.2" fill="#006292" width="8.4" height="18.2"/>
              <rect x="46.4" y="219.2" fill="#006292" width="8.4" height="18.2"/>
              <polygon fill="#006292" points="74.4,276.4 74.4,294.6 75.7,294.6 78.7,291.7 78.7,279.4 75.7,276.4 						"/>
              <rect x="46.4" y="238.3" fill="#006292" width="8.4" height="18.2"/>
              <rect x="46.4" y="162" fill="#006292" width="8.4" height="18.2"/>
              <polygon fill="#006292" points="55.4,257.4 55.4,275.6 56.7,275.6 59.6,272.6 59.6,260.3 56.7,257.4 						"/>
              <polygon fill="#006292" points="55.4,238.3 55.4,256.5 56.7,256.5 59.6,253.5 59.6,241.3 56.7,238.3 						"/>
              <polygon fill="#006292" points="55.4,276.4 55.4,294.6 56.7,294.6 59.6,291.7 59.6,279.4 56.7,276.4 						"/>
              <rect x="46.4" y="257.4" fill="#006292" width="8.4" height="18.2"/>
              <rect x="46.4" y="276.4" fill="#006292" width="8.4" height="18.2"/>
              <polygon fill="#006292" points="41.5,241.3 41.5,253.5 44.4,256.5 45.8,256.5 45.8,238.3 44.4,238.3 						"/>
              <polygon fill="#006292" points="41.5,260.3 41.5,272.6 44.4,275.6 45.8,275.6 45.8,257.4 44.4,257.4 						"/>
              <polygon fill="#006292" points="41.5,279.4 41.5,291.7 44.4,294.6 45.8,294.6 45.8,276.4 44.4,276.4 						"/>
              <polygon fill="#006292" points="41.5,222.2 41.5,234.5 44.4,237.4 45.8,237.4 45.8,219.2 44.4,219.2 						"/>
              <polygon fill="#006292" points="41.5,203.1 41.5,215.4 44.4,218.4 45.8,218.4 45.8,200.2 44.4,200.2 						"/>
              <polygon fill="#006292" points="41.5,165 41.5,177.3 44.4,180.2 45.8,180.2 45.8,162 44.4,162 						"/>
              <polygon fill="#006292" points="55.4,219.2 55.4,237.4 56.7,237.4 59.6,234.5 59.6,222.2 56.7,219.2 						"/>
              <polygon fill="#006292" points="41.5,184.1 41.5,196.3 44.4,199.3 45.8,199.3 45.8,181.1 44.4,181.1 						"/>
              <rect x="46.4" y="181.1" fill="#006292" width="8.4" height="18.2"/>
              <rect x="65.4" y="219.2" fill="#006292" width="8.4" height="18.2"/>
              <rect x="65.4" y="238.3" fill="#006292" width="8.4" height="18.2"/>
              <rect x="65.4" y="257.4" fill="#006292" width="8.4" height="18.2"/>
              <rect x="65.4" y="276.4" fill="#006292" width="8.4" height="18.2"/>
              <rect x="65.4" y="162" fill="#006292" width="8.4" height="18.2"/>
              <polygon fill="#006292" points="60.5,165 60.5,177.3 63.5,180.2 64.9,180.2 64.9,162 63.5,162 						"/>
              <polygon fill="#006292" points="55.4,200.2 55.4,218.4 56.7,218.4 59.6,215.4 59.6,203.1 56.7,200.2 						"/>
              <rect x="65.4" y="200.2" fill="#006292" width="8.4" height="18.2"/>
              <rect x="65.4" y="181.1" fill="#006292" width="8.4" height="18.2"/>
              <polygon fill="#006292" points="55.4,162 55.4,180.2 56.7,180.2 59.6,177.3 59.6,165 56.7,162 						"/>
              <polygon fill="#006292" points="60.5,260.3 60.5,272.6 63.5,275.6 64.9,275.6 64.9,257.4 63.5,257.4 						"/>
              <polygon fill="#006292" points="60.5,279.4 60.5,291.7 63.5,294.6 64.9,294.6 64.9,276.4 63.5,276.4 						"/>
              <polygon fill="#006292" points="60.5,184.1 60.5,196.3 63.5,199.3 64.9,199.3 64.9,181.1 63.5,181.1 						"/>
              <polygon fill="#006292" points="55.4,181.1 55.4,199.3 56.7,199.3 59.6,196.3 59.6,184.1 56.7,181.1 						"/>
              <polygon fill="#006292" points="60.5,203.1 60.5,215.4 63.5,218.4 64.9,218.4 64.9,200.2 63.5,200.2 						"/>
              <polygon fill="#006292" points="60.5,241.3 60.5,253.5 63.5,256.5 64.9,256.5 64.9,238.3 63.5,238.3 						"/>
              <polygon fill="#006292" points="60.5,222.2 60.5,234.5 63.5,237.4 64.9,237.4 64.9,219.2 63.5,219.2 						"/>
              <polygon fill="#006292" points="98.6,203.1 98.6,215.4 101.6,218.4 103,218.4 103,200.2 101.6,200.2 						"/>
              <polygon fill="#006292" points="150.6,219.2 150.6,237.4 151.9,237.4 154.9,234.5 154.9,222.2 151.9,219.2 						"/>
              <polygon fill="#006292" points="150.6,200.2 150.6,218.4 151.9,218.4 154.9,215.4 154.9,203.1 151.9,200.2 						"/>
              <polygon fill="#006292" points="150.6,257.4 150.6,275.6 151.9,275.6 154.9,272.6 154.9,260.3 151.9,257.4 						"/>
              <polygon fill="#006292" points="150.6,181.1 150.6,199.3 151.9,199.3 154.9,196.3 154.9,184.1 151.9,181.1 						"/>
              <polygon fill="#006292" points="155.8,222.2 155.8,234.5 158.7,237.4 160.1,237.4 160.1,219.2 158.7,219.2 						"/>
              <polygon fill="#006292" points="155.8,241.3 155.8,253.5 158.7,256.5 160.1,256.5 160.1,238.3 158.7,238.3 						"/>
              <polygon fill="#006292" points="150.6,162 150.6,180.2 151.9,180.2 154.9,177.3 154.9,165 151.9,162 						"/>
              <polygon fill="#006292" points="155.8,260.3 155.8,272.6 158.7,275.6 160.1,275.6 160.1,257.4 158.7,257.4 						"/>
              <polygon fill="#006292" points="155.8,279.4 155.8,291.7 158.7,294.6 160.1,294.6 160.1,276.4 158.7,276.4 						"/>
              <polygon fill="#006292" points="150.6,238.3 150.6,256.5 151.9,256.5 154.9,253.5 154.9,241.3 151.9,238.3 						"/>
              <rect x="141.6" y="219.2" fill="#006292" width="8.4" height="18.2"/>
              <polygon fill="#006292" points="150.6,276.4 150.6,294.6 151.9,294.6 154.9,291.7 154.9,279.4 151.9,276.4 						"/>
              <rect x="141.6" y="257.4" fill="#006292" width="8.4" height="18.2"/>
              <rect x="141.6" y="276.4" fill="#006292" width="8.4" height="18.2"/>
              <rect x="141.6" y="238.3" fill="#006292" width="8.4" height="18.2"/>
              <rect x="141.6" y="200.2" fill="#006292" width="8.4" height="18.2"/>
              <polygon fill="#006292" points="136.7,165 136.7,177.3 139.7,180.2 141.1,180.2 141.1,162 139.7,162 						"/>
              <rect x="141.6" y="181.1" fill="#006292" width="8.4" height="18.2"/>
              <rect x="141.6" y="162" fill="#006292" width="8.4" height="18.2"/>
              <polygon fill="#006292" points="169.7,238.3 169.7,256.5 171,256.5 173.9,253.5 173.9,241.3 171,238.3 						"/>
              <polygon fill="#006292" points="169.7,257.4 169.7,275.6 171,275.6 173.9,272.6 173.9,260.3 171,257.4 						"/>
              <polygon fill="#006292" points="169.7,219.2 169.7,237.4 171,237.4 173.9,234.5 173.9,222.2 171,219.2 						"/>
              <rect x="160.7" y="162" fill="#006292" width="8.4" height="18.2"/>
              <polygon fill="#006292" points="169.7,276.4 169.7,294.6 171,294.6 173.9,291.7 173.9,279.4 171,276.4 						"/>
              <polygon fill="#006292" points="171,162 169.7,162 169.7,180.2 171,180.2 173.9,177.3 173.9,165 						"/>
              <polygon fill="#006292" points="169.7,200.2 169.7,218.4 171,218.4 173.9,215.4 173.9,203.1 171,200.2 						"/>
              <polygon fill="#006292" points="169.7,181.1 169.7,199.3 171,199.3 173.9,196.3 173.9,184.1 171,181.1 						"/>
              <rect x="160.7" y="257.4" fill="#006292" width="8.4" height="18.2"/>
              <polygon fill="#006292" points="155.8,203.1 155.8,215.4 158.7,218.4 160.1,218.4 160.1,200.2 158.7,200.2 						"/>
              <rect x="160.7" y="181.1" fill="#006292" width="8.4" height="18.2"/>
              <polygon fill="#006292" points="155.8,165 155.8,177.3 158.7,180.2 160.1,180.2 160.1,162 158.7,162 						"/>
              <polygon fill="#006292" points="155.8,184.1 155.8,196.3 158.7,199.3 160.1,199.3 160.1,181.1 158.7,181.1 						"/>
              <rect x="160.7" y="276.4" fill="#006292" width="8.4" height="18.2"/>
              <rect x="160.7" y="238.3" fill="#006292" width="8.4" height="18.2"/>
              <rect x="160.7" y="200.2" fill="#006292" width="8.4" height="18.2"/>
              <rect x="160.7" y="219.2" fill="#006292" width="8.4" height="18.2"/>
              <polygon fill="#006292" points="136.7,260.3 136.7,272.6 139.7,275.6 141.1,275.6 141.1,257.4 139.7,257.4 						"/>
              <polygon fill="#006292" points="117.7,260.3 117.7,272.6 120.6,275.6 122,275.6 122,257.4 120.6,257.4 						"/>
              <polygon fill="#006292" points="117.7,222.2 117.7,234.5 120.6,237.4 122,237.4 122,219.2 120.6,219.2 						"/>
              <rect x="122.6" y="257.4" fill="#006292" width="8.4" height="18.2"/>
              <polygon fill="#006292" points="117.7,279.4 117.7,291.7 120.6,294.6 122,294.6 122,276.4 120.6,276.4 						"/>
              <polygon fill="#006292" points="117.7,184.1 117.7,196.3 120.6,199.3 122,199.3 122,181.1 120.6,181.1 						"/>
              <polygon fill="#006292" points="117.7,165 117.7,177.3 120.6,180.2 122,180.2 122,162 120.6,162 						"/>
              <rect x="122.6" y="276.4" fill="#006292" width="8.4" height="18.2"/>
              <polygon fill="#006292" points="117.7,203.1 117.7,215.4 120.6,218.4 122,218.4 122,200.2 120.6,200.2 						"/>
              <polygon fill="#006292" points="112.5,162 112.5,180.2 113.8,180.2 116.8,177.3 116.8,165 113.8,162 						"/>
              <polygon fill="#006292" points="117.7,241.3 117.7,253.5 120.6,256.5 122,256.5 122,238.3 120.6,238.3 						"/>
              <polygon fill="#006292" points="112.5,276.4 112.5,294.6 113.8,294.6 116.8,291.7 116.8,279.4 113.8,276.4 						"/>
              <rect x="103.5" y="162" fill="#006292" width="8.4" height="18.2"/>
              <polygon fill="#006292" points="112.5,181.1 112.5,199.3 113.8,199.3 116.8,196.3 116.8,184.1 113.8,181.1 						"/>
              <polygon fill="#006292" points="112.5,257.4 112.5,275.6 113.8,275.6 116.8,272.6 116.8,260.3 113.8,257.4 						"/>
              <rect x="103.5" y="181.1" fill="#006292" width="8.4" height="18.2"/>
              <polygon fill="#006292" points="112.5,200.2 112.5,218.4 113.8,218.4 116.8,215.4 116.8,203.1 113.8,200.2 						"/>
              <polygon fill="#006292" points="112.5,238.3 112.5,256.5 113.8,256.5 116.8,253.5 116.8,241.3 113.8,238.3 						"/>
              <polygon fill="#006292" points="112.5,219.2 112.5,237.4 113.8,237.4 116.8,234.5 116.8,222.2 113.8,219.2 						"/>
              <rect x="122.6" y="200.2" fill="#006292" width="8.4" height="18.2"/>
              <polygon fill="#006292" points="136.7,279.4 136.7,291.7 139.7,294.6 141.1,294.6 141.1,276.4 139.7,276.4 						"/>
              <rect x="122.6" y="238.3" fill="#006292" width="8.4" height="18.2"/>
              <polygon fill="#006292" points="131.6,181.1 131.6,199.3 132.9,199.3 135.8,196.3 135.8,184.1 132.9,181.1 						"/>
              <rect x="103.5" y="200.2" fill="#006292" width="8.4" height="18.2"/>
              <polygon fill="#006292" points="136.7,222.2 136.7,234.5 139.7,237.4 141.1,237.4 141.1,219.2 139.7,219.2 						"/>
              <polygon fill="#006292" points="136.7,203.1 136.7,215.4 139.7,218.4 141.1,218.4 141.1,200.2 139.7,200.2 						"/>
              <polygon fill="#006292" points="131.6,200.2 131.6,218.4 132.9,218.4 135.8,215.4 135.8,203.1 132.9,200.2 						"/>
              <polygon fill="#006292" points="136.7,241.3 136.7,253.5 139.7,256.5 141.1,256.5 141.1,238.3 139.7,238.3 						"/>
              <polygon fill="#006292" points="131.6,162 131.6,180.2 132.9,180.2 135.8,177.3 135.8,165 132.9,162 						"/>
              <polygon fill="#006292" points="136.7,184.1 136.7,196.3 139.7,199.3 141.1,199.3 141.1,181.1 139.7,181.1 						"/>
              <rect x="122.6" y="181.1" fill="#006292" width="8.4" height="18.2"/>
              <rect x="122.6" y="162" fill="#006292" width="8.4" height="18.2"/>
              <rect x="122.6" y="219.2" fill="#006292" width="8.4" height="18.2"/>
              <polygon fill="#006292" points="131.6,219.2 131.6,237.4 132.9,237.4 135.8,234.5 135.8,222.2 132.9,219.2 						"/>
              <polygon fill="#006292" points="131.6,238.3 131.6,256.5 132.9,256.5 135.8,253.5 135.8,241.3 132.9,238.3 						"/>
              <polygon fill="#006292" points="131.6,276.4 131.6,294.6 132.9,294.6 135.8,291.7 135.8,279.4 132.9,276.4 						"/>
              <polygon fill="#006292" points="131.6,257.4 131.6,275.6 132.9,275.6 135.8,272.6 135.8,260.3 132.9,257.4 						"/>
            </g>
          </g>
        </g>

        <linearGradient id="SVGID_00000053545892070550358360000000901603956556992158_" gradientUnits="userSpaceOnUse" x1="150.1318" y1="271.7599" x2="80.0363" y2="150.3509">
          <stop  offset="9.000000e-02" style="stop-color:#203C47; stop-opacity: 0.75"/>
          <stop  offset="0.42" style="stop-color:#000000; stop-opacity: 0"/>
        </linearGradient>
        <path fill="url(#SVGID_00000053545892070550358360000000901603956556992158_)" d="M79.9,171c-0.3,0-0.6,0-0.8,0.1c0,0,0,0,0,0
          c-12.8,0.6-27.1,5.8-31-2.2c1.8,5.5,6.3,19.3,10.1,31.5c3.7,12.1,6.4,24.1,10,26.7c11,8,33.2,0.6,46.3,10.1
          c12.4,9,9.6,39.7,21,41.1c11.8,1.4,10.6-15.9,14.4-29.5c3.3-11.6,8-25.8,19.3-42.6c-4-5.4-10.2-12.1-19.5-18.8
          c-6.9-5-15.1-8.6-23.5-11.1C106.7,170.7,91.9,170.6,79.9,171z"/>
      </g>
      <g>
        <g>
          <defs>
            <path id="SVGID_00000073688761985586605620000002579860804594579609_" d="M149.8,248.6c-0.1,0.3-0.1,0.6-0.2,0.8c0,0,0,0,0,0
              c-3.4,12.4-2.8,27.5-11.7,28.8c5.8,0,20.3,0,33.1,0.2c12.6,0.2,24.9,1.3,28.5-1.3c11-8,10.8-31.4,23.9-40.9
              c12.4-9,40.7,3.1,45.5-7.3c5-10.8-11.9-15-23.6-22.8c-10-6.7-22-15.6-34.5-31.5c-6.4,2.2-14.6,6-23.9,12.8
              c-6.9,5-12.8,11.7-17.8,18.9C157.8,222.9,153.1,237,149.8,248.6z"/>
          </defs>
          <use xlink:href="#SVGID_00000073688761985586605620000002579860804594579609_"  overflow="visible" fill="#FDEAD2"/>
          <clipPath id="SVGID_00000072971140162776898650000012419632423678172092_">
            <use xlink:href="#SVGID_00000073688761985586605620000002579860804594579609_"  overflow="visible"/>
          </clipPath>
          <g clip-path="url(#SVGID_00000072971140162776898650000012419632423678172092_)">
            <path fill="#3D7CAA" d="M180.3,263.5c0.4-1.9,4-18.9,4-21.2c0-2.8-3.5-7.4-3.9-7.8c-0.3-0.3-0.9-0.3-1.2,0.1
              c-0.3,0.3-0.3,0.9,0.1,1.2c0.6,0.5,3.3,4.5,3.4,6.5c0,0,0,0.1,0,0.1c0,1.6-2.4,13.3-4,20.8c-0.2,0.7-2.8,9.5-3.5,16.1
              c0.6,0,1.1,0,1.7,0C177.6,272.6,180.3,263.6,180.3,263.5L180.3,263.5z"/>
            <path fill="#0F062F" d="M184.6,259.3c1.3-5.5,3-13.1,2.8-16.3c-0.3-4.1-0.8-8.5-3.5-10c-2.3-1.2-7.2-1.1-9.8-1
              c-0.3,0-0.6,0-0.8,0c-2,0-8.8,2.7-11.2,4.9c-0.4,0.4-0.9,0.8-1.6,1.4c-3,2.6-7.6,6.5-9.2,9.9c-0.8,1.7-1.8,3.2-2.8,4.4
              c-0.2,1.1-0.4,2.2-0.6,3.3c1.5-1.6,3.6-4,5-7c1.5-3.1,6-7,8.8-9.4c0.6-0.5,1.2-1,1.6-1.4c2.2-2,8.6-4.4,10.1-4.4
              c0.2,0,0.5,0,0.8,0c2.1-0.1,7-0.2,8.9,0.8c2.2,1.1,2.5,6.2,2.6,8.6c0,0,0,0.1,0,0.1c0.1,3-1.6,10.6-2.8,15.7
              c-0.3,1.4-0.6,2.6-0.8,3.6c-0.7,3.4-1.7,10.9-2.3,16.7c0.6,0,1.1,0,1.7,0c0.6-5.6,1.5-13,2.2-16.3
              C184,261.9,184.3,260.7,184.6,259.3z"/>
            <path fill="#E08700" d="M157.1,239.1c4.8-2.9,10.3-6.5,10.4-6.5c0.4-0.3,0.5-0.8,0.3-1.2c-0.2-0.4-0.8-0.5-1.2-0.3
              c-0.1,0-5.6,3.6-10.4,6.5c-1.8,1.1-3.7,3.2-5.4,5.6c-0.4,1.6-0.8,3.1-1.2,4.7C151.9,244.5,154.7,240.6,157.1,239.1z"/>
            <path fill="#006292" d="M166.2,230.7c4.6-0.8,12.6-0.9,12.7-0.9c0.1,0,7.4,0.1,8.3,4.1c1.2,4.9,1.9,13.3,1.3,15.9
              c-0.6,2.8-4.7,17.2-4.8,17.4c-0.1,0.5,0.1,0.9,0.6,1.1c0.4,0.1,0.9-0.1,1-0.6c0.2-0.6,4.2-14.7,4.8-17.5
              c0.6-3-0.2-11.9-1.4-16.6c-1.3-5.3-9.6-5.4-10-5.4c-0.4,0-8.2,0.1-13,0.9c-3.7,0.6-9.6,4.1-12.5,5.9c-0.3,0.9-0.7,1.8-1,2.8
              c0.1-0.1,0.2-0.2,0.3-0.3C153.7,236.7,162,231.4,166.2,230.7z"/>
            <path fill="#4E8ECB" d="M193.4,247.9c0-0.8,0-1.7-0.1-2.7c-0.1-6.1-0.2-13.6-3.1-16.6c-3.2-3.3-7.8-4.9-13.2-4.5
              c-5.2,0.4-12.9,2.1-15.2,2.8c-1.1,0.3-3.9,1.7-6.6,3.1c-0.4,0.8-0.7,1.7-1,2.5c3.1-1.7,6.8-3.6,8.1-4c2.2-0.6,9.8-2.4,14.8-2.7
              c4.9-0.3,9,1,11.9,4c2.4,2.5,2.5,9.9,2.6,15.4c0,0.9,0,1.8,0.1,2.7c0.1,4.4-1.8,11.6-5.6,21.4c-1.3,3.2-2.2,6.5-2.8,9.9
              c0.6,0,1.2,0,1.7,0c0.6-3.1,1.5-6.2,2.7-9.2C191.6,260,193.6,252.5,193.4,247.9z"/>
            <path fill="#881002" d="M194.6,261.8c0.6-3.9,1.2-8,2-10.4c1.6-5.2-0.3-17.2-1-20.8c-1-5.6-5.1-7.7-8.1-8.8
              c-3-1.1-12.5-0.1-15.9,0.3c-2.7,0.3-9.5,2-14.3,3.6c-0.3,0.7-0.7,1.4-1,2.1c4.7-1.6,12.7-3.7,15.5-4c4.9-0.5,12.9-1.2,15.2-0.4
              c2.8,1,6.2,2.8,7,7.5c1.3,7.1,2.2,16.1,1,20c-0.8,2.5-1.4,6.7-2,10.7c-0.5,3.3-1,6.4-1.5,8.1c-0.5,1.8-1.5,5.7-2.5,9.5
              c0.6,0,1.2,0,1.7,0c1-3.7,1.9-7.3,2.4-9C193.6,268.3,194.1,265.2,194.6,261.8z"/>
            <path fill="#CA6C00" d="M190.9,267.7c0.1-0.5-0.1-0.9-0.6-1.1c-0.4-0.1-0.9,0.1-1,0.6c0,0-0.6,2.2-1.3,4.1
              c-0.4,1-1.3,4.7-2,7.8c0.6,0,1.2,0,1.7,0c0.7-2.9,1.5-6.2,1.9-7.2C190.3,270,190.9,267.8,190.9,267.7z"/>
            <path fill="#016F3D" d="M199.4,256.2l0-0.1c0.1-0.7,1.4-17.4,0.5-21.4c-0.9-3.9-2.8-11.6-5.9-13.8c-2.9-2-10.4-4.8-13.7-4.9
              c-2.1-0.1-6.7,0.8-10,1.3c-1.6,0.2-2.9,0.4-3.4,0.5c-0.7,0-3.1,0.3-5.9,0.7c-0.3,0.6-0.7,1.2-1,1.8c3.2-0.4,6.2-0.8,6.9-0.8
              c0.5,0,1.8-0.2,3.5-0.5c3.1-0.5,7.8-1.4,9.7-1.3c2.7,0.1,10,2.7,12.8,4.6c2.6,1.8,4.4,9.4,5.2,12.8c0.7,3,0,14.8-0.5,20.8
              c-0.2,0.9-2.9,13.2-3.4,15.6c-0.3,1.3-1.1,4.5-2,7.7c0.7,0,1.2,0,1.7,0c0.9-3.2,1.7-6.2,1.9-7.3
              C196.5,269.3,199.4,256.2,199.4,256.2z"/>
            <path fill="#006292" d="M167.7,221.8c1.9-0.4,6.5-0.9,9-1.2l1-0.1c1.8-0.2,5.3,0.1,5.3,0.1c0.5,0,0.9-0.3,0.9-0.8
              c0-0.5-0.3-0.9-0.8-0.9c-0.1,0-3.7-0.3-5.6-0.1l-1,0.1c-2.5,0.3-7.2,0.8-9.2,1.2c-1.2,0.3-4.8,0.9-8,1.4
              c-0.3,0.6-0.6,1.3-0.9,1.9c0.4-0.1,0.8-0.1,1.2-0.2C162.9,222.7,166.4,222.1,167.7,221.8z"/>
            <path fill="#006292" d="M188.4,216.5c0.5,0.1,0.9-0.2,1-0.7c0.1-0.5-0.2-0.9-0.6-1c-1.1-0.2-10.7-1.7-12.8-1.4
              c-1.4,0.2-5.6,0.7-12.6,0.8c-0.3,0.6-0.7,1.1-1,1.7c5.6-0.1,12-0.6,13.9-0.8C177.6,214.9,184.5,215.6,188.4,216.5z"/>
            <path fill="#E20613" d="M175.4,212.3c3.7-0.1,11.7,1,14.2,2.1c2.5,1.1,5.4,5.2,7.4,8.1c2.1,3.1,3.9,9.7,4.1,11.1
              c0.2,1,0.1,7.7,0,12.1c0,0.5,0.4,0.9,0.8,0.9c0.5,0,0.9-0.4,0.9-0.8c0-1.1,0.2-10.9,0-12.4c-0.3-1.6-2.2-8.4-4.4-11.8
              c-2.3-3.4-5.3-7.5-8.1-8.7c-2.7-1.2-10.9-2.3-14.9-2.3c-1.3,0-3.8,0-6.4,0c-1.1,0-2.3,0-3.4,0c-0.4,0.6-0.7,1.1-1.1,1.7
              c1.5,0,3.1,0,4.5,0C171.6,212.4,174.1,212.4,175.4,212.3z"/>
            <path fill="#E20613" d="M208.9,264c0.2-0.6,3.9-15.7,4-23.1c0.1-7-4.1-16.5-8.3-21.6c-4.2-5.1-9.9-11.3-13.6-12.4
              c-3.4-1-14.5-3.8-20.2-3.8c-0.3,0.4-0.6,0.8-0.9,1.2c-0.1,0.2-0.2,0.3-0.3,0.5c0.3,0,0.5,0,0.7,0c5.2-0.2,16.8,2.7,20.2,3.7
              c2.5,0.7,7.2,5.1,12.8,11.9c3.9,4.7,8,13.9,7.9,20.4c-0.2,7.3-3.8,22.1-4,22.7l0,0.2c-0.5,1.9-1.3,5.2-2,8.8
              c1.1-1.7,2-3.6,2.9-5.6c0.3-1.1,0.5-2.1,0.7-2.8L208.9,264z"/>
            <path fill="#0F062F" d="M214.8,232.8c-1.8-6-6.3-13.1-6.8-13.9c-1.5-2.3-7.5-9.7-12.2-13c-4.3-3-13.7-5.1-19.8-6.4l-1.3-0.3
              c-0.2,0-0.4-0.1-0.6-0.1c-0.4,0.5-0.8,1-1.2,1.5c0.5,0.1,1,0.2,1.5,0.3l1.3,0.3c5.7,1.2,15.2,3.3,19.2,6.1
              c4.3,3,10.2,10.2,11.8,12.6c1.8,2.8,5.3,8.8,6.6,13.5c1.5,5,1,12.7,0.8,16.9c0,0.3,0,0.6-0.1,1c0.6-1.5,1.2-3,1.9-4.5
              C216,242.3,216,236.8,214.8,232.8z"/>
            <path fill="#D08E00" d="M206.2,199.3c-5-3.6-11.3-7.9-15.5-9.4c-1.5-0.5-3.7-1.3-6.1-2c-0.5,0.4-1,0.9-1.5,1.3
              c2.6,0.8,5.3,1.7,7,2.3c4,1.5,10.2,5.7,15.1,9.2c4.3,3.1,11.6,13,13.2,16.8c1.6,3.7,3.8,17.8,3.5,20c0,0.2,0,0.4,0,0.6
              c0.5-0.5,1.1-1,1.7-1.5c-0.2-4.2-2.1-16.1-3.6-19.7C218.3,212.8,210.8,202.6,206.2,199.3z"/>
            <path fill="#E20613" d="M211.9,203.6c0.3,0.3,0.9,0.3,1.2,0c0.3-0.3,0.3-0.9,0-1.2c-0.2-0.2-3.8-4-8.1-6.9
              c-3.7-2.6-13.2-8.2-17.6-10c-0.2,0.1-0.4,0.3-0.5,0.4c-0.3,0.3-0.6,0.6-1,0.8c3.2,1,13.8,7.1,18.1,10.1
              C208.1,199.8,211.8,203.6,211.9,203.6z"/>
            <path fill="#2D6E9D" d="M214.4,200c-3.7-5.3-13-12.1-18-14.8c-1.4-0.8-3.3-1.6-5.3-2.5c-0.5,0.4-1.1,0.8-1.6,1.2
              c2.3,1,4.5,1.9,6.1,2.8c5,2.7,14,9.4,17.5,14.3c3.4,4.8,8.9,18.9,10,23c0.4,1.6,1.5,6.1,2.4,11.3c0.5-0.3,1-0.6,1.6-0.9
              c-0.9-5-1.9-9.3-2.3-10.9C223.6,219.3,218,205.1,214.4,200z"/>
            <path fill="#CA6C00" d="M223.3,212.7c-1.1-2.5-2.1-4.8-2.7-6.3l-0.2-0.6c-1.4-3.9-3.6-10.3-8.7-13.6c-5-3.3-11.6-7.8-11.7-7.9
              c-0.4-0.3-0.9-0.2-1.2,0.2c-0.1,0.2-0.2,0.3-0.1,0.5c0,0.3,0.1,0.5,0.4,0.7c0.1,0,6.7,4.6,11.7,7.9c4.5,3,6.7,9.1,8,12.8
              l0.2,0.7c0.6,1.6,1.6,3.9,2.7,6.4c1.5,3.3,3.2,7.1,3.8,9.3c0.7,2.3,1.8,8.1,2.6,12.3c0.5-0.2,1-0.4,1.6-0.6
              c-0.8-4.2-1.9-9.8-2.6-12.2C226.5,219.9,224.9,216.3,223.3,212.7z"/>
            <path fill="#0F062F" d="M225.3,202.6c-0.7-0.6-1.7-2-3-3.7c-2-2.7-4.6-6.1-7.2-8.5c-4.5-4.2-12-8.2-17-9.2
              c-0.9-0.2-2.1-0.5-3.3-1c-0.6,0.4-1.2,0.8-1.8,1.2c1.7,0.7,3.4,1.2,4.7,1.5c4.7,0.9,12,4.9,16.2,8.8c2.5,2.3,5,5.6,7,8.3
              c1.3,1.8,2.4,3.2,3.1,3.9c1.7,1.7,8.8,13.7,9.8,20.4c0.4,2.4,0.5,6.2,0.6,9.1c0.5,0,1.1-0.1,1.7-0.1c0-2.9-0.2-6.8-0.6-9.3
              C234.6,216.9,227.2,204.4,225.3,202.6z"/>
            <path fill="#D95F06" d="M228.7,200.2c-0.4-0.7-0.8-1.4-1.1-2c-2.8-5.1-6.7-9.6-12.7-14.5c-4.8-3.9-8.6-6.5-11.8-7.8
              c-0.7,0.3-1.4,0.7-2.1,1c3.3,1,7.4,3.6,12.9,8.1c5.8,4.8,9.6,9.1,12.3,14c0.3,0.6,0.7,1.3,1.1,2c3,5.4,7.1,12.8,8.9,20.2
              c0.9,3.6,1.4,8.5,1.7,12.1c0.6,0,1.1,0,1.7,0c-0.2-3.7-0.8-8.8-1.7-12.6C235.9,213.1,231.7,205.6,228.7,200.2z"/>
            <path fill="#E20613" d="M212.9,186.7c1.5,1.3,8.7,9.6,9.7,11.1c0.2,0.4,0.8,0.5,1.2,0.3c0.4-0.3,0.5-0.8,0.3-1.2
              c-1.1-1.7-8.5-10.1-10-11.5c-1.6-1.5-9.6-5.2-13.6-6.2c-0.7-0.2-1.5-0.5-2.4-0.8c-0.6,0.3-1.2,0.7-1.8,1.1
              c1.4,0.6,2.8,1.2,3.8,1.4C203.8,181.8,211.5,185.5,212.9,186.7z"/>
            <path fill="#0069B3" d="M229.9,194.4c-0.4-0.4-0.9-0.8-1.3-1.2c-4.3-4-8.5-8.1-12.3-12.8c-3-2.1-6.3-4-9.9-5.7
              c-0.1-0.1-0.3-0.1-0.4-0.2c-0.7,0.3-1.3,0.6-2,0.9c0.6,0.3,1.1,0.6,1.7,0.8c9.7,4.6,16.8,10.4,21.7,17.6
              c6.5,9.6,9.5,17.1,11.7,28.6c0.7,3.8,1.1,7.8,1.3,10.8c0.6,0,1.1,0.1,1.7,0.1c-0.2-3-0.6-7.2-1.4-11.2
              C238.6,211.2,235.6,203.3,229.9,194.4z"/>
            <path fill="#BF0D0D" d="M214.2,177.8c-0.9-1.1-1.7-2.3-2.6-3.4c-0.8-0.5-1.6-0.9-2.4-1.4c-0.7,0.3-1.3,0.5-2,0.8
              c1.9,1.1,4,2.3,6.4,3.7C213.8,177.6,214,177.7,214.2,177.8z"/>
            <path fill="#E20613" d="M235.6,199c-1.1-0.8-2.2-1.7-3.3-2.6c0.2,0.3,0.5,1.2,0.7,1.5c4.2,7.6,6.7,16.8,7.6,20.4
              c0.8,3.1,2,9.9,3,15c0.6,0,1.2,0.1,1.7,0.1c-1-5.2-2.3-12.3-3.1-15.6C241.5,214.6,239.1,206.1,235.6,199z"/>
            <path fill="#F29100" d="M241.5,203.1c-0.8-0.5-1.6-1.1-2.4-1.7c1.2,3,2.2,6.6,2.7,9.8c1.3,7.4,2.9,16.3,4.1,22.3
              c0.6,0,1.2,0.1,1.7,0.1c-1.3-6-2.9-15.1-4.2-22.7C243,208.6,242.3,205.6,241.5,203.1z"/>
            <path fill="#312782" d="M245.3,205.6c-0.7-0.4-1.4-0.9-2.1-1.3c1.3,4.4,4,19.9,4.9,26c0.1,0.7,0.3,2.3,0.5,3.3
              c0.6,0,1.1,0.1,1.7,0.1c-0.2-1-0.4-2.7-0.5-3.6C249.1,225.3,246.8,211.8,245.3,205.6z"/>
            <path fill="#D88B00" d="M254.2,215.8c-0.1-0.8-0.3-2.8-0.6-5c-0.6-0.3-1.2-0.7-1.8-1c0.3,2.5,0.7,5,0.7,6.1
              c0.1,1.1,0.8,6.5,1.7,12.7c0.2,1.5,0.6,4.1,0.8,5.6c0.6,0,1.1,0,1.7,0c-0.2-1.6-0.6-4.3-0.8-5.8
              C255,222.5,254.3,216.9,254.2,215.8z"/>
            <path fill="#18174B" d="M258.4,224.7c0.4-3.3,0.2-7.5-0.4-11.5c-0.6-0.3-1.2-0.7-1.9-1c0.8,4.2,1.1,8.7,0.6,12.3
              c-0.3,2.4-0.1,6.6,0.3,9.6c0.6,0,1.1,0,1.7-0.1C258.4,231.1,258.2,226.9,258.4,224.7z"/>
            <path fill="#387B23" d="M262.1,215.4c-0.5-0.3-1.1-0.6-1.6-0.9c0,0.2,0,0.4,0,0.6c-0.3,4.1-0.6,12.9-0.3,18.9
              c0.6-0.1,1.1-0.1,1.7-0.2C261.5,228.6,261.6,220.7,262.1,215.4z"/>
            <path fill="#D6490C" d="M266.5,218c0,0-0.1-0.1-0.1-0.1c-0.3-0.2-0.6-0.4-0.8-0.6c-0.2-0.1-0.5-0.3-0.7-0.4
              c0.7,4.1,1.1,10.1,1.4,15.3c0.6-0.3,1.1-0.5,1.6-0.9c-0.2-4.4-0.6-9.6-1.1-13.3C266.7,218.1,266.6,218,266.5,218z"/>
            <path fill="#0F062F" d="M270.1,225.6c-0.1-1.5-0.2-3-0.4-4.5c-0.3-0.5-0.7-1-1.2-1.5l0,0c-0.2-0.2-0.4-0.4-0.6-0.6c0,0,0,0,0,0
              c0,0-0.1-0.1-0.1-0.1c0.3,2.2,0.4,4.5,0.6,6.8c0.1,1.4,0.2,2.8,0.4,4.2c0.6-0.6,1.2-1.3,1.5-2.2
              C270.2,227,270.2,226.3,270.1,225.6z"/>
            <path fill="#E20613" d="M176.6,240.7c-2.2-2.5-4.3-1.4-6.1-0.4c-0.1,0.1-0.3,0.2-0.4,0.2c-1.7,0.9-6.9,6.1-11.7,11.1l-0.7,0.7
              c-2,2-3.5,5-4.1,8.1c-0.3,1.4-1,3.6-1.7,5.6c-0.7,2-1.1,3.3-1.2,3.9c-0.1,1-2.9,7.3-4.1,9.2c0.6,0,1.3,0,1.9,0
              c1.4-2.6,3.7-7.8,3.8-9c0.1-0.5,0.6-2.1,1.1-3.6c0.7-2,1.4-4.3,1.7-5.8c0.6-2.7,2-5.5,3.7-7.2l0.7-0.7
              c2.4-2.4,9.6-9.9,11.3-10.8c0.2-0.1,0.3-0.2,0.5-0.2c1.9-1,2.8-1.4,4,0.1c1.2,1.3,0,5.6-1.6,9c-0.6,1.3-3,5.9-5.9,9.5
              c-3,3.7-5.9,9.4-6.7,12c-0.7,2.1-0.4,4.7,0,6.8c0.6,0,1.1,0,1.7,0c-0.4-2-0.7-4.5-0.1-6.3c0.8-2.5,3.7-8.1,6.4-11.5
              c3-3.7,5.4-8.4,6.1-9.8C176.4,249.1,178.8,243.2,176.6,240.7z"/>
            <path fill="#F6A500" d="M181,242.1c-0.1-2-0.3-4.1-2-5.6c-1.7-1.5-3.5-2.8-6.5-1c-1.4,0.9-4.4,3.2-7.2,5.5
              c-2.1,1.7-4,3.2-4.9,3.8c-0.3,0.2-8.6,5.8-9.6,10.3c-0.8,3.5-2.2,10.4-2.3,11c-0.8,4.9-5.3,12.2-6,12.9c0.7,0,1.4,0,2.1,0
              c1.8-2.5,4.8-8.4,5.6-12.6l0-0.1c0-0.1,1.5-7.4,2.2-10.9c0.6-2.8,5.8-7.2,8.8-9.2c1-0.6,2.8-2.1,5-3.9c2.7-2.1,5.7-4.6,7-5.4
              c1.9-1.2,2.9-0.7,4.6,0.8c1.1,1,1.4,2.3,1.5,4.4c0.1,1.6-1,8.9-1.4,11.7c-0.3,1-4.6,15.7-6.5,21.5c-0.4,1.2-0.6,2.5-0.8,3.7
              c0.6,0,1.1,0,1.7,0c0.2-1.1,0.4-2.2,0.7-3.2c2-6.1,6.5-21.5,6.6-21.6l0-0.1C179.7,253.8,181.1,244.2,181,242.1z"/>
            <g>
              <path fill="#9B1006" d="M159.1,274.7c0.1-0.5,0.3-1.1,0.4-1.7c0.5-2.1,1-4.7,2-6.5c3.3-6.1,3.7-6.6,5.1-8.4
                c0.5-0.6,1-1.3,1.8-2.4l0.5-0.6c1.1-1.5,2-2.7,4-6.8c0.8-1.6,1.4-3.3,0.4-4.2c-0.3-0.3-1.3-1-4.4,1.4c-1,0.8-4,3.8-5.4,5.4
                c-1.3,1.5-1.4,1.7-3,5.2l-0.5,1c-0.2,0.4,0,0.9,0.4,1.2c0.4,0.2,0.9,0,1.1-0.4l0.5-1c1.6-3.4,1.6-3.5,2.8-4.8
                c1.3-1.5,4.3-4.5,5.2-5.2c1-0.8,1.7-1.2,2.1-1.3c-0.1,0.3-0.2,0.9-0.7,1.9c-1.9,3.9-2.7,5-3.8,6.5l-0.5,0.6
                c-0.8,1.1-1.3,1.8-1.8,2.3c-1.4,1.8-1.9,2.4-5.3,8.7c-1.1,2-1.7,4.7-2.1,6.9c-0.1,0.6-0.3,1.2-0.4,1.7
                c-0.3,1.4-0.4,3.3-0.4,4.8c0.6,0,1.2,0,1.7,0C158.7,277.7,158.8,276,159.1,274.7z"/>
              <path fill="#291F6C" d="M154.5,277.6l0.3-0.7c0.9-2.4,2.1-5.4,2.4-7.8l0.1-1.1c0.3-2.2,0.6-4,0.8-6.5c0.1-0.5-0.3-0.9-0.8-1
                c-0.5-0.1-0.9,0.3-0.9,0.8c-0.3,2.5-0.5,4.3-0.8,6.5l-0.1,1.1c-0.3,2.3-1.4,5.1-2.3,7.4l-0.3,0.7c-0.3,0.7-0.5,1.5-0.7,2.2
                c0.6,0,1.2,0,1.8,0C154.1,278.6,154.3,278.1,154.5,277.6z"/>
            </g>
            <path fill="#0F062F" d="M208.5,233.9c-0.1-0.5-0.2-1-0.3-1.5c-0.3-2.2-1.4-4.8-2.4-6.5c-1-1.8-5.5-6-6.1-6.5c0,0,0,0-0.1,0
              c-1.1-1.8-2.2-3.5-3.1-4.7c-3.4-4.3-9.4-5.9-11.5-6c-0.9,0-4.1-0.3-7.5-0.6c-3.5-0.3-7.2-0.6-9.7-0.8c-0.4,0.5-0.7,1.1-1.1,1.6
              c2.3,0.1,6.9,0.5,10.7,0.8c3.6,0.3,6.6,0.5,7.6,0.6c2.2,0.1,7.4,1.7,10.3,5.4c3.2,4,7.4,12.6,7.6,14.1l0.1,0.5
              c1.4,11.7,1.2,14.8,1,15.6c-0.3,1-1.4,5.7-2.7,11.1c-1.7,7-3.7,15.8-4.2,17.4c-0.2,0.7-0.6,2.5-1.1,4.8c0.4,0,0.6,0,0.6,0
              c0.4,0,0.8,0,1.1-0.1c0.4-2.1,0.8-3.6,0.9-4.2c0.5-1.6,2.5-10,4.2-17.5c1.2-5.2,2.4-10.1,2.7-11.1c0.4-1.6,0.1-6.9-0.9-16.2
              l-0.1-0.5c-0.1-0.8-0.9-2.8-2.1-5.1c0.9,0.9,1.6,1.8,1.9,2.3c1,1.8,1.9,4.2,2.1,5.9c0.1,0.7,0.2,1.2,0.4,1.7
              c0.3,1.1,0.6,2.3,0.6,5.2c0,5.5-0.7,10.8-2.2,15.9c-1.7,6-2.1,7.4-2.1,7.4c-0.1,0.5,0.2,0.9,0.6,1c0.1,0,0.1,0,0.2,0
              c0.4,0,0.7-0.3,0.8-0.7c0,0,0.4-1.4,2.1-7.4c1.5-5.2,2.3-10.7,2.3-16.4C209.1,236.3,208.8,235,208.5,233.9z"/>
            <g>
              <path fill="#881002" d="M202.9,275.7c0.2-4.1,0.8-8.1,0.8-8.1c0.1-0.5-0.2-0.9-0.7-1c-0.5-0.1-0.9,0.3-1,0.7
                c0,0.3-0.8,5.3-0.9,10.1C201.8,276.9,202.3,276.4,202.9,275.7z"/>
            </g>
            <g>
              <path fill="#006292" d="M215.7,224.4c-1.8-4.1-7.6-13-9.5-14.7l-0.4-0.4c-2-1.9-6.5-6.3-12.5-8.8c-6.3-2.6-14.8-3.9-15.2-4
                c-0.5-0.1-0.9,0.3-1,0.7c-0.1,0.5,0.3,0.9,0.7,1c0.1,0,8.7,1.3,14.8,3.8c5.7,2.4,10.1,6.7,12,8.5l0.4,0.4
                c1.5,1.5,7.3,10.1,9.1,14.2c1.5,3.4,2.7,13,3.3,17.6c0,0.3,0.1,0.6,0.1,0.9c0.5-0.7,0.9-1.5,1.5-2.2
                C218.4,236.2,217.3,227.8,215.7,224.4z"/>
            </g>
            <g>
              <path fill="#9B1006" d="M232.9,233.8c-0.1-4.4-1.1-12.1-2.3-15.4c-0.9-2.6-3.3-6.3-5.3-9.3c-1.1-1.6-2.1-3.2-2.3-3.8
                c-0.2-0.4-0.7-0.6-1.1-0.5c-0.4,0.2-0.6,0.7-0.5,1.1c0.3,0.7,1.2,2.2,2.4,4.1c1.8,2.8,4.2,6.6,5.1,8.9
                c1.1,3.2,2.2,11,2.2,15.1c0,0,0.1,0,0.1,0C231.8,234,232.4,233.9,232.9,233.8z"/>
            </g>
            <path fill="#D796C2" d="M252,223.4c-0.4-3.1-0.6-4.2-1.2-6.9c-0.6-2.9-1.4-6.3-2-8.4c-0.7-0.4-1.4-0.8-2.1-1.2
              c0.3,1.4,1.5,6.1,2.4,10c0.6,2.6,0.7,3.7,1.2,6.7c0.3,1.9,0.8,5.7,1.5,10.3c0.6,0,1.2,0,1.7,0.1
              C252.8,229.2,252.2,225.4,252,223.4z"/>
            <path fill="#9A5400" d="M219.7,227.6c-1.2-6.8-6.4-17.7-12.1-22.5c-5.4-4.6-18.2-12.8-23.2-13.9c-0.7-0.1-1.5-0.4-2.4-0.6
              c-0.5,0.5-0.9,0.9-1.4,1.4c1.3,0.4,2.5,0.7,3.5,0.9c1.5,0.3,4.1,1.5,6.9,3.1c-0.9-0.1-1.8-0.2-2.7-0.3c-1.7-0.1-5.6-1.7-8.5-3
              c-0.4,0.4-0.8,0.9-1.3,1.3c3.4,1.4,7.5,3.2,9.6,3.3c2.6,0.2,6.1,0.8,6.9,1c4.3,2.6,8.7,5.7,11.5,8c5.4,4.6,10.4,15,11.5,21.5
              c0.8,4.7,1.5,9.3,1.4,13c0.5-0.7,1.1-1.3,1.7-2C221,235.7,220.4,231.9,219.7,227.6z"/>
            <path fill="#3D6315" d="M263.2,233.4c0,0,0.1,0,0.1,0h0c0.5-0.1,1-0.2,1.5-0.4c0-0.5,0-1.9,0-2.2c0-2.8-0.4-10-0.4-10.3
              c0-0.5-0.4-0.8-0.9-0.8c-0.5,0-0.8,0.4-0.8,0.9c0,0.1,0.4,7.5,0.4,10.2C263.1,231.3,263.2,232.8,263.2,233.4z"/>
            <path fill="#CA6C00" d="M167.3,279.2c0.1-2.6,0.7-6.8,1.4-8.9c0.5-1.4,1.6-3,2.6-4.4c0.6-0.9,1.2-1.7,1.6-2.4
              c0.5-0.9,3-7.6,3.3-8.3c0.2-0.4-0.1-0.9-0.5-1.1c-0.4-0.2-0.9,0.1-1.1,0.5c-1.1,2.9-2.9,7.5-3.2,8.1c-0.3,0.6-0.9,1.4-1.5,2.2
              c-1.1,1.5-2.3,3.2-2.8,4.9c-0.7,2.1-1.4,6.4-1.4,9.4C166.2,279.1,166.8,279.1,167.3,279.2z"/>
          </g>
        </g>

        <linearGradient id="SVGID_00000047020966584873023730000006623479161841830838_" gradientUnits="userSpaceOnUse" x1="267.308" y1="212.9041" x2="130.1804" y2="242.0514">
          <stop  offset="9.000000e-02" style="stop-color:#493E39; stop-opacity: 0.75"/>
          <stop  offset="0.42" style="stop-color:#000000; stop-opacity: 0"/>
        </linearGradient>
        <path fill="url(#SVGID_00000047020966584873023730000006623479161841830838_)" d="M149.8,248.6c-0.1,0.3-0.1,0.6-0.2,0.8
          c0,0,0,0,0,0c-3.4,12.4-2.8,27.5-11.7,28.8c5.8,0,20.3,0,33.1,0.2c12.6,0.2,24.9,1.3,28.5-1.3c11-8,10.8-31.4,23.9-40.9
          c12.4-9,40.7,3.1,45.5-7.3c5-10.8-11.9-15-23.6-22.8c-10-6.7-22-15.6-34.5-31.5c-6.4,2.2-14.6,6-23.9,12.8
          c-6.9,5-12.8,11.7-17.8,18.9C157.8,222.9,153.1,237,149.8,248.6z"/>
      </g>
      <g>
        <g>
          <defs>
            <path id="SVGID_00000154427452254929463160000006452360077326054786_" d="M132,80.6c-0.1-0.3-0.2-0.5-0.3-0.8c0,0,0,0,0,0
              c-4.6-12-13.9-23.9-7.5-30.2c-4.7,3.4-16.4,11.9-26.9,19.3c-10.3,7.2-20.9,13.6-22.3,17.8c-4.2,13,9.7,31.7,4.7,47.1
              C75,148.4,45,155.2,47.2,166.4c2.3,11.6,18.4,5.1,32.5,4.6c12-0.5,27-0.4,46.4,5.2c3.9-5.5,8.3-13.4,11.9-24.4
              c2.6-8.1,3.5-17,3.3-25.8C140.6,106,136.2,91.9,132,80.6z"/>
          </defs>
          <use xlink:href="#SVGID_00000154427452254929463160000006452360077326054786_"  overflow="visible" fill="#FACDB3"/>
          <clipPath id="SVGID_00000101072865057014714160000010068326903473776557_">
            <use xlink:href="#SVGID_00000154427452254929463160000006452360077326054786_"  overflow="visible"/>
          </clipPath>
          <g clip-path="url(#SVGID_00000101072865057014714160000010068326903473776557_)">
            <path fill="#E20613" d="M117.5,97.2c-0.1-0.1-0.2-0.3-0.3-0.4c0.8,0.2,1.6,0.3,2.5,0.3c5.7,0,10.3-4.7,10.2-10.3
              c0-0.9-0.1-1.7-0.3-2.5c0.2,0.1,0.3,0.2,0.5,0.3c0.1,0,0.1,0.1,0.2,0.1c0.2,0.1,0.3,0.2,0.5,0.3c0.2,0.1,0.5,0.3,0.8,0.4
              c0.1,0,0.1,0.1,0.2,0.1c0.1,0.1,0.2,0.1,0.4,0.2c0,0.4,0.1,0.8,0.1,1.2c0,6.9-5.5,12.5-12.4,12.5c-0.4,0-0.8,0-1.2-0.1
              c-0.1-0.1-0.1-0.2-0.2-0.4c0,0,0-0.1-0.1-0.1c-0.1-0.3-0.3-0.5-0.4-0.8c-0.1-0.1-0.2-0.3-0.2-0.4
              C117.6,97.4,117.6,97.3,117.5,97.2z M97.3,124.5L97.3,124.5c0,0-0.1,0-0.1,0c-8.2,0-14.9-6.6-14.9-14.7c0,0,0-0.1,0-0.1v0
              c-0.7,0.2-1.4,0.5-2.1,0.7c0.3,9,7.6,16.2,16.6,16.4C96.9,125.9,97.1,125.2,97.3,124.5z M100.6,131.4
              c0.4-9.9,8.4-17.9,18.3-18.5c-0.1-0.5-0.1-0.9-0.2-1.4c0-0.2,0-0.5-0.1-0.7c-10.9,0.6-19.7,9.5-20.2,20.4c0.3,0,0.5,0,0.8,0.1
              C99.7,131.3,100.1,131.3,100.6,131.4z M98.5,121.6c0-0.1,0-0.1,0.1-0.2c0.1-0.3,0.3-0.5,0.4-0.8c0.1-0.2,0.2-0.3,0.3-0.4
              c0-0.1,0.1-0.1,0.1-0.2c0.1-0.2,0.2-0.3,0.3-0.5c0,0,0,0,0,0c-0.8,0.2-1.6,0.3-2.5,0.3c-5.7,0-10.3-4.6-10.3-10.2
              c0-0.9,0.1-1.7,0.3-2.5c0,0,0,0,0,0c-0.1,0.1-0.3,0.2-0.4,0.3c-0.1,0.1-0.2,0.1-0.3,0.2c-0.1,0.1-0.3,0.2-0.4,0.2
              c-0.3,0.1-0.5,0.3-0.8,0.4c0,0-0.1,0-0.1,0.1c-0.1,0.1-0.3,0.1-0.4,0.2c0,0.4-0.1,0.8-0.1,1.2c0,6.9,5.6,12.4,12.5,12.4
              c0.4,0,0.8,0,1.2-0.1C98.4,121.9,98.4,121.8,98.5,121.6z M119.8,101.6c0,0-0.1,0-0.1,0c0.2,0.7,0.5,1.4,0.6,2.1
              c9-0.3,16.2-7.6,16.4-16.5c-0.7-0.2-1.4-0.4-2.1-0.6c0,0,0,0.1,0,0.1C134.5,94.9,127.9,101.6,119.8,101.6z M66.4,87.1
              c0-4.3,3.5-7.9,7.8-7.9c4.3,0,7.9,3.5,7.9,7.8c0,4.3-3.5,7.9-7.8,7.9C69.9,95,66.4,91.4,66.4,87.1z M68.5,87.1
              c0,3.2,2.6,5.7,5.8,5.7c3.2,0,5.7-2.6,5.7-5.8c0-3.2-2.6-5.7-5.8-5.7C71,81.3,68.5,83.9,68.5,87.1z M119.7,94.7
              c-4.3,0-7.9-3.5-7.9-7.8c0-4.3,3.5-7.9,7.8-7.9c4.3,0,7.9,3.5,7.9,7.8C127.6,91.1,124.1,94.7,119.7,94.7z M125.4,86.8
              c0-3.2-2.6-5.7-5.8-5.7c-3.2,0-5.7,2.6-5.7,5.8c0,3.2,2.6,5.7,5.8,5.7C122.9,92.5,125.4,89.9,125.4,86.8z M98.1,88.9
              c0,0.5-0.1,0.9-0.1,1.4c0,0,0,0,0,0c9.9,0.4,17.9,8.4,18.5,18.3c0,0,0,0,0,0c0.5-0.1,1-0.1,1.5-0.2c0.2,0,0.4,0,0.7-0.1
              c-0.7-10.9-9.5-19.7-20.4-20.2C98.1,88.4,98.1,88.7,98.1,88.9z M95.8,85.7c0-0.2,0-0.5,0.1-0.7c0-0.5,0.1-0.9,0.1-1.4l0,0
              c-9.9-0.4-17.9-8.4-18.5-18.3v0c-0.4,0.1-0.9,0.1-1.3,0.2c-0.3,0-0.5,0.1-0.8,0.1C76,76.4,84.8,85.2,95.8,85.7z M74.3,97.3
              c-0.9,0-1.7-0.1-2.5-0.3c0.1,0.1,0.2,0.3,0.3,0.4c0.1,0.1,0.1,0.2,0.2,0.3c0.1,0.1,0.2,0.3,0.2,0.4c0.1,0.3,0.3,0.5,0.4,0.8
              c0,0,0,0.1,0.1,0.1c0.1,0.1,0.1,0.2,0.2,0.4c0.4,0,0.8,0.1,1.2,0.1c6.9,0,12.4-5.6,12.4-12.5c0-0.4,0-0.8-0.1-1.2
              c-0.1-0.1-0.2-0.1-0.4-0.2c-0.1,0-0.1-0.1-0.2-0.1c-0.3-0.1-0.5-0.3-0.8-0.4c-0.2-0.1-0.3-0.2-0.5-0.3c-0.1,0-0.1-0.1-0.2-0.1
              c-0.2-0.1-0.3-0.2-0.5-0.3c0.2,0.8,0.3,1.6,0.3,2.5C84.6,92.7,80,97.3,74.3,97.3z M89.2,109.7c0-4.3,3.5-7.9,7.8-7.9
              c4.3,0,7.9,3.5,7.9,7.8c0,4.3-3.5,7.9-7.8,7.9C92.8,117.5,89.2,114,89.2,109.7z M91.3,109.7c0,3.2,2.6,5.7,5.8,5.7
              c3.2,0,5.7-2.6,5.7-5.8c0-3.2-2.6-5.7-5.8-5.7C93.9,103.9,91.3,106.5,91.3,109.7z M74.3,101.9c0,0-0.1,0-0.1,0
              c0.2,0.7,0.5,1.4,0.6,2.1c9-0.3,16.2-7.6,16.4-16.5c-0.7-0.2-1.4-0.4-2.1-0.6c0,0,0,0.1,0,0.1C89.1,95.1,82.5,101.8,74.3,101.9
              z M96.9,94.8L96.9,94.8c0.1,0,0.1,0,0.1,0c8.2,0,14.9,6.6,14.9,14.7c0,0,0,0.1,0,0.1v0c0.7-0.2,1.4-0.5,2.1-0.7
              c-0.3-9-7.6-16.2-16.6-16.4C97.3,93.4,97.1,94.1,96.9,94.8z M95.7,97.6c0,0,0,0.1-0.1,0.1c-0.1,0.3-0.3,0.5-0.4,0.8
              C95.1,98.7,95,98.8,95,99c-0.1,0.1-0.1,0.2-0.2,0.3c-0.1,0.1-0.2,0.3-0.3,0.4c0,0,0,0,0,0c0.8-0.2,1.6-0.3,2.5-0.3
              c5.7,0,10.3,4.6,10.3,10.2c0,0.9-0.1,1.7-0.3,2.5c0,0,0,0,0,0c0.2-0.1,0.3-0.2,0.5-0.3c0.1,0,0.1-0.1,0.2-0.1
              c0.1-0.1,0.3-0.2,0.5-0.3c0.2-0.1,0.5-0.3,0.7-0.4c0.1,0,0.1-0.1,0.2-0.1c0.1-0.1,0.2-0.1,0.3-0.2c0-0.4,0.1-0.8,0.1-1.2
              c0-6.9-5.6-12.4-12.5-12.4c-0.4,0-0.8,0-1.2,0.1C95.8,97.4,95.7,97.5,95.7,97.6z M93.6,87.9c-0.4,9.9-8.4,17.9-18.3,18.5
              c0.1,0.5,0.1,0.9,0.2,1.4c0,0.2,0,0.5,0.1,0.7c10.9-0.7,19.7-9.5,20.2-20.4c-0.2,0-0.4,0-0.6,0C94.6,88,94.1,88,93.6,87.9z
               M118.4,65.3c-10.9,0.7-19.7,9.5-20.2,20.4c0.3,0,0.5,0,0.8,0.1c0.4,0,0.9,0.1,1.3,0.1c0.4-9.9,8.4-17.9,18.3-18.5
              c-0.1-0.5-0.1-0.9-0.2-1.4C118.4,65.8,118.4,65.6,118.4,65.3z M119.6,74.4c-6.9,0-12.4,5.6-12.4,12.5c0,0.4,0,0.8,0.1,1.2
              c0.1,0.1,0.3,0.1,0.4,0.2c0,0,0.1,0,0.1,0.1c0.3,0.1,0.5,0.3,0.8,0.4c0.1,0.1,0.3,0.2,0.4,0.2c0.1,0.1,0.2,0.1,0.3,0.2
              c0.1,0.1,0.3,0.2,0.4,0.3c-0.2-0.8-0.3-1.6-0.3-2.5c0-5.7,4.6-10.3,10.2-10.3c0.9,0,1.7,0.1,2.5,0.3c-0.1-0.2-0.2-0.3-0.3-0.5
              c0-0.1-0.1-0.1-0.1-0.2c-0.1-0.1-0.2-0.3-0.3-0.4c-0.1-0.2-0.3-0.5-0.4-0.8c0,0-0.1-0.1-0.1-0.1c-0.1-0.1-0.1-0.2-0.2-0.4
              C120.4,74.4,120,74.4,119.6,74.4z M102.7,86.4c0.7,0.2,1.4,0.4,2.1,0.6c0,0,0-0.1,0-0.1c0-8.2,6.6-14.9,14.7-14.9
              c0,0,0.1,0,0.1,0c-0.2-0.7-0.5-1.4-0.6-2.1C110.1,70.2,102.9,77.4,102.7,86.4z M120.5,60.7c0.1,0.5,0.1,0.9,0.2,1.4
              c0,0.2,0,0.5,0.1,0.7c10.9-0.6,19.7-9.5,20.2-20.4c-0.2,0-0.4,0-0.6,0c-0.5,0-1-0.1-1.5-0.2C138.3,52.1,130.4,60.2,120.5,60.7z
               M116.2,63.1C116.2,63.1,116.2,63.1,116.2,63.1c0.5-0.1,1-0.1,1.5-0.2c0.2,0,0.4,0,0.7-0.1c-0.7-10.9-9.5-19.7-20.4-20.2
              c0,0.2,0,0.5-0.1,0.7c0,0.5-0.1,0.9-0.1,1.4c0,0,0,0,0,0C107.6,45.3,115.6,53.2,116.2,63.1z M112,132.3c0-4.3,3.5-7.9,7.8-7.9
              c4.3,0,7.9,3.5,7.9,7.8c0,4.3-3.5,7.9-7.8,7.9C115.6,140.1,112.1,136.6,112,132.3z M114.2,132.3c0,3.2,2.6,5.7,5.8,5.7
              c3.2,0,5.7-2.6,5.7-5.8c0-3.2-2.6-5.7-5.8-5.7C116.7,126.5,114.2,129.1,114.2,132.3z M78.6,115.3c-0.5-1.5-1.5-3-1.5-4.6
              c-0.4,0.1-0.1,0.1-0.6,0.2c-0.3,0-0.5,0.1-0.8,0.1c0.7,10.9,9.5,19.7,20.4,20.2c0-0.2,0-0.5,0.1-0.7c0-0.5,0.1-0.9,0.1-1.4h0
              C87.9,128.6,80.9,123,78.6,115.3z M74.5,124.6c4.3,0,7.9,3.5,7.9,7.8c0,4.3-3.5,7.9-7.8,7.9c-4.3,0-7.9-3.5-7.9-7.8
              C66.6,128.2,70.1,124.6,74.5,124.6z M68.8,132.5c0,3.2,2.6,5.7,5.8,5.7c3.2,0,5.7-2.6,5.7-5.8c0-3.2-2.6-5.7-5.8-5.7
              C71.3,126.8,68.7,129.3,68.8,132.5z M118.2,153.8c0.2,0,0.4,0,0.7-0.1c-0.7-10.9-9.5-19.7-20.4-20.2c0,0.2,0,0.5-0.1,0.7
              c0,0.5-0.1,0.9-0.1,1.4h0c9.9,0.4,17.9,8.4,18.5,18.3v0C117.2,153.9,117.7,153.9,118.2,153.8z M142.5,101.5
              c4.3,0,7.9,3.5,7.9,7.8c0,4.3-3.5,7.9-7.8,7.9c-4.3,0-7.9-3.5-7.9-7.8C134.6,105.1,138.1,101.5,142.5,101.5z M142.5,103.6
              c-3.2,0-5.7,2.6-5.7,5.8c0,3.2,2.6,5.7,5.8,5.7c3.2,0,5.7-2.6,5.7-5.8C148.2,106.2,145.6,103.6,142.5,103.6z M132.5,107
              c-0.1,0.1-0.3,0.2-0.4,0.3c-0.1,0.1-0.2,0.1-0.3,0.2c-0.1,0.1-0.3,0.2-0.4,0.2c-0.3,0.1-0.5,0.3-0.8,0.4c0,0-0.1,0-0.1,0.1
              c-0.1,0.1-0.3,0.1-0.4,0.2c0,0.4-0.1,0.8-0.1,1.2c0,6.9,5.6,12.4,12.5,12.4c0.4,0,0.8,0,1.2-0.1c0.1-0.1,0.1-0.2,0.2-0.4
              c0-0.1,0-0.1,0.1-0.2c0.1-0.3,0.3-0.5,0.4-0.8c0.1-0.2,0.2-0.3,0.3-0.4c0-0.1,0.1-0.1,0.1-0.2c0.1-0.2,0.2-0.3,0.3-0.5
              c0,0,0,0,0,0c-0.8,0.2-1.6,0.3-2.5,0.3c-5.7,0-10.3-4.6-10.3-10.2C132.2,108.6,132.3,107.8,132.5,107
              C132.5,107,132.5,107,132.5,107z M121.6,65.2c-0.3,0-0.5,0.1-0.8,0.1c0.7,10.9,9.5,19.7,20.4,20.2c0-0.2,0-0.5,0.1-0.7
              c0-0.5,0.1-0.9,0.1-1.4l0,0c-9.9-0.4-17.9-8.4-18.5-18.3v0C122.5,65.1,122,65.1,121.6,65.2z M98.8,166.9
              c0.1-0.3,0.3-0.5,0.4-0.8c0.1-0.2,0.2-0.3,0.3-0.4c0-0.1,0.1-0.1,0.1-0.2c0.1-0.2,0.2-0.3,0.3-0.5c0,0,0,0,0,0
              c-0.8,0.2-1.6,0.3-2.5,0.3c-5.7,0-10.3-4.6-10.3-10.2c0-0.9,0.1-1.7,0.3-2.5c0,0,0,0,0,0c-0.1,0.1-0.3,0.2-0.4,0.3
              c-0.1,0.1-0.2,0.1-0.3,0.2c-0.1,0.1-0.3,0.2-0.4,0.2c-0.3,0.1-0.5,0.3-0.8,0.4c0,0-0.1,0-0.1,0.1c-0.1,0.1-0.3,0.1-0.4,0.2
              c0,0.4-0.1,0.8-0.1,1.2c0,6.9,5.6,12.4,12.5,12.4c0.4,0,0.8,0,1.2-0.1c0.1-0.1,0.1-0.2,0.2-0.4C98.8,167,98.8,167,98.8,166.9z
               M97.4,169.9c-8.2,0-14.9-6.6-14.9-14.7c0,0,0-0.1,0-0.1v0c-0.7,0.2-1.4,0.5-2.1,0.7c0.3,9,7.6,16.2,16.6,16.4
              c0.2-0.7,0.4-1.4,0.6-2.1l0,0C97.5,169.9,97.5,169.9,97.4,169.9z M107.3,157.5c0.2-0.1,0.3-0.2,0.5-0.3c0.1,0,0.1-0.1,0.2-0.1
              c0.1-0.1,0.3-0.2,0.5-0.3c0.2-0.1,0.5-0.3,0.7-0.4c0.1,0,0.1-0.1,0.2-0.1c0.1-0.1,0.2-0.1,0.3-0.2c0-0.4,0.1-0.8,0.1-1.2
              c0-6.9-5.6-12.4-12.5-12.4c-0.4,0-0.8,0-1.2,0.1c-0.1,0.1-0.1,0.2-0.2,0.4c0,0,0,0.1-0.1,0.1c-0.1,0.3-0.3,0.5-0.4,0.8
              c-0.1,0.1-0.2,0.3-0.2,0.4c-0.1,0.1-0.1,0.2-0.2,0.3c-0.1,0.1-0.2,0.3-0.3,0.4c0,0,0,0,0,0c0.8-0.2,1.6-0.3,2.5-0.3
              c5.7,0,10.3,4.6,10.3,10.2C107.6,155.9,107.5,156.7,107.3,157.5C107.3,157.5,107.3,157.5,107.3,157.5z M112.2,155.1
              c0.7-0.2,1.4-0.5,2.1-0.7c-0.3-9-7.6-16.2-16.6-16.4c-0.2,0.7-0.4,1.4-0.6,2.1h0c0,0,0.1,0,0.1,0c8.2,0,14.9,6.6,14.9,14.7
              C112.2,155,112.2,155.1,112.2,155.1L112.2,155.1z M51.8,140.5c8.2,0,14.9,6.6,14.9,14.7c0,0,0,0.1,0,0.1v0
              c0.7-0.2,1.4-0.5,2.1-0.7c-0.3-9-7.6-16.2-16.6-16.4c-0.2,0.7-0.4,1.4-0.6,2.1l0,0C51.7,140.5,51.8,140.5,51.8,140.5z
               M89.5,155.1c0-4.3,3.5-7.9,7.8-7.9c4.3,0,7.9,3.5,7.9,7.8c0,4.3-3.5,7.9-7.8,7.9C93,163,89.5,159.5,89.5,155.1z M91.6,155.1
              c0,3.2,2.6,5.7,5.8,5.7c3.2,0,5.7-2.6,5.7-5.8c0-3.2-2.6-5.7-5.8-5.7C94.1,149.3,91.6,151.9,91.6,155.1z M134.9,154.8
              c0-4.3,3.5-7.9,7.8-7.9c4.3,0,7.9,3.5,7.9,7.8c0,4.3-3.5,7.9-7.8,7.9C138.5,162.7,134.9,159.2,134.9,154.8z M137,154.8
              c0,3.2,2.6,5.7,5.8,5.7c3.2,0,5.7-2.6,5.7-5.8c0-3.2-2.6-5.7-5.8-5.7C139.6,149.1,137,151.7,137,154.8z M51.9,145
              c5.7,0,10.3,4.6,10.3,10.2c0,0.9-0.1,1.7-0.3,2.5c0,0,0,0,0,0c0.2-0.1,0.3-0.2,0.5-0.3c0.1,0,0.1-0.1,0.2-0.1
              c0.1-0.1,0.3-0.2,0.5-0.3c0.2-0.1,0.5-0.3,0.7-0.4c0.1,0,0.1-0.1,0.2-0.1c0.1-0.1,0.2-0.1,0.3-0.2c0-0.4,0.1-0.8,0.1-1.2
              c0-6.9-5.6-12.4-12.5-12.4c-0.4,0-0.8,0-1.2,0.1c-0.1,0.1-0.1,0.2-0.2,0.4c0,0,0,0.1-0.1,0.1c-0.1,0.3-0.3,0.5-0.4,0.8
              c-0.1,0.1-0.2,0.3-0.2,0.4c-0.1,0.1-0.1,0.2-0.2,0.3c-0.1,0.1-0.2,0.3-0.3,0.4c0,0,0,0,0,0C50.2,145.1,51,145,51.9,145z
               M71.3,154.2L71.3,154.2c0.5-0.1,1-0.1,1.5-0.2c0.2,0,0.4,0,0.7-0.1c-0.6-10.9-9.5-19.7-20.4-20.2c0,0.2,0,0.5-0.1,0.7
              c0,0.5-0.1,0.9-0.1,1.4l0,0C62.7,136.4,70.7,144.3,71.3,154.2z M144.2,166.7c0.1-0.3,0.3-0.5,0.4-0.8c0.1-0.2,0.2-0.3,0.3-0.4
              c0-0.1,0.1-0.1,0.1-0.2c0.1-0.2,0.2-0.3,0.3-0.5c0,0,0,0,0,0c-0.8,0.2-1.6,0.3-2.5,0.3c-5.7,0-10.3-4.6-10.3-10.2
              c0-0.9,0.1-1.7,0.3-2.5c0,0,0,0,0,0c-0.1,0.1-0.3,0.2-0.4,0.3c-0.1,0.1-0.2,0.1-0.3,0.2c-0.1,0.1-0.3,0.2-0.4,0.2
              c-0.3,0.1-0.5,0.3-0.8,0.4c0,0-0.1,0-0.1,0.1c-0.1,0.1-0.3,0.1-0.4,0.2c0,0.4-0.1,0.8-0.1,1.2c0,6.9,5.6,12.4,12.5,12.4
              c0.4,0,0.8,0,1.2-0.1c0.1-0.1,0.1-0.2,0.2-0.4C144.2,166.8,144.2,166.7,144.2,166.7z M52,170.1c-8.2,0-14.9-6.6-14.9-14.7
              c0,0,0-0.1,0-0.1v0c-0.7,0.2-1.4,0.5-2.1,0.7c0.3,9,7.6,16.2,16.6,16.4c0.2-0.7,0.4-1.4,0.6-2.1h0
              C52.1,170.1,52,170.1,52,170.1z M142.8,169.6c-8.2,0-14.9-6.6-14.9-14.7c0,0,0-0.1,0-0.1v0c-0.7,0.2-1.4,0.5-2.1,0.7
              c0.3,9,7.6,16.2,16.6,16.4c0.2-0.7,0.4-1.4,0.6-2.1h0C142.9,169.6,142.9,169.6,142.8,169.6z M96.8,53.9
              c5.7,0,10.3,4.6,10.3,10.2c0,0.9-0.1,1.7-0.3,2.5c0,0,0,0,0,0c0.2-0.1,0.3-0.2,0.5-0.3c0.1,0,0.1-0.1,0.2-0.1
              c0.1-0.1,0.3-0.2,0.5-0.3c0.2-0.1,0.5-0.3,0.7-0.4c0.1,0,0.1-0.1,0.2-0.1c0.1-0.1,0.2-0.1,0.3-0.2c0-0.4,0.1-0.8,0.1-1.2
              c0-6.9-5.6-12.4-12.5-12.4c-0.4,0-0.8,0-1.2,0.1c-0.1,0.1-0.1,0.2-0.2,0.4c0,0,0,0.1-0.1,0.1c-0.1,0.3-0.3,0.5-0.4,0.8
              c-0.1,0.1-0.2,0.3-0.2,0.4c-0.1,0.1-0.1,0.2-0.2,0.3c-0.1,0.1-0.2,0.3-0.3,0.4c0,0,0,0,0,0C95.1,54,95.9,53.9,96.8,53.9z
               M88.9,64.3c0-4.3,3.5-7.9,7.8-7.9c4.3,0,7.9,3.5,7.9,7.8c0,4.3-3.5,7.9-7.8,7.9C92.5,72.1,89,68.6,88.9,64.3z M91.1,64.2
              c0,3.2,2.6,5.7,5.8,5.7c3.2,0,5.7-2.6,5.7-5.8c0-3.2-2.6-5.7-5.8-5.7C93.6,58.5,91.1,61.1,91.1,64.2z M53.4,167.2
              c0.1-0.3,0.3-0.5,0.4-0.8c0.1-0.2,0.2-0.3,0.3-0.4c0-0.1,0.1-0.1,0.1-0.2c0.1-0.2,0.2-0.3,0.3-0.5c0,0,0,0,0,0
              c-0.8,0.2-1.6,0.3-2.5,0.3c-5.7,0-10.3-4.6-10.3-10.2c0-0.9,0.1-1.7,0.3-2.5c0,0,0,0,0,0c-0.1,0.1-0.3,0.2-0.4,0.3
              c-0.1,0.1-0.2,0.1-0.3,0.2c-0.1,0.1-0.3,0.2-0.4,0.2c-0.3,0.1-0.5,0.3-0.8,0.4c0,0-0.1,0-0.1,0.1c-0.1,0.1-0.3,0.1-0.4,0.2
              c0,0.4-0.1,0.8-0.1,1.2c0,6.9,5.6,12.4,12.5,12.4c0.4,0,0.8,0,1.2-0.1c0.1-0.1,0.1-0.2,0.2-0.4
              C53.3,167.3,53.4,167.2,53.4,167.2z M141.2,87.8c-0.2,0-0.4,0-0.6,0c-0.5,0-1-0.1-1.5-0.1c-0.4,9.9-8.4,17.9-18.3,18.5
              c0.1,0.5,0.1,0.9,0.2,1.4c0,0.2,0,0.5,0.1,0.7C131.9,107.6,140.6,98.8,141.2,87.8z M119.9,121.9c0.9,0,1.7,0.1,2.5,0.3
              c-0.1-0.1-0.2-0.3-0.3-0.5c0-0.1-0.1-0.1-0.1-0.2c-0.1-0.1-0.2-0.3-0.3-0.4c-0.1-0.2-0.3-0.5-0.4-0.8c0,0-0.1-0.1-0.1-0.1
              c-0.1-0.1-0.1-0.2-0.2-0.4c-0.4,0-0.8-0.1-1.2-0.1c-6.9,0-12.4,5.6-12.4,12.5c0,0.4,0,0.8,0.1,1.2c0.1,0.1,0.3,0.1,0.4,0.2
              c0,0,0.1,0,0.1,0.1c0.3,0.1,0.5,0.3,0.8,0.4c0.1,0.1,0.3,0.2,0.4,0.2c0.1,0.1,0.2,0.1,0.3,0.2c0.1,0.1,0.3,0.2,0.4,0.3
              c-0.2-0.8-0.3-1.6-0.3-2.5C109.6,126.6,114.2,122,119.9,121.9z M96.9,76.6c0.4,0,0.8,0,1.2-0.1c0.1-0.1,0.1-0.2,0.2-0.4
              c0-0.1,0-0.1,0.1-0.2c0.1-0.3,0.3-0.5,0.4-0.8c0.1-0.1,0.2-0.3,0.3-0.4c0-0.1,0.1-0.1,0.1-0.2c0.1-0.2,0.2-0.3,0.3-0.5
              c0,0,0,0,0,0c-0.8,0.2-1.6,0.3-2.5,0.3c-5.7,0-10.3-4.6-10.3-10.2c0-0.9,0.1-1.7,0.3-2.5c0,0,0,0,0,0c-0.1,0.1-0.3,0.2-0.4,0.3
              c-0.1,0.1-0.2,0.1-0.3,0.2c-0.1,0.1-0.3,0.2-0.4,0.2c-0.3,0.1-0.5,0.3-0.8,0.4c0,0-0.1,0-0.1,0.1c-0.1,0.1-0.3,0.1-0.4,0.2
              c0,0.4-0.1,0.8-0.1,1.2C84.4,71.1,90,76.7,96.9,76.6z M142.7,124.2L142.7,124.2c-0.1,0-0.1,0-0.1,0c-8.2,0-14.9-6.6-14.9-14.7
              c0,0,0-0.1,0-0.1v0c-0.7,0.2-1.4,0.5-2.1,0.7c0.3,9,7.6,16.2,16.6,16.4C142.3,125.6,142.5,124.9,142.7,124.2z M127.4,64
              c0,0,0-0.1,0-0.1v0c-0.7,0.2-1.4,0.5-2.1,0.7c0.3,9,7.6,16.2,16.6,16.4c0.2-0.7,0.4-1.4,0.6-2.1h0c0,0-0.1,0-0.1,0
              C134.2,78.8,127.5,72.2,127.4,64z M96.7,49.4c8.2,0,14.9,6.6,14.9,14.7c0,0,0,0.1,0,0.1v0c0.7-0.2,1.4-0.5,2.1-0.7
              c-0.3-9-7.6-16.2-16.6-16.4c-0.2,0.7-0.4,1.4-0.6,2.1h0C96.7,49.4,96.7,49.4,96.7,49.4z M96.4,81.2c0.2-0.7,0.4-1.4,0.6-2.1h0
              c0,0-0.1,0-0.1,0c-8.2,0-14.9-6.6-14.9-14.7c0,0,0-0.1,0-0.1v0c-0.7,0.2-1.4,0.5-2.1,0.7C80.2,73.8,87.5,81,96.4,81.2z
               M44,155.4c0-4.3,3.5-7.9,7.8-7.9c4.3,0,7.9,3.5,7.9,7.8c0,4.3-3.5,7.9-7.8,7.9C47.6,163.2,44.1,159.7,44,155.4z M46.2,155.4
              c0,3.2,2.6,5.7,5.8,5.7c3.2,0,5.7-2.6,5.7-5.8c0-3.2-2.6-5.7-5.8-5.7C48.7,149.6,46.2,152.2,46.2,155.4z M119.8,117.4
              c0,0,0.1,0,0.1,0c-0.2-0.7-0.5-1.4-0.6-2.1c-9,0.3-16.2,7.6-16.4,16.6c0.7,0.2,1.4,0.4,2.1,0.6c0,0,0-0.1,0-0.1
              C105,124.1,111.7,117.4,119.8,117.4z M74.7,170c-4.3,0-7.9,3.6-7.8,7.9l2.1,0c0-3.2,2.5-5.8,5.7-5.8c3.2,0,5.8,2.5,5.8,5.7
              l2.1,0C82.6,173.5,79.1,170,74.7,170z M74.7,167.6c0.9,0,1.7,0.1,2.5,0.3c-0.1-0.1-0.2-0.3-0.3-0.5c0-0.1-0.1-0.1-0.1-0.2
              c-0.1-0.1-0.2-0.3-0.3-0.4c-0.1-0.2-0.3-0.5-0.4-0.8c0,0-0.1-0.1-0.1-0.1c-0.1-0.1-0.1-0.2-0.2-0.4c-0.4,0-0.8-0.1-1.2-0.1
              c-6.9,0-12.4,5.6-12.4,12.5l0,0l2.1,0v0C64.4,172.3,69,167.6,74.7,167.6z M74.7,163.1c0,0,0.1,0,0.1,0
              c-0.2-0.7-0.5-1.4-0.6-2.1c-9,0.3-16.2,7.6-16.4,16.5c0.6,0.1,1.2,0.3,1.7,0.5l0.4,0C59.9,169.8,66.5,163.1,74.7,163.1z
               M120.1,162.8c0,0,0.1,0,0.1,0c-0.2-0.7-0.5-1.4-0.6-2.1c-9,0.3-16.2,7.6-16.4,16.5c0.6,0.1,1.2,0.3,1.7,0.5l0.4,0
              C105.3,169.6,111.9,162.9,120.1,162.8z M120.1,169.8c-4.3,0-7.9,3.6-7.8,7.9l2.1,0c0-3.2,2.5-5.8,5.7-5.8
              c3.2,0,5.8,2.5,5.8,5.7l2.1,0C128,173.3,124.5,169.7,120.1,169.8z M120.1,167.4c0.9,0,1.7,0.1,2.5,0.3
              c-0.1-0.1-0.2-0.3-0.3-0.5c0-0.1-0.1-0.1-0.1-0.2c-0.1-0.1-0.2-0.3-0.3-0.4c-0.1-0.2-0.3-0.5-0.4-0.8c0,0-0.1-0.1-0.1-0.1
              c-0.1-0.1-0.1-0.2-0.2-0.4c-0.4,0-0.8-0.1-1.2-0.1c-6.9,0-12.4,5.6-12.4,12.5v0l2.1,0v0C109.9,172,114.5,167.4,120.1,167.4z
               M165.6,169.5c-4.3,0-7.9,3.6-7.8,7.9l2.1,0c0-3.2,2.5-5.8,5.7-5.8L165.6,169.5z M165.5,162.6l0-0.4c-0.2-0.6-0.4-1.1-0.5-1.7
              c-9,0.3-16.2,7.6-16.4,16.6c0.6,0.1,1.2,0.3,1.7,0.5l0.4,0v0C150.7,169.3,157.3,162.6,165.5,162.6z M165.5,167.1l0-2.1
              c-6.9,0-12.4,5.6-12.4,12.5l2.1,0C155.3,171.8,159.9,167.1,165.5,167.1z M120,144.6c6.9,0,12.4-5.6,12.4-12.5
              c0-0.4,0-0.8-0.1-1.2c-0.1-0.1-0.2-0.1-0.4-0.2c-0.1,0-0.1-0.1-0.2-0.1c-0.3-0.1-0.5-0.3-0.8-0.4c-0.2-0.1-0.3-0.2-0.5-0.3
              c-0.1,0-0.1-0.1-0.2-0.1c-0.2-0.1-0.3-0.2-0.5-0.3c0.2,0.8,0.3,1.6,0.3,2.5c0,5.7-4.6,10.3-10.2,10.3c-0.9,0-1.7-0.1-2.5-0.3
              c0.1,0.1,0.2,0.3,0.3,0.4c0.1,0.1,0.1,0.2,0.2,0.3c0.1,0.1,0.2,0.3,0.2,0.4c0.1,0.3,0.3,0.5,0.4,0.8c0,0,0,0.1,0.1,0.1
              c0.1,0.1,0.1,0.2,0.2,0.4C119.2,144.6,119.6,144.6,120,144.6z M136.9,132.6c-0.7-0.2-1.4-0.4-2.1-0.6c0,0,0,0.1,0,0.1
              c0,8.2-6.6,14.9-14.7,14.9c0,0-0.1,0-0.1,0c0.2,0.7,0.5,1.4,0.6,2.1C129.5,148.9,136.7,141.6,136.9,132.6z M78,156.1L78,156.1
              c-0.4,0.1-0.9,0.1-1.3,0.2c-0.3,0-0.5,0.1-0.8,0.1c0.7,10.9,9.5,19.7,20.4,20.2c0-0.2,0-0.5,0.1-0.7c0-0.5,0.1-0.9,0.1-1.4h0
              C86.6,174,78.5,166,78,156.1z M164.5,158c-0.1-0.5-0.1-0.9-0.2-1.4c0-0.2,0-0.5-0.1-0.7c-10.9,0.6-19.7,9.5-20.2,20.4
              c0.3,0,0.5,0,0.8,0.1c0.4,0,0.9,0.1,1.3,0.1C146.7,166.6,154.6,158.6,164.5,158z M75.8,153.9c10.9-0.7,19.7-9.5,20.2-20.4
              c-0.2,0-0.4,0-0.6,0c-0.5,0-1-0.1-1.5-0.2c-0.4,9.9-8.4,17.9-18.3,18.5c0.1,0.5,0.1,0.9,0.2,1.4
              C75.8,153.5,75.8,153.7,75.8,153.9z M121.2,153.7c10.9-0.7,19.7-9.5,20.2-20.4c-0.2,0-0.4,0-0.6,0c-0.5,0-1-0.1-1.5-0.2
              c-0.4,9.9-8.4,17.9-18.3,18.5c0.1,0.5,0.1,0.9,0.2,1.4C121.2,153.2,121.2,153.4,121.2,153.7z M123.4,155.9L123.4,155.9
              c-0.4,0.1-0.9,0.1-1.3,0.2c-0.3,0-0.5,0.1-0.8,0.1c0.7,10.9,9.5,19.7,20.4,20.2c0-0.2,0-0.5,0.1-0.7c0-0.5,0.1-0.9,0.1-1.4h0
              C132,173.7,124,165.8,123.4,155.9z M119.1,158.3c-0.1-0.5-0.1-0.9-0.2-1.4c0-0.2,0-0.5-0.1-0.7c-10.9,0.6-19.7,9.5-20.2,20.4
              c0.3,0,0.5,0,0.8,0.1c0.4,0,0.9,0.1,1.3,0.1C101.3,166.9,109.2,158.8,119.1,158.3z M91.5,132.9c-0.7-0.2-1.4-0.4-2.1-0.6
              c0,0,0,0.1,0,0.1c0,8.2-6.6,14.9-14.7,14.9c0,0-0.1,0-0.1,0c0.2,0.7,0.5,1.4,0.6,2.1C84.1,149.1,91.3,141.8,91.5,132.9z
               M73.7,158.6c-0.1-0.5-0.1-0.9-0.2-1.4c0-0.2,0-0.5-0.1-0.7c-10.9,0.6-19.7,9.5-20.2,20.4c0.3,0,0.5,0,0.8,0.1
              c0.4,0,0.9,0.1,1.3,0.1C55.8,167.1,63.8,159.1,73.7,158.6z M72.5,143.2c0.1,0.1,0.2,0.3,0.2,0.4c0.1,0.3,0.3,0.5,0.4,0.8
              c0,0,0,0.1,0.1,0.1c0.1,0.1,0.1,0.2,0.2,0.4c0.4,0,0.8,0.1,1.2,0c6.9,0,12.4-5.6,12.4-12.5c0-0.4,0-0.8-0.1-1.2
              c-0.1-0.1-0.2-0.1-0.4-0.2c-0.1,0-0.1-0.1-0.2-0.1c-0.3-0.1-0.5-0.3-0.8-0.4c-0.2-0.1-0.3-0.2-0.5-0.3c-0.1,0-0.1-0.1-0.2-0.1
              c-0.2-0.1-0.3-0.2-0.5-0.3c0.2,0.8,0.3,1.6,0.3,2.5c0,5.7-4.6,10.3-10.2,10.3c-0.9,0-1.7-0.1-2.5-0.3c0.1,0.1,0.2,0.3,0.3,0.4
              C72.4,143,72.5,143.1,72.5,143.2z M32.6,156.4L32.6,156.4c-0.4,0.1-0.9,0.1-1.3,0.2c-0.3,0-0.5,0.1-0.8,0.1
              c0.7,10.9,9.5,19.7,20.4,20.2c0-0.2,0-0.5,0.1-0.7c0-0.5,0.1-0.9,0.1-1.4l0,0C41.1,174.2,33.1,166.3,32.6,156.4z M119.5,56.2
              c0,0-0.1,0-0.1,0c0.2,0.7,0.5,1.4,0.6,2.1c9-0.3,16.2-7.6,16.4-16.5c-0.6-0.1-1.2-0.3-1.7-0.5l-0.4,0
              C134.3,49.5,127.7,56.2,119.5,56.2z M117.4,52.1c0.1,0.1,0.2,0.3,0.2,0.4c0.1,0.3,0.3,0.5,0.4,0.8c0,0,0,0.1,0.1,0.1
              c0.1,0.1,0.1,0.2,0.2,0.4c0.4,0,0.8,0.1,1.2,0.1c6.9,0,12.4-5.6,12.4-12.5l-2.1,0c0,5.7-4.6,10.3-10.2,10.3
              c-0.9,0-1.7-0.1-2.5-0.3c0.1,0.1,0.2,0.3,0.3,0.4C117.3,51.9,117.4,52,117.4,52.1z M141.9,130.9c0-0.7,0.1-1.4,0.1-2.1l-0.3,0
              v0h0c-9.9-0.4-17.9-8.4-18.5-18.3c-0.4,0.1-0.9,0.1-1.3,0.2c-0.3,0-0.5,0.1-0.8,0.1c0.6,10.9,9.5,19.7,20.4,20.2L141.9,130.9z"
            />
          </g>
        </g>

        <linearGradient id="SVGID_00000032621999662959898530000007505521825800843174_" gradientUnits="userSpaceOnUse" x1="57.9471" y1="178.5062" x2="151.7533" y2="74.3239">
          <stop  offset="9.000000e-02" style="stop-color:#532419; stop-opacity: 0.75"/>
          <stop  offset="0.42" style="stop-color:#000000; stop-opacity: 0"/>
        </linearGradient>
        <path fill="url(#SVGID_00000032621999662959898530000007505521825800843174_)" d="M132,80.6c-0.1-0.3-0.2-0.5-0.3-0.8
          c0,0,0,0,0,0c-4.6-12-13.9-23.9-7.5-30.2c-4.7,3.4-16.4,11.9-26.9,19.3c-10.3,7.2-20.9,13.6-22.3,17.8c-4.2,13,9.7,31.7,4.7,47.1
          C75,148.4,45,155.2,47.2,166.4c2.3,11.6,18.4,5.1,32.5,4.6c12-0.5,27-0.4,46.4,5.2c3.9-5.5,8.3-13.4,11.9-24.4
          c2.6-8.1,3.5-17,3.3-25.8C140.6,106,136.2,91.9,132,80.6z"/>
      </g>
      <g>
        <g>
          <defs>
            <path id="SVGID_00000065040398606117405230000001340633469668367769_" d="M245.1,206c0.2,0.1,0.5,0.3,0.7,0.4c0,0,0,0,0,0
              c10.7,7,25.3,11.2,23.8,20.1c1.8-5.5,6.2-19.3,10.4-31.4c4.1-11.9,9-23.3,7.6-27.5c-4.2-13-26.5-20-31.5-35.4
              c-4.7-14.6,15.6-37.8,7.2-45.6c-8.7-8-17.9,6.7-29,15.4c-9.5,7.4-21.6,16.1-40.7,23.1c0.1,6.7,1.2,15.8,4.7,26.7
              c2.6,8.1,7.2,15.8,12.5,22.8C223.3,190.5,235.2,199.4,245.1,206z"/>
          </defs>
          <use xlink:href="#SVGID_00000065040398606117405230000001340633469668367769_"  overflow="visible" fill="#C0DEC3"/>
          <clipPath id="SVGID_00000172412242847303633510000013415455070109185186_">
            <use xlink:href="#SVGID_00000065040398606117405230000001340633469668367769_"  overflow="visible"/>
          </clipPath>
          <g clip-path="url(#SVGID_00000172412242847303633510000013415455070109185186_)">
            <g>
              <g>
                <g>
                  <g>
                    <path fill="#00401E" d="M214.3,164.3c0.1,0.3,7.5,29.8,9.9,38.6C217,191.5,212.8,178,214.3,164.3z"/>
                    <path fill="#00401E" d="M214.6,146.1c1.9,9.5,14.9,45.3,18,50.2C225.4,189.4,212.3,167,214.6,146.1z"/>
                    <path fill="#00401E" d="M216.4,134.8c2.2,13,6.6,21.5,15.7,38.9c0,0,5.9,11,5.9,11c0.1,0-0.2,0-0.1,0.1
                      c-0.1-0.1-0.2-0.3-0.2-0.4c0,0,0.3,0.3,0.3,0.3c0,0.1-0.2,0.1-0.1,0.1C228.3,177.8,214.1,155.2,216.4,134.8z"/>
                    <path fill="#00401E" d="M217.6,127.7c2.5,12.2,18.5,34.2,25.9,46.1C230.5,162.6,216,144.7,217.6,127.7z"/>
                    <path fill="#00401E" d="M219.2,120.3c2.4,11.3,17.9,27.8,28.8,45.5C235.4,154.7,217.7,136.8,219.2,120.3z"/>
                    <path fill="#00401E" d="M220.8,114.3c2.3,10.7,18.8,21.7,32.9,43.5C238.7,144.9,219.7,128.7,220.8,114.3z"/>
                    <path fill="#00401E" d="M222.4,109.7c2.2,9.1,23.7,17.9,37.1,39.1C240.8,132.8,221.8,120.9,222.4,109.7z"/>
                    <path fill="#00401E" d="M223.8,105.1c1.2,4.5,6.7,5.6,17.7,12.2c8.4,5,18,13.8,23.6,22.6
                      C243.2,121.5,223.4,113.6,223.8,105.1z"/>
                    <path fill="#00401E" d="M224.8,101.5c0,0,0,0.6,0.6,1.1c3.9,3.5,28,1.7,44.8,27.6c-18.7-16.3-31.6-18.5-42.1-24.8
                      C224.2,103.1,224.8,101.5,224.8,101.5z"/>
                    <path fill="#00401E" d="M226.2,98.9c0,0-0.2,0.7,2,0.8c3.8,0.1,29.8-5.2,47.8,22.1c-9.4-8.2-15.3-12.2-28.1-16.6
                      C235.3,100.8,226.2,101.3,226.2,98.9z"/>
                    <path fill="#00401E" d="M226.9,95.8c0,0-0.3,0.4,2.4-0.5c22.1-7.8,39.7-0.5,51.9,18c-14.2-12.6-28.1-19.1-48.8-17.5
                      c-2.7,0.2-5,0.5-5.5,0.3C226.9,95.9,226.9,95.8,226.9,95.8z"/>
                    <path fill="#00401E" d="M227.8,92.6c12.7-11.3,38.7-14,58,13.2c-13.1-11.6-24.9-18.7-43.6-16.8
                      C235.7,89.6,230.5,91.2,227.8,92.6z"/>
                  </g>
                  <g>
                    <path fill="#00401E" d="M208.6,155.1c-3.5,8.7-8.8,18.8-21.2,28.3C196.7,167.3,201.2,162.2,208.6,155.1z"/>
                    <path fill="#00401E" d="M210.7,143.6c-9.6,21.4-28,29.8-31.7,30.7C182.9,171.8,183.5,170.6,210.7,143.6z"/>
                    <path fill="#00401E" d="M212.2,134.3c-6.7,14.3-21.2,26-39.2,29c0,0.2-0.1-0.2-0.1-0.2c0.1,0,0.5-0.1,0.5-0.1
                      c0,0-0.4,0.2-0.5,0.2c0,0-0.1-0.3-0.1-0.2C200,147.1,206.5,140.4,212.2,134.3z"/>
                    <path fill="#00401E" d="M213.3,127.3c-7.4,15.1-26.4,21-43.1,23.3C185.2,143,204.4,136.5,213.3,127.3z"/>
                    <path fill="#00401E" d="M215.4,119.6c-7.2,14.5-28.2,19.1-44.7,21.4C182,135.4,207.3,127.9,215.4,119.6z"/>
                    <path fill="#00401E" d="M216.4,113.7c-6,11.9-25.4,14.7-46.6,17.6C191.7,120.8,208.5,121.6,216.4,113.7z"/>
                  </g>
                </g>
                <path fill="#00401E" d="M231.3,70.4c-10.1,26-15.9,50.5-19.4,76.4c-0.7,4.9-1.6,10-2.7,14.9c-2.8,12.6-3.6,27.5-1.4,41.8
                  c2.4-13.6,3.5-27.9,3.7-38.2c0.3-10.7,1.5-21.8,3.7-32.3c4.3-20.8,10.4-40.7,19-61.5L231.3,70.4z"/>
              </g>
              <g>
                <g>
                  <g>
                    <path fill="#00401E" d="M270.4,175.2c8.5-3.6,43.7-12.4,49.2-12.6C310.4,160.7,285.7,162.3,270.4,175.2z"/>
                    <path fill="#00401E" d="M262.5,182.6c11.4-5.2,20.5-6.2,39.1-8.3c0,0,11.8-1.2,11.8-1.2c0,0.1-0.1-0.2,0-0.1
                      c-0.1,0-0.3,0-0.4,0c0,0,0.4,0.1,0.4,0.1c0.1,0,0-0.2,0-0.1C302.7,169.1,277.3,170,262.5,182.6z"/>
                    <path fill="#00401E" d="M257.4,187.4c11-4.5,36.9-3.6,50.2-4.1C291.9,179,270,177.1,257.4,187.4z"/>
                    <path fill="#00401E" d="M252.4,192.6c10.2-4.2,31.4-0.7,51.3-1.4C288.3,187,264.7,182.7,252.4,192.6z"/>
                    <path fill="#00401E" d="M248.6,197c9.7-3.9,27.1,3.3,51.9,2.8C282.3,194.9,259.3,188.5,248.6,197z"/>
                    <path fill="#00401E" d="M245.8,200.8c8.3-3.1,26.8,9.2,50.7,8.5C273.8,203,254.3,194.3,245.8,200.8z"/>
                    <path fill="#00401E" d="M242.9,204.3c4.2-1.4,8,2.3,19,7.5c8.4,3.9,20.4,6.8,30.4,6.6C266.2,211,249.5,199.5,242.9,204.3z"
                    />
                  </g>
                  <g>
                    <path fill="#00401E" d="M274.3,165.7c5-7.4,10.2-16.9,11.1-31.8C277.6,149.8,275.9,156.1,274.3,165.7z"/>
                    <path fill="#00401E" d="M266.3,173.5c11.8-19,8.6-38,7.3-41.4C273.8,136.5,273.1,137.6,266.3,173.5z"/>
                    <path fill="#00401E" d="M259.8,179.6c7.7-12.9,9.2-30.6,2-46.4c0.1,0-0.2,0-0.2,0c0,0.1,0.2,0.4,0.2,0.5
                      c0,0-0.1-0.5-0.1-0.5c0,0-0.3,0.1-0.2,0C263.4,163.2,261.6,171.9,259.8,179.6z"/>
                    <path fill="#00401E" d="M254.9,184.2c8-13.9,2.5-32-4.6-46.4C252.3,153.7,257.3,172.3,254.9,184.2z"/>
                    <path fill="#00401E" d="M249.9,189.9c7.6-13.4,0.4-31.8-6.5-46C244.9,155.9,252.1,179.2,249.9,189.9z"/>
                    <path fill="#00401E" d="M245.8,193.9c6.2-11.1-1.9-27.9-10.9-46.1C238.3,170.6,247.8,183.4,245.8,193.9z"/>
                    <path fill="#00401E" d="M242,198.4c4.8-8.9-5-23.2-15.8-44.8C229.5,177.8,243.6,189.1,242,198.4z"/>
                    <path fill="#00401E" d="M238.8,201.7c3.5-7-9.3-17.8-21.8-42.4c1.6,11.3,6.9,21.6,14,30.2
                      C236.4,195.9,239.4,198,238.8,201.7z"/>
                  </g>
                </g>
                <path fill="#00401E" d="M219.5,228.8c15.2-21.8,31.4-39.5,50-56c3.5-3.1,7.1-6.6,10.3-10c8.5-8.9,19.8-17.4,32.3-23.4
                  c-9.5,9.1-20.1,17.6-28.2,23.3c-8.3,5.9-16.4,12.8-23.5,20.1c-14.1,14.5-26.6,29.9-38.5,47.7L219.5,228.8z"/>
              </g>
            </g>
          </g>
        </g>

        <linearGradient id="SVGID_00000057831669864946518030000016033314073382606725_" gradientUnits="userSpaceOnUse" x1="247.5422" y1="83.2754" x2="232.8882" y2="222.6985">
          <stop  offset="9.000000e-02" style="stop-color:#354138; stop-opacity: 0.75"/>
          <stop  offset="0.42" style="stop-color:#000000; stop-opacity: 0"/>
        </linearGradient>
        <path fill="url(#SVGID_00000057831669864946518030000016033314073382606725_)" d="M245.1,206c0.2,0.1,0.5,0.3,0.7,0.4
          c0,0,0,0,0,0c10.7,7,25.3,11.2,23.8,20.1c1.8-5.5,6.2-19.3,10.4-31.4c4.1-11.9,9-23.3,7.6-27.5c-4.2-13-26.5-20-31.5-35.4
          c-4.7-14.6,15.6-37.8,7.2-45.6c-8.7-8-17.9,6.7-29,15.4c-9.5,7.4-21.6,16.1-40.7,23.1c0.1,6.7,1.2,15.8,4.7,26.7
          c2.6,8.1,7.2,15.8,12.5,22.8C223.3,190.5,235.2,199.4,245.1,206z"/>
      </g>
      <g>
        <g>
          <defs>
            <path id="SVGID_00000160165583437938821630000012246491941620652439_" d="M234.2,102.2c0.2-0.2,0.4-0.4,0.6-0.5c0,0,0,0,0,0
              c10-8,18.5-20.6,26.4-16.4c-4.7-3.4-16.4-11.9-26.7-19.6c-10.1-7.6-19.4-15.7-23.8-15.7c-13.6,0-27.2,19-43.4,19
              c-15.3,0-31.1-26.5-41.1-20.9c-10.3,5.8,0.8,19.1,5.7,32.3c4.2,11.3,8.7,25.5,9.4,45.8c6.4,2,15.3,3.8,26.9,3.8
              c8.5,0,17.3-1.9,25.6-4.8C212.6,118.3,224.7,109.6,234.2,102.2z"/>
          </defs>
          <use xlink:href="#SVGID_00000160165583437938821630000012246491941620652439_"  overflow="visible" fill="#0F062F"/>
          <clipPath id="SVGID_00000084490853287560020870000011424735623326395268_">
            <use xlink:href="#SVGID_00000160165583437938821630000012246491941620652439_"  overflow="visible"/>
          </clipPath>
          <g clip-path="url(#SVGID_00000084490853287560020870000011424735623326395268_)">
            <g>
              <path fill="#61C2D8" d="M250.8,78.5c-0.1,0.1-0.1,0.1-0.1,0.2v0.8c-0.5,0.2-0.8,0.6-0.8,1.1c0,0.7,0.5,1.2,1.2,1.2
                s1.2-0.5,1.2-1.2c0-0.6-0.5-1.2-1.1-1.2v-0.6l0.7-0.7c-0.1-0.1-0.3-0.2-0.4-0.3L250.8,78.5z"/>
              <path fill="#61C2D8" d="M246.2,78.2v1.3c-0.6,0.1-1,0.6-1,1.2c0,0.7,0.5,1.2,1.2,1.2c0.7,0,1.2-0.5,1.2-1.2
                c0-0.6-0.4-1.1-1-1.2v-1.2L249,76c-0.1-0.1-0.3-0.2-0.4-0.3l-2.3,2.3C246.3,78,246.2,78.1,246.2,78.2z"/>
              <path fill="#61C2D8" d="M243.8,90.5c-0.1-0.5-0.6-0.9-1.2-0.9c-0.7,0-1.2,0.5-1.2,1.2c0,0.7,0.5,1.2,1.2,1.2
                c0.6,0,1.1-0.4,1.2-0.9h2.2c0.2-0.2,0.4-0.4,0.6-0.6H243.8z"/>
              <path fill="#61C2D8" d="M150.8,126.6c0.1,0.1,0.1,0.1,0.2,0.1h9.9c0.1,0,0.1,0,0.2-0.1l2.9-2.9c0.1-0.1,0.1-0.1,0.1-0.2v-3.7
                l12-12h16.3l3.3,3.3c0.1,0.1,0.1,0.1,0.2,0.1h16.9c0.1,0,0.1,0,0.2-0.1l10.4-10.4c0.2,0.2,0.5,0.3,0.8,0.3
                c0.7,0,1.2-0.5,1.2-1.2c0-0.7-0.5-1.2-1.2-1.2c-0.7,0-1.2,0.5-1.2,1.2c0,0.2,0,0.3,0.1,0.4l-10.4,10.4h-16.7l-3.3-3.3
                c-0.1-0.1-0.1-0.1-0.2-0.1h-16.5c-0.1,0-0.1,0-0.2,0.1l-12.1,12.1c-0.1,0.1-0.1,0.1-0.1,0.2v3.7l-2.8,2.8h-9.6L149,124
                c-0.1-0.1-0.1-0.1-0.2-0.1h-9.1c0,0.2,0,0.4,0,0.5h8.9L150.8,126.6z"/>
              <path fill="#61C2D8" d="M152.8,123.8c0.1,0.1,0.1,0.1,0.2,0.1h6.6c0.1,0,0.1,0,0.2-0.1l1.8-1.8c0.1-0.1,0.1-0.1,0.1-0.2V118
                l13.8-13.8h8.5c0.1,0,0.1,0,0.2-0.1l1.8-1.8h11.8l2.1,2.1c0.1,0,0.1,0.1,0.2,0.1h11.2c0.1,0,0.1,0,0.2-0.1l3.1-3.1
                c0-0.1,0.1-0.1,0.1-0.2v-3.9l2.9-2.9c0.2,0.1,0.4,0.2,0.7,0.2c0.7,0,1.2-0.5,1.2-1.2s-0.5-1.2-1.2-1.2c-0.7,0-1.2,0.5-1.2,1.2
                c0,0.2,0.1,0.4,0.2,0.6l-3,3c0,0-0.1,0.1-0.1,0.2v3.9l-3,3h-11l-2.1-2.1c-0.1,0-0.1-0.1-0.2-0.1h-12c-0.1,0-0.1,0-0.2,0.1
                l-1.8,1.8h-8.5c-0.1,0-0.1,0-0.2,0.1l-13.9,13.9c-0.1,0.1-0.1,0.1-0.1,0.2v3.8l-1.6,1.6h-6.4l-1.2-1.2
                c-0.1-0.1-0.1-0.1-0.2-0.1h-12c0,0.2,0,0.4,0,0.5h11.9L152.8,123.8z"/>
              <path fill="#61C2D8" d="M144.5,117.4h15c0.1,0,0.1,0,0.2-0.1l15-15h7.7c0.1,0,0.1,0,0.2-0.1l2.8-2.8h0.4c0.1,0.6,0.6,1,1.2,1
                c0.7,0,1.2-0.5,1.2-1.2s-0.5-1.2-1.2-1.2c-0.6,0-1.1,0.4-1.2,1h-0.5c-0.1,0-0.1,0-0.2,0.1l-2.8,2.8h-7.7c-0.1,0-0.1,0-0.2,0.1
                l-15,15h-14.8l-5-5.1c0,0.3,0.1,0.5,0.1,0.8l4.6,4.7C144.4,117.4,144.5,117.4,144.5,117.4z"/>
              <path fill="#61C2D8" d="M145.5,115.1h13.7c0.1,0,0.1,0,0.2-0.1l18.9-18.9c0.2,0.1,0.4,0.2,0.7,0.2c0.7,0,1.2-0.5,1.2-1.2
                c0-0.7-0.5-1.2-1.2-1.2c-0.7,0-1.2,0.5-1.2,1.2c0,0.2,0.1,0.4,0.2,0.6l-18.8,18.8h-13.5l-6.3-6.4c0,0.3,0.1,0.6,0.1,0.8l5.9,6
                C145.4,115,145.4,115.1,145.5,115.1z"/>
              <path fill="#61C2D8" d="M145.4,103.2C145.5,103.2,145.5,103.2,145.4,103.2l12.6,0l1.2,1.2c0.1,0.1,0.1,0.1,0.2,0.1h3.4
                c0.1,0,0.1,0,0.2-0.1l2-2c0.2,0.2,0.5,0.2,0.7,0.2c0.7,0,1.2-0.5,1.2-1.2c0-0.7-0.5-1.2-1.2-1.2s-1.2,0.5-1.2,1.2
                c0,0.2,0,0.4,0.1,0.6l-2,2h-3.1l-1.2-1.2c-0.1-0.1-0.1-0.1-0.2-0.1h-12.6c-0.2-0.2-0.4-0.3-0.5-0.5l0.5,0.5L145.4,103.2z"/>
              <path fill="#61C2D8" d="M146.5,101.5c0.1,0.1,0.1,0.1,0.2,0.1h13c0.1,0.6,0.6,1,1.2,1c0.7,0,1.2-0.5,1.2-1.2
                c0-0.7-0.5-1.2-1.2-1.2c-0.6,0-1.1,0.4-1.2,1h-12.8l-3.9-3.9c-0.1-0.1-0.1-0.1-0.2-0.1h-7.1c0,0.1,0.1,0.2,0.1,0.3
                c0,0.1,0,0.1,0,0.2h6.8L146.5,101.5z"/>
              <path fill="#61C2D8" d="M145.3,103.1c0.1,0.1,0.1,0.1,0.2,0.1l0,0C145.4,103.2,145.3,103.1,145.3,103.1
                c-1.7-1.9-3.6-3.9-3.9-4.1c-0.1,0-4.9,0-5.3,0c0,0,0,0.1,0,0.1h5.2L145.3,103.1z"/>
              <path fill="#61C2D8" d="M141.7,98.9c0.1,0,0.1,0,0.2,0.1l0.1,0.2c0.5,0.4,1.3,1.3,3.1,3l-3.4-3.4c-0.1-0.1-0.1-0.1-0.2-0.1
                H136c0,0.1,0,0.2,0.1,0.3C136.6,98.9,141.6,98.9,141.7,98.9z"/>
              <path fill="#61C2D8" d="M141.9,99c-0.1-0.1-0.1-0.1-0.2-0.1c-0.1,0-5.1,0-5.6,0c0,0,0,0.1,0,0.1c0.4,0,5.2,0,5.3,0
                c0.3,0.2,2.1,2.2,3.9,4.1c0,0,0.1,0.1,0.2,0.1l0.1-0.5l-0.5-0.5c-1.7-1.6-2.6-2.6-3.1-3L141.9,99z"/>
              <path fill="#61C2D8" d="M147.2,100c0.1,0.1,0.1,0.1,0.2,0.1h9.1c0.1,0,0.1,0,0.2-0.1l1.1-1.1h9.9l1.3,1.3
                c-0.2,0.2-0.2,0.5-0.2,0.7c0,0.7,0.5,1.2,1.2,1.2c0.7,0,1.2-0.5,1.2-1.2c0-0.7-0.5-1.2-1.2-1.2c-0.2,0-0.4,0.1-0.6,0.2
                l-1.4-1.4c-0.1-0.1-0.1-0.1-0.2-0.1h-10.1c-0.1,0-0.1,0-0.2,0.1l-1.1,1.1h-8.8l-3.9-3.9c-0.1-0.1-0.1-0.1-0.2-0.1h-8.2
                c0,0.2,0.1,0.4,0.1,0.5h7.9L147.2,100z"/>
              <path fill="#61C2D8" d="M156.9,97c0.1,0.1,0.1,0.1,0.2,0.1h17c0.1,0,0.1,0,0.2-0.1l5.2-5.2c0.2,0.2,0.5,0.3,0.7,0.3
                c0.7,0,1.2-0.5,1.2-1.2c0-0.7-0.5-1.2-1.2-1.2c-0.7,0-1.2,0.5-1.2,1.2c0,0.2,0,0.4,0.1,0.6l-5.2,5.2h-16.8l-2.5-2.5
                c-0.1-0.1-0.1-0.1-0.2-0.1h-19.7c0,0.1,0.1,0.3,0.1,0.4c0,0,0,0.1,0,0.1h19.4L156.9,97z"/>
              <path fill="#61C2D8" d="M143.5,77.5l4.4-4.4h9.6l2.4,2.4c0.1,0.1,0.1,0.1,0.2,0.1h6.8l2,2c0.1,0.1,0.1,0.1,0.2,0.1h1.5
                c0.1,0,0.1,0,0.2-0.1l1.4-1.4h4.2l2.8,2.8c-0.1,0.2-0.2,0.4-0.2,0.6c0,0.7,0.5,1.2,1.2,1.2c0.7,0,1.2-0.5,1.2-1.2
                c0-0.7-0.5-1.2-1.2-1.2c-0.3,0-0.5,0.1-0.7,0.2l-2.9-2.9c-0.1-0.1-0.1-0.1-0.2-0.1h-4.4c-0.1,0-0.1,0-0.2,0.1l-1.4,1.4h-1.3
                l-2-2c-0.1-0.1-0.1-0.1-0.2-0.1h-6.8l-2.4-2.4c-0.1-0.1-0.1-0.1-0.2-0.1h-9.9c-0.1,0-0.1,0-0.2,0.1l-4.4,4.4h-14.7
                c0.1,0.2,0.2,0.4,0.2,0.5h14.6C143.4,77.6,143.5,77.5,143.5,77.5z"/>
              <path fill="#61C2D8" d="M157.3,91.4l0.9-0.9c0.2,0.1,0.4,0.2,0.7,0.2c0.7,0,1.2-0.5,1.2-1.2s-0.5-1.2-1.2-1.2
                s-1.2,0.5-1.2,1.2c0,0.2,0.1,0.5,0.2,0.7L157,91h-23c0.1,0.2,0.1,0.3,0.2,0.5c0,0,0,0,0,0h23
                C157.1,91.5,157.2,91.5,157.3,91.4z"/>
              <path fill="#61C2D8" d="M155.1,89.8l2-2h5.4l0.8,0.8c-0.3,0.2-0.4,0.6-0.4,0.9c0,0.7,0.5,1.2,1.2,1.2c0.7,0,1.2-0.5,1.2-1.2
                s-0.5-1.2-1.2-1.2c-0.1,0-0.2,0-0.3,0.1l-1-1c-0.1-0.1-0.1-0.1-0.2-0.1H157c-0.1,0-0.1,0-0.2,0.1l-2,2h-21.4
                c0.1,0.2,0.1,0.4,0.2,0.5h21.3C155,89.9,155,89.9,155.1,89.8z"/>
              <path fill="#61C2D8" d="M150.4,88.4l0.8-0.8c0.2,0.1,0.4,0.2,0.6,0.2c0.7,0,1.2-0.5,1.2-1.2s-0.5-1.2-1.2-1.2
                c-0.7,0-1.2,0.5-1.2,1.2c0,0.2,0.1,0.5,0.2,0.7l-0.8,0.8h-17.2c0.1,0.2,0.1,0.4,0.2,0.5h17.1
                C150.3,88.5,150.4,88.5,150.4,88.4z"/>
              <path fill="#61C2D8" d="M148.6,86.8l2.4-2.4h4.6c0.1,0,0.1,0,0.2-0.1l1.9-1.9h4.4l1.1,1.1c-0.2,0.2-0.4,0.5-0.4,0.9
                c0,0.7,0.5,1.2,1.2,1.2c0.7,0,1.2-0.5,1.2-1.2c0-0.7-0.5-1.2-1.2-1.2c-0.1,0-0.3,0-0.4,0.1l-1.3-1.3c-0.1-0.1-0.1-0.1-0.2-0.1
                h-4.7c-0.1,0-0.1,0-0.2,0.1l-1.9,1.9H151c-0.1,0-0.1,0-0.2,0.1l-2.4,2.4h-16c0,0,0,0,0,0c0.1,0.2,0.1,0.4,0.2,0.5h15.9
                C148.5,86.8,148.6,86.8,148.6,86.8z"/>
              <path fill="#61C2D8" d="M147.6,85.1l2.8-2.8h4.5c0.1,0,0.1,0,0.2-0.1l1.6-1.6h8.2l3,3c-0.1,0.2-0.2,0.4-0.2,0.7
                c0,0.7,0.5,1.2,1.2,1.2c0.7,0,1.2-0.5,1.2-1.2c0-0.7-0.5-1.2-1.2-1.2c-0.2,0-0.5,0.1-0.7,0.2l-3.1-3.1
                c-0.1-0.1-0.1-0.1-0.2-0.1h-8.5c-0.1,0-0.1,0-0.2,0.1l-1.6,1.6h-4.5c-0.1,0-0.1,0-0.2,0.1l-2.8,2.8h-15.5
                c0.1,0.2,0.1,0.4,0.2,0.5h15.5C147.5,85.2,147.5,85.2,147.6,85.1z"/>
              <path fill="#61C2D8" d="M147.4,83.1l3.6-3.6h1.3c0.1,0.6,0.6,1,1.2,1c0.7,0,1.2-0.5,1.2-1.2c0-0.7-0.5-1.2-1.2-1.2
                c-0.6,0-1.1,0.4-1.2,1H151c-0.1,0-0.1,0-0.2,0.1l-3.6,3.6h-16.2c0.1,0.2,0.1,0.4,0.2,0.5h16.1
                C147.3,83.2,147.4,83.2,147.4,83.1z"/>
              <path fill="#61C2D8" d="M146.7,81.1l4-4h5.1l2,2c0.1,0.1,0.1,0.1,0.2,0.1h7.3l2.8,2.8c0.1,0.1,0.1,0.1,0.2,0.1h3.7l1.6,1.6
                c-0.1,0.2-0.2,0.4-0.2,0.7c0,0.7,0.5,1.2,1.2,1.2c0.7,0,1.2-0.5,1.2-1.2c0-0.7-0.5-1.2-1.2-1.2c-0.2,0-0.5,0.1-0.7,0.2
                l-1.7-1.7c-0.1-0.1-0.1-0.1-0.2-0.1h-3.7l-2.8-2.8c-0.1-0.1-0.1-0.1-0.2-0.1h-7.3l-2-2c-0.1-0.1-0.1-0.1-0.2-0.1h-5.3
                c-0.1,0-0.1,0-0.2,0.1l-4,4h-16.3c0,0.1,0.1,0.2,0.1,0.3c0,0.1,0.1,0.1,0.1,0.2h16.2C146.6,81.2,146.7,81.2,146.7,81.1z"/>
              <path fill="#61C2D8" d="M144.4,79.3l4.2-4.2h7.9l2.2,2.2c0.1,0.1,0.1,0.1,0.2,0.1h7.1l2.4,2.4c0.1,0.1,0.1,0.1,0.2,0.1h3.9
                c0.1,0.6,0.6,1,1.2,1c0.7,0,1.2-0.5,1.2-1.2c0-0.7-0.5-1.2-1.2-1.2c-0.6,0-1.1,0.4-1.2,1h-3.8l-2.4-2.4
                c-0.1-0.1-0.1-0.1-0.2-0.1h-7.1l-2.2-2.2c-0.1-0.1-0.1-0.1-0.2-0.1h-8.1c-0.1,0-0.1,0-0.2,0.1l-4.2,4.2h-14.7c0,0,0,0,0,0
                c0.1,0.2,0.1,0.3,0.2,0.5h14.6C144.3,79.4,144.3,79.4,144.4,79.3z"/>
              <path fill="#61C2D8" d="M182.6,65.7v18.1l-1.4,1.3c-0.2-0.3-0.6-0.4-0.9-0.4c-0.7,0-1.2,0.5-1.2,1.2c0,0.7,0.5,1.2,1.2,1.2
                c0.7,0,1.2-0.5,1.2-1.2c0-0.1,0-0.2-0.1-0.3l1.6-1.5c0.1-0.1,0.1-0.1,0.1-0.2V65.6c0-0.1,0-0.1-0.1-0.2l-1-1.1
                c-0.2,0.1-0.3,0.2-0.5,0.3L182.6,65.7z"/>
              <path fill="#61C2D8" d="M141.5,72.2l6.2-6.2h13c-0.3-0.2-0.5-0.4-0.8-0.5h-12.3c-0.1,0-0.1,0-0.2,0.1l-6.2,6.2h-14.4
                c0.1,0.1,0.1,0.2,0.2,0.4c0,0.1,0.1,0.1,0.1,0.2h14.3C141.4,72.3,141.4,72.3,141.5,72.2z"/>
              <path fill="#61C2D8" d="M184.3,65.1v26.3c0,0.1,0,0.1,0.1,0.2l1.6,1.6c-0.1,0.2-0.2,0.4-0.2,0.7c0,0.7,0.5,1.2,1.2,1.2
                c0.7,0,1.2-0.5,1.2-1.2c0-0.7-0.5-1.2-1.2-1.2c-0.2,0-0.5,0.1-0.7,0.2l-1.6-1.6V65c0-0.1,0-0.1-0.1-0.2l-1.5-1.5
                c-0.2,0.1-0.3,0.2-0.5,0.3L184.3,65.1z"/>
              <path fill="#61C2D8" d="M140.3,70.4l6-6h12c-0.2-0.2-0.5-0.4-0.7-0.5h-11.4c-0.1,0-0.1,0-0.2,0.1l-6,6h-14.1
                c0.1,0.2,0.2,0.3,0.2,0.5c0,0,0,0,0,0h14C140.2,70.4,140.3,70.4,140.3,70.4z"/>
              <path fill="#61C2D8" d="M125.9,69.9L125.9,69.9c0.1,0.2,0.2,0.3,0.2,0.5C126,70.2,125.9,70.1,125.9,69.9z"/>
              <path fill="#61C2D8" d="M187.7,83.1c0,0.1,0,0.1,0.1,0.2l2.4,2.4c0.1,0.1,0.1,0.1,0.2,0.1h5.1l1.9,1.9v3.4l-4.8,4.8
                c-0.1,0.1-0.1,0.1-0.1,0.2v2.7c0,0.1,0,0.1,0.1,0.2l0.9,0.9c0.1,0.1,0.1,0.1,0.2,0.1h3.9l2.6,2.6c0,0,0.1,0.1,0.2,0.1h6.2
                c0.1,0,0.1,0,0.2-0.1l2.5-2.5c0.2,0.2,0.4,0.2,0.7,0.2c0.7,0,1.2-0.5,1.2-1.2s-0.5-1.2-1.2-1.2c-0.7,0-1.2,0.5-1.2,1.2
                c0,0.2,0.1,0.4,0.2,0.6l-2.4,2.4h-6l-2.6-2.6c0,0-0.1-0.1-0.2-0.1h-3.9l-0.8-0.8v-2.5l4.8-4.8c0.1,0,0.1-0.1,0.1-0.2v-3.6
                c0-0.1,0-0.1-0.1-0.2l-2-2c-0.1-0.1-0.1-0.1-0.2-0.1h-5.1l-2.3-2.3V62.9c0-0.1,0-0.1-0.1-0.2l-1.3-1.9
                c-0.1,0.1-0.3,0.2-0.4,0.3l1.2,1.8V83.1z"/>
              <path fill="#61C2D8" d="M196,78.1c-0.2-0.2-0.5-0.3-0.8-0.3c-0.7,0-1.2,0.5-1.2,1.2c0,0.7,0.5,1.2,1.2,1.2
                c0.7,0,1.2-0.5,1.2-1.2c0-0.2,0-0.3-0.1-0.5l0.4-0.4c0.1-0.1,0.1-0.1,0.1-0.2V53.8c0,0,0,0,0,0c-0.2,0.1-0.4,0.2-0.5,0.3v23.8
                L196,78.1z"/>
              <path fill="#61C2D8" d="M199.1,61.6l3.4,3.4v5.2c-0.6,0.1-1,0.6-1,1.2c0,0.7,0.5,1.2,1.2,1.2c0.7,0,1.2-0.5,1.2-1.2
                c0-0.6-0.4-1.1-1-1.2v-5.3c0-0.1,0-0.1-0.1-0.2l-3.4-3.4v-9.1c-0.2,0.1-0.4,0.2-0.5,0.3v8.9C199,61.5,199.1,61.5,199.1,61.6z"
              />
              <path fill="#61C2D8" d="M216.7,74.5l-5.8,5.8h-3.2c-0.1,0-0.1,0-0.2,0.1l-2.9,2.9c0,0.1-0.1,0.1-0.1,0.2v9.2l-0.9,0.9
                c-0.2-0.2-0.5-0.3-0.8-0.3c-0.7,0-1.2,0.5-1.2,1.2c0,0.7,0.5,1.2,1.2,1.2c0.7,0,1.2-0.5,1.2-1.2c0-0.2,0-0.3-0.1-0.4L205,93
                c0,0,0.1-0.1,0.1-0.2v-9.2l2.8-2.8h3.2c0.1,0,0.1,0,0.2-0.1l6-6c0.1-0.1,0.1-0.1,0.1-0.2v-7.7c0-0.1,0-0.1-0.1-0.2l-15.6-15.6
                c-0.2,0.1-0.3,0.2-0.5,0.2L216.7,67V74.5z"/>
              <path fill="#61C2D8" d="M222,68.8v14.1l-1.7,1.7c-0.1,0.1-0.1,0.1-0.1,0.2v11.6l-1.2,1.2c-0.2-0.2-0.5-0.3-0.8-0.3
                c-0.7,0-1.2,0.5-1.2,1.2s0.5,1.2,1.2,1.2c0.7,0,1.2-0.5,1.2-1.2c0-0.2,0-0.3-0.1-0.5l1.3-1.3c0.1-0.1,0.1-0.1,0.1-0.2V84.9
                l1.7-1.7c0.1-0.1,0.1-0.1,0.1-0.2V69l7.2-7.2c-0.1-0.1-0.3-0.2-0.4-0.3l-7.2,7.2C222,68.7,222,68.8,222,68.8z"/>
              <path fill="#61C2D8" d="M231.1,63.7v17.1l-5.6,5.6c-0.1,0.1-0.1,0.1-0.1,0.2v2.1c-0.6,0.1-1,0.6-1,1.2c0,0.7,0.5,1.2,1.2,1.2
                c0.7,0,1.2-0.5,1.2-1.2c0-0.6-0.4-1.1-1-1.2v-2l5.6-5.6c0.1-0.1,0.1-0.1,0.1-0.2V63.8l0.3-0.3c-0.1-0.1-0.3-0.2-0.4-0.3
                l-0.3,0.3C231.2,63.6,231.1,63.6,231.1,63.7z"/>
              <path fill="#61C2D8" d="M224,108.6c-0.6,0-1.1,0.4-1.2,1h-5.7c-0.1,0-0.1,0-0.2,0.1l-3.4,3.4h-22.3c-0.1,0-0.1,0-0.2,0.1
                l-1.2,1.2c-0.2-0.2-0.5-0.3-0.8-0.3c-0.7,0-1.2,0.5-1.2,1.2s0.5,1.2,1.2,1.2s1.2-0.5,1.2-1.2c0-0.2,0-0.4-0.1-0.5l1.2-1.2
                h22.3c0.1,0,0.1,0,0.2-0.1l3.4-3.4h5.6c0.1,0.3,0.3,0.6,0.5,0.7c0.6-0.4,1.2-0.8,1.8-1.3C225,109,224.6,108.6,224,108.6z"/>
              <path fill="#61C2D8" d="M151.4,108.7c0.7,0,1.2-0.5,1.2-1.2c0-0.7-0.5-1.2-1.2-1.2c-0.6,0-1.1,0.4-1.2,1h-12.1
                c0,0.2,0,0.4,0.1,0.5h12C150.3,108.3,150.8,108.7,151.4,108.7z"/>
              <path fill="#61C2D8" d="M151.4,96.1c-0.7,0-1.2,0.5-1.2,1.2c0,0.7,0.5,1.2,1.2,1.2c0.7,0,1.2-0.5,1.2-1.2
                C152.6,96.7,152.1,96.1,151.4,96.1z"/>
              <path fill="#61C2D8" d="M136.1,100.8h4.9l3.8,3.8h12.5c0.1,0,0.1,0,0.2,0.1l3.2,3.2h0.8c0.1-0.6,0.6-1,1.2-1
                c0.7,0,1.2,0.5,1.2,1.2c0,0.7-0.5,1.2-1.2,1.2c-0.6,0-1.1-0.4-1.2-1h-1c-0.1,0-0.1,0-0.2-0.1l-3.2-3.2h-12.5
                c-0.1,0-0.1,0-0.2-0.1l-3.8-3.8h-3.9L136.1,100.8z"/>
              <path fill="#61C2D8" d="M157.3,94c-0.1,0.2-0.2,0.4-0.2,0.7c0,0.7,0.5,1.2,1.2,1.2c0.7,0,1.2-0.5,1.2-1.2
                c0-0.7-0.5-1.2-1.2-1.2c-0.2,0-0.5,0.1-0.7,0.2l-1.2-1.2c-0.1-0.1-0.1-0.1-0.2-0.1h-21.9c0.1,0.2,0.1,0.4,0.2,0.5h21.7
                L157.3,94z"/>
              <path fill="#61C2D8" d="M138.2,49.8h-14.9c-0.1,0.1-0.3,0.3-0.5,0.5h16.5C138.9,50.1,138.5,49.9,138.2,49.8z"/>
              <path fill="#61C2D8" d="M232.3,84.2c0,0.7,0.5,1.2,1.2,1.2c0.7,0,1.2-0.5,1.2-1.2c0-0.6-0.4-1.1-1-1.2V64.8
                c-0.2-0.1-0.4-0.3-0.5-0.4V83C232.7,83.2,232.3,83.7,232.3,84.2z"/>
              <path fill="#61C2D8" d="M218.7,75.3l-6.9,6.9h-2.6c-0.1,0-0.1,0-0.2,0.1l-2.7,2.7c0,0-0.1,0.1-0.1,0.2v10.5l-2.6,2.6
                c-0.2-0.2-0.5-0.4-0.9-0.4c-0.7,0-1.2,0.5-1.2,1.2s0.5,1.2,1.2,1.2c0.7,0,1.2-0.5,1.2-1.2c0-0.1,0-0.3-0.1-0.4l2.7-2.7
                c0-0.1,0.1-0.1,0.1-0.2V85.3l2.5-2.5h2.6c0.1,0,0.1,0,0.2-0.1l7.1-7.1c0.1-0.1,0.1-0.1,0.1-0.2V61.5c0-0.1,0-0.1-0.1-0.2
                L206.9,49c-0.2,0-0.4,0.1-0.6,0.1l12.4,12.4V75.3z"/>
              <path fill="#61C2D8" d="M234.3,88.8c-0.2-0.2-0.5-0.3-0.8-0.3c-0.7,0-1.2,0.5-1.2,1.2s0.5,1.2,1.2,1.2c0.7,0,1.2-0.5,1.2-1.2
                c0-0.1,0-0.3-0.1-0.4l1.3-1.3c0.1-0.1,0.1-0.1,0.1-0.2V66.5c-0.2-0.1-0.4-0.3-0.5-0.4v21.6L234.3,88.8z"/>
              <path fill="#61C2D8" d="M236.2,91.2c0,0.7,0.5,1.2,1.2,1.2s1.2-0.5,1.2-1.2c0-0.6-0.4-1.1-1-1.2V67.7
                c-0.2-0.1-0.4-0.3-0.5-0.4V90C236.6,90.1,236.2,90.6,236.2,91.2z"/>
              <path fill="#61C2D8" d="M231.2,102.3c-0.2-0.1-0.4-0.2-0.7-0.2c-0.7,0-1.2,0.5-1.2,1.2s0.5,1.2,1.2,1.2c0.7,0,1.2-0.5,1.2-1.2
                c0-0.2-0.1-0.5-0.2-0.7l8.6-8.6c0.1-0.1,0.1-0.1,0.1-0.2V68.7c-0.2-0.1-0.4-0.3-0.5-0.4v25.5L231.2,102.3z"/>
              <path fill="#61C2D8" d="M189.6,81.5l2.6,2.6c0.1,0.1,0.1,0.1,0.2,0.1h4.7c0.2,0.1,1.1,1,2,2.1v7l-2.7,2.7
                c-0.2-0.2-0.5-0.3-0.8-0.3c-0.7,0-1.2,0.5-1.2,1.2s0.5,1.2,1.2,1.2c0.7,0,1.2-0.5,1.2-1.2c0-0.2,0-0.4-0.1-0.5l2.8-2.8
                c0,0,0.1-0.1,0.1-0.2v-7.2c0-0.1,0-0.1-0.1-0.2c-2.1-2.3-2.3-2.3-2.4-2.3h-4.6l-2.4-2.4V58.3c-0.1,0.1-0.1,0.1-0.2,0.2
                c-0.1,0.1-0.2,0.1-0.3,0.2v22.5C189.5,81.3,189.6,81.4,189.6,81.5z"/>
              <path fill="#61C2D8" d="M142.6,60.5c0.7,0,1.2-0.5,1.2-1.2c0-0.7-0.5-1.2-1.2-1.2c-0.5,0-1,0.4-1.2,0.8h-20.4
                c0,0.2,0.1,0.4,0.1,0.6h20.2C141.5,60.1,142,60.5,142.6,60.5z"/>
              <path fill="#61C2D8" d="M190.9,79.9l1.8,1.8c0.1,0.1,0.1,0.1,0.2,0.1h5.4l2.6,2.6v3c0,0.1,0,0.1,0.1,0.2l0.6,0.6
                c-0.1,0.2-0.2,0.4-0.2,0.7c0,0.7,0.5,1.2,1.2,1.2c0.7,0,1.2-0.5,1.2-1.2s-0.5-1.2-1.2-1.2c-0.2,0-0.5,0.1-0.7,0.2l-0.5-0.5v-3
                c0-0.1,0-0.1-0.1-0.2l-2.8-2.8c0,0-0.1-0.1-0.2-0.1h-5.4l-1.7-1.7V57.4c-0.2,0.1-0.4,0.3-0.5,0.4v21.9
                C190.9,79.8,190.9,79.9,190.9,79.9z"/>
              <path fill="#61C2D8" d="M136.9,67.1c0.7,0,1.2-0.5,1.2-1.2c0-0.7-0.5-1.2-1.2-1.2c-0.6,0-1.1,0.4-1.2,1h-12
                c0.1,0.1,0.1,0.2,0.2,0.3c0,0.1,0.1,0.1,0.1,0.2h11.7C135.9,66.7,136.4,67.1,136.9,67.1z"/>
              <path fill="#61C2D8" d="M123.9,66c0,0.1,0.1,0.1,0.1,0.2l0,0C124,66.1,123.9,66,123.9,66z"/>
              <path fill="#61C2D8" d="M123.7,65.6L123.7,65.6c0.1,0.1,0.1,0.2,0.2,0.3C123.9,65.9,123.8,65.8,123.7,65.6z"/>
              <path fill="#61C2D8" d="M180.3,97.9c-0.7,0-1.2,0.5-1.2,1.2s0.5,1.2,1.2,1.2c0.7,0,1.2-0.5,1.2-1.2S181,97.9,180.3,97.9z"/>
              <path fill="#61C2D8" d="M174.6,115.5c0.6-0.1,1-0.6,1-1.2c0-0.7-0.5-1.2-1.2-1.2c-0.7,0-1.2,0.5-1.2,1.2c0,0.6,0.4,1.1,1,1.2
                v4.8c0,0.1,0,0.1,0.1,0.2l3.1,3.1c0.1,0.1,0.1,0.1,0.2,0.1h14.7c0.1,0.6,0.6,1,1.2,1c0.7,0,1.2-0.5,1.2-1.2s-0.5-1.2-1.2-1.2
                c-0.6,0-1.1,0.4-1.2,1h-14.6l-2.9-2.9V115.5z"/>
              <path fill="#61C2D8" d="M153.5,120.6c0.7,0,1.2-0.5,1.2-1.2c0-0.7-0.5-1.2-1.2-1.2c-0.6,0-1.1,0.4-1.2,1h-12.8
                c0,0.2,0,0.4,0,0.5h12.8C152.5,120.2,153,120.6,153.5,120.6z"/>
              <path fill="#61C2D8" d="M159.2,118.2c-0.7,0-1.2,0.5-1.2,1.2c0,0.7,0.5,1.2,1.2,1.2c0.7,0,1.2-0.5,1.2-1.2
                C160.4,118.7,159.9,118.2,159.2,118.2z"/>
              <path fill="#61C2D8" d="M172.8,124.4c0.6-0.1,1-0.6,1-1.2c0-0.7-0.5-1.2-1.2-1.2s-1.2,0.5-1.2,1.2c0,0.6,0.4,1.1,1,1.2v4.8
                c0,0.1,0,0.1,0.1,0.2l0.6,0.6c0.2,0,0.5,0,0.7-0.1l-0.9-0.9V124.4z"/>
              <path fill="#61C2D8" d="M229.5,63.4v11.3l-6,6v13.5l2.3,2.3c-0.1,0.2-0.1,0.3-0.1,0.5c0,0.7,0.5,1.2,1.2,1.2
                c0.7,0,1.2-0.5,1.2-1.2c0-0.7-0.5-1.2-1.2-1.2c-0.3,0-0.6,0.1-0.8,0.3l-2.1-2.1V80.9l6-6V63.6l0.9-0.9
                c-0.2-0.1-0.3-0.2-0.5-0.3L229.5,63.4L229.5,63.4z"/>
              <path fill="#61C2D8" d="M169.9,72.8c-0.2,0-0.5,0.1-0.6,0.2l-2.9-2.9h-17c-0.1-0.5-0.6-0.9-1.2-0.9c-0.7,0-1.2,0.5-1.2,1.2
                c0,0.7,0.5,1.2,1.2,1.2c0.6,0,1.1-0.4,1.2-0.9h16.8l2.7,2.7c-0.1,0.2-0.2,0.4-0.2,0.6c0,0.7,0.5,1.2,1.2,1.2
                c0.7,0,1.2-0.5,1.2-1.2C171.1,73.4,170.5,72.8,169.9,72.8z"/>
              <path fill="#61C2D8" d="M218.1,85.3c-0.7,0-1.2,0.5-1.2,1.2c0,0.2,0.1,0.5,0.2,0.6l-2.3,2.3c-0.2-0.1-0.4-0.2-0.6-0.2
                c-0.7,0-1.2,0.5-1.2,1.2s0.5,1.2,1.2,1.2c0.7,0,1.2-0.5,1.2-1.2c0-0.2-0.1-0.4-0.2-0.6l2.3-2.3c0.2,0.1,0.4,0.2,0.6,0.2
                c0.7,0,1.2-0.5,1.2-1.2S218.7,85.3,218.1,85.3z"/>
              <path fill="#61C2D8" d="M246.6,88.1c-0.1-0.5-0.6-0.9-1.2-0.9c-0.7,0-1.2,0.5-1.2,1.2c0,0.7,0.5,1.2,1.2,1.2
                c0.6,0,1.1-0.4,1.2-0.9h2.3c0.2-0.2,0.4-0.4,0.6-0.6H246.6z"/>
              <path fill="#61C2D8" d="M258.8,84.7l0.9-0.9c-0.1-0.1-0.3-0.2-0.5-0.3l-1.2,1.2C258.3,84.6,258.5,84.6,258.8,84.7z"/>
              <path fill="#61C2D8" d="M203.6,119.4c0-0.7-0.5-1.2-1.2-1.2c-0.7,0-1.2,0.5-1.2,1.2c0,0.7,0.5,1.2,1.2,1.2
                c0.2,0,0.5-0.1,0.6-0.2l1.5,1.5c0.2-0.1,0.4-0.2,0.6-0.2l-1.6-1.6C203.5,119.8,203.6,119.6,203.6,119.4z"/>
              <path fill="#61C2D8" d="M169.4,127.1v-6.4c0.5-0.1,0.9-0.6,0.9-1.2c0-0.7-0.5-1.2-1.2-1.2c-0.7,0-1.2,0.5-1.2,1.2
                c0,0.6,0.4,1.1,0.9,1.2v5.9h-2.5l-3.7,3.7c0.3,0,0.5,0,0.8,0l3.2-3.2H169.4z"/>
              <path fill="#61C2D8" d="M245.4,84.7c-0.1,0.2-0.1,0.4-0.1,0.6c0,0.7,0.5,1.2,1.2,1.2c0.7,0,1.2-0.5,1.2-1.2
                c0-0.7-0.5-1.2-1.2-1.2c-0.3,0-0.5,0.1-0.7,0.2l-1.9-1.9V72.3c-0.2-0.1-0.4-0.3-0.6-0.4v10.8L245.4,84.7z"/>
              <path fill="#61C2D8" d="M227,101.9l3.8-3.8c0.2,0.1,0.4,0.2,0.6,0.2c0.7,0,1.2-0.5,1.2-1.2c0-0.7-0.5-1.2-1.2-1.2
                c-0.7,0-1.2,0.5-1.2,1.2c0,0.2,0.1,0.5,0.2,0.6l-3.9,3.9v5l2,2c0.2-0.1,0.3-0.2,0.5-0.3l-1.9-1.9V101.9z"/>
              <path fill="#61C2D8" d="M210.2,92.9v-4.3l7.2-7.2c0.2,0.1,0.4,0.2,0.7,0.2c0.7,0,1.2-0.5,1.2-1.2c0-0.7-0.5-1.2-1.2-1.2
                c-0.7,0-1.2,0.5-1.2,1.2c0,0.2,0.1,0.4,0.2,0.6l-7.3,7.3l-0.1,0.1v4.5c-0.5,0.1-0.9,0.6-0.9,1.2c0,0.7,0.5,1.2,1.2,1.2
                s1.2-0.5,1.2-1.2C211.1,93.5,210.7,93,210.2,92.9z"/>
              <path fill="#61C2D8" d="M221,64.2c0,0.7,0.5,1.2,1.2,1.2s1.2-0.5,1.2-1.2c0-0.6-0.4-1.1-0.9-1.2v-8.2
                c-0.2-0.1-0.4-0.3-0.6-0.4V63C221.4,63.1,221,63.6,221,64.2z"/>
              <path fill="#61C2D8" d="M208.5,65.4l-4.7-4.7c0.1-0.2,0.2-0.4,0.2-0.6c0-0.7-0.5-1.2-1.2-1.2s-1.2,0.5-1.2,1.2
                c0,0.7,0.5,1.2,1.2,1.2c0.2,0,0.5-0.1,0.6-0.2l4.5,4.5v9.8l-4.6,4.6c-0.2-0.1-0.4-0.2-0.6-0.2c-0.7,0-1.2,0.5-1.2,1.2
                c0,0.7,0.5,1.2,1.2,1.2s1.2-0.5,1.2-1.2c0-0.2-0.1-0.5-0.2-0.7l4.7-4.7V65.4z"/>
              <path fill="#61C2D8" d="M180,72.6h-5.3l-4.8-4.7c-0.2,0-0.5,0-0.7,0.1l5.3,5.2h6l0-0.3c0.1-3.6,0.1-10.2,0.1-11.2
                c-0.2,0.1-0.4,0.2-0.6,0.3C180.1,63.4,180.1,70.8,180,72.6z"/>
              <path fill="#61C2D8" d="M143.6,54.5h-22.7c0,0.2,0,0.4-0.1,0.6h23.5C144.1,54.9,143.9,54.7,143.6,54.5z"/>
              <path fill="#61C2D8" d="M185.9,63.7V84c0,0.1,0,0.1,0.1,0.2l4.9,4.9c0.1,0.1,0.1,0.1,0.2,0.1h1.7c0.1,0.6,0.6,1,1.2,1
                c0.7,0,1.2-0.5,1.2-1.2s-0.5-1.2-1.2-1.2c-0.6,0-1.1,0.4-1.2,1h-1.6l-4.8-4.8V63.6c0-0.1,0-0.1-0.1-0.2l-0.9-1.5
                c-0.1,0.1-0.3,0.2-0.5,0.3L185.9,63.7z"/>
              <path fill="#61C2D8" d="M140.1,52h-18.4c-0.1,0.2-0.2,0.4-0.2,0.6h19.5C140.7,52.4,140.4,52.2,140.1,52z"/>
              <polygon fill="#61C2D8" points="122.3,62.6 122.3,62.6 122.3,62.6 						"/>
              <path fill="#61C2D8" d="M122.3,62.6c0,0,0,0.1,0.1,0.1h7.9c0.1,0.6,0.6,1,1.2,1c0.7,0,1.2-0.5,1.2-1.2c0-0.7-0.5-1.2-1.2-1.2
                c-0.5,0-1,0.4-1.2,0.8h-8.2C122.2,62.3,122.2,62.4,122.3,62.6L122.3,62.6z"/>
              <path fill="#61C2D8" d="M122.3,62.6c0,0,0,0.1,0.1,0.1l0,0C122.3,62.7,122.3,62.6,122.3,62.6z"/>
              <path fill="#61C2D8" d="M200.5,115.2l-3.9,3.9h-16.7c-0.1-0.5-0.6-0.9-1.2-0.9c-0.7,0-1.2,0.5-1.2,1.2c0,0.7,0.5,1.2,1.2,1.2
                c0.6,0,1.1-0.4,1.2-0.9h16.9l3.9-3.9h12.4v2.2c0.2-0.1,0.4-0.2,0.6-0.3v-2.5H200.5z"/>
              <path fill="#61C2D8" d="M251.2,84.1c-0.7,0-1.2,0.5-1.2,1.2c0,0.7,0.5,1.2,1.2,1.2c0.7,0,1.2-0.5,1.2-1.2
                c0-0.2-0.1-0.5-0.2-0.6l3.6-3.6c-0.2-0.1-0.3-0.2-0.5-0.3l-3.6,3.6C251.7,84.1,251.5,84.1,251.2,84.1z"/>
            </g>
          </g>
        </g>

        <linearGradient id="SVGID_00000120519567995067460850000017068807699481325450_" gradientUnits="userSpaceOnUse" x1="118.15" y1="62.0164" x2="246.221" y2="119.0373">
          <stop  offset="9.000000e-02" style="stop-color:#36343F; stop-opacity: 0.75"/>
          <stop  offset="0.42" style="stop-color:#000000; stop-opacity: 0"/>
        </linearGradient>
        <path fill="url(#SVGID_00000120519567995067460850000017068807699481325450_)" d="M234.2,102.2c0.2-0.2,0.4-0.4,0.6-0.5
          c0,0,0,0,0,0c10-8,18.5-20.6,26.4-16.4c-4.7-3.4-16.4-11.9-26.7-19.6c-10.1-7.6-19.4-15.7-23.8-15.7c-13.6,0-27.2,19-43.4,19
          c-15.3,0-31.1-26.5-41.1-20.9c-10.3,5.8,0.8,19.1,5.7,32.3c4.2,11.3,8.7,25.5,9.4,45.8c6.4,2,15.3,3.8,26.9,3.8
          c8.5,0,17.3-1.9,25.6-4.8C212.6,118.3,224.7,109.6,234.2,102.2z"/>
      </g>
    </g>
  </g>
  <g id="word-mark_00000107573735585455994770000006849885169106478734_">
	<g id="word-mark">
		<path fill="currentColor" d="M50.6,332v18h-3.5v-24.5h2.4l14.7,18v-18h3.5V350h-2.4L50.6,332z"/>
    <path fill="currentColor" d="M93.1,335.1v3.3h-8v8.2h10.8v3.3H81.6v-24.5h14v3.3H85.1v6.3H93.1z"/>
    <path fill="currentColor" d="M118.6,325.1c6.9,0,12.2,5.5,12.2,12.6s-5.3,12.6-12.2,12.6c-6.9,0-12.2-5.5-12.2-12.6
			S111.6,325.1,118.6,325.1z M118.6,347c5,0,8.7-4,8.7-9.3c0-5.3-3.7-9.3-8.7-9.3c-5,0-8.7,4-8.7,9.3C109.8,343,113.6,347,118.6,347
			z"/>
    <g>
			<path fill="currentColor" d="M155.1,344.7h-2.4l-7.2-11.2V350H142v-24.5h2.4l9.4,14.9l9.4-14.9h2.4V350h-3.5v-16.5L155.1,344.7z"/>
		</g>
    <g>
			<g>
				<circle fill="currentColor" cx="285.4" cy="321.1" r="2.5"/>
        <g>
					<circle fill="currentColor" cx="262.1" cy="354.2" r="2.5"/>
          <circle fill="currentColor" cx="254.8" cy="354.2" r="2.5"/>
				</g>
			</g>
      <path fill="currentColor" d="M205.8,347.8h-0.7c0.2,0,0.4,0,0.6,0c0.5,0,1,0,1.4-0.1C206.7,347.8,206.3,347.8,205.8,347.8z"/>
      <path fill="currentColor" d="M205.7,326c-6,0-10.6,4.7-10.6,10.9c0,3.2,1.2,6,3.2,8h-11.6v11.8h3.5v-8.9h15.6c0.4,0,0.9,0,1.3-0.1
				c0.1,0,0.1,0,0.2,0c0.2,0,0.3-0.1,0.5-0.1c0.3-0.1,0.6-0.1,1-0.2c0.2,0,0.3-0.1,0.5-0.2c0.1,0,0.3-0.1,0.4-0.1
				c4-1.6,6.7-5.4,6.7-10.2C216.3,330.7,211.7,326,205.7,326z M205.7,344.8c-4.3,0-7.4-3.4-7.4-7.9c0-4.5,3.2-7.9,7.4-7.9
				c4.2,0,7.4,3.4,7.4,7.9C213.1,341.4,209.9,344.8,205.7,344.8z"/>
      <path fill="currentColor" d="M283.8,327.6v17.3h-19.2v-17.3h-3.5v17.3h-19.4c0,0,0,0,0-0.1c1-2.4,1.5-5,1.5-7.9
				c0-4.6-2.5-8.4-6.3-10.1c-1.3-0.6-2.8-0.9-4.3-0.9c-6,0-10.6,4.7-10.6,10.9c0,3.1,1.2,5.9,3.2,7.9c1,1,2.2,1.8,3.5,2.3
				c0.1,0.1,0.3,0.1,0.4,0.1c0.2,0.1,0.3,0.1,0.5,0.2c0.3,0.1,0.6,0.2,1,0.2c0.2,0,0.3,0.1,0.5,0.1c0.1,0,0.1,0,0.2,0
				c0.4,0.1,0.9,0.1,1.3,0.1h3.8c-2.9,3.5-7.4,5.7-12.5,5.7v3.3c7.2,0,13.1-3.5,16.5-9h47.1v-20.2H283.8z M240,337.3
				c-0.1,2.7-0.7,5.3-1.8,7.5h-5.6c-4.2,0-7.4-3.4-7.4-7.9c0-4.5,3.2-7.9,7.4-7.9c4.3,0,7.4,3.4,7.4,7.9
				C240,337,240,337.2,240,337.3z"/>
		</g>
    <line fill="currentColor" x1="223.7" y1="356.8" x2="223.7" y2="353.5"/>
	</g>
</g>
</svg>
