<?xml version="1.0" encoding="utf-8"?>
<!-- Generator: Adobe Illustrator 26.0.3, SVG Export Plug-In . SVG Version: 6.00 Build 0)  -->
<svg version="1.1" xmlns="http://www.w3.org/2000/svg" xmlns:xlink="http://www.w3.org/1999/xlink" x="0px" y="0px"
	 viewBox="0 0 335 397.1" style="enable-background:new 0 0 335 397.1;" xml:space="preserve">
<style type="text/css">
	.st0{fill:#ffffff;}
	.st1{clip-path:url(#SVGID_00000158734879050190821880000000299291543830587287_);}
	.st2{clip-path:url(#SVGID_00000016756654395034879900000003494939123091144835_);}
	.st3{clip-path:url(#SVGID_00000065066553749472428530000005661871969285391269_);}
	.st4{clip-path:url(#SVGID_00000078038108695541006130000009021420207167902340_);}
</style>
<g id="NEOM_LOGO">
	<g>
		<g>
			<path class="st0" d="M50.6,331.9v18h-3.5v-24.5h2.4l14.7,18v-18h3.5v24.5h-2.4L50.6,331.9z"/>
			<path class="st0" d="M93.1,335v3.3h-8v8.2h10.8v3.3H81.6v-24.5h14v3.3H85.1v6.3H93.1z"/>
			<path class="st0" d="M118.6,325.1c6.9,0,12.2,5.5,12.2,12.6s-5.3,12.6-12.2,12.6c-6.9,0-12.2-5.5-12.2-12.6
				S111.6,325.1,118.6,325.1z M118.6,346.9c5,0,8.7-4,8.7-9.3c0-5.3-3.7-9.3-8.7-9.3c-5,0-8.7,4-8.7,9.3
				C109.8,343,113.5,346.9,118.6,346.9z"/>
			<g>
				<path class="st0" d="M155.1,344.6h-2.4l-7.2-11.2v16.5H142v-24.5h2.4l9.4,14.9l9.4-14.9h2.4v24.5h-3.5v-16.5L155.1,344.6z"/>
			</g>
			<g>
				<g>
					<circle class="st0" cx="285.4" cy="321.1" r="2.5"/>
					<g>
						<circle class="st0" cx="262.1" cy="354.1" r="2.5"/>
						<circle class="st0" cx="254.8" cy="354.1" r="2.5"/>
					</g>
				</g>
				<path class="st0" d="M205.8,347.7h-0.7c0.2,0,0.4,0,0.6,0c0.5,0,1,0,1.4-0.1C206.7,347.7,206.2,347.7,205.8,347.7z"/>
				<path class="st0" d="M205.6,325.9c-6,0-10.6,4.7-10.6,10.9c0,3.2,1.2,6,3.2,8h-11.6v11.8h3.5v-8.9h15.6c0.4,0,0.9,0,1.3-0.1
					c0.1,0,0.1,0,0.2,0c0.2,0,0.3-0.1,0.5-0.1c0.3-0.1,0.6-0.1,1-0.2c0.2,0,0.3-0.1,0.5-0.2c0.1,0,0.3-0.1,0.4-0.1
					c4-1.6,6.7-5.4,6.7-10.2C216.3,330.6,211.7,325.9,205.6,325.9z M205.6,344.7c-4.3,0-7.4-3.4-7.4-7.9c0-4.5,3.2-7.9,7.4-7.9
					c4.2,0,7.4,3.4,7.4,7.9C213.1,341.3,209.9,344.7,205.6,344.7z"/>
				<path class="st0" d="M283.8,327.5v17.3h-19.2v-17.3h-3.5v17.3h-19.4c0,0,0,0,0-0.1c1-2.4,1.5-5,1.5-7.9c0-4.6-2.5-8.4-6.3-10.1
					c-1.3-0.6-2.8-0.9-4.3-0.9c-6,0-10.6,4.7-10.6,10.9c0,3.1,1.2,5.9,3.2,7.9c1,1,2.2,1.8,3.5,2.3c0.1,0.1,0.3,0.1,0.4,0.1
					c0.2,0.1,0.3,0.1,0.5,0.2c0.3,0.1,0.6,0.2,1,0.2c0.2,0,0.3,0.1,0.5,0.1c0.1,0,0.1,0,0.2,0c0.4,0.1,0.9,0.1,1.3,0.1h3.8
					c-2.9,3.5-7.4,5.7-12.5,5.7v3.3c7.2,0,13.1-3.5,16.5-9h47.1v-20.2H283.8z M239.9,337.2c-0.1,2.7-0.7,5.3-1.8,7.5h-5.6
					c-4.2,0-7.4-3.4-7.4-7.9c0-4.5,3.2-7.9,7.4-7.9c4.3,0,7.4,3.4,7.4,7.9C239.9,337,239.9,337.1,239.9,337.2z"/>
			</g>
			<line class="st0" x1="223.6" y1="356.7" x2="223.6" y2="353.4"/>
		</g>
	</g>
	<g>
		<g>
			<g>
				<g>
					<defs>
						<path id="SVGID_1_" d="M79.8,170.9c-0.3,0-0.6,0-0.8,0.1c0,0,0,0,0,0c-12.8,0.6-27.1,5.8-31-2.2c1.8,5.5,6.3,19.3,10.1,31.5
							c3.7,12.1,6.4,24.1,10,26.7c11,8,33.2,0.6,46.3,10.1c12.4,9,9.6,39.7,21,41.1c11.8,1.4,10.6-15.9,14.4-29.5
							c3.3-11.6,8-25.8,19.3-42.6c-4-5.4-10.2-12.1-19.5-18.8c-6.9-5-15.1-8.6-23.5-11.1C106.6,170.6,91.8,170.5,79.8,170.9z"/>
					</defs>
					<clipPath id="SVGID_00000132078570350075712550000003984878237220024988_">
						<use xlink:href="#SVGID_1_"  style="overflow:visible;"/>
					</clipPath>
					<g style="clip-path:url(#SVGID_00000132078570350075712550000003984878237220024988_);">
						<g>
							<polygon class="st0" points="79.4,203 79.4,215.3 82.4,218.2 83.8,218.2 83.8,200.1 82.4,200.1 							"/>
							<rect x="84.4" y="276.3" class="st0" width="8.4" height="18.2"/>
							<polygon class="st0" points="79.4,222.1 79.4,234.3 82.4,237.3 83.8,237.3 83.8,219.1 82.4,219.1 							"/>
							<polygon class="st0" points="74.3,257.3 74.3,275.4 75.6,275.4 78.6,272.5 78.6,260.2 75.6,257.3 							"/>
							<polygon class="st0" points="79.4,164.9 79.4,177.1 82.4,180.1 83.8,180.1 83.8,161.9 82.4,161.9 							"/>
							<rect x="84.4" y="219.1" class="st0" width="8.4" height="18.2"/>
							<rect x="84.4" y="257.3" class="st0" width="8.4" height="18.2"/>
							<rect x="84.4" y="200.1" class="st0" width="8.4" height="18.2"/>
							<rect x="84.4" y="238.2" class="st0" width="8.4" height="18.2"/>
							<polygon class="st0" points="74.3,238.2 74.3,256.4 75.6,256.4 78.6,253.4 78.6,241.2 75.6,238.2 							"/>
							<polygon class="st0" points="79.4,241.2 79.4,253.4 82.4,256.4 83.8,256.4 83.8,238.2 82.4,238.2 							"/>
							<polygon class="st0" points="74.3,200.1 74.3,218.2 75.6,218.2 78.6,215.3 78.6,203 75.6,200.1 							"/>
							<rect x="84.4" y="181" class="st0" width="8.4" height="18.2"/>
							<polygon class="st0" points="74.3,181 74.3,199.2 75.6,199.2 78.6,196.2 78.6,184 75.6,181 							"/>
							<polygon class="st0" points="74.3,219.1 74.3,237.3 75.6,237.3 78.6,234.3 78.6,222.1 75.6,219.1 							"/>
							<polygon class="st0" points="74.3,161.9 74.3,180.1 75.6,180.1 78.6,177.1 78.6,164.9 75.6,161.9 							"/>
							<polygon class="st0" points="79.4,260.2 79.4,272.5 82.4,275.4 83.8,275.4 83.8,257.3 82.4,257.3 							"/>
							<polygon class="st0" points="79.4,279.3 79.4,291.6 82.4,294.5 83.8,294.5 83.8,276.3 82.4,276.3 							"/>
							<polygon class="st0" points="79.4,184 79.4,196.2 82.4,199.2 83.8,199.2 83.8,181 82.4,181 							"/>
							<polygon class="st0" points="98.5,184 98.5,196.2 101.5,199.2 102.9,199.2 102.9,181 101.5,181 							"/>
							<polygon class="st0" points="98.5,164.9 98.5,177.1 101.5,180.1 102.9,180.1 102.9,161.9 101.5,161.9 							"/>
							<polygon class="st0" points="98.5,222.1 98.5,234.3 101.5,237.3 102.9,237.3 102.9,219.1 101.5,219.1 							"/>
							<polygon class="st0" points="98.5,241.2 98.5,253.4 101.5,256.4 102.9,256.4 102.9,238.2 101.5,238.2 							"/>
							<rect x="103.4" y="257.3" class="st0" width="8.4" height="18.2"/>
							<rect x="103.4" y="276.3" class="st0" width="8.4" height="18.2"/>
							<rect x="103.4" y="238.2" class="st0" width="8.4" height="18.2"/>
							<polygon class="st0" points="98.5,260.2 98.5,272.5 101.5,275.4 102.9,275.4 102.9,257.3 101.5,257.3 							"/>
							<polygon class="st0" points="93.4,161.9 93.4,180.1 94.7,180.1 97.6,177.1 97.6,164.9 94.7,161.9 							"/>
							<polygon class="st0" points="93.4,238.2 93.4,256.4 94.7,256.4 97.6,253.4 97.6,241.2 94.7,238.2 							"/>
							<polygon class="st0" points="93.4,257.3 93.4,275.4 94.7,275.4 97.6,272.5 97.6,260.2 94.7,257.3 							"/>
							<polygon class="st0" points="93.4,276.3 93.4,294.5 94.7,294.5 97.6,291.6 97.6,279.3 94.7,276.3 							"/>
							<polygon class="st0" points="93.4,219.1 93.4,237.3 94.7,237.3 97.6,234.3 97.6,222.1 94.7,219.1 							"/>
							<polygon class="st0" points="98.5,279.3 98.5,291.6 101.5,294.5 102.9,294.5 102.9,276.3 101.5,276.3 							"/>
							<polygon class="st0" points="93.4,200.1 93.4,218.2 94.7,218.2 97.6,215.3 97.6,203 94.7,200.1 							"/>
							<rect x="84.4" y="161.9" class="st0" width="8.4" height="18.2"/>
							<polygon class="st0" points="93.4,181 93.4,199.2 94.7,199.2 97.6,196.2 97.6,184 94.7,181 							"/>
							<rect x="103.4" y="219.1" class="st0" width="8.4" height="18.2"/>
							<rect x="46.3" y="200.1" class="st0" width="8.4" height="18.2"/>
							<rect x="46.3" y="219.1" class="st0" width="8.4" height="18.2"/>
							<polygon class="st0" points="74.3,276.3 74.3,294.5 75.6,294.5 78.6,291.6 78.6,279.3 75.6,276.3 							"/>
							<rect x="46.3" y="238.2" class="st0" width="8.4" height="18.2"/>
							<rect x="46.3" y="161.9" class="st0" width="8.4" height="18.2"/>
							<polygon class="st0" points="55.3,257.3 55.3,275.4 56.6,275.4 59.5,272.5 59.5,260.2 56.6,257.3 							"/>
							<polygon class="st0" points="55.3,238.2 55.3,256.4 56.6,256.4 59.5,253.4 59.5,241.2 56.6,238.2 							"/>
							<polygon class="st0" points="55.3,276.3 55.3,294.5 56.6,294.5 59.5,291.6 59.5,279.3 56.6,276.3 							"/>
							<rect x="46.3" y="257.3" class="st0" width="8.4" height="18.2"/>
							<rect x="46.3" y="276.3" class="st0" width="8.4" height="18.2"/>
							<polygon class="st0" points="41.3,241.2 41.3,253.4 44.3,256.4 45.7,256.4 45.7,238.2 44.3,238.2 							"/>
							<polygon class="st0" points="41.3,260.2 41.3,272.5 44.3,275.4 45.7,275.4 45.7,257.3 44.3,257.3 							"/>
							<polygon class="st0" points="41.3,279.3 41.3,291.6 44.3,294.5 45.7,294.5 45.7,276.3 44.3,276.3 							"/>
							<polygon class="st0" points="41.3,222.1 41.3,234.3 44.3,237.3 45.7,237.3 45.7,219.1 44.3,219.1 							"/>
							<polygon class="st0" points="41.3,203 41.3,215.3 44.3,218.2 45.7,218.2 45.7,200.1 44.3,200.1 							"/>
							<polygon class="st0" points="41.3,164.9 41.3,177.1 44.3,180.1 45.7,180.1 45.7,161.9 44.3,161.9 							"/>
							<polygon class="st0" points="55.3,219.1 55.3,237.3 56.6,237.3 59.5,234.3 59.5,222.1 56.6,219.1 							"/>
							<polygon class="st0" points="41.3,184 41.3,196.2 44.3,199.2 45.7,199.2 45.7,181 44.3,181 							"/>
							<rect x="46.3" y="181" class="st0" width="8.4" height="18.2"/>
							<rect x="65.3" y="219.1" class="st0" width="8.4" height="18.2"/>
							<rect x="65.3" y="238.2" class="st0" width="8.4" height="18.2"/>
							<rect x="65.3" y="257.3" class="st0" width="8.4" height="18.2"/>
							<rect x="65.3" y="276.3" class="st0" width="8.4" height="18.2"/>
							<rect x="65.3" y="161.9" class="st0" width="8.4" height="18.2"/>
							<polygon class="st0" points="60.4,164.9 60.4,177.1 63.4,180.1 64.8,180.1 64.8,161.9 63.4,161.9 							"/>
							<polygon class="st0" points="55.3,200.1 55.3,218.2 56.6,218.2 59.5,215.3 59.5,203 56.6,200.1 							"/>
							<rect x="65.3" y="200.1" class="st0" width="8.4" height="18.2"/>
							<rect x="65.3" y="181" class="st0" width="8.4" height="18.2"/>
							<polygon class="st0" points="55.3,161.9 55.3,180.1 56.6,180.1 59.5,177.1 59.5,164.9 56.6,161.9 							"/>
							<polygon class="st0" points="60.4,260.2 60.4,272.5 63.4,275.4 64.8,275.4 64.8,257.3 63.4,257.3 							"/>
							<polygon class="st0" points="60.4,279.3 60.4,291.6 63.4,294.5 64.8,294.5 64.8,276.3 63.4,276.3 							"/>
							<polygon class="st0" points="60.4,184 60.4,196.2 63.4,199.2 64.8,199.2 64.8,181 63.4,181 							"/>
							<polygon class="st0" points="55.3,181 55.3,199.2 56.6,199.2 59.5,196.2 59.5,184 56.6,181 							"/>
							<polygon class="st0" points="60.4,203 60.4,215.3 63.4,218.2 64.8,218.2 64.8,200.1 63.4,200.1 							"/>
							<polygon class="st0" points="60.4,241.2 60.4,253.4 63.4,256.4 64.8,256.4 64.8,238.2 63.4,238.2 							"/>
							<polygon class="st0" points="60.4,222.1 60.4,234.3 63.4,237.3 64.8,237.3 64.8,219.1 63.4,219.1 							"/>
							<polygon class="st0" points="98.5,203 98.5,215.3 101.5,218.2 102.9,218.2 102.9,200.1 101.5,200.1 							"/>
							<polygon class="st0" points="150.5,219.1 150.5,237.3 151.8,237.3 154.8,234.3 154.8,222.1 151.8,219.1 							"/>
							<polygon class="st0" points="150.5,200.1 150.5,218.2 151.8,218.2 154.8,215.3 154.8,203 151.8,200.1 							"/>
							<polygon class="st0" points="150.5,257.3 150.5,275.4 151.8,275.4 154.8,272.5 154.8,260.2 151.8,257.3 							"/>
							<polygon class="st0" points="150.5,181 150.5,199.2 151.8,199.2 154.8,196.2 154.8,184 151.8,181 							"/>
							<polygon class="st0" points="155.6,222.1 155.6,234.3 158.6,237.3 160,237.3 160,219.1 158.6,219.1 							"/>
							<polygon class="st0" points="155.6,241.2 155.6,253.4 158.6,256.4 160,256.4 160,238.2 158.6,238.2 							"/>
							<polygon class="st0" points="150.5,161.9 150.5,180.1 151.8,180.1 154.8,177.1 154.8,164.9 151.8,161.9 							"/>
							<polygon class="st0" points="155.6,260.2 155.6,272.5 158.6,275.4 160,275.4 160,257.3 158.6,257.3 							"/>
							<polygon class="st0" points="155.6,279.3 155.6,291.6 158.6,294.5 160,294.5 160,276.3 158.6,276.3 							"/>
							<polygon class="st0" points="150.5,238.2 150.5,256.4 151.8,256.4 154.8,253.4 154.8,241.2 151.8,238.2 							"/>
							<rect x="141.5" y="219.1" class="st0" width="8.4" height="18.2"/>
							<polygon class="st0" points="150.5,276.3 150.5,294.5 151.8,294.5 154.8,291.6 154.8,279.3 151.8,276.3 							"/>
							<rect x="141.5" y="257.3" class="st0" width="8.4" height="18.2"/>
							<rect x="141.5" y="276.3" class="st0" width="8.4" height="18.2"/>
							<rect x="141.5" y="238.2" class="st0" width="8.4" height="18.2"/>
							<rect x="141.5" y="200.1" class="st0" width="8.4" height="18.2"/>
							<polygon class="st0" points="136.6,164.9 136.6,177.1 139.6,180.1 141,180.1 141,161.9 139.6,161.9 							"/>
							<rect x="141.5" y="181" class="st0" width="8.4" height="18.2"/>
							<rect x="141.5" y="161.9" class="st0" width="8.4" height="18.2"/>
							<polygon class="st0" points="169.6,238.2 169.6,256.4 170.9,256.4 173.8,253.4 173.8,241.2 170.9,238.2 							"/>
							<polygon class="st0" points="169.6,257.3 169.6,275.4 170.9,275.4 173.8,272.5 173.8,260.2 170.9,257.3 							"/>
							<polygon class="st0" points="169.6,219.1 169.6,237.3 170.9,237.3 173.8,234.3 173.8,222.1 170.9,219.1 							"/>
							<rect x="160.6" y="161.9" class="st0" width="8.4" height="18.2"/>
							<polygon class="st0" points="169.6,276.3 169.6,294.5 170.9,294.5 173.8,291.6 173.8,279.3 170.9,276.3 							"/>
							<polygon class="st0" points="170.9,161.9 169.6,161.9 169.6,180.1 170.9,180.1 173.8,177.1 173.8,164.9 							"/>
							<polygon class="st0" points="169.6,200.1 169.6,218.2 170.9,218.2 173.8,215.3 173.8,203 170.9,200.1 							"/>
							<polygon class="st0" points="169.6,181 169.6,199.2 170.9,199.2 173.8,196.2 173.8,184 170.9,181 							"/>
							<rect x="160.6" y="257.3" class="st0" width="8.4" height="18.2"/>
							<polygon class="st0" points="155.6,203 155.6,215.3 158.6,218.2 160,218.2 160,200.1 158.6,200.1 							"/>
							<rect x="160.6" y="181" class="st0" width="8.4" height="18.2"/>
							<polygon class="st0" points="155.6,164.9 155.6,177.1 158.6,180.1 160,180.1 160,161.9 158.6,161.9 							"/>
							<polygon class="st0" points="155.6,184 155.6,196.2 158.6,199.2 160,199.2 160,181 158.6,181 							"/>
							<rect x="160.6" y="276.3" class="st0" width="8.4" height="18.2"/>
							<rect x="160.6" y="238.2" class="st0" width="8.4" height="18.2"/>
							<rect x="160.6" y="200.1" class="st0" width="8.4" height="18.2"/>
							<rect x="160.6" y="219.1" class="st0" width="8.4" height="18.2"/>
							<polygon class="st0" points="136.6,260.2 136.6,272.5 139.6,275.4 141,275.4 141,257.3 139.6,257.3 							"/>
							<polygon class="st0" points="117.5,260.2 117.5,272.5 120.5,275.4 121.9,275.4 121.9,257.3 120.5,257.3 							"/>
							<polygon class="st0" points="117.5,222.1 117.5,234.3 120.5,237.3 121.9,237.3 121.9,219.1 120.5,219.1 							"/>
							<rect x="122.5" y="257.3" class="st0" width="8.4" height="18.2"/>
							<polygon class="st0" points="117.5,279.3 117.5,291.6 120.5,294.5 121.9,294.5 121.9,276.3 120.5,276.3 							"/>
							<polygon class="st0" points="117.5,184 117.5,196.2 120.5,199.2 121.9,199.2 121.9,181 120.5,181 							"/>
							<polygon class="st0" points="117.5,164.9 117.5,177.1 120.5,180.1 121.9,180.1 121.9,161.9 120.5,161.9 							"/>
							<rect x="122.5" y="276.3" class="st0" width="8.4" height="18.2"/>
							<polygon class="st0" points="117.5,203 117.5,215.3 120.5,218.2 121.9,218.2 121.9,200.1 120.5,200.1 							"/>
							<polygon class="st0" points="112.4,161.9 112.4,180.1 113.7,180.1 116.7,177.1 116.7,164.9 113.7,161.9 							"/>
							<polygon class="st0" points="117.5,241.2 117.5,253.4 120.5,256.4 121.9,256.4 121.9,238.2 120.5,238.2 							"/>
							<polygon class="st0" points="112.4,276.3 112.4,294.5 113.7,294.5 116.7,291.6 116.7,279.3 113.7,276.3 							"/>
							<rect x="103.4" y="161.9" class="st0" width="8.4" height="18.2"/>
							<polygon class="st0" points="112.4,181 112.4,199.2 113.7,199.2 116.7,196.2 116.7,184 113.7,181 							"/>
							<polygon class="st0" points="112.4,257.3 112.4,275.4 113.7,275.4 116.7,272.5 116.7,260.2 113.7,257.3 							"/>
							<rect x="103.4" y="181" class="st0" width="8.4" height="18.2"/>
							<polygon class="st0" points="112.4,200.1 112.4,218.2 113.7,218.2 116.7,215.3 116.7,203 113.7,200.1 							"/>
							<polygon class="st0" points="112.4,238.2 112.4,256.4 113.7,256.4 116.7,253.4 116.7,241.2 113.7,238.2 							"/>
							<polygon class="st0" points="112.4,219.1 112.4,237.3 113.7,237.3 116.7,234.3 116.7,222.1 113.7,219.1 							"/>
							<rect x="122.5" y="200.1" class="st0" width="8.4" height="18.2"/>
							<polygon class="st0" points="136.6,279.3 136.6,291.6 139.6,294.5 141,294.5 141,276.3 139.6,276.3 							"/>
							<rect x="122.5" y="238.2" class="st0" width="8.4" height="18.2"/>
							<polygon class="st0" points="131.5,181 131.5,199.2 132.8,199.2 135.7,196.2 135.7,184 132.8,181 							"/>
							<rect x="103.4" y="200.1" class="st0" width="8.4" height="18.2"/>
							<polygon class="st0" points="136.6,222.1 136.6,234.3 139.6,237.3 141,237.3 141,219.1 139.6,219.1 							"/>
							<polygon class="st0" points="136.6,203 136.6,215.3 139.6,218.2 141,218.2 141,200.1 139.6,200.1 							"/>
							<polygon class="st0" points="131.5,200.1 131.5,218.2 132.8,218.2 135.7,215.3 135.7,203 132.8,200.1 							"/>
							<polygon class="st0" points="136.6,241.2 136.6,253.4 139.6,256.4 141,256.4 141,238.2 139.6,238.2 							"/>
							<polygon class="st0" points="131.5,161.9 131.5,180.1 132.8,180.1 135.7,177.1 135.7,164.9 132.8,161.9 							"/>
							<polygon class="st0" points="136.6,184 136.6,196.2 139.6,199.2 141,199.2 141,181 139.6,181 							"/>
							<rect x="122.5" y="181" class="st0" width="8.4" height="18.2"/>
							<rect x="122.5" y="161.9" class="st0" width="8.4" height="18.2"/>
							<rect x="122.5" y="219.1" class="st0" width="8.4" height="18.2"/>
							<polygon class="st0" points="131.5,219.1 131.5,237.3 132.8,237.3 135.7,234.3 135.7,222.1 132.8,219.1 							"/>
							<polygon class="st0" points="131.5,238.2 131.5,256.4 132.8,256.4 135.7,253.4 135.7,241.2 132.8,238.2 							"/>
							<polygon class="st0" points="131.5,276.3 131.5,294.5 132.8,294.5 135.7,291.6 135.7,279.3 132.8,276.3 							"/>
							<polygon class="st0" points="131.5,257.3 131.5,275.4 132.8,275.4 135.7,272.5 135.7,260.2 132.8,257.3 							"/>
						</g>
					</g>
				</g>
				<g>
					<defs>
						<path id="SVGID_00000070798370030319469640000017261477140909326753_" d="M149.7,248.5c-0.1,0.3-0.1,0.6-0.2,0.8c0,0,0,0,0,0
							c-3.4,12.4-2.8,27.5-11.7,28.8c5.8,0,20.3,0,33.1,0.2c12.6,0.2,24.9,1.3,28.5-1.3c11-8,10.8-31.4,23.9-40.9
							c12.4-9,40.7,3.1,45.5-7.3c5-10.8-11.9-15-23.6-22.8c-10-6.7-22-15.6-34.5-31.5c-6.4,2.2-14.6,6-23.9,12.8
							c-6.9,5-12.8,11.7-17.8,18.9C157.7,222.8,153,236.9,149.7,248.5z"/>
					</defs>
					<clipPath id="SVGID_00000067938462781460432100000001557240608400630661_">
						<use xlink:href="#SVGID_00000070798370030319469640000017261477140909326753_"  style="overflow:visible;"/>
					</clipPath>
					<g style="clip-path:url(#SVGID_00000067938462781460432100000001557240608400630661_);">
						<path class="st0" d="M180.2,263.3c0.4-1.9,4-18.9,4-21.2c0-2.8-3.5-7.4-3.9-7.8c-0.3-0.3-0.9-0.3-1.2,0.1
							c-0.3,0.3-0.3,0.9,0.1,1.2c0.6,0.5,3.3,4.5,3.4,6.5c0,0,0,0.1,0,0.1c0,1.6-2.4,13.3-4,20.8c-0.2,0.7-2.8,9.5-3.5,16.1
							c0.6,0,1.1,0,1.7,0C177.5,272.5,180.1,263.5,180.2,263.3L180.2,263.3z"/>
						<path class="st0" d="M184.5,259.2c1.3-5.5,3-13.1,2.8-16.3c-0.3-4.1-0.8-8.5-3.5-10c-2.3-1.2-7.2-1.1-9.8-1
							c-0.3,0-0.6,0-0.8,0c-2,0-8.8,2.7-11.2,4.9c-0.4,0.4-0.9,0.8-1.6,1.4c-3,2.6-7.6,6.5-9.2,9.9c-0.8,1.7-1.8,3.2-2.8,4.4
							c-0.2,1.1-0.4,2.2-0.6,3.3c1.5-1.6,3.6-4,5-7c1.5-3.1,6-7,8.8-9.4c0.6-0.5,1.2-1,1.6-1.4c2.2-2,8.6-4.4,10.1-4.4
							c0.2,0,0.5,0,0.8,0c2.1-0.1,7-0.2,8.9,0.8c2.2,1.1,2.5,6.2,2.6,8.6c0,0,0,0.1,0,0.1c0.1,3-1.6,10.6-2.8,15.7
							c-0.3,1.4-0.6,2.6-0.8,3.6c-0.7,3.4-1.7,10.9-2.3,16.7c0.6,0,1.1,0,1.7,0c0.6-5.6,1.5-13,2.2-16.3
							C183.9,261.8,184.2,260.6,184.5,259.2z"/>
						<path class="st0" d="M157,239c4.8-2.9,10.3-6.5,10.4-6.5c0.4-0.3,0.5-0.8,0.3-1.2c-0.2-0.4-0.8-0.5-1.2-0.3
							c-0.1,0-5.6,3.6-10.4,6.5c-1.8,1.1-3.7,3.2-5.4,5.6c-0.4,1.6-0.8,3.1-1.2,4.7C151.7,244.4,154.6,240.5,157,239z"/>
						<path class="st0" d="M166.1,230.6c4.6-0.8,12.6-0.9,12.7-0.9c0.1,0,7.4,0.1,8.3,4.1c1.2,4.9,1.9,13.3,1.3,15.9
							c-0.6,2.8-4.7,17.2-4.8,17.4c-0.1,0.5,0.1,0.9,0.6,1.1c0.4,0.1,0.9-0.1,1-0.6c0.2-0.6,4.2-14.7,4.8-17.5
							c0.6-3-0.2-11.9-1.4-16.6c-1.3-5.3-9.6-5.4-10-5.4c-0.4,0-8.2,0.1-13,0.9c-3.7,0.6-9.6,4.1-12.5,5.9c-0.3,0.9-0.7,1.8-1,2.8
							c0.1-0.1,0.2-0.2,0.3-0.3C153.6,236.6,161.8,231.3,166.1,230.6z"/>
						<path class="st0" d="M193.3,247.8c0-0.8,0-1.7-0.1-2.7c-0.1-6.1-0.2-13.6-3.1-16.6c-3.2-3.3-7.8-4.9-13.2-4.5
							c-5.2,0.4-12.9,2.1-15.2,2.8c-1.1,0.3-3.9,1.7-6.6,3.1c-0.4,0.8-0.7,1.7-1,2.5c3.1-1.7,6.8-3.6,8.1-4
							c2.2-0.6,9.8-2.4,14.8-2.7c4.9-0.3,9,1,11.9,4c2.4,2.5,2.5,9.9,2.6,15.4c0,0.9,0,1.8,0.1,2.7c0.1,4.4-1.8,11.6-5.6,21.4
							c-1.3,3.2-2.2,6.5-2.8,9.9c0.6,0,1.2,0,1.7,0c0.6-3.1,1.5-6.2,2.7-9.2C191.5,259.8,193.4,252.4,193.3,247.8z"/>
						<path class="st0" d="M194.5,261.7c0.6-3.9,1.2-8,2-10.4c1.6-5.2-0.3-17.2-1-20.8c-1-5.6-5.1-7.7-8.1-8.8
							c-3-1.1-12.5-0.1-15.9,0.3c-2.7,0.3-9.5,2-14.3,3.6c-0.3,0.7-0.7,1.4-1,2.1c4.7-1.6,12.7-3.7,15.5-4
							c4.9-0.5,12.9-1.2,15.2-0.4c2.8,1,6.2,2.8,7,7.5c1.3,7.1,2.2,16.1,1,20c-0.8,2.5-1.4,6.7-2,10.7c-0.5,3.3-1,6.4-1.5,8.1
							c-0.5,1.8-1.5,5.7-2.5,9.5c0.6,0,1.2,0,1.7,0c1-3.7,1.9-7.3,2.4-9C193.5,268.2,193.9,265.1,194.5,261.7z"/>
						<path class="st0" d="M190.8,267.6c0.1-0.5-0.1-0.9-0.6-1.1c-0.4-0.1-0.9,0.1-1,0.6c0,0-0.6,2.2-1.3,4.1c-0.4,1-1.3,4.7-2,7.8
							c0.6,0,1.2,0,1.7,0c0.7-2.9,1.5-6.2,1.9-7.2C190.2,269.9,190.8,267.7,190.8,267.6z"/>
						<path class="st0" d="M199.3,256.1l0-0.1c0.1-0.7,1.4-17.4,0.5-21.4c-0.9-3.9-2.8-11.6-5.9-13.8c-2.9-2-10.4-4.8-13.7-4.9
							c-2.1-0.1-6.7,0.8-10,1.3c-1.6,0.2-2.9,0.4-3.4,0.5c-0.7,0-3.1,0.3-5.9,0.7c-0.3,0.6-0.7,1.2-1,1.8c3.2-0.4,6.2-0.8,6.9-0.8
							c0.5,0,1.8-0.2,3.5-0.5c3.1-0.5,7.8-1.4,9.7-1.3c2.7,0.1,10,2.7,12.8,4.6c2.6,1.8,4.4,9.4,5.2,12.8c0.7,3,0,14.8-0.5,20.8
							c-0.2,0.9-2.9,13.2-3.4,15.6c-0.3,1.3-1.1,4.5-2,7.7c0.7,0,1.2,0,1.7,0c0.9-3.2,1.7-6.2,1.9-7.3
							C196.4,269.2,199.3,256.1,199.3,256.1z"/>
						<path class="st0" d="M167.6,221.7c1.9-0.4,6.5-0.9,9-1.2l1-0.1c1.8-0.2,5.3,0.1,5.3,0.1c0.5,0,0.9-0.3,0.9-0.8
							c0-0.5-0.3-0.9-0.8-0.9c-0.1,0-3.7-0.3-5.6-0.1l-1,0.1c-2.5,0.3-7.2,0.8-9.2,1.2c-1.2,0.3-4.8,0.9-8,1.4
							c-0.3,0.6-0.6,1.3-0.9,1.9c0.4-0.1,0.8-0.1,1.2-0.2C162.8,222.6,166.3,222,167.6,221.7z"/>
						<path class="st0" d="M188.3,216.4c0.5,0.1,0.9-0.2,1-0.7c0.1-0.5-0.2-0.9-0.6-1c-1.1-0.2-10.7-1.7-12.8-1.4
							c-1.4,0.2-5.6,0.7-12.6,0.8c-0.3,0.6-0.7,1.1-1,1.7c5.6-0.1,12-0.6,13.9-0.8C177.5,214.8,184.4,215.5,188.3,216.4z"/>
						<path class="st0" d="M175.3,212.2c3.7-0.1,11.7,1,14.2,2.1c2.5,1.1,5.4,5.2,7.4,8.1c2.1,3.1,3.9,9.7,4.1,11.1
							c0.2,1,0.1,7.7,0,12.1c0,0.5,0.4,0.9,0.8,0.9c0.5,0,0.9-0.4,0.9-0.8c0-1.1,0.2-10.9,0-12.4c-0.3-1.6-2.2-8.4-4.4-11.8
							c-2.3-3.4-5.3-7.5-8.1-8.7c-2.7-1.2-10.9-2.3-14.9-2.3c-1.3,0-3.8,0-6.4,0c-1.1,0-2.3,0-3.4,0c-0.4,0.6-0.7,1.1-1.1,1.7
							c1.5,0,3.1,0,4.5,0C171.5,212.3,174,212.3,175.3,212.2z"/>
						<path class="st0" d="M208.8,263.9c0.2-0.6,3.9-15.7,4-23.1c0.1-7-4.1-16.5-8.3-21.6c-4.2-5.1-9.9-11.3-13.6-12.4
							c-3.4-1-14.5-3.8-20.2-3.8c-0.3,0.4-0.6,0.8-0.9,1.2c-0.1,0.2-0.2,0.3-0.3,0.5c0.3,0,0.5,0,0.7,0c5.2-0.2,16.8,2.7,20.2,3.7
							c2.5,0.7,7.2,5.1,12.8,11.9c3.9,4.7,8,13.9,7.9,20.4c-0.2,7.3-3.8,22.1-4,22.7l0,0.2c-0.5,1.9-1.3,5.2-2,8.8
							c1.1-1.7,2-3.6,2.9-5.6c0.3-1.1,0.5-2.1,0.7-2.8L208.8,263.9z"/>
						<path class="st0" d="M214.7,232.7c-1.8-6-6.3-13.1-6.8-13.9c-1.5-2.3-7.5-9.7-12.2-13c-4.3-3-13.7-5.1-19.8-6.4l-1.3-0.3
							c-0.2,0-0.4-0.1-0.6-0.1c-0.4,0.5-0.8,1-1.2,1.5c0.5,0.1,1,0.2,1.5,0.3l1.3,0.3c5.7,1.2,15.2,3.3,19.2,6.1
							c4.3,3,10.2,10.2,11.8,12.6c1.8,2.8,5.3,8.8,6.6,13.5c1.5,5,1,12.7,0.8,16.9c0,0.3,0,0.6-0.1,1c0.6-1.5,1.2-3,1.9-4.5
							C215.9,242.2,215.9,236.7,214.7,232.7z"/>
						<path class="st0" d="M206.1,199.2c-5-3.6-11.3-7.9-15.5-9.4c-1.5-0.5-3.7-1.3-6.1-2c-0.5,0.4-1,0.9-1.5,1.3
							c2.6,0.8,5.3,1.7,7,2.3c4,1.5,10.2,5.7,15.1,9.2c4.3,3.1,11.6,13,13.2,16.8c1.6,3.7,3.8,17.8,3.5,20c0,0.2,0,0.4,0,0.6
							c0.5-0.5,1.1-1,1.7-1.5c-0.2-4.2-2.1-16.1-3.6-19.7C218.1,212.7,210.7,202.5,206.1,199.2z"/>
						<path class="st0" d="M211.8,203.5c0.3,0.3,0.9,0.3,1.2,0c0.3-0.3,0.3-0.9,0-1.2c-0.2-0.2-3.8-4-8.1-6.9
							c-3.7-2.6-13.2-8.2-17.6-10c-0.2,0.1-0.4,0.3-0.5,0.4c-0.3,0.3-0.6,0.6-1,0.8c3.2,1,13.8,7.1,18.1,10.1
							C208,199.7,211.7,203.5,211.8,203.5z"/>
						<path class="st0" d="M214.3,199.9c-3.7-5.3-13-12.1-18-14.8c-1.4-0.8-3.3-1.6-5.3-2.5c-0.5,0.4-1.1,0.8-1.6,1.2
							c2.3,1,4.5,1.9,6.1,2.8c5,2.7,14,9.4,17.5,14.3c3.4,4.8,8.9,18.9,10,23c0.4,1.6,1.5,6.1,2.4,11.3c0.5-0.3,1-0.6,1.6-0.9
							c-0.9-5-1.9-9.3-2.3-10.9C223.4,219.2,217.9,205,214.3,199.9z"/>
						<path class="st0" d="M223.2,212.6c-1.1-2.5-2.1-4.8-2.7-6.3l-0.2-0.6c-1.4-3.9-3.6-10.3-8.7-13.6c-5-3.3-11.6-7.8-11.7-7.9
							c-0.4-0.3-0.9-0.2-1.2,0.2c-0.1,0.2-0.2,0.3-0.1,0.5c0,0.3,0.1,0.5,0.4,0.7c0.1,0,6.7,4.6,11.7,7.9c4.5,3,6.7,9.1,8,12.8
							l0.2,0.7c0.6,1.6,1.6,3.9,2.7,6.4c1.5,3.3,3.2,7.1,3.8,9.3c0.7,2.3,1.8,8.1,2.6,12.3c0.5-0.2,1-0.4,1.6-0.6
							c-0.8-4.2-1.9-9.8-2.6-12.2C226.4,219.8,224.7,216.2,223.2,212.6z"/>
						<path class="st0" d="M225.2,202.5c-0.7-0.6-1.7-2-3-3.7c-2-2.7-4.6-6.1-7.2-8.5c-4.5-4.2-12-8.2-17-9.2
							c-0.9-0.2-2.1-0.5-3.3-1c-0.6,0.4-1.2,0.8-1.8,1.2c1.7,0.7,3.4,1.2,4.7,1.5c4.7,0.9,12,4.9,16.2,8.8c2.5,2.3,5,5.6,7,8.3
							c1.3,1.8,2.4,3.2,3.1,3.9c1.7,1.7,8.8,13.7,9.8,20.4c0.4,2.4,0.5,6.2,0.6,9.1c0.5,0,1.1-0.1,1.7-0.1c0-2.9-0.2-6.8-0.6-9.3
							C234.4,216.8,227.1,204.3,225.2,202.5z"/>
						<path class="st0" d="M228.6,200c-0.4-0.7-0.8-1.4-1.1-2c-2.8-5.1-6.7-9.6-12.7-14.5c-4.8-3.9-8.6-6.5-11.8-7.8
							c-0.7,0.3-1.4,0.7-2.1,1c3.3,1,7.4,3.6,12.9,8.1c5.8,4.8,9.6,9.1,12.3,14c0.3,0.6,0.7,1.3,1.1,2c3,5.4,7.1,12.8,8.9,20.2
							c0.9,3.6,1.4,8.5,1.7,12.1c0.6,0,1.1,0,1.7,0c-0.2-3.7-0.8-8.8-1.7-12.6C235.7,213,231.6,205.5,228.6,200z"/>
						<path class="st0" d="M212.7,186.6c1.5,1.3,8.7,9.6,9.7,11.1c0.2,0.4,0.8,0.5,1.2,0.3c0.4-0.3,0.5-0.8,0.3-1.2
							c-1.1-1.7-8.5-10.1-10-11.5c-1.6-1.5-9.6-5.2-13.6-6.2c-0.7-0.2-1.5-0.5-2.4-0.8c-0.6,0.3-1.2,0.7-1.8,1.1
							c1.4,0.6,2.8,1.2,3.8,1.4C203.7,181.7,211.4,185.4,212.7,186.6z"/>
						<path class="st0" d="M229.8,194.3c-0.4-0.4-0.9-0.8-1.3-1.2c-4.3-4-8.5-8.1-12.3-12.8c-3-2.1-6.3-4-9.9-5.7
							c-0.1-0.1-0.3-0.1-0.4-0.2c-0.7,0.3-1.3,0.6-2,0.9c0.6,0.3,1.1,0.6,1.7,0.8c9.7,4.6,16.8,10.4,21.7,17.6
							c6.5,9.6,9.5,17.1,11.7,28.6c0.7,3.8,1.1,7.8,1.3,10.8c0.6,0,1.1,0.1,1.7,0.1c-0.2-3-0.6-7.2-1.4-11.2
							C238.5,211.1,235.5,203.2,229.8,194.3z"/>
						<path class="st0" d="M214.1,177.7c-0.9-1.1-1.7-2.3-2.6-3.4c-0.8-0.5-1.6-0.9-2.4-1.4c-0.7,0.3-1.3,0.5-2,0.8
							c1.9,1.1,4,2.3,6.4,3.7C213.7,177.5,213.9,177.6,214.1,177.7z"/>
						<path class="st0" d="M235.5,198.9c-1.1-0.8-2.2-1.7-3.3-2.6c0.2,0.3,0.5,1.2,0.7,1.5c4.2,7.6,6.7,16.8,7.6,20.4
							c0.8,3.1,2,9.9,3,15c0.6,0,1.2,0.1,1.7,0.1c-1-5.2-2.3-12.3-3.1-15.6C241.3,214.5,239,206,235.5,198.9z"/>
						<path class="st0" d="M241.3,203c-0.8-0.5-1.6-1.1-2.4-1.7c1.2,3,2.2,6.6,2.7,9.8c1.3,7.4,2.9,16.3,4.1,22.3
							c0.6,0,1.2,0.1,1.7,0.1c-1.3-6-2.9-15.1-4.2-22.7C242.9,208.4,242.2,205.5,241.3,203z"/>
						<path class="st0" d="M245.2,205.5c-0.7-0.4-1.4-0.9-2.1-1.3c1.3,4.4,4,19.9,4.9,26c0.1,0.7,0.3,2.3,0.5,3.3
							c0.6,0,1.1,0.1,1.7,0.1c-0.2-1-0.4-2.7-0.5-3.6C249,225.2,246.7,211.7,245.2,205.5z"/>
						<path class="st0" d="M254.1,215.7c-0.1-0.8-0.3-2.8-0.6-5c-0.6-0.3-1.2-0.7-1.8-1c0.3,2.5,0.7,5,0.7,6.1
							c0.1,1.1,0.8,6.5,1.7,12.7c0.2,1.5,0.6,4.1,0.8,5.6c0.6,0,1.1,0,1.7,0c-0.2-1.6-0.6-4.3-0.8-5.8
							C254.9,222.3,254.1,216.8,254.1,215.7z"/>
						<path class="st0" d="M258.3,224.6c0.4-3.3,0.2-7.5-0.4-11.5c-0.6-0.3-1.2-0.7-1.9-1c0.8,4.2,1.1,8.7,0.6,12.3
							c-0.3,2.4-0.1,6.6,0.3,9.6c0.6,0,1.1,0,1.7-0.1C258.3,231,258,226.8,258.3,224.6z"/>
						<path class="st0" d="M261.9,215.3c-0.5-0.3-1.1-0.6-1.6-0.9c0,0.2,0,0.4,0,0.6c-0.3,4.1-0.6,12.9-0.3,18.9
							c0.6-0.1,1.1-0.1,1.7-0.2C261.4,228.5,261.5,220.6,261.9,215.3z"/>
						<path class="st0" d="M266.4,217.9c0,0-0.1-0.1-0.1-0.1c-0.3-0.2-0.6-0.4-0.8-0.6c-0.2-0.1-0.5-0.3-0.7-0.4
							c0.7,4.1,1.1,10.1,1.4,15.3c0.6-0.3,1.1-0.5,1.6-0.9c-0.2-4.4-0.6-9.6-1.1-13.3C266.6,218,266.5,217.9,266.4,217.9z"/>
						<path class="st0" d="M270,225.5c-0.1-1.5-0.2-3-0.4-4.5c-0.3-0.5-0.7-1-1.2-1.5l0,0c-0.2-0.2-0.4-0.4-0.6-0.6c0,0,0,0,0,0
							c0,0-0.1-0.1-0.1-0.1c0.3,2.2,0.4,4.5,0.6,6.8c0.1,1.4,0.2,2.8,0.4,4.2c0.6-0.6,1.2-1.3,1.5-2.2
							C270.1,226.9,270.1,226.2,270,225.5z"/>
						<path class="st0" d="M176.5,240.6c-2.2-2.5-4.3-1.4-6.1-0.4c-0.1,0.1-0.3,0.2-0.4,0.2c-1.7,0.9-6.9,6.1-11.7,11.1l-0.7,0.7
							c-2,2-3.5,5-4.1,8.1c-0.3,1.4-1,3.6-1.7,5.6c-0.7,2-1.1,3.3-1.2,3.9c-0.1,1-2.9,7.3-4.1,9.2c0.6,0,1.3,0,1.9,0
							c1.4-2.6,3.7-7.8,3.8-9c0.1-0.5,0.6-2.1,1.1-3.6c0.7-2,1.4-4.3,1.7-5.8c0.6-2.7,2-5.5,3.7-7.2l0.7-0.7
							c2.4-2.4,9.6-9.9,11.3-10.8c0.2-0.1,0.3-0.2,0.5-0.2c1.9-1,2.8-1.4,4,0.1c1.2,1.3,0,5.6-1.6,9c-0.6,1.3-3,5.9-5.9,9.5
							c-3,3.7-5.9,9.4-6.7,12c-0.7,2.1-0.4,4.7,0,6.8c0.6,0,1.1,0,1.7,0c-0.4-2-0.7-4.5-0.1-6.3c0.8-2.5,3.7-8.1,6.4-11.5
							c3-3.7,5.4-8.4,6.1-9.8C176.2,249,178.6,243.1,176.5,240.6z"/>
						<path class="st0" d="M180.9,242c-0.1-2-0.3-4.1-2-5.6c-1.7-1.5-3.5-2.8-6.5-1c-1.4,0.9-4.4,3.2-7.2,5.5
							c-2.1,1.7-4,3.2-4.9,3.8c-0.3,0.2-8.6,5.8-9.6,10.3c-0.8,3.5-2.2,10.4-2.3,11c-0.8,4.9-5.3,12.2-6,12.9c0.7,0,1.4,0,2.1,0
							c1.8-2.5,4.8-8.4,5.6-12.6l0-0.1c0-0.1,1.5-7.4,2.2-10.9c0.6-2.8,5.8-7.2,8.8-9.2c1-0.6,2.8-2.1,5-3.9c2.7-2.1,5.7-4.6,7-5.4
							c1.9-1.2,2.9-0.7,4.6,0.8c1.1,1,1.4,2.3,1.5,4.4c0.1,1.6-1,8.9-1.4,11.7c-0.3,1-4.6,15.7-6.5,21.5c-0.4,1.2-0.6,2.5-0.8,3.7
							c0.6,0,1.1,0,1.7,0c0.2-1.1,0.4-2.2,0.7-3.2c2-6.1,6.5-21.5,6.6-21.6l0-0.1C179.5,253.7,181,244.1,180.9,242z"/>
						<g>
							<path class="st0" d="M158.9,274.6c0.1-0.5,0.3-1.1,0.4-1.7c0.5-2.1,1-4.7,2-6.5c3.3-6.1,3.7-6.6,5.1-8.4
								c0.5-0.6,1-1.3,1.8-2.4l0.5-0.6c1.1-1.5,2-2.7,4-6.8c0.8-1.6,1.4-3.3,0.4-4.2c-0.3-0.3-1.3-1-4.4,1.4c-1,0.8-4,3.8-5.4,5.4
								c-1.3,1.5-1.4,1.7-3,5.2l-0.5,1c-0.2,0.4,0,0.9,0.4,1.2c0.4,0.2,0.9,0,1.1-0.4l0.5-1c1.6-3.4,1.6-3.5,2.8-4.8
								c1.3-1.5,4.3-4.5,5.2-5.2c1-0.8,1.7-1.2,2.1-1.3c-0.1,0.3-0.2,0.9-0.7,1.9c-1.9,3.9-2.7,5-3.8,6.5l-0.5,0.6
								c-0.8,1.1-1.3,1.8-1.8,2.3c-1.4,1.8-1.9,2.4-5.3,8.7c-1.1,2-1.7,4.7-2.1,6.9c-0.1,0.6-0.3,1.2-0.4,1.7
								c-0.3,1.4-0.4,3.3-0.4,4.8c0.6,0,1.2,0,1.7,0C158.6,277.6,158.6,275.9,158.9,274.6z"/>
							<path class="st0" d="M154.4,277.5l0.3-0.7c0.9-2.4,2.1-5.4,2.4-7.8l0.1-1.1c0.3-2.2,0.6-4,0.8-6.5c0.1-0.5-0.3-0.9-0.8-1
								c-0.5-0.1-0.9,0.3-0.9,0.8c-0.3,2.5-0.5,4.3-0.8,6.5l-0.1,1.1c-0.3,2.3-1.4,5.1-2.3,7.4l-0.3,0.7c-0.3,0.7-0.5,1.5-0.7,2.2
								c0.6,0,1.2,0,1.8,0C154,278.5,154.2,278,154.4,277.5z"/>
						</g>
						<path class="st0" d="M208.3,233.7c-0.1-0.5-0.2-1-0.3-1.5c-0.3-2.2-1.4-4.8-2.4-6.5c-1-1.8-5.5-6-6.1-6.5c0,0,0,0-0.1,0
							c-1.1-1.8-2.2-3.5-3.1-4.7c-3.4-4.3-9.4-5.9-11.5-6c-0.9,0-4.1-0.3-7.5-0.6c-3.5-0.3-7.2-0.6-9.7-0.8
							c-0.4,0.5-0.7,1.1-1.1,1.6c2.3,0.1,6.9,0.5,10.7,0.8c3.6,0.3,6.6,0.5,7.6,0.6c2.2,0.1,7.4,1.7,10.3,5.4
							c3.2,4,7.4,12.6,7.6,14.1l0.1,0.5c1.4,11.7,1.2,14.8,1,15.6c-0.3,1-1.4,5.7-2.7,11.1c-1.7,7-3.7,15.8-4.2,17.4
							c-0.2,0.7-0.6,2.5-1.1,4.8c0.4,0,0.6,0,0.6,0c0.4,0,0.8,0,1.1-0.1c0.4-2.1,0.8-3.6,0.9-4.2c0.5-1.6,2.5-10,4.2-17.5
							c1.2-5.2,2.4-10.1,2.7-11.1c0.4-1.6,0.1-6.9-0.9-16.2l-0.1-0.5c-0.1-0.8-0.9-2.8-2.1-5.1c0.9,0.9,1.6,1.8,1.9,2.3
							c1,1.8,1.9,4.2,2.1,5.9c0.1,0.7,0.2,1.2,0.4,1.7c0.3,1.1,0.6,2.3,0.6,5.2c0,5.5-0.7,10.8-2.2,15.9c-1.7,6-2.1,7.4-2.1,7.4
							c-0.1,0.5,0.2,0.9,0.6,1c0.1,0,0.1,0,0.2,0c0.4,0,0.7-0.3,0.8-0.7c0,0,0.4-1.4,2.1-7.4c1.5-5.2,2.3-10.7,2.3-16.4
							C209,236.2,208.6,234.9,208.3,233.7z"/>
						<g>
							<path class="st0" d="M202.8,275.6c0.2-4.1,0.8-8.1,0.8-8.1c0.1-0.5-0.2-0.9-0.7-1c-0.5-0.1-0.9,0.3-1,0.7
								c0,0.3-0.8,5.3-0.9,10.1C201.6,276.8,202.2,276.2,202.8,275.6z"/>
						</g>
						<g>
							<path class="st0" d="M215.6,224.3c-1.8-4.1-7.6-13-9.5-14.7l-0.4-0.4c-2-1.9-6.5-6.3-12.5-8.8c-6.3-2.6-14.8-3.9-15.2-4
								c-0.5-0.1-0.9,0.3-1,0.7c-0.1,0.5,0.3,0.9,0.7,1c0.1,0,8.7,1.3,14.8,3.8c5.7,2.4,10.1,6.7,12,8.5l0.4,0.4
								c1.5,1.5,7.3,10.1,9.1,14.2c1.5,3.4,2.7,13,3.3,17.6c0,0.3,0.1,0.6,0.1,0.9c0.5-0.7,0.9-1.5,1.5-2.2
								C218.2,236.1,217.1,227.7,215.6,224.3z"/>
						</g>
						<g>
							<path class="st0" d="M232.8,233.7c-0.1-4.4-1.1-12.1-2.3-15.4c-0.9-2.6-3.3-6.3-5.3-9.3c-1.1-1.6-2.1-3.2-2.3-3.8
								c-0.2-0.4-0.7-0.6-1.1-0.5c-0.4,0.2-0.6,0.7-0.5,1.1c0.3,0.7,1.2,2.2,2.4,4.1c1.8,2.8,4.2,6.6,5.1,8.9
								c1.1,3.2,2.2,11,2.2,15.1c0,0,0.1,0,0.1,0C231.7,233.9,232.2,233.8,232.8,233.7z"/>
						</g>
						<path class="st0" d="M251.8,223.3c-0.4-3.1-0.6-4.2-1.2-6.9c-0.6-2.9-1.4-6.3-2-8.4c-0.7-0.4-1.4-0.8-2.1-1.2
							c0.3,1.4,1.5,6.1,2.4,10c0.6,2.6,0.7,3.7,1.2,6.7c0.3,1.9,0.8,5.7,1.5,10.3c0.6,0,1.2,0,1.7,0.1
							C252.7,229.1,252.1,225.3,251.8,223.3z"/>
						<path class="st0" d="M219.6,227.4c-1.2-6.8-6.4-17.7-12.1-22.5c-5.4-4.6-18.2-12.8-23.2-13.9c-0.7-0.1-1.5-0.4-2.4-0.6
							c-0.5,0.5-0.9,0.9-1.4,1.4c1.3,0.4,2.5,0.7,3.5,0.9c1.5,0.3,4.1,1.5,6.9,3.1c-0.9-0.1-1.8-0.2-2.7-0.3c-1.7-0.1-5.6-1.7-8.5-3
							c-0.4,0.4-0.8,0.9-1.3,1.3c3.4,1.4,7.5,3.2,9.6,3.3c2.6,0.2,6.1,0.8,6.9,1c4.3,2.6,8.7,5.7,11.5,8c5.4,4.6,10.4,15,11.5,21.5
							c0.8,4.7,1.5,9.3,1.4,13c0.5-0.7,1.1-1.3,1.7-2C220.8,235.6,220.3,231.8,219.6,227.4z"/>
						<path class="st0" d="M263.1,233.3c0,0,0.1,0,0.1,0h0c0.5-0.1,1-0.2,1.5-0.4c0-0.5,0-1.9,0-2.2c0-2.8-0.4-10-0.4-10.3
							c0-0.5-0.4-0.8-0.9-0.8c-0.5,0-0.8,0.4-0.8,0.9c0,0.1,0.4,7.5,0.4,10.2C263,231.2,263,232.7,263.1,233.3z"/>
						<path class="st0" d="M167.2,279c0.1-2.6,0.7-6.8,1.4-8.9c0.5-1.4,1.6-3,2.6-4.4c0.6-0.9,1.2-1.7,1.6-2.4
							c0.5-0.9,3-7.6,3.3-8.3c0.2-0.4-0.1-0.9-0.5-1.1c-0.4-0.2-0.9,0.1-1.1,0.5c-1.1,2.9-2.9,7.5-3.2,8.1c-0.3,0.6-0.9,1.4-1.5,2.2
							c-1.1,1.5-2.3,3.2-2.8,4.9c-0.7,2.1-1.4,6.4-1.4,9.4C166.1,279,166.7,279,167.2,279z"/>
					</g>
				</g>
				<g>
					<defs>
						<path id="SVGID_00000105419758103268980290000001677585247199606925_" d="M131.9,80.5c-0.1-0.3-0.2-0.5-0.3-0.8c0,0,0,0,0,0
							c-4.6-12-13.9-23.9-7.5-30.2c-4.7,3.4-16.4,11.9-26.9,19.3C86.9,76,76.3,82.3,75,86.6c-4.2,13,9.7,31.7,4.7,47.1
							c-4.7,14.6-34.8,21.4-32.6,32.6c2.3,11.6,18.4,5.1,32.5,4.6c12-0.5,27-0.4,46.4,5.2c3.9-5.5,8.3-13.4,11.9-24.4
							c2.6-8.1,3.5-17,3.3-25.8C140.5,105.9,136.1,91.8,131.9,80.5z"/>
					</defs>
					<clipPath id="SVGID_00000034075435307469451150000012107501901815607704_">
						<use xlink:href="#SVGID_00000105419758103268980290000001677585247199606925_"  style="overflow:visible;"/>
					</clipPath>
					<g style="clip-path:url(#SVGID_00000034075435307469451150000012107501901815607704_);">
						<path class="st0" d="M117.4,97.1c-0.1-0.1-0.2-0.3-0.3-0.4c0.8,0.2,1.6,0.3,2.5,0.3c5.7,0,10.3-4.7,10.2-10.3
							c0-0.9-0.1-1.7-0.3-2.5c0.2,0.1,0.3,0.2,0.5,0.3c0.1,0,0.1,0.1,0.2,0.1c0.2,0.1,0.3,0.2,0.5,0.3c0.2,0.1,0.5,0.3,0.8,0.4
							c0.1,0,0.1,0.1,0.2,0.1c0.1,0.1,0.2,0.1,0.4,0.2c0,0.4,0.1,0.8,0.1,1.2c0,6.9-5.5,12.5-12.4,12.5c-0.4,0-0.8,0-1.2-0.1
							c-0.1-0.1-0.1-0.2-0.2-0.4c0,0,0-0.1-0.1-0.1c-0.1-0.3-0.3-0.5-0.4-0.8c-0.1-0.1-0.2-0.3-0.2-0.4
							C117.5,97.3,117.4,97.2,117.4,97.1z M97.2,124.4L97.2,124.4c0,0-0.1,0-0.1,0c-8.2,0-14.9-6.6-14.9-14.7c0,0,0-0.1,0-0.1v0
							c-0.7,0.2-1.4,0.5-2.1,0.7c0.3,9,7.6,16.2,16.6,16.4C96.7,125.8,97,125.1,97.2,124.4z M100.5,131.3
							c0.4-9.9,8.4-17.9,18.3-18.5c-0.1-0.5-0.1-0.9-0.2-1.4c0-0.2,0-0.5-0.1-0.7c-10.9,0.6-19.7,9.5-20.2,20.4c0.3,0,0.5,0,0.8,0.1
							C99.6,131.2,100,131.2,100.5,131.3z M98.4,121.5c0-0.1,0-0.1,0.1-0.2c0.1-0.3,0.3-0.5,0.4-0.8c0.1-0.2,0.2-0.3,0.3-0.4
							c0-0.1,0.1-0.1,0.1-0.2c0.1-0.2,0.2-0.3,0.3-0.5c0,0,0,0,0,0c-0.8,0.2-1.6,0.3-2.5,0.3c-5.7,0-10.3-4.6-10.3-10.2
							c0-0.9,0.1-1.7,0.3-2.5c0,0,0,0,0,0c-0.1,0.1-0.3,0.2-0.4,0.3c-0.1,0.1-0.2,0.1-0.3,0.2c-0.1,0.1-0.3,0.2-0.4,0.2
							c-0.3,0.1-0.5,0.3-0.8,0.4c0,0-0.1,0-0.1,0.1c-0.1,0.1-0.3,0.1-0.4,0.2c0,0.4-0.1,0.8-0.1,1.2c0,6.9,5.6,12.4,12.5,12.4
							c0.4,0,0.8,0,1.2-0.1C98.2,121.8,98.3,121.7,98.4,121.5z M119.6,101.5c0,0-0.1,0-0.1,0c0.2,0.7,0.5,1.4,0.6,2.1
							c9-0.3,16.2-7.6,16.4-16.5c-0.7-0.2-1.4-0.4-2.1-0.6c0,0,0,0.1,0,0.1C134.4,94.8,127.8,101.5,119.6,101.5z M66.2,87
							c0-4.3,3.5-7.9,7.8-7.9c4.3,0,7.9,3.5,7.9,7.8c0,4.3-3.5,7.9-7.8,7.9C69.8,94.9,66.3,91.3,66.2,87z M68.4,87
							c0,3.2,2.6,5.7,5.8,5.7c3.2,0,5.7-2.6,5.7-5.8s-2.6-5.7-5.8-5.7C70.9,81.2,68.4,83.8,68.4,87z M119.6,94.6
							c-4.3,0-7.9-3.5-7.9-7.8c0-4.3,3.5-7.9,7.8-7.9c4.3,0,7.9,3.5,7.9,7.8C127.5,91,123.9,94.6,119.6,94.6z M125.3,86.7
							c0-3.2-2.6-5.7-5.8-5.7c-3.2,0-5.7,2.6-5.7,5.8c0,3.2,2.6,5.7,5.8,5.7C122.7,92.4,125.3,89.8,125.3,86.7z M98,88.8
							c0,0.5-0.1,0.9-0.1,1.4c0,0,0,0,0,0c9.9,0.4,17.9,8.4,18.5,18.3c0,0,0,0,0,0c0.5-0.1,1-0.1,1.5-0.2c0.2,0,0.4,0,0.7-0.1
							C117.8,97.3,108.9,88.6,98,88C98,88.3,98,88.5,98,88.8z M95.7,85.6c0-0.2,0-0.5,0.1-0.7c0-0.5,0.1-0.9,0.1-1.4l0,0
							c-9.9-0.4-17.9-8.4-18.5-18.3v0c-0.4,0.1-0.9,0.1-1.3,0.2c-0.3,0-0.5,0.1-0.8,0.1C75.9,76.3,84.7,85.1,95.7,85.6z M74.2,97.2
							c-0.9,0-1.7-0.1-2.5-0.3c0.1,0.1,0.2,0.3,0.3,0.4c0.1,0.1,0.1,0.2,0.2,0.3c0.1,0.1,0.2,0.3,0.2,0.4c0.1,0.3,0.3,0.5,0.4,0.8
							c0,0,0,0.1,0.1,0.1c0.1,0.1,0.1,0.2,0.2,0.4c0.4,0,0.8,0.1,1.2,0.1c6.9,0,12.4-5.6,12.4-12.5c0-0.4,0-0.8-0.1-1.2
							c-0.1-0.1-0.2-0.1-0.4-0.2c-0.1,0-0.1-0.1-0.2-0.1c-0.3-0.1-0.5-0.3-0.8-0.4c-0.2-0.1-0.3-0.2-0.5-0.3c-0.1,0-0.1-0.1-0.2-0.1
							c-0.2-0.1-0.3-0.2-0.5-0.3c0.2,0.8,0.3,1.6,0.3,2.5C84.4,92.6,79.9,97.2,74.2,97.2z M89.1,109.6c0-4.3,3.5-7.9,7.8-7.9
							c4.3,0,7.9,3.5,7.9,7.8c0,4.3-3.5,7.9-7.8,7.9C92.7,117.4,89.1,113.9,89.1,109.6z M91.2,109.6c0,3.2,2.6,5.7,5.8,5.7
							c3.2,0,5.7-2.6,5.7-5.8c0-3.2-2.6-5.7-5.8-5.7C93.8,103.8,91.2,106.4,91.2,109.6z M74.2,101.8c0,0-0.1,0-0.1,0
							c0.2,0.7,0.5,1.4,0.6,2.1c9-0.3,16.2-7.6,16.4-16.5c-0.7-0.2-1.4-0.4-2.1-0.6c0,0,0,0.1,0,0.1C89,95,82.4,101.7,74.2,101.8z
							 M96.7,94.7L96.7,94.7c0.1,0,0.1,0,0.1,0c8.2,0,14.9,6.6,14.9,14.7c0,0,0,0.1,0,0.1v0c0.7-0.2,1.4-0.5,2.1-0.7
							c-0.3-9-7.6-16.2-16.6-16.4C97.2,93.3,97,94,96.7,94.7z M95.6,97.5c0,0,0,0.1-0.1,0.1c-0.1,0.3-0.3,0.5-0.4,0.8
							c-0.1,0.1-0.2,0.3-0.2,0.4c-0.1,0.1-0.1,0.2-0.2,0.3c-0.1,0.1-0.2,0.3-0.3,0.4c0,0,0,0,0,0c0.8-0.2,1.6-0.3,2.5-0.3
							c5.7,0,10.3,4.6,10.3,10.2c0,0.9-0.1,1.7-0.3,2.5c0,0,0,0,0,0c0.2-0.1,0.3-0.2,0.5-0.3c0.1,0,0.1-0.1,0.2-0.1
							c0.1-0.1,0.3-0.2,0.5-0.3c0.2-0.1,0.5-0.3,0.7-0.4c0.1,0,0.1-0.1,0.2-0.1c0.1-0.1,0.2-0.1,0.3-0.2c0-0.4,0.1-0.8,0.1-1.2
							c0-6.9-5.6-12.4-12.5-12.4c-0.4,0-0.8,0-1.2,0.1C95.7,97.3,95.6,97.4,95.6,97.5z M93.5,87.8c-0.4,9.9-8.4,17.9-18.3,18.5
							c0.1,0.5,0.1,0.9,0.2,1.4c0,0.2,0,0.5,0.1,0.7c10.9-0.7,19.7-9.5,20.2-20.4c-0.2,0-0.4,0-0.6,0C94.5,87.9,94,87.9,93.5,87.8z
							 M118.3,65.2c-10.9,0.7-19.7,9.5-20.2,20.4c0.3,0,0.5,0,0.8,0.1c0.4,0,0.9,0.1,1.3,0.1c0.4-9.9,8.4-17.9,18.3-18.5
							c-0.1-0.5-0.1-0.9-0.2-1.4C118.3,65.7,118.3,65.5,118.3,65.2z M119.5,74.3c-6.9,0-12.4,5.6-12.4,12.5c0,0.4,0,0.8,0.1,1.2
							c0.1,0.1,0.3,0.1,0.4,0.2c0,0,0.1,0,0.1,0.1c0.3,0.1,0.5,0.3,0.8,0.4c0.1,0.1,0.3,0.2,0.4,0.2c0.1,0.1,0.2,0.1,0.3,0.2
							c0.1,0.1,0.3,0.2,0.4,0.3c-0.2-0.8-0.3-1.6-0.3-2.5c0-5.7,4.6-10.3,10.2-10.3c0.9,0,1.7,0.1,2.5,0.3c-0.1-0.2-0.2-0.3-0.3-0.5
							c0-0.1-0.1-0.1-0.1-0.2c-0.1-0.1-0.2-0.3-0.3-0.4c-0.1-0.2-0.3-0.5-0.4-0.8c0,0-0.1-0.1-0.1-0.1c-0.1-0.1-0.1-0.2-0.2-0.4
							C120.3,74.3,119.9,74.3,119.5,74.3z M102.6,86.3c0.7,0.2,1.4,0.4,2.1,0.6c0,0,0-0.1,0-0.1c0-8.2,6.6-14.9,14.7-14.9
							c0,0,0.1,0,0.1,0c-0.2-0.7-0.5-1.4-0.6-2.1C110,70.1,102.8,77.3,102.6,86.3z M120.4,60.6c0.1,0.5,0.1,0.9,0.2,1.4
							c0,0.2,0,0.5,0.1,0.7c10.9-0.6,19.7-9.5,20.2-20.4c-0.2,0-0.4,0-0.6,0c-0.5,0-1-0.1-1.5-0.2C138.2,52,130.3,60.1,120.4,60.6z
							 M116,63C116.1,63,116.1,63,116,63c0.5-0.1,1-0.1,1.5-0.2c0.2,0,0.4,0,0.7-0.1c-0.7-10.9-9.5-19.7-20.4-20.2
							c0,0.2,0,0.5-0.1,0.7c0,0.5-0.1,0.9-0.1,1.4c0,0,0,0,0,0C107.5,45.2,115.5,53.1,116,63z M111.9,132.2c0-4.3,3.5-7.9,7.8-7.9
							c4.3,0,7.9,3.5,7.9,7.8c0,4.3-3.5,7.9-7.8,7.9C115.5,140,111.9,136.5,111.9,132.2z M114.1,132.1c0,3.2,2.6,5.7,5.8,5.7
							c3.2,0,5.7-2.6,5.7-5.8c0-3.2-2.6-5.7-5.8-5.7C116.6,126.4,114,129,114.1,132.1z M78.4,115.2c-0.5-1.5-1.5-3-1.5-4.6
							c-0.4,0.1-0.1,0.1-0.6,0.2c-0.3,0-0.5,0.1-0.8,0.1c0.6,10.9,9.5,19.7,20.4,20.2c0-0.2,0-0.5,0.1-0.7c0-0.5,0.1-0.9,0.1-1.4h0
							C87.8,128.5,80.8,122.9,78.4,115.2z M74.3,124.5c4.3,0,7.9,3.5,7.9,7.8c0,4.3-3.5,7.9-7.8,7.9c-4.3,0-7.9-3.5-7.9-7.8
							C66.5,128.1,70,124.5,74.3,124.5z M68.6,132.4c0,3.2,2.6,5.7,5.8,5.7c3.2,0,5.7-2.6,5.7-5.8c0-3.2-2.6-5.7-5.8-5.7
							C71.2,126.6,68.6,129.2,68.6,132.4z M118,153.7c0.2,0,0.4,0,0.7-0.1c-0.7-10.9-9.5-19.7-20.4-20.2c0,0.2,0,0.5-0.1,0.7
							c0,0.5-0.1,0.9-0.1,1.4h0c9.9,0.4,17.9,8.4,18.5,18.3v0C117.1,153.8,117.5,153.8,118,153.7z M142.3,101.4
							c4.3,0,7.9,3.5,7.9,7.8c0,4.3-3.5,7.9-7.8,7.9c-4.3,0-7.9-3.5-7.9-7.8C134.5,105,138,101.4,142.3,101.4z M142.4,103.5
							c-3.2,0-5.7,2.6-5.7,5.8c0,3.2,2.6,5.7,5.8,5.7c3.2,0,5.7-2.6,5.7-5.8C148.1,106.1,145.5,103.5,142.4,103.5z M132.4,106.8
							c-0.1,0.1-0.3,0.2-0.4,0.3c-0.1,0.1-0.2,0.1-0.3,0.2c-0.1,0.1-0.3,0.2-0.4,0.2c-0.3,0.1-0.5,0.3-0.8,0.4c0,0-0.1,0-0.1,0.1
							c-0.1,0.1-0.3,0.1-0.4,0.2c0,0.4-0.1,0.8-0.1,1.2c0,6.9,5.6,12.4,12.5,12.4c0.4,0,0.8,0,1.2-0.1c0.1-0.1,0.1-0.2,0.2-0.4
							c0-0.1,0-0.1,0.1-0.2c0.1-0.3,0.3-0.5,0.4-0.8c0.1-0.2,0.2-0.3,0.3-0.4c0-0.1,0.1-0.1,0.1-0.2c0.1-0.2,0.2-0.3,0.3-0.5
							c0,0,0,0,0,0c-0.8,0.2-1.6,0.3-2.5,0.3c-5.7,0-10.3-4.6-10.3-10.2C132.1,108.5,132.2,107.6,132.4,106.8
							C132.4,106.9,132.4,106.9,132.4,106.8z M121.5,65.1c-0.3,0-0.5,0.1-0.8,0.1c0.7,10.9,9.5,19.7,20.4,20.2c0-0.2,0-0.5,0.1-0.7
							c0-0.5,0.1-0.9,0.1-1.4l0,0c-9.9-0.4-17.9-8.4-18.5-18.3v0C122.4,65,121.9,65,121.5,65.1z M98.7,166.8
							c0.1-0.3,0.3-0.5,0.4-0.8c0.1-0.2,0.2-0.3,0.3-0.4c0-0.1,0.1-0.1,0.1-0.2c0.1-0.2,0.2-0.3,0.3-0.5c0,0,0,0,0,0
							c-0.8,0.2-1.6,0.3-2.5,0.3c-5.7,0-10.3-4.6-10.3-10.2c0-0.9,0.1-1.7,0.3-2.5c0,0,0,0,0,0c-0.1,0.1-0.3,0.2-0.4,0.3
							c-0.1,0.1-0.2,0.1-0.3,0.2c-0.1,0.1-0.3,0.2-0.4,0.2c-0.3,0.1-0.5,0.3-0.8,0.4c0,0-0.1,0-0.1,0.1c-0.1,0.1-0.3,0.1-0.4,0.2
							c0,0.4-0.1,0.8-0.1,1.2c0,6.9,5.6,12.4,12.5,12.4c0.4,0,0.8,0,1.2-0.1c0.1-0.1,0.1-0.2,0.2-0.4
							C98.6,166.9,98.7,166.9,98.7,166.8z M97.3,169.8c-8.2,0-14.9-6.6-14.9-14.7c0,0,0-0.1,0-0.1v0c-0.7,0.2-1.4,0.5-2.1,0.7
							c0.3,9,7.6,16.2,16.6,16.4c0.2-0.7,0.4-1.4,0.6-2.1l0,0C97.4,169.8,97.4,169.8,97.3,169.8z M107.2,157.4
							c0.2-0.1,0.3-0.2,0.5-0.3c0.1,0,0.1-0.1,0.2-0.1c0.1-0.1,0.3-0.2,0.5-0.3c0.2-0.1,0.5-0.3,0.7-0.4c0.1,0,0.1-0.1,0.2-0.1
							c0.1-0.1,0.2-0.1,0.3-0.2c0-0.4,0.1-0.8,0.1-1.2c0-6.9-5.6-12.4-12.5-12.4c-0.4,0-0.8,0-1.2,0.1c-0.1,0.1-0.1,0.2-0.2,0.4
							c0,0,0,0.1-0.1,0.1c-0.1,0.3-0.3,0.5-0.4,0.8c-0.1,0.1-0.2,0.3-0.2,0.4c-0.1,0.1-0.1,0.2-0.2,0.3c-0.1,0.1-0.2,0.3-0.3,0.4
							c0,0,0,0,0,0c0.8-0.2,1.6-0.3,2.5-0.3c5.7,0,10.3,4.6,10.3,10.2C107.5,155.8,107.4,156.6,107.2,157.4
							C107.2,157.4,107.2,157.4,107.2,157.4z M112,155c0.7-0.2,1.4-0.5,2.1-0.7c-0.3-9-7.6-16.2-16.6-16.4c-0.2,0.7-0.4,1.4-0.6,2.1
							h0c0,0,0.1,0,0.1,0c8.2,0,14.9,6.6,14.9,14.7C112.1,154.9,112,155,112,155L112,155z M51.7,140.4c8.2,0,14.9,6.6,14.9,14.7
							c0,0,0,0.1,0,0.1v0c0.7-0.2,1.4-0.5,2.1-0.7c-0.3-9-7.6-16.2-16.6-16.4c-0.2,0.7-0.4,1.4-0.6,2.1l0,0
							C51.6,140.4,51.7,140.4,51.7,140.4z M89.3,155c0-4.3,3.5-7.9,7.8-7.9c4.3,0,7.9,3.5,7.9,7.8c0,4.3-3.5,7.9-7.8,7.9
							C92.9,162.9,89.4,159.3,89.3,155z M91.5,155c0,3.2,2.6,5.7,5.8,5.7c3.2,0,5.7-2.6,5.7-5.8c0-3.2-2.6-5.7-5.8-5.7
							C94,149.2,91.5,151.8,91.5,155z M134.8,154.7c0-4.3,3.5-7.9,7.8-7.9c4.3,0,7.9,3.5,7.9,7.8c0,4.3-3.5,7.9-7.8,7.9
							C138.3,162.6,134.8,159.1,134.8,154.7z M136.9,154.7c0,3.2,2.6,5.7,5.8,5.7c3.2,0,5.7-2.6,5.7-5.8c0-3.2-2.6-5.7-5.8-5.7
							S136.9,151.6,136.9,154.7z M51.7,144.9c5.7,0,10.3,4.6,10.3,10.2c0,0.9-0.1,1.7-0.3,2.5c0,0,0,0,0,0c0.2-0.1,0.3-0.2,0.5-0.3
							c0.1,0,0.1-0.1,0.2-0.1c0.1-0.1,0.3-0.2,0.5-0.3c0.2-0.1,0.5-0.3,0.7-0.4c0.1,0,0.1-0.1,0.2-0.1c0.1-0.1,0.2-0.1,0.3-0.2
							c0-0.4,0.1-0.8,0.1-1.2c0-6.9-5.6-12.4-12.5-12.4c-0.4,0-0.8,0-1.2,0.1c-0.1,0.1-0.1,0.2-0.2,0.4c0,0,0,0.1-0.1,0.1
							c-0.1,0.3-0.3,0.5-0.4,0.8c-0.1,0.1-0.2,0.3-0.2,0.4c-0.1,0.1-0.1,0.2-0.2,0.3c-0.1,0.1-0.2,0.3-0.3,0.4c0,0,0,0,0,0
							C50.1,145,50.9,144.9,51.7,144.9z M71.1,154.1L71.1,154.1c0.5-0.1,1-0.1,1.5-0.2c0.2,0,0.4,0,0.7-0.1
							c-0.6-10.9-9.5-19.7-20.4-20.2c0,0.2,0,0.5-0.1,0.7c0,0.5-0.1,0.9-0.1,1.4l0,0C62.6,136.3,70.6,144.2,71.1,154.1z
							 M144.1,166.6c0.1-0.3,0.3-0.5,0.4-0.8c0.1-0.2,0.2-0.3,0.3-0.4c0-0.1,0.1-0.1,0.1-0.2c0.1-0.2,0.2-0.3,0.3-0.5c0,0,0,0,0,0
							c-0.8,0.2-1.6,0.3-2.5,0.3c-5.7,0-10.3-4.6-10.3-10.2c0-0.9,0.1-1.7,0.3-2.5c0,0,0,0,0,0c-0.1,0.1-0.3,0.2-0.4,0.3
							c-0.1,0.1-0.2,0.1-0.3,0.2c-0.1,0.1-0.3,0.2-0.4,0.2c-0.3,0.1-0.5,0.3-0.8,0.4c0,0-0.1,0-0.1,0.1c-0.1,0.1-0.3,0.1-0.4,0.2
							c0,0.4-0.1,0.8-0.1,1.2c0,6.9,5.6,12.4,12.5,12.4c0.4,0,0.8,0,1.2-0.1c0.1-0.1,0.1-0.2,0.2-0.4
							C144.1,166.7,144.1,166.6,144.1,166.6z M51.9,170c-8.2,0-14.9-6.6-14.9-14.7c0,0,0-0.1,0-0.1v0c-0.7,0.2-1.4,0.5-2.1,0.7
							c0.3,9,7.6,16.2,16.6,16.4c0.2-0.7,0.4-1.4,0.6-2.1h0C52,170,51.9,170,51.9,170z M142.7,169.5c-8.2,0-14.9-6.6-14.9-14.7
							c0,0,0-0.1,0-0.1v0c-0.7,0.2-1.4,0.5-2.1,0.7c0.3,9,7.6,16.2,16.6,16.4c0.2-0.7,0.4-1.4,0.6-2.1h0
							C142.8,169.5,142.8,169.5,142.7,169.5z M96.7,53.8c5.7,0,10.3,4.6,10.3,10.2c0,0.9-0.1,1.7-0.3,2.5c0,0,0,0,0,0
							c0.2-0.1,0.3-0.2,0.5-0.3c0.1,0,0.1-0.1,0.2-0.1c0.1-0.1,0.3-0.2,0.5-0.3c0.2-0.1,0.5-0.3,0.7-0.4c0.1,0,0.1-0.1,0.2-0.1
							c0.1-0.1,0.2-0.1,0.3-0.2c0-0.4,0.1-0.8,0.1-1.2c0-6.9-5.6-12.4-12.5-12.4c-0.4,0-0.8,0-1.2,0.1c-0.1,0.1-0.1,0.2-0.2,0.4
							c0,0,0,0.1-0.1,0.1c-0.1,0.3-0.3,0.5-0.4,0.8c-0.1,0.1-0.2,0.3-0.2,0.4c-0.1,0.1-0.1,0.2-0.2,0.3c-0.1,0.1-0.2,0.3-0.3,0.4
							c0,0,0,0,0,0C95,53.9,95.8,53.8,96.7,53.8z M88.8,64.2c0-4.3,3.5-7.9,7.8-7.9c4.3,0,7.9,3.5,7.9,7.8c0,4.3-3.5,7.9-7.8,7.9
							C92.4,72,88.9,68.5,88.8,64.2z M91,64.1c0,3.2,2.6,5.7,5.8,5.7c3.2,0,5.7-2.6,5.7-5.8c0-3.2-2.6-5.7-5.8-5.7S90.9,61,91,64.1z
							 M53.3,167.1c0.1-0.3,0.3-0.5,0.4-0.8c0.1-0.2,0.2-0.3,0.3-0.4c0-0.1,0.1-0.1,0.1-0.2c0.1-0.2,0.2-0.3,0.3-0.5c0,0,0,0,0,0
							c-0.8,0.2-1.6,0.3-2.5,0.3c-5.7,0-10.3-4.6-10.3-10.2c0-0.9,0.1-1.7,0.3-2.5c0,0,0,0,0,0c-0.1,0.1-0.3,0.2-0.4,0.3
							c-0.1,0.1-0.2,0.1-0.3,0.2c-0.1,0.1-0.3,0.2-0.4,0.2c-0.3,0.1-0.5,0.3-0.8,0.4c0,0-0.1,0-0.1,0.1c-0.1,0.1-0.3,0.1-0.4,0.2
							c0,0.4-0.1,0.8-0.1,1.2c0,6.9,5.6,12.4,12.5,12.4c0.4,0,0.8,0,1.2-0.1c0.1-0.1,0.1-0.2,0.2-0.4
							C53.2,167.2,53.2,167.1,53.3,167.1z M141,87.7c-0.2,0-0.4,0-0.6,0c-0.5,0-1-0.1-1.5-0.1c-0.4,9.9-8.4,17.9-18.3,18.5
							c0.1,0.5,0.1,0.9,0.2,1.4c0,0.2,0,0.5,0.1,0.7C131.8,107.5,140.5,98.7,141,87.7z M119.7,121.8c0.9,0,1.7,0.1,2.5,0.3
							c-0.1-0.1-0.2-0.3-0.3-0.5c0-0.1-0.1-0.1-0.1-0.2c-0.1-0.1-0.2-0.3-0.3-0.4c-0.1-0.2-0.3-0.5-0.4-0.8c0,0-0.1-0.1-0.1-0.1
							c-0.1-0.1-0.1-0.2-0.2-0.4c-0.4,0-0.8-0.1-1.2-0.1c-6.9,0-12.4,5.6-12.4,12.5c0,0.4,0,0.8,0.1,1.2c0.1,0.1,0.3,0.1,0.4,0.2
							c0,0,0.1,0,0.1,0.1c0.3,0.1,0.5,0.3,0.8,0.4c0.1,0.1,0.3,0.2,0.4,0.2c0.1,0.1,0.2,0.1,0.3,0.2c0.1,0.1,0.3,0.2,0.4,0.3
							c-0.2-0.8-0.3-1.6-0.3-2.5C109.5,126.5,114.1,121.9,119.7,121.8z M96.8,76.5c0.4,0,0.8,0,1.2-0.1c0.1-0.1,0.1-0.2,0.2-0.4
							c0-0.1,0-0.1,0.1-0.2c0.1-0.3,0.3-0.5,0.4-0.8c0.1-0.1,0.2-0.3,0.3-0.4c0-0.1,0.1-0.1,0.1-0.2c0.1-0.2,0.2-0.3,0.3-0.5
							c0,0,0,0,0,0c-0.8,0.2-1.6,0.3-2.5,0.3c-5.7,0-10.3-4.6-10.3-10.2c0-0.9,0.1-1.7,0.3-2.5c0,0,0,0,0,0
							c-0.1,0.1-0.3,0.2-0.4,0.3c-0.1,0.1-0.2,0.1-0.3,0.2c-0.1,0.1-0.3,0.2-0.4,0.2c-0.3,0.1-0.5,0.3-0.8,0.4c0,0-0.1,0-0.1,0.1
							c-0.1,0.1-0.3,0.1-0.4,0.2c0,0.4-0.1,0.8-0.1,1.2C84.3,71,89.9,76.6,96.8,76.5z M142.6,124.1L142.6,124.1c-0.1,0-0.1,0-0.1,0
							c-8.2,0-14.9-6.6-14.9-14.7c0,0,0-0.1,0-0.1v0c-0.7,0.2-1.4,0.5-2.1,0.7c0.3,9,7.6,16.2,16.6,16.4
							C142.2,125.5,142.4,124.8,142.6,124.1z M127.3,63.9c0,0,0-0.1,0-0.1v0c-0.7,0.2-1.4,0.5-2.1,0.7c0.3,9,7.6,16.2,16.6,16.4
							c0.2-0.7,0.4-1.4,0.6-2.1h0c0,0-0.1,0-0.1,0C134,78.7,127.3,72.1,127.3,63.9z M96.6,49.3c8.2,0,14.9,6.6,14.9,14.7
							c0,0,0,0.1,0,0.1v0c0.7-0.2,1.4-0.5,2.1-0.7c-0.3-9-7.6-16.2-16.6-16.4c-0.2,0.7-0.4,1.4-0.6,2.1h0
							C96.5,49.3,96.6,49.3,96.6,49.3z M96.3,81.1c0.2-0.7,0.4-1.4,0.6-2.1h0c0,0-0.1,0-0.1,0c-8.2,0-14.9-6.6-14.9-14.7
							c0,0,0-0.1,0-0.1v0c-0.7,0.2-1.4,0.5-2.1,0.7C80.1,73.7,87.3,80.9,96.3,81.1z M43.9,155.3c0-4.3,3.5-7.9,7.8-7.9
							c4.3,0,7.9,3.5,7.9,7.8c0,4.3-3.5,7.9-7.8,7.9C47.5,163.1,43.9,159.6,43.9,155.3z M46.1,155.2c0,3.2,2.6,5.7,5.8,5.7
							c3.2,0,5.7-2.6,5.7-5.8c0-3.2-2.6-5.7-5.8-5.7C48.6,149.5,46,152.1,46.1,155.2z M119.7,117.3c0,0,0.1,0,0.1,0
							c-0.2-0.7-0.5-1.4-0.6-2.1c-9,0.3-16.2,7.6-16.4,16.6c0.7,0.2,1.4,0.4,2.1,0.6c0,0,0-0.1,0-0.1
							C104.9,124,111.5,117.3,119.7,117.3z M74.6,169.9c-4.3,0-7.9,3.6-7.8,7.9l2.1,0c0-3.2,2.5-5.8,5.7-5.8s5.8,2.5,5.8,5.7l2.1,0
							C82.5,173.4,78.9,169.9,74.6,169.9z M74.6,167.5c0.9,0,1.7,0.1,2.5,0.3c-0.1-0.1-0.2-0.3-0.3-0.5c0-0.1-0.1-0.1-0.1-0.2
							c-0.1-0.1-0.2-0.3-0.3-0.4c-0.1-0.2-0.3-0.5-0.4-0.8c0,0-0.1-0.1-0.1-0.1c-0.1-0.1-0.1-0.2-0.2-0.4c-0.4,0-0.8-0.1-1.2-0.1
							c-6.9,0-12.4,5.6-12.4,12.5l0,0l2.1,0v0C64.3,172.2,68.9,167.5,74.6,167.5z M74.6,163c0,0,0.1,0,0.1,0
							c-0.2-0.7-0.5-1.4-0.6-2.1c-9,0.3-16.2,7.6-16.4,16.5c0.6,0.1,1.2,0.3,1.7,0.5l0.4,0C59.8,169.7,66.4,163,74.6,163z
							 M120,162.7c0,0,0.1,0,0.1,0c-0.2-0.7-0.5-1.4-0.6-2.1c-9,0.3-16.2,7.6-16.4,16.5c0.6,0.1,1.2,0.3,1.7,0.5l0.4,0
							C105.2,169.4,111.8,162.8,120,162.7z M120,169.7c-4.3,0-7.9,3.6-7.8,7.9l2.1,0c0-3.2,2.5-5.8,5.7-5.8c3.2,0,5.8,2.5,5.8,5.7
							l2.1,0C127.9,173.1,124.4,169.6,120,169.7z M120,167.3c0.9,0,1.7,0.1,2.5,0.3c-0.1-0.1-0.2-0.3-0.3-0.5c0-0.1-0.1-0.1-0.1-0.2
							c-0.1-0.1-0.2-0.3-0.3-0.4c-0.1-0.2-0.3-0.5-0.4-0.8c0,0-0.1-0.1-0.1-0.1c-0.1-0.1-0.1-0.2-0.2-0.4c-0.4,0-0.8-0.1-1.2-0.1
							c-6.9,0-12.4,5.6-12.4,12.5v0l2.1,0v0C109.7,171.9,114.3,167.3,120,167.3z M165.4,169.4c-4.3,0-7.9,3.6-7.8,7.9l2.1,0
							c0-3.2,2.5-5.8,5.7-5.8L165.4,169.4z M165.4,162.5l0-0.4c-0.2-0.6-0.4-1.1-0.5-1.7c-9,0.3-16.2,7.6-16.4,16.6
							c0.6,0.1,1.2,0.3,1.7,0.5l0.4,0v0C150.6,169.2,157.2,162.5,165.4,162.5z M165.4,167l0-2.1c-6.9,0-12.4,5.6-12.4,12.5l2.1,0
							C155.2,171.7,159.8,167,165.4,167z M119.9,144.5c6.9,0,12.4-5.6,12.4-12.5c0-0.4,0-0.8-0.1-1.2c-0.1-0.1-0.2-0.1-0.4-0.2
							c-0.1,0-0.1-0.1-0.2-0.1c-0.3-0.1-0.5-0.3-0.8-0.4c-0.2-0.1-0.3-0.2-0.5-0.3c-0.1,0-0.1-0.1-0.2-0.1c-0.2-0.1-0.3-0.2-0.5-0.3
							c0.2,0.8,0.3,1.6,0.3,2.5c0,5.7-4.6,10.3-10.2,10.3c-0.9,0-1.7-0.1-2.5-0.3c0.1,0.1,0.2,0.3,0.3,0.4c0.1,0.1,0.1,0.2,0.2,0.3
							c0.1,0.1,0.2,0.3,0.2,0.4c0.1,0.3,0.3,0.5,0.4,0.8c0,0,0,0.1,0.1,0.1c0.1,0.1,0.1,0.2,0.2,0.4
							C119.1,144.5,119.5,144.5,119.9,144.5z M136.8,132.5c-0.7-0.2-1.4-0.4-2.1-0.6c0,0,0,0.1,0,0.1c0,8.2-6.6,14.9-14.7,14.9
							c0,0-0.1,0-0.1,0c0.2,0.7,0.5,1.4,0.6,2.1C129.4,148.8,136.6,141.5,136.8,132.5z M77.9,156L77.9,156c-0.4,0.1-0.9,0.1-1.3,0.2
							c-0.3,0-0.5,0.1-0.8,0.1c0.7,10.9,9.5,19.7,20.4,20.2c0-0.2,0-0.5,0.1-0.7c0-0.5,0.1-0.9,0.1-1.4h0
							C86.5,173.9,78.4,165.9,77.9,156z M164.4,157.9c-0.1-0.5-0.1-0.9-0.2-1.4c0-0.2,0-0.5-0.1-0.7c-10.9,0.6-19.7,9.5-20.2,20.4
							c0.3,0,0.5,0,0.8,0.1c0.4,0,0.9,0.1,1.3,0.1C146.6,166.5,154.5,158.5,164.4,157.9z M75.7,153.8c10.9-0.7,19.7-9.5,20.2-20.4
							c-0.2,0-0.4,0-0.6,0c-0.5,0-1-0.1-1.5-0.2c-0.4,9.9-8.4,17.9-18.3,18.5c0.1,0.5,0.1,0.9,0.2,1.4
							C75.6,153.3,75.7,153.6,75.7,153.8z M121.1,153.6c10.9-0.7,19.7-9.5,20.2-20.4c-0.2,0-0.4,0-0.6,0c-0.5,0-1-0.1-1.5-0.2
							c-0.4,9.9-8.4,17.9-18.3,18.5c0.1,0.5,0.1,0.9,0.2,1.4C121.1,153.1,121.1,153.3,121.1,153.6z M123.3,155.8L123.3,155.8
							c-0.4,0.1-0.9,0.1-1.3,0.2c-0.3,0-0.5,0.1-0.8,0.1c0.7,10.9,9.5,19.7,20.4,20.2c0-0.2,0-0.5,0.1-0.7c0-0.5,0.1-0.9,0.1-1.4h0
							C131.9,173.6,123.8,165.7,123.3,155.8z M119,158.2c-0.1-0.5-0.1-0.9-0.2-1.4c0-0.2,0-0.5-0.1-0.7
							c-10.9,0.6-19.7,9.5-20.2,20.4c0.3,0,0.5,0,0.8,0.1c0.4,0,0.9,0.1,1.3,0.1C101.1,166.8,109.1,158.7,119,158.2z M91.3,132.8
							c-0.7-0.2-1.4-0.4-2.1-0.6c0,0,0,0.1,0,0.1c0,8.2-6.6,14.9-14.7,14.9c0,0-0.1,0-0.1,0c0.2,0.7,0.5,1.4,0.6,2.1
							C83.9,149,91.1,141.7,91.3,132.8z M73.6,158.5c-0.1-0.5-0.1-0.9-0.2-1.4c0-0.2,0-0.5-0.1-0.7c-10.9,0.6-19.7,9.5-20.2,20.4
							c0.3,0,0.5,0,0.8,0.1c0.4,0,0.9,0.1,1.3,0.1C55.7,167,63.7,159,73.6,158.5z M72.4,143.1c0.1,0.1,0.2,0.3,0.2,0.4
							c0.1,0.3,0.3,0.5,0.4,0.8c0,0,0,0.1,0.1,0.1c0.1,0.1,0.1,0.2,0.2,0.4c0.4,0,0.8,0.1,1.2,0c6.9,0,12.4-5.6,12.4-12.5
							c0-0.4,0-0.8-0.1-1.2c-0.1-0.1-0.2-0.1-0.4-0.2c-0.1,0-0.1-0.1-0.2-0.1c-0.3-0.1-0.5-0.3-0.8-0.4c-0.2-0.1-0.3-0.2-0.5-0.3
							c-0.1,0-0.1-0.1-0.2-0.1c-0.2-0.1-0.3-0.2-0.5-0.3c0.2,0.8,0.3,1.6,0.3,2.5c0,5.7-4.6,10.3-10.2,10.3c-0.9,0-1.7-0.1-2.5-0.3
							c0.1,0.1,0.2,0.3,0.3,0.4C72.3,142.9,72.3,143,72.4,143.1z M32.5,156.3L32.5,156.3c-0.4,0.1-0.9,0.1-1.3,0.2
							c-0.3,0-0.5,0.1-0.8,0.1c0.7,10.9,9.5,19.7,20.4,20.2c0-0.2,0-0.5,0.1-0.7c0-0.5,0.1-0.9,0.1-1.4l0,0
							C41,174.1,33,166.2,32.5,156.3z M119.4,56.1c0,0-0.1,0-0.1,0c0.2,0.7,0.5,1.4,0.6,2.1c9-0.3,16.2-7.6,16.4-16.5
							c-0.6-0.1-1.2-0.3-1.7-0.5l-0.4,0C134.2,49.4,127.6,56.1,119.4,56.1z M117.3,52c0.1,0.1,0.2,0.3,0.2,0.4
							c0.1,0.3,0.3,0.5,0.4,0.8c0,0,0,0.1,0.1,0.1c0.1,0.1,0.1,0.2,0.2,0.4c0.4,0,0.8,0.1,1.2,0.1c6.9,0,12.4-5.6,12.4-12.5l-2.1,0
							c0,5.7-4.6,10.3-10.2,10.3c-0.9,0-1.7-0.1-2.5-0.3c0.1,0.1,0.2,0.3,0.3,0.4C117.2,51.8,117.2,51.9,117.3,52z M141.8,130.8
							c0-0.7,0.1-1.4,0.1-2.1l-0.3,0v0h0c-9.9-0.4-17.9-8.4-18.5-18.3c-0.4,0.1-0.9,0.1-1.3,0.2c-0.3,0-0.5,0.1-0.8,0.1
							c0.6,10.9,9.5,19.7,20.4,20.2L141.8,130.8z"/>
					</g>
				</g>
				<g>
					<defs>
						<path id="SVGID_00000059997804490706327330000003502166183806104201_" d="M245,205.9c0.2,0.1,0.5,0.3,0.7,0.4c0,0,0,0,0,0
							c10.7,7,25.3,11.2,23.8,20.1c1.8-5.5,6.2-19.3,10.4-31.4c4.1-11.9,9-23.3,7.6-27.5c-4.2-13-26.5-20-31.5-35.4
							c-4.7-14.6,15.6-37.8,7.2-45.6c-8.7-8-17.9,6.7-29,15.4c-9.5,7.4-21.6,16.1-40.7,23.1c0.1,6.7,1.2,15.8,4.7,26.7
							c2.6,8.1,7.2,15.8,12.5,22.8C223.1,190.4,235.1,199.2,245,205.9z"/>
					</defs>
					<clipPath id="SVGID_00000097476732747009246100000004768801061882756011_">
						<use xlink:href="#SVGID_00000059997804490706327330000003502166183806104201_"  style="overflow:visible;"/>
					</clipPath>
					<g style="clip-path:url(#SVGID_00000097476732747009246100000004768801061882756011_);">
						<g>
							<g>
								<g>
									<g>
										<path class="st0" d="M214.1,164.2c0.1,0.3,7.5,29.8,9.9,38.6C216.8,191.4,212.7,177.9,214.1,164.2z"/>
										<path class="st0" d="M214.5,146c1.9,9.5,14.9,45.3,18,50.2C225.3,189.3,212.2,166.9,214.5,146z"/>
										<path class="st0" d="M216.3,134.7c2.2,13,6.6,21.5,15.7,38.9c0,0,5.9,11,5.9,11c0.1,0-0.2,0-0.1,0.1
											c-0.1-0.1-0.2-0.3-0.2-0.4c0,0,0.3,0.3,0.3,0.3c0,0.1-0.2,0.1-0.1,0.1C228.2,177.7,214,155.1,216.3,134.7z"/>
										<path class="st0" d="M217.5,127.6c2.5,12.2,18.5,34.2,25.9,46.1C230.4,162.5,215.9,144.6,217.5,127.6z"/>
										<path class="st0" d="M219.1,120.2c2.4,11.3,17.9,27.8,28.8,45.5C235.2,154.6,217.6,136.7,219.1,120.2z"/>
										<path class="st0" d="M220.6,114.2c2.3,10.7,18.8,21.7,32.9,43.5C238.6,144.8,219.6,128.6,220.6,114.2z"/>
										<path class="st0" d="M222.3,109.6c2.2,9.1,23.7,17.9,37.1,39.1C240.6,132.7,221.6,120.8,222.3,109.6z"/>
										<path class="st0" d="M223.6,105c1.2,4.5,6.7,5.6,17.7,12.2c8.4,5,18,13.8,23.6,22.6C243.1,121.4,223.3,113.5,223.6,105z"
											/>
										<path class="st0" d="M224.7,101.4c0,0,0,0.6,0.6,1.1c3.9,3.5,28,1.7,44.8,27.6c-18.7-16.3-31.6-18.5-42.1-24.8
											C224.1,103,224.7,101.4,224.7,101.4z"/>
										<path class="st0" d="M226.1,98.8c0,0-0.2,0.7,2,0.8c3.8,0.1,29.8-5.2,47.8,22.1c-9.4-8.2-15.3-12.2-28.1-16.6
											C235.2,100.7,226.1,101.2,226.1,98.8z"/>
										<path class="st0" d="M226.8,95.7c0,0-0.3,0.4,2.4-0.5c22.1-7.8,39.7-0.5,51.9,18c-14.2-12.6-28.1-19.1-48.8-17.5
											c-2.7,0.2-5,0.5-5.5,0.3C226.7,95.8,226.8,95.7,226.8,95.7z"/>
										<path class="st0" d="M227.6,92.5c12.7-11.3,38.7-14,58,13.2C272.6,94.1,260.7,87,242,88.8
											C235.6,89.5,230.4,91.1,227.6,92.5z"/>
									</g>
									<g>
										<path class="st0" d="M208.5,155c-3.5,8.7-8.8,18.8-21.2,28.3C196.6,167.2,201.1,162.1,208.5,155z"/>
										<path class="st0" d="M210.6,143.5c-9.6,21.4-28,29.8-31.7,30.7C182.8,171.7,183.3,170.5,210.6,143.5z"/>
										<path class="st0" d="M212.1,134.2c-6.7,14.3-21.2,26-39.2,29c0,0.2-0.1-0.2-0.1-0.2c0.1,0,0.5-0.1,0.5-0.1
											c0,0-0.4,0.2-0.5,0.2c0,0-0.1-0.3-0.1-0.2C199.9,147,206.4,140.3,212.1,134.2z"/>
										<path class="st0" d="M213.2,127.2c-7.4,15.1-26.4,21-43.1,23.3C185.1,142.9,204.3,136.4,213.2,127.2z"/>
										<path class="st0" d="M215.3,119.5c-7.2,14.5-28.2,19.1-44.7,21.4C181.9,135.3,207.2,127.7,215.3,119.5z"/>
										<path class="st0" d="M216.3,113.6c-6,11.9-25.4,14.7-46.6,17.6C191.6,120.7,208.4,121.5,216.3,113.6z"/>
									</g>
								</g>
								<path class="st0" d="M231.2,70.3c-10.1,26-15.9,50.5-19.4,76.4c-0.7,4.9-1.6,10-2.7,14.9c-2.8,12.6-3.6,27.5-1.4,41.8
									c2.4-13.6,3.5-27.9,3.7-38.2c0.3-10.7,1.5-21.8,3.7-32.3c4.3-20.8,10.4-40.7,19-61.5L231.2,70.3z"/>
							</g>
							<g>
								<g>
									<g>
										<path class="st0" d="M270.3,175.1c8.5-3.6,43.7-12.4,49.2-12.6C310.3,160.6,285.5,162.2,270.3,175.1z"/>
										<path class="st0" d="M262.3,182.5c11.4-5.2,20.5-6.2,39.1-8.3c0,0,11.8-1.2,11.8-1.2c0,0.1-0.1-0.2,0-0.1
											c-0.1,0-0.3,0-0.4,0c0,0,0.4,0.1,0.4,0.1c0.1,0,0-0.2,0-0.1C302.6,169,277.2,169.9,262.3,182.5z"/>
										<path class="st0" d="M257.3,187.3c11-4.5,36.9-3.6,50.2-4.1C291.7,178.9,269.9,177,257.3,187.3z"/>
										<path class="st0" d="M252.3,192.5c10.2-4.2,31.4-0.7,51.3-1.4C288.2,186.9,264.6,182.6,252.3,192.5z"/>
										<path class="st0" d="M248.5,196.9c9.7-3.9,27.1,3.3,51.9,2.8C282.1,194.8,259.2,188.4,248.5,196.9z"/>
										<path class="st0" d="M245.7,200.7c8.3-3.1,26.8,9.2,50.7,8.5C273.7,202.9,254.2,194.2,245.7,200.7z"/>
										<path class="st0" d="M242.7,204.2c4.2-1.4,8,2.3,19,7.5c8.4,3.9,20.4,6.8,30.4,6.6C266.1,210.9,249.3,199.4,242.7,204.2z"
											/>
									</g>
									<g>
										<path class="st0" d="M274.2,165.6c5-7.4,10.2-16.9,11.1-31.8C277.5,149.7,275.8,156,274.2,165.6z"/>
										<path class="st0" d="M266.2,173.4c11.8-19,8.6-38,7.3-41.4C273.7,136.4,273,137.5,266.2,173.4z"/>
										<path class="st0" d="M259.7,179.5c7.7-12.9,9.2-30.6,2-46.4c0.1,0-0.2,0-0.2,0c0,0.1,0.2,0.4,0.2,0.5c0,0-0.1-0.5-0.1-0.5
											c0,0-0.3,0.1-0.2,0C263.3,163,261.5,171.8,259.7,179.5z"/>
										<path class="st0" d="M254.8,184.1c8-13.9,2.5-32-4.6-46.4C252.2,153.6,257.2,172.2,254.8,184.1z"/>
										<path class="st0" d="M249.8,189.8c7.6-13.4,0.4-31.8-6.5-46C244.8,155.8,252,179.1,249.8,189.8z"/>
										<path class="st0" d="M245.7,193.8c6.2-11.1-1.9-27.9-10.9-46.1C238.1,170.5,247.7,183.3,245.7,193.8z"/>
										<path class="st0" d="M241.8,198.3c4.8-8.9-5-23.2-15.8-44.8C229.4,177.7,243.5,189,241.8,198.3z"/>
										<path class="st0" d="M238.7,201.6c3.5-7-9.3-17.8-21.8-42.4c1.6,11.3,6.9,21.6,14,30.2
											C236.2,195.8,239.2,197.9,238.7,201.6z"/>
									</g>
								</g>
								<path class="st0" d="M219.4,228.7c15.2-21.8,31.4-39.5,50-56c3.5-3.1,7.1-6.6,10.3-10c8.5-8.9,19.8-17.4,32.3-23.4
									c-9.5,9.1-20.1,17.6-28.2,23.3c-8.3,5.9-16.4,12.8-23.5,20.1c-14.1,14.5-26.6,29.9-38.5,47.7L219.4,228.7z"/>
							</g>
						</g>
					</g>
				</g>
				<g>
					<path class="st0" d="M142.4,54.4c-0.8-0.7-1.6-1.3-2.4-1.9h-17.7c-0.2,0.6-0.3,1.3-0.3,1.9H142.4z"/>
					<path class="st0" d="M139.3,51.9c-0.8-0.6-1.6-1.2-2.4-1.7h-13.4c-0.4,0.5-0.8,1.1-1,1.7H139.3z"/>
					<path class="st0" d="M136.1,49.7c-3.7-2.3-7-3.3-9.9-1.7c-0.9,0.5-1.6,1.1-2.2,1.7H136.1z"/>
					<path class="st0" d="M136.8,67c-0.6,0-1.1-0.4-1.2-1h-10.3c0.6,1.2,1.2,2.5,1.8,3.7h12.7l6-6c0.1-0.1,0.1-0.1,0.2-0.1h8.1
						c-3.8-2.6-7.5-5.8-11-8.7H122c0,1.2,0.2,2.5,0.6,3.8h18.8c0.2-0.5,0.6-0.8,1.2-0.8c0.7,0,1.2,0.5,1.2,1.2
						c0,0.7-0.5,1.2-1.2,1.2c-0.6,0-1.1-0.5-1.2-1h-18.6c0.3,0.9,0.6,1.8,0.9,2.7h6.6c0.2-0.5,0.6-0.8,1.2-0.8
						c0.7,0,1.2,0.5,1.2,1.2c0,0.7-0.5,1.2-1.2,1.2c-0.6,0-1.1-0.5-1.2-1h-6.3c0.4,1,0.8,1.9,1.3,2.9h10.5c0.1-0.6,0.6-1,1.2-1
						c0.7,0,1.2,0.5,1.2,1.2C138,66.5,137.5,67,136.8,67z"/>
					<path class="st0" d="M141.1,71.7l6.2-6.2c0.1-0.1,0.1-0.1,0.2-0.1h9.4c-0.6-0.4-1.3-0.8-1.9-1.2h-8.7l-6,6
						c-0.1,0.1-0.1,0.1-0.2,0.1h-12.6c0.2,0.4,0.4,0.9,0.6,1.3H141.1z"/>
					<path class="st0" d="M258.8,84.4c0.8,0.1,1.5,0.4,2.3,0.8c-0.5-0.4-1.1-0.8-1.8-1.3L258.8,84.4z"/>
					<path class="st0" d="M258.9,83.5c-1-0.7-2.1-1.5-3.3-2.4l-3.4,3.4c0.1,0.2,0.2,0.4,0.2,0.6c0,0.7-0.5,1.2-1.2,1.2
						c-0.7,0-1.2-0.5-1.2-1.2c0-0.7,0.5-1.2,1.2-1.2c0.2,0,0.5,0.1,0.6,0.2l3.4-3.4c-1.1-0.8-2.3-1.7-3.5-2.6l-0.5,0.5v0.6
						c0.6,0,1.1,0.6,1.1,1.2c0,0.7-0.5,1.2-1.2,1.2s-1.2-0.5-1.2-1.2c0-0.5,0.3-1,0.8-1.1v-0.8c0-0.1,0-0.1,0.1-0.2l0.5-0.5
						c-0.8-0.6-1.6-1.2-2.5-1.8l-2.1,2.1v1.2c0.6,0.1,1,0.6,1,1.2c0,0.7-0.5,1.2-1.2,1.2c-0.7,0-1.2-0.5-1.2-1.2
						c0-0.6,0.4-1.1,1-1.2V78c0-0.1,0-0.1,0.1-0.2l2.1-2.1c-1.5-1.1-3-2.2-4.5-3.3v9.8l1.9,1.9c0.2-0.1,0.4-0.2,0.7-0.2
						c0.7,0,1.2,0.5,1.2,1.2c0,0.7-0.5,1.2-1.2,1.2c-0.7,0-1.2-0.5-1.2-1.2c0-0.2,0.1-0.4,0.1-0.6l-2.1-2.1V72.1c-1-0.7-2-1.5-3-2.3
						v24c0,0.1,0,0.1-0.1,0.2l-8.6,8.6c0.1,0.2,0.2,0.4,0.2,0.7c0,0.7-0.5,1.2-1.2,1.2c-0.7,0-1.2-0.5-1.2-1.2s0.5-1.2,1.2-1.2
						c0.2,0,0.5,0.1,0.7,0.2l8.6-8.6V69.4c-0.7-0.5-1.4-1.1-2.1-1.6v22c0.6,0.1,1,0.6,1,1.2c0,0.7-0.5,1.2-1.2,1.2s-1.2-0.5-1.2-1.2
						c0-0.6,0.4-1.1,1-1.2V67.4c-0.4-0.3-0.8-0.6-1.1-0.9v21.1c0,0.1,0,0.1-0.1,0.2l-1.3,1.3c0.1,0.1,0.1,0.3,0.1,0.4
						c0,0.7-0.5,1.2-1.2,1.2c-0.7,0-1.2-0.5-1.2-1.2s0.5-1.2,1.2-1.2c0.3,0,0.6,0.1,0.8,0.3l1.1-1.1V66.2c-0.3-0.2-0.6-0.4-0.9-0.7
						c-0.3-0.2-0.6-0.4-0.8-0.6v18c0.6,0.1,1,0.6,1,1.2c0,0.7-0.5,1.2-1.2,1.2c-0.7,0-1.2-0.5-1.2-1.2c0-0.6,0.4-1.1,1-1.2V64.5
						c-0.4-0.3-0.9-0.7-1.3-1l-0.2,0.2v17.1c0,0.1,0,0.1-0.1,0.2l-5.6,5.6v2c0.6,0.1,1,0.6,1,1.2c0,0.7-0.5,1.2-1.2,1.2
						c-0.7,0-1.2-0.5-1.2-1.2c0-0.6,0.4-1.1,1-1.2v-2.1c0-0.1,0-0.1,0.1-0.2l5.6-5.6V63.6c0-0.1,0-0.1,0.1-0.2l0.2-0.2
						c-0.2-0.2-0.4-0.3-0.6-0.5l-0.8,0.8v11.3l-6,6v13.1l2.1,2.1c0.2-0.2,0.5-0.3,0.8-0.3c0.7,0,1.2,0.5,1.2,1.2
						c0,0.7-0.5,1.2-1.2,1.2c-0.7,0-1.2-0.5-1.2-1.2c0-0.2,0-0.3,0.1-0.5l-2.3-2.3V80.6l6-6V63.3l0.1-0.1l0.8-0.8
						c-0.3-0.2-0.5-0.4-0.8-0.6l-7.1,7.1v14.1c0,0.1,0,0.1-0.1,0.2l-1.7,1.7v11.6c0,0.1,0,0.1-0.1,0.2l-1.3,1.3
						c0.1,0.2,0.1,0.3,0.1,0.5c0,0.7-0.5,1.2-1.2,1.2c-0.7,0-1.2-0.5-1.2-1.2s0.5-1.2,1.2-1.2c0.3,0,0.6,0.1,0.8,0.3l1.2-1.2V84.7
						c0-0.1,0-0.1,0.1-0.2l1.7-1.7V68.7c0-0.1,0-0.1,0.1-0.2l7.2-7.2c-2.3-1.8-4.6-3.5-6.7-5.1v6.6c0.5,0.1,0.9,0.6,0.9,1.2
						c0,0.7-0.5,1.2-1.2,1.2s-1.2-0.5-1.2-1.2c0-0.6,0.4-1.1,0.9-1.2v-7c-4.8-3.5-8.7-6-11.2-6c-0.9,0-1.9,0.1-2.8,0.3L219,61.2
						c0.1,0.1,0.1,0.1,0.1,0.2v13.9c0,0.1,0,0.1-0.1,0.2l-7.1,7.1c-0.1,0.1-0.1,0.1-0.2,0.1h-2.6l-2.5,2.5v10.5c0,0.1,0,0.1-0.1,0.2
						l-2.7,2.7c0,0.1,0.1,0.3,0.1,0.4c0,0.7-0.5,1.2-1.2,1.2c-0.7,0-1.2-0.5-1.2-1.2s0.5-1.2,1.2-1.2c0.3,0,0.6,0.1,0.9,0.4l2.6-2.6
						V85.1c0-0.1,0-0.1,0.1-0.2l2.7-2.7c0,0,0.1-0.1,0.2-0.1h2.6l6.9-6.9V61.5l-11.3-11.3c-1.7,0.4-3.3,0.9-5,1.7L217,66.6
						c0.1,0.1,0.1,0.1,0.1,0.2v7.7c0,0.1,0,0.1-0.1,0.2l-6,6c0,0-0.1,0.1-0.2,0.1h-3.2l-2.8,2.8v9.2c0,0.1,0,0.1-0.1,0.2l-1.1,1.1
						c0.1,0.1,0.1,0.3,0.1,0.4c0,0.7-0.5,1.2-1.2,1.2c-0.7,0-1.2-0.5-1.2-1.2c0-0.7,0.5-1.2,1.2-1.2c0.3,0,0.6,0.1,0.8,0.3l0.9-0.9
						v-9.2c0-0.1,0-0.1,0.1-0.2l2.9-2.9c0,0,0.1-0.1,0.2-0.1h3.2l5.8-5.8v-7.5l-14.8-14.8c-0.8,0.4-1.6,0.8-2.3,1.2v7.8l3.4,3.4
						c0.1,0,0.1,0.1,0.1,0.2v5.3c0.6,0.1,1,0.6,1,1.2c0,0.7-0.5,1.2-1.2,1.2c-0.7,0-1.2-0.5-1.2-1.2c0-0.6,0.4-1.1,1-1.2v-5.2
						l-3.4-3.4c0-0.1-0.1-0.1-0.1-0.2v-7.7c-0.7,0.4-1.5,0.8-2.2,1.3v22.9c0,0.1,0,0.1-0.1,0.2l-0.4,0.4c0.1,0.1,0.1,0.3,0.1,0.5
						c0,0.7-0.5,1.2-1.2,1.2c-0.7,0-1.2-0.5-1.2-1.2c0-0.7,0.5-1.2,1.2-1.2c0.3,0,0.6,0.1,0.8,0.3l0.3-0.3V55.3
						c-1.6,1-3.3,2.1-4.9,3.2v21l1.7,1.7h5.4c0.1,0,0.1,0,0.2,0.1l2.8,2.8c0.1,0,0.1,0.1,0.1,0.2v3l0.5,0.5c0.2-0.1,0.4-0.2,0.7-0.2
						c0.7,0,1.2,0.5,1.2,1.2s-0.5,1.2-1.2,1.2c-0.7,0-1.2-0.5-1.2-1.2c0-0.2,0.1-0.5,0.2-0.7l-0.6-0.6c-0.1,0-0.1-0.1-0.1-0.2v-3
						l-2.6-2.6h-5.4c-0.1,0-0.1,0-0.2-0.1l-1.8-1.8c-0.1-0.1-0.1-0.1-0.1-0.2V58.8c-0.3,0.2-0.5,0.4-0.8,0.5v21.7l2.4,2.4h4.6
						c0.1,0,0.3,0,2.4,2.3c0,0,0.1,0.1,0.1,0.2v7.2c0,0.1,0,0.1-0.1,0.2l-2.8,2.8c0.1,0.2,0.1,0.4,0.1,0.5c0,0.7-0.5,1.2-1.2,1.2
						c-0.7,0-1.2-0.5-1.2-1.2s0.5-1.2,1.2-1.2c0.3,0,0.5,0.1,0.8,0.3l2.7-2.7v-7c-0.9-1-1.8-1.9-2-2.1h-4.7c-0.1,0-0.1,0-0.2-0.1
						l-2.6-2.6c-0.1-0.1-0.1-0.1-0.1-0.2V59.7c-0.8,0.5-1.5,1-2.3,1.5l0.9,1.4c0,0,0.1,0.1,0.1,0.2v20.1l2.3,2.3h5.1
						c0.1,0,0.1,0,0.2,0.1l2,2c0.1,0,0.1,0.1,0.1,0.2v3.6c0,0.1,0,0.1-0.1,0.2l-4.8,4.8v2.5l0.8,0.8h3.9c0.1,0,0.1,0,0.2,0.1
						l2.6,2.6h6l2.4-2.4c-0.1-0.2-0.2-0.4-0.2-0.6c0-0.7,0.5-1.2,1.2-1.2c0.7,0,1.2,0.5,1.2,1.2s-0.5,1.2-1.2,1.2
						c-0.3,0-0.5-0.1-0.7-0.2l-2.5,2.5c0,0-0.1,0.1-0.2,0.1h-6.2c-0.1,0-0.1,0-0.2-0.1l-2.6-2.6h-3.9c-0.1,0-0.1,0-0.2-0.1l-0.9-0.9
						c-0.1-0.1-0.1-0.1-0.1-0.2V96c0-0.1,0-0.1,0.1-0.2l4.8-4.8v-3.4l-1.9-1.9h-5.1c-0.1,0-0.1,0-0.2-0.1l-2.4-2.4
						c-0.1-0.1-0.1-0.1-0.1-0.2V62.9l-0.9-1.4c-0.4,0.2-0.8,0.5-1.1,0.7l0.7,1.1c0,0,0.1,0.1,0.1,0.2v20.3l4.8,4.8h1.6
						c0.1-0.6,0.6-1,1.2-1c0.7,0,1.2,0.5,1.2,1.2s-0.5,1.2-1.2,1.2c-0.6,0-1.1-0.4-1.2-1h-1.7c-0.1,0-0.1,0-0.2-0.1l-4.9-4.9
						c-0.1-0.1-0.1-0.1-0.1-0.2V63.6l-0.7-1.1c-0.5,0.3-1.1,0.7-1.6,1l1.2,1.2c0.1,0.1,0.1,0.1,0.1,0.2v26.3l1.6,1.6
						c0.2-0.1,0.4-0.2,0.7-0.2c0.7,0,1.2,0.5,1.2,1.2c0,0.7-0.5,1.2-1.2,1.2c-0.7,0-1.2-0.5-1.2-1.2c0-0.2,0.1-0.5,0.2-0.7l-1.6-1.6
						c-0.1-0.1-0.1-0.1-0.1-0.2V65l-1.2-1.2c-0.3,0.2-0.6,0.4-0.9,0.5l0.9,1c0.1,0.1,0.1,0.1,0.1,0.2v18.3c0,0.1,0,0.1-0.1,0.2
						l-1.6,1.5c0,0.1,0.1,0.2,0.1,0.3c0,0.7-0.5,1.2-1.2,1.2c-0.7,0-1.2-0.5-1.2-1.2c0-0.7,0.5-1.2,1.2-1.2c0.3,0,0.7,0.1,0.9,0.4
						l1.4-1.3V65.6l-0.9-1c-0.3,0.2-0.7,0.4-1,0.5c0,2.5,0,5.6-0.1,7.7l0,0.3h-6l-4.4-4.4c-0.9,0.1-1.7,0.2-2.6,0.2
						c-3.2,0-6.4-1.2-9.6-2.9h-10.2l-6.2,6.2c-0.1,0.1-0.1,0.1-0.2,0.1h-12.9c0.8,1.6,1.5,3.1,2.2,4.7h12.6l4.4-4.4
						c0.1-0.1,0.1-0.1,0.2-0.1h9.9c0.1,0,0.1,0,0.2,0.1l2.4,2.4h6.8c0.1,0,0.1,0,0.2,0.1l2,2h1.3l1.4-1.4c0.1-0.1,0.1-0.1,0.2-0.1
						h4.4c0.1,0,0.1,0,0.2,0.1l2.9,2.9c0.2-0.2,0.5-0.2,0.7-0.2c0.7,0,1.2,0.5,1.2,1.2c0,0.7-0.5,1.2-1.2,1.2
						c-0.7,0-1.2-0.5-1.2-1.2c0-0.2,0.1-0.4,0.2-0.6l-2.8-2.8h-4.2l-1.4,1.4c-0.1,0.1-0.1,0.1-0.2,0.1h-1.5c-0.1,0-0.1,0-0.2-0.1
						l-2-2H160c-0.1,0-0.1,0-0.2-0.1l-2.4-2.4h-9.6l-4.4,4.4c-0.1,0.1-0.1,0.1-0.2,0.1h-12.5c0.2,0.4,0.4,0.9,0.5,1.3H144l4.2-4.2
						c0.1-0.1,0.1-0.1,0.2-0.1h8.1c0.1,0,0.1,0,0.2,0.1l2.2,2.2h7.1c0.1,0,0.1,0,0.2,0.1l2.4,2.4h3.8c0.1-0.6,0.6-1,1.2-1
						c0.7,0,1.2,0.5,1.2,1.2c0,0.7-0.5,1.2-1.2,1.2c-0.6,0-1.1-0.4-1.2-1h-3.9c-0.1,0-0.1,0-0.2-0.1l-2.4-2.4h-7.1
						c-0.1,0-0.1,0-0.2-0.1l-2.2-2.2h-7.9l-4.2,4.2c-0.1,0.1-0.1,0.1-0.2,0.1h-12.6c0.1,0.3,0.3,0.7,0.4,1c0,0.1,0.1,0.2,0.1,0.3
						h14.4l4-4c0.1-0.1,0.1-0.1,0.2-0.1h5.3c0.1,0,0.1,0,0.2,0.1l2,2h7.3c0.1,0,0.1,0,0.2,0.1l2.8,2.8h3.7c0.1,0,0.1,0,0.2,0.1
						l1.7,1.7c0.2-0.1,0.4-0.2,0.7-0.2c0.7,0,1.2,0.5,1.2,1.2c0,0.7-0.5,1.2-1.2,1.2c-0.7,0-1.2-0.5-1.2-1.2c0-0.2,0.1-0.5,0.2-0.7
						l-1.6-1.6h-3.7c-0.1,0-0.1,0-0.2-0.1l-2.8-2.8h-7.3c-0.1,0-0.1,0-0.2-0.1l-2-2h-5.1l-4,4c-0.1,0.1-0.1,0.1-0.2,0.1h-14.3
						c0.2,0.5,0.4,1,0.5,1.5H147l3.6-3.6c0.1-0.1,0.1-0.1,0.2-0.1h1.4c0.1-0.6,0.6-1,1.2-1c0.7,0,1.2,0.5,1.2,1.2
						c0,0.7-0.5,1.2-1.2,1.2c-0.6,0-1.1-0.4-1.2-1h-1.3l-3.6,3.6c-0.1,0.1-0.1,0.1-0.2,0.1h-14.3c0.2,0.5,0.3,1,0.5,1.5h13.8
						l2.8-2.8c0.1-0.1,0.1-0.1,0.2-0.1h4.5l1.6-1.6c0-0.1,0.1-0.1,0.2-0.1h8.5c0.1,0,0.1,0,0.2,0.1l3.1,3.1c0.2-0.1,0.4-0.2,0.7-0.2
						c0.7,0,1.2,0.5,1.2,1.2c0,0.7-0.5,1.2-1.2,1.2c-0.7,0-1.2-0.5-1.2-1.2c0-0.2,0.1-0.5,0.2-0.7l-3-3h-8.2l-1.6,1.6
						c-0.1,0.1-0.1,0.1-0.2,0.1h-4.5l-2.8,2.8c-0.1,0.1-0.1,0.1-0.2,0.1h-13.7c0.1,0.4,0.2,0.7,0.4,1.1h14.3l2.4-2.4
						c0.1-0.1,0.1-0.1,0.2-0.1h4.6l1.9-1.9c0.1-0.1,0.1-0.1,0.2-0.1h4.7c0.1,0,0.1,0,0.2,0.1l1.3,1.3c0.1,0,0.3-0.1,0.4-0.1
						c0.7,0,1.2,0.5,1.2,1.2c0,0.7-0.5,1.2-1.2,1.2c-0.7,0-1.2-0.5-1.2-1.2c0-0.3,0.1-0.6,0.4-0.9l-1.1-1.1h-4.4l-1.9,1.9
						c-0.1,0.1-0.1,0.1-0.2,0.1H151l-2.4,2.4c-0.1,0.1-0.1,0.1-0.2,0.1h-14.2c0.1,0.4,0.2,0.8,0.4,1.1H150l0.8-0.8
						c-0.1-0.2-0.2-0.4-0.2-0.7c0-0.7,0.5-1.2,1.2-1.2c0.7,0,1.2,0.5,1.2,1.2s-0.5,1.2-1.2,1.2c-0.2,0-0.4-0.1-0.6-0.2l-0.8,0.8
						c-0.1,0.1-0.1,0.1-0.2,0.1h-15.5c0.1,0.3,0.2,0.6,0.3,0.8h19.7l2-2c0.1-0.1,0.1-0.1,0.2-0.1h5.6c0.1,0,0.1,0,0.2,0.1l1,1
						c0.1,0,0.2-0.1,0.3-0.1c0.7,0,1.2,0.5,1.2,1.2s-0.5,1.2-1.2,1.2c-0.7,0-1.2-0.5-1.2-1.2c0-0.3,0.1-0.7,0.4-0.9l-0.8-0.8H157
						l-2,2c-0.1,0.1-0.1,0.1-0.2,0.1h-19.7c0.1,0.3,0.2,0.7,0.3,1.1h21.4l0.8-0.8c-0.1-0.2-0.2-0.4-0.2-0.7c0-0.7,0.5-1.2,1.2-1.2
						s1.2,0.5,1.2,1.2s-0.5,1.2-1.2,1.2c-0.2,0-0.5-0.1-0.7-0.2l-0.9,0.9c-0.1,0.1-0.1,0.1-0.2,0.1h-21.4c0.1,0.3,0.2,0.6,0.3,0.9
						h20.3c0.1,0,0.1,0,0.2,0.1l1.2,1.2c0.2-0.1,0.4-0.2,0.7-0.2c0.7,0,1.2,0.5,1.2,1.2c0,0.7-0.5,1.2-1.2,1.2
						c-0.7,0-1.2-0.5-1.2-1.2c0-0.2,0.1-0.5,0.2-0.7l-1.1-1.1H136c0.1,0.3,0.2,0.7,0.3,1h18.1c0.1,0,0.1,0,0.2,0.1l2.5,2.5h16.8
						l5.2-5.2c-0.1-0.2-0.1-0.4-0.1-0.6c0-0.7,0.5-1.2,1.2-1.2c0.7,0,1.2,0.5,1.2,1.2c0,0.7-0.5,1.2-1.2,1.2c-0.3,0-0.5-0.1-0.7-0.3
						l-5.2,5.2c-0.1,0.1-0.1,0.1-0.2,0.1h-17c-0.1,0-0.1,0-0.2-0.1l-2.5-2.5h-17.8c0.1,0.4,0.2,0.7,0.3,1.1h6.6c0.1,0,0.1,0,0.2,0.1
						l3.9,3.9h8.8l1.1-1.1c0.1-0.1,0.1-0.1,0.2-0.1h10.1c0.1,0,0.1,0,0.2,0.1l1.4,1.4c0.2-0.1,0.4-0.2,0.6-0.2
						c0.7,0,1.2,0.5,1.2,1.2c0,0.7-0.5,1.2-1.2,1.2c-0.7,0-1.2-0.5-1.2-1.2c0-0.3,0.1-0.5,0.2-0.7l-1.3-1.3h-9.9l-1.1,1.1
						c-0.1,0.1-0.1,0.1-0.2,0.1h-9.1c-0.1,0-0.1,0-0.2-0.1l-3.9-3.9h-6.3c0.1,0.3,0.2,0.6,0.3,1h5.5c0.1,0,0.1,0,0.2,0.1l3.9,3.9
						h12.8c0.1-0.6,0.6-1,1.2-1c0.7,0,1.2,0.5,1.2,1.2c0,0.7-0.5,1.2-1.2,1.2c-0.6,0-1.1-0.4-1.2-1h-13c-0.1,0-0.1,0-0.2-0.1
						l-3.9-3.9h-5.2c0.1,0.3,0.2,0.7,0.3,1h3.8c0.1,0,0.1,0,0.2,0.1l3.4,3.4c0.2,0.2,0.3,0.3,0.5,0.5h12.6c0.1,0,0.1,0,0.2,0.1
						l1.2,1.2h3.1l2-2c-0.1-0.2-0.1-0.4-0.1-0.6c0-0.7,0.5-1.2,1.2-1.2s1.2,0.5,1.2,1.2c0,0.7-0.5,1.2-1.2,1.2
						c-0.3,0-0.5-0.1-0.7-0.2l-2,2c-0.1,0.1-0.1,0.1-0.2,0.1h-3.4c-0.1,0-0.1,0-0.2-0.1l-1.2-1.2h-12.6c0,0,0,0,0,0l0,0
						c-0.1,0-0.1,0-0.2-0.1l-3.9-3.9h-3.5c0.1,0.5,0.3,1.1,0.4,1.6h2.9l3.8,3.8h12.5c0.1,0,0.1,0,0.2,0.1l3.2,3.2h0.8
						c0.1-0.6,0.6-1,1.2-1c0.7,0,1.2,0.5,1.2,1.2c0,0.7-0.5,1.2-1.2,1.2c-0.6,0-1.1-0.4-1.2-1h-1c-0.1,0-0.1,0-0.2-0.1l-3.2-3.2
						h-12.5c-0.1,0-0.1,0-0.2-0.1l-3.8-3.8h-2.5c0.4,1.9,0.8,3.9,1.2,6h10.8c0.1-0.6,0.6-1,1.2-1c0.7,0,1.2,0.5,1.2,1.2
						c0,0.7-0.5,1.2-1.2,1.2c-0.6,0-1.1-0.4-1.2-1h-10.7c0,0.2,0.1,0.5,0.1,0.7l6,6.1H159l18.8-18.8c-0.1-0.2-0.2-0.4-0.2-0.6
						c0-0.7,0.5-1.2,1.2-1.2c0.7,0,1.2,0.5,1.2,1.2c0,0.7-0.5,1.2-1.2,1.2c-0.3,0-0.5-0.1-0.7-0.2l-18.9,18.9
						c-0.1,0.1-0.1,0.1-0.2,0.1h-13.7c-0.1,0-0.1,0-0.2-0.1l-5.5-5.6c0.2,1,0.3,2,0.4,3l4.4,4.5h14.8l15-15c0.1-0.1,0.1-0.1,0.2-0.1
						h7.7l2.8-2.8c0.1-0.1,0.1-0.1,0.2-0.1h0.5c0.1-0.6,0.6-1,1.2-1c0.7,0,1.2,0.5,1.2,1.2s-0.5,1.2-1.2,1.2c-0.6,0-1.1-0.4-1.2-1
						h-0.4l-2.8,2.8c-0.1,0.1-0.1,0.1-0.2,0.1h-7.7l-15,15c-0.1,0.1-0.1,0.1-0.2,0.1h-15c-0.1,0-0.1,0-0.2-0.1l-4-4.1
						c0.2,1.9,0.4,3.8,0.6,5.9h11.4c0.1-0.6,0.6-1,1.2-1c0.7,0,1.2,0.5,1.2,1.2c0,0.7-0.5,1.2-1.2,1.2c-0.6,0-1.1-0.4-1.2-1h-11.4
						c0.1,0.8,0.1,1.6,0.2,2.4h10.6c0.1,0,0.1,0,0.2,0.1l1.2,1.2h6.4l1.6-1.6v-3.8c0-0.1,0-0.1,0.1-0.2l13.9-13.9
						c0.1-0.1,0.1-0.1,0.2-0.1h8.5l1.8-1.8c0.1-0.1,0.1-0.1,0.2-0.1h12c0.1,0,0.1,0,0.2,0.1l2.1,2.1h11l3-3v-3.9
						c0-0.1,0-0.1,0.1-0.2l3-3c-0.1-0.2-0.2-0.4-0.2-0.6c0-0.7,0.5-1.2,1.2-1.2c0.7,0,1.2,0.5,1.2,1.2s-0.5,1.2-1.2,1.2
						c-0.2,0-0.5-0.1-0.7-0.2l-2.9,2.9v3.9c0,0.1,0,0.1-0.1,0.2l-3.1,3.1c-0.1,0.1-0.1,0.1-0.2,0.1h-11.2c-0.1,0-0.1,0-0.2-0.1
						l-2.1-2.1h-11.8L184,104c-0.1,0.1-0.1,0.1-0.2,0.1h-8.5l-13.8,13.8v3.8c0,0.1,0,0.1-0.1,0.2l-1.8,1.8c-0.1,0.1-0.1,0.1-0.2,0.1
						h-6.6c-0.1,0-0.1,0-0.2-0.1l-1.2-1.2h-10.4c0,0.4,0,0.9,0.1,1.3h7.6c0.1,0,0.1,0,0.2,0.1l2.1,2.1h9.6l2.8-2.8v-3.7
						c0-0.1,0-0.1,0.1-0.2l12.1-12.1c0.1-0.1,0.1-0.1,0.2-0.1h16.5c0.1,0,0.1,0,0.2,0.1l3.3,3.3h16.7l10.4-10.4
						c-0.1-0.1-0.1-0.3-0.1-0.4c0-0.7,0.5-1.2,1.2-1.2c0.7,0,1.2,0.5,1.2,1.2c0,0.7-0.5,1.2-1.2,1.2c-0.3,0-0.6-0.1-0.8-0.3
						L212.8,111c0,0-0.1,0.1-0.2,0.1h-16.9c-0.1,0-0.1,0-0.2-0.1l-3.3-3.3h-16.3l-12,12v3.7c0,0.1,0,0.1-0.1,0.2l-2.9,2.9
						c-0.1,0.1-0.1,0.1-0.2,0.1h-9.9c-0.1,0-0.1,0-0.2-0.1l-2.1-2.1h-7.4c0,0.6,0.1,1.1,0.1,1.7c5.4,1.7,12.7,3.2,21.7,3.6l3.3-3.3
						h2.5v-5.9c-0.5-0.1-0.9-0.6-0.9-1.2c0-0.7,0.5-1.2,1.2-1.2c0.7,0,1.2,0.5,1.2,1.2c0,0.6-0.4,1.1-0.9,1.2v6.4h-2.8l-2.8,2.8
						c1.4,0.1,2.9,0.1,4.4,0.1c1.5,0,3-0.1,4.5-0.2l-0.4-0.4c-0.1-0.1-0.1-0.1-0.1-0.2v-4.8c-0.6-0.1-1-0.6-1-1.2
						c0-0.7,0.5-1.2,1.2-1.2s1.2,0.5,1.2,1.2c0,0.6-0.4,1.1-1,1.2v4.7l0.6,0.6c6.9-0.6,13.8-2.3,20.4-4.6c3.5-1.3,6.9-2.6,10-4
						l-0.7-0.7c-0.2,0.1-0.4,0.2-0.6,0.2c-0.7,0-1.2-0.5-1.2-1.2c0-0.7,0.5-1.2,1.2-1.2c0.7,0,1.2,0.5,1.2,1.2
						c0,0.2-0.1,0.5-0.2,0.6l0.8,0.8c3.2-1.4,6.1-2.9,8.9-4.5v-0.6h-12.4l-3.9,3.9h-16.9c-0.1,0.5-0.6,0.9-1.2,0.9
						c-0.7,0-1.2-0.5-1.2-1.2c0-0.7,0.5-1.2,1.2-1.2c0.6,0,1.1,0.4,1.2,0.9h16.7l3.9-3.9h13.2v0.9c3.4-1.9,6.4-3.8,9.2-5.6
						c-0.1-0.1-0.1-0.2-0.2-0.3h-5.6l-3.4,3.4c-0.1,0.1-0.1,0.1-0.2,0.1h-22.3l-1.2,1.2c0.1,0.2,0.1,0.4,0.1,0.5
						c0,0.7-0.5,1.2-1.2,1.2s-1.2-0.5-1.2-1.2s0.5-1.2,1.2-1.2c0.3,0,0.5,0.1,0.8,0.3l1.2-1.2c0.1-0.1,0.1-0.1,0.2-0.1h22.3l3.4-3.4
						c0.1-0.1,0.1-0.1,0.2-0.1h5.7c0.1-0.6,0.6-1,1.2-1c0.4,0,0.7,0.2,0.9,0.5c0.8-0.6,1.6-1.1,2.4-1.7l-0.8-0.8v-5l3.9-3.9
						c-0.1-0.2-0.2-0.4-0.2-0.6c0-0.7,0.5-1.2,1.2-1.2c0.7,0,1.2,0.5,1.2,1.2c0,0.7-0.5,1.2-1.2,1.2c-0.2,0-0.5-0.1-0.6-0.2
						l-3.8,3.8v4.5l0.7,0.7c2.3-1.7,4.4-3.3,6.4-4.9c0.2-0.2,0.4-0.4,0.6-0.5c0,0,0,0,0,0c8.7-7,16.3-17.5,23.4-17.3L258.9,83.5z
						 M203.8,80.9c0,0.7-0.5,1.2-1.2,1.2s-1.2-0.5-1.2-1.2c0-0.7,0.5-1.2,1.2-1.2c0.2,0,0.4,0.1,0.6,0.2l4.6-4.6v-9.8l-4.5-4.5
						c-0.2,0.1-0.4,0.2-0.6,0.2c-0.7,0-1.2-0.5-1.2-1.2c0-0.7,0.5-1.2,1.2-1.2s1.2,0.5,1.2,1.2c0,0.2-0.1,0.5-0.2,0.6l4.7,4.7v10.3
						l-4.7,4.7C203.8,80.5,203.8,80.7,203.8,80.9z M169.7,75.2c-0.7,0-1.2-0.5-1.2-1.2c0-0.2,0.1-0.5,0.2-0.6l-2.7-2.7h-16.8
						c-0.1,0.5-0.6,0.9-1.2,0.9c-0.7,0-1.2-0.5-1.2-1.2c0-0.7,0.5-1.2,1.2-1.2c0.6,0,1.1,0.4,1.2,0.9h17l2.9,2.9
						c0.2-0.1,0.4-0.2,0.6-0.2c0.7,0,1.2,0.5,1.2,1.2C171,74.6,170.4,75.2,169.7,75.2z M151.3,98.4c-0.7,0-1.2-0.5-1.2-1.2
						c0-0.7,0.5-1.2,1.2-1.2c0.7,0,1.2,0.5,1.2,1.2C152.5,97.9,151.9,98.4,151.3,98.4z M180.2,100.3c-0.7,0-1.2-0.5-1.2-1.2
						s0.5-1.2,1.2-1.2c0.7,0,1.2,0.5,1.2,1.2S180.8,100.3,180.2,100.3z M159.1,120.5c-0.7,0-1.2-0.5-1.2-1.2c0-0.7,0.5-1.2,1.2-1.2
						c0.7,0,1.2,0.5,1.2,1.2C160.3,119.9,159.7,120.5,159.1,120.5z M209.8,95.1c-0.7,0-1.2-0.5-1.2-1.2c0-0.6,0.4-1.1,0.9-1.2v-4.5
						l0.1-0.1l7.3-7.3c-0.1-0.2-0.2-0.4-0.2-0.6c0-0.7,0.5-1.2,1.2-1.2c0.7,0,1.2,0.5,1.2,1.2c0,0.7-0.5,1.2-1.2,1.2
						c-0.2,0-0.5-0.1-0.7-0.2l-7.2,7.2v4.3c0.5,0.1,0.9,0.6,0.9,1.2C211,94.6,210.5,95.1,209.8,95.1z M217.9,87.7
						c-0.2,0-0.4-0.1-0.6-0.2l-2.3,2.3c0.1,0.2,0.2,0.4,0.2,0.6c0,0.7-0.5,1.2-1.2,1.2c-0.7,0-1.2-0.5-1.2-1.2s0.5-1.2,1.2-1.2
						c0.2,0,0.5,0.1,0.6,0.2l2.3-2.3c-0.1-0.2-0.2-0.4-0.2-0.6c0-0.7,0.5-1.2,1.2-1.2s1.2,0.5,1.2,1.2S218.6,87.7,217.9,87.7z
						 M177.4,123H192c0.1-0.6,0.6-1,1.2-1c0.7,0,1.2,0.5,1.2,1.2s-0.5,1.2-1.2,1.2c-0.6,0-1.1-0.4-1.2-1h-14.7c-0.1,0-0.1,0-0.2-0.1
						l-3.1-3.1c-0.1-0.1-0.1-0.1-0.1-0.2v-4.8c-0.6-0.1-1-0.6-1-1.2c0-0.7,0.5-1.2,1.2-1.2c0.7,0,1.2,0.5,1.2,1.2
						c0,0.6-0.4,1.1-1,1.2v4.7L177.4,123z M245.9,90.9h-2.2c-0.1,0.5-0.6,0.9-1.2,0.9c-0.7,0-1.2-0.5-1.2-1.2c0-0.7,0.5-1.2,1.2-1.2
						c0.6,0,1.1,0.4,1.2,0.9h2.8C246.2,90.5,246,90.7,245.9,90.9z M248.8,88.6h-2.3c-0.1,0.5-0.6,0.9-1.2,0.9
						c-0.7,0-1.2-0.5-1.2-1.2c0-0.7,0.5-1.2,1.2-1.2c0.6,0,1.1,0.4,1.2,0.9h2.9C249.2,88.2,249,88.4,248.8,88.6z"/>
					<path class="st0" d="M179.9,72.5c0-1.2,0.1-4.5,0.1-7.1c-3,1.5-6.1,2.7-9.3,3.2l4,3.9H179.9z"/>
				</g>
			</g>
		</g>
	</g>
</g>
<g id="CLEARSPACE">
</g>
</svg>
