<svg width="80" height="80" viewBox="0 0 80 80" fill="none" xmlns="http://www.w3.org/2000/svg">
<path d="M41.5365 60.9605L41.6715 61.1603L41.876 61.0326L61.2606 48.93L61.4237 48.8282L61.3672 48.6444L60.9569 47.3111L60.8972 47.117L60.6949 47.1357L55.3263 47.6328L46.0141 29.1098L48.6468 21.4143L48.7432 21.1325L48.449 21.0864L30.808 18.3171L30.6119 18.2863L30.5375 18.4704L19.4606 45.855L19.3215 46.1987H19.6923H31.5595L41.5365 60.9605ZM55.9815 38.7785L56.4551 38.6607C56.3522 34.3418 55.9408 30.2223 55.1158 26.5099L55.0723 26.3141H54.8718H52H51.8172L51.7618 26.4883L51.0438 28.7447L51.013 28.8415L51.0584 28.9323L55.9815 38.7785ZM42.3141 15.2821V15.4942L42.5234 15.5287L51.8568 17.0672L52.3115 17.1421L52.1264 16.7201C49.5532 10.8533 46.133 6.77824 42.6557 5.40842L42.3141 5.27384V5.64103V15.2821ZM37.6859 5.64103V5.2638L37.3385 5.41078C34.6041 6.56764 31.9013 9.18121 29.6284 13.2105L29.4498 13.5272L29.8094 13.5806L37.3991 14.7088L37.6859 14.7514V14.4615V5.64103ZM29.2337 50.8357L29.1594 50.7244H29.0256H24.718H24.4348L24.4699 51.0054L24.4707 51.0123C24.5728 51.8283 24.6769 52.6614 24.8857 53.4965L24.933 53.6859H25.1282H30.6667H31.1338L30.8747 53.2972L29.2337 50.8357ZM34.3612 58.4245L34.2869 58.3141H34.1538H26.4615H26.124L26.2224 58.637C27.5106 62.8622 29.2133 66.4259 31.129 69.144C33.0424 71.859 35.1802 73.7471 37.345 74.5919L37.6859 74.7249V74.359V63.8397H38.0082L37.7458 63.4501L34.3612 58.4245ZM42.3141 74.359V74.7318L42.659 74.5903C44.7155 73.7466 46.7489 71.9911 48.5987 69.4817C50.4501 66.9699 52.1275 63.6896 53.4673 59.7732L53.6927 59.1145L53.0998 59.4794L42.4331 66.0435L42.3141 66.1167V66.2564V74.359ZM60.9808 42.4615V42.7369L61.2549 42.7104L64.2261 42.4228L66.6825 51.1674L63.1517 53.3251L62.3935 53.7885H63.2821H72.1026H72.268L72.3326 53.6362C74.09 49.5013 75.0192 44.8525 75.0192 40.1026C75.0192 35.3526 74.09 30.7038 72.3326 26.5689L72.268 26.4167H72.1026H60H59.6965L59.7546 26.7145C60.5717 30.9022 60.9808 35.3989 60.9808 40.1026V40.1074V40.1122V40.117V40.1218V40.1266V40.1314V40.1362V40.141V40.1457V40.1505V40.1553V40.1601V40.1649V40.1696V40.1744V40.1792V40.184V40.1887V40.1935V40.1983V40.203V40.2078V40.2125V40.2173V40.222V40.2268V40.2315V40.2363V40.241V40.2458V40.2505V40.2553V40.26V40.2647V40.2695V40.2742V40.2789V40.2836V40.2884V40.2931V40.2978V40.3025V40.3072V40.312V40.3167V40.3214V40.3261V40.3308V40.3355V40.3402V40.3449V40.3496V40.3543V40.359V40.3637V40.3684V40.3731V40.3778V40.3824V40.3871V40.3918V40.3965V40.4012V40.4058V40.4105V40.4152V40.4199V40.4245V40.4292V40.4339V40.4385V40.4432V40.4479V40.4525V40.4572V40.4618V40.4665V40.4711V40.4758V40.4804V40.4851V40.4897V40.4944V40.499V40.5037V40.5083V40.513V40.5176V40.5222V40.5269V40.5315V40.5361V40.5408V40.5454V40.55V40.5546V40.5593V40.5639V40.5685V40.5731V40.5777V40.5824V40.587V40.5916V40.5962V40.6008V40.6054V40.61V40.6146V40.6192V40.6238V40.6285V40.6331V40.6377V40.6423V40.6469V40.6514V40.656V40.6606V40.6652V40.6698V40.6744V40.679V40.6836V40.6882V40.6928V40.6973V40.7019V40.7065V40.7111V40.7157V40.7202V40.7248V40.7294V40.734V40.7385V40.7431V40.7477V40.7523V40.7568V40.7614V40.766V40.7705V40.7751V40.7797V40.7842V40.7888V40.7934V40.7979V40.8025V40.807V40.8116V40.8161V40.8207V40.8252V40.8298V40.8344V40.8389V40.8435V40.848V40.8526V40.8571V40.8617V40.8662V40.8707V40.8753V40.8798V40.8844V40.8889V40.8935V40.898V40.9025V40.9071V40.9116V40.9162V40.9207V40.9252V40.9298V40.9343V40.9388V40.9434V40.9479V40.9524V40.957V40.9615V40.966V40.9706V40.9751V40.9796V40.9841V40.9887V40.9932V40.9977V41.0022V41.0068V41.0113V41.0158V41.0203V41.0249V41.0294V41.0339V41.0384V41.0429V41.0475V41.052V41.0565V41.061V41.0655V41.0701V41.0746V41.0791V41.0836V41.0881V41.0926V41.0972V41.1017V41.1062V41.1107V41.1152V41.1197V41.1242V41.1287V41.1333V41.1378V41.1423V41.1468V41.1513V41.1558V41.1603V41.1648V41.1693V41.1739V41.1784V41.1829V41.1874V41.1919V41.1964V41.2009V41.2054V41.2099V41.2144V41.2189V41.2235V41.228V41.2325V41.237V41.2415V41.246V41.2505V41.255V41.2595V41.264V41.2685V41.273V41.2775V41.2821V41.2866V41.2911V41.2956V41.3001V41.3046V41.3091V41.3136V41.3181V41.3226V41.3271V41.3316V41.3361V41.3407V41.3452V41.3497V41.3542V41.3587V41.3632V41.3677V41.3722V41.3767V41.3812V41.3857V41.3902V41.3948V41.3993V41.4038V41.4083V41.4128V41.4173V41.4218V41.4263V41.4308V41.4354V41.4399V41.4444V41.4489V41.4534V41.4579V41.4624V41.467V41.4715V41.476V41.4805V41.485V41.4895V41.4941V41.4986V41.5031V41.5076V41.5121V41.5166V41.5212V41.5257V41.5302V41.5347V41.5392V41.5438V41.5483V41.5528V41.5573V41.5619V41.5664V41.5709V41.5754V41.58V41.5845V41.589V41.5936V41.5981V41.6026V41.6071V41.6117V41.6162V41.6207V41.6253V41.6298V41.6343V41.6389V41.6434V41.6479V41.6525V41.657V41.6616V41.6661V41.6706V41.6752V41.6797V41.6843V41.6888V41.6934V41.6979V41.7025V41.707V41.7116V41.7161V41.7206V41.7252V41.7298V41.7343V41.7389V41.7434V41.748V41.7525V41.7571V41.7616V41.7662V41.7708V41.7753V41.7799V41.7844V41.789V41.7936V41.7981V41.8027V41.8073V41.8118V41.8164V41.821V41.8256V41.8301V41.8347V41.8393V41.8439V41.8484V41.853V41.8576V41.8622V41.8668V41.8713V41.8759V41.8805V41.8851V41.8897V41.8943V41.8989V41.9035V41.9081V41.9127V41.9173V41.9219V41.9265V41.9311V41.9357V41.9403V41.9449V41.9495V41.9541V41.9587V41.9633V41.9679V41.9725V41.9771V41.9817V41.9864V41.991V41.9956V42.0002V42.0048V42.0095V42.0141V42.0187V42.0233V42.028V42.0326V42.0372V42.0419V42.0465V42.0512V42.0558V42.0604V42.0651V42.0697V42.0744V42.079V42.0837V42.0883V42.093V42.0976V42.1023V42.1069V42.1116V42.1162V42.1209V42.1256V42.1302V42.1349V42.1396V42.1442V42.1489V42.1536V42.1583V42.1629V42.1676V42.1723V42.177V42.1817V42.1863V42.191V42.1957V42.2004V42.2051V42.2098V42.2145V42.2192V42.2239V42.2286V42.2333V42.238V42.2427V42.2474V42.2521V42.2569V42.2616V42.2663V42.271V42.2757V42.2805V42.2852V42.2899V42.2946V42.2994V42.3041V42.3088V42.3136V42.3183V42.3231V42.3278V42.3326V42.3373V42.3421V42.3468V42.3516V42.3563V42.3611V42.3658V42.3706V42.3754V42.3801V42.3849V42.3897V42.3945V42.3992V42.404V42.4088V42.4136V42.4184V42.4232V42.4279V42.4327V42.4375V42.4423V42.4471V42.4519V42.4567V42.4615ZM69.5385 21.6859H69.9973L69.7485 21.3004C65.619 14.8996 59.6287 9.83715 52.3947 7.15026L51.5973 6.85406L52.1077 7.53462C54.855 11.1976 57.099 15.8858 58.6306 21.5017L58.6809 21.6859H58.8718H69.5385ZM27.8903 7.53732L28.4232 6.84645L27.6053 7.15026C20.3713 9.83715 14.381 14.8996 10.2515 21.3004L10.0027 21.6859H10.4615H21.1282H21.3192L21.3694 21.5017C22.9016 15.8837 25.1457 11.095 27.8903 7.53732ZM7.79487 26.3141H7.62948L7.56479 26.4663C5.80745 30.6012 4.87821 35.25 4.87821 40C4.87821 44.75 5.80745 49.3988 7.56479 53.5337L7.62948 53.6859H7.79487H19.8974H20.1806L20.1455 53.4049C20.0933 52.9871 20.0152 52.5706 19.9387 52.1629L19.938 52.1591C19.8609 51.7475 19.7854 51.3448 19.7353 50.9434L19.7079 50.7244H19.4872H18.2876C17.508 49.5557 16.9855 48.7844 16.4634 48.0136L16.4632 48.0133C15.9411 47.2427 15.4194 46.4725 14.6405 45.3049L19.1033 34.3507L19.1181 34.3145L19.1211 34.2756C19.3257 31.6153 19.6323 29.0626 20.1422 26.6151L20.2049 26.3141H19.8974H7.79487ZM10.4615 58.3141H10.0027L10.2515 58.6996C14.3808 65.1001 20.3708 70.1624 27.5016 72.8493L28.3047 73.1519L27.7897 72.4654C25.0425 68.8024 22.7984 64.1142 21.2668 58.4983L21.2166 58.3141H21.0256H10.4615ZM52.1097 72.4627L51.5639 73.1702L52.3977 72.8486C59.6272 70.0601 65.6187 65.102 69.6475 58.6972L69.8885 58.3141H69.4359H58.8718H58.6809L58.6306 58.4983C57.0984 64.1163 54.8543 68.905 52.1097 72.4627ZM0.25 40C0.25 18.0868 18.0868 0.25 40 0.25C61.9132 0.25 79.75 18.0868 79.75 40C79.75 61.9132 61.9132 79.75 40 79.75C18.0868 79.75 0.25 61.9132 0.25 40Z" fill="#EBC03F" stroke="#F3EFE5" stroke-width="0.5"/>
</svg>
