<svg width="80" height="77" viewBox="0 0 80 77" fill="none" xmlns="http://www.w3.org/2000/svg">
<path d="M39.645 73.8614L39.6436 73.8617C30.7703 75.5125 23.4472 76.028 17.5708 76.028C7.0943 76.028 1.54824 74.277 0.32702 73.8544L1.16302 71.718L2.00805 69.5585C2.10121 69.5882 2.22321 69.6264 2.37412 69.6713C2.75712 69.7854 3.32504 69.9426 4.08148 70.1167C5.59434 70.4648 7.86012 70.88 10.9078 71.1524C17.0034 71.6971 26.2247 71.67 38.8037 69.3923L38.8038 69.3923C63.9282 64.833 77.6308 68.6671 79.5743 69.2995L77.9827 73.6996C77.8771 73.6691 77.7348 73.6288 77.5561 73.5806C77.1339 73.4669 76.5097 73.3099 75.6852 73.1361C74.0364 72.7885 71.5875 72.3735 68.3534 72.1013C61.8848 71.5568 52.2764 71.5836 39.645 73.8614Z" fill="#EBC03F" stroke="#F3EFE5" stroke-width="0.5"/>
<path d="M39.7487 63.2156L39.7473 63.2159C30.8739 64.8667 23.5508 65.3822 17.7779 65.3822C7.38242 65.3822 1.76096 63.6272 0.532609 63.2072L2.20987 58.8277C2.30493 58.8617 2.42731 58.9032 2.57707 58.9506C2.96195 59.0724 3.531 59.2343 4.28777 59.4109C5.80147 59.7641 8.06769 60.1762 11.1154 60.442C17.211 60.9738 26.4322 60.9207 39.0107 58.6431L39.011 58.6431C64.0477 54.0821 77.659 58.0116 79.6766 58.6575L78.0847 63.0587C77.9739 63.0279 77.8217 62.9856 77.6291 62.9345C77.2004 62.821 76.572 62.6641 75.7452 62.4903C74.0916 62.1427 71.6461 61.7277 68.4183 61.4555C61.9626 60.911 52.3801 60.9378 39.7487 63.2156Z" fill="#EBC03F" stroke="#F3EFE5" stroke-width="0.5"/>
<path d="M46.4678 10.5356L46.4678 10.5377C46.3689 15.6806 43.0815 19.3882 42.0658 20.4216H38.3439C35.2216 17.3728 33.5312 13.944 33.5312 10.2324C33.5312 5.54978 36.078 1.83346 37.427 0.25H42.2679C45.1767 3.39314 46.5683 6.9199 46.4678 10.5356ZM39.8949 15.1255L40.117 15.4588L40.3188 15.1128C41.0503 13.8589 41.7999 12.2622 41.7999 10.3358C41.7999 8.52722 41.2672 6.72091 40.1022 5.02626L39.8702 4.68882L39.676 5.04936C38.9441 6.40873 38.1991 8.20881 38.1991 10.2324C38.1991 11.9521 38.8448 13.5505 39.8949 15.1255Z" fill="#EBC03F" stroke="#F3EFE5" stroke-width="0.5"/>
<path d="M37.6653 41.4465V41.1965H37.4153H37.1146C31.6415 40.7854 27.2898 38.7664 24.3183 35.5156C21.3451 32.2628 19.7332 27.754 19.7844 22.3276H19.7844V22.3253V22.1273L24.3841 18.0275H24.4864C31.4428 18.5414 36.6278 21.6062 39.4721 26.5836L39.4764 26.5911L39.4811 26.5983L39.6879 26.9083L39.8959 27.2204L40.1039 26.9083L40.3106 26.5983L40.3165 26.5895L40.3216 26.5802C43.0615 21.6078 48.3461 18.5416 55.3054 18.0275H55.4077L60.0074 22.1273V22.3253H60.0073L60.0075 22.3323C60.161 27.8088 58.5748 32.342 55.6148 35.6068C52.6564 38.8699 48.3051 40.8887 42.8838 41.2998H42.5832H42.3332V41.5498V52.9141L40.6816 53.1894L38.8413 53.4961C38.4129 53.4983 38.0473 53.5679 37.6653 53.6464V41.4465ZM55.4428 22.8421V22.568L55.1699 22.5931C51.1957 22.9592 48.0569 24.3743 45.9253 26.7177C43.7934 29.0615 42.6943 32.306 42.7466 36.2819L42.7502 36.5527L43.0198 36.5275C46.9433 36.1613 50.0557 34.7456 52.1866 32.4029C54.3175 30.0603 55.4428 26.8171 55.4428 22.8421ZM37.082 36.5275L37.3552 36.553V36.2786C37.3552 32.3035 36.2299 29.0604 34.099 26.7177C31.968 24.375 28.8556 22.9593 24.9322 22.5932L24.659 22.5677V22.8421C24.659 26.8171 25.7843 30.0603 27.9152 32.4029C30.0462 34.7456 33.1586 36.1613 37.082 36.5275Z" fill="#EBC03F" stroke="#F3EFE5" stroke-width="0.5"/>
</svg>
