<svg width="80" height="77" viewBox="0 0 80 77" fill="none" xmlns="http://www.w3.org/2000/svg">
<path d="M69.5 59.0667V59.5667H70H75.5V65.2333H4.5V59.5667H10H10.5V59.0667V31.0667V30.5667H10H5.16667V19.365L40 0.568153L74.8333 19.365V30.5667H70H69.5V31.0667V59.0667ZM63.3333 59.5667H63.8333V59.0667V31.0667V30.5667H63.3333H43.3333H42.8333V31.0667V59.0667V59.5667H43.3333H63.3333ZM11.0943 22.6275L10.8333 22.7695V23.0667V24.4V24.9H11.3333H68.6667H69.1667V24.4V23.0667V22.7695L68.9057 22.6275L40.239 7.02748L40 6.89742L39.761 7.02748L11.0943 22.6275ZM16.6667 30.5667H16.1667V31.0667V59.0667V59.5667H16.6667H36.6667H37.1667V59.0667V31.0667V30.5667H36.6667H16.6667Z" fill="#EBC03F" stroke="#F3EFE5"/>
<path d="M0.5 75.9002V70.2335H79.5V75.9002H0.5Z" fill="#EBC03F" stroke="#F3EFE5"/>
<path d="M23.833 55.2333V34.9H29.4997V55.2333H23.833Z" fill="#EBC03F" stroke="#F3EFE5"/>
<path d="M50.5 55.2333V34.9H56.1667V55.2333H50.5Z" fill="#EBC03F" stroke="#F3EFE5"/>
</svg>
